<svg width="24" height="24" viewBox="0 0 24 24" fill="none" xmlns="http://www.w3.org/2000/svg">
<path fill-rule="evenodd" clip-rule="evenodd" d="M3.02344 5.53164C3.02344 5.0622 3.404 4.68164 3.87344 4.68164H20.1234C20.5929 4.68164 20.9734 5.0622 20.9734 5.53164V15.7504C20.9734 16.2198 20.5929 16.6004 20.1234 16.6004H16.4984V15.4004H19.7734V5.88164H4.22344V15.4004H7.49844V16.6004H3.87344C3.404 16.6004 3.02344 16.2198 3.02344 15.7504V5.53164ZM11.9984 14.3633L9.49455 18.1191H14.5023L11.9984 14.3633ZM11.3107 13.2316C11.6379 12.7408 12.359 12.7408 12.6862 13.2316L15.8878 18.0341C16.254 18.5834 15.8603 19.3191 15.2001 19.3191H8.79677C8.1366 19.3191 7.74283 18.5834 8.10903 18.0341L11.3107 13.2316Z" fill="black"/>
</svg>
