<svg width="24" height="24" viewBox="0 0 24 24" fill="none" xmlns="http://www.w3.org/2000/svg">
<path fill-rule="evenodd" clip-rule="evenodd" d="M13.2771 4.00701C12.8254 3.2038 11.6737 3.19041 11.2033 3.98289L2.77112 18.1908C2.29731 18.9892 2.87269 19.9997 3.80105 19.9997L20.2246 19.9997C21.1406 19.9997 21.7175 19.0133 21.2685 18.2149L13.2771 4.00701ZM3.80517 18.7997L12.2332 4.59883L20.2206 18.7997L3.80517 18.7997ZM11.6465 7.99971V14.3974H12.8465V7.99971H11.6465ZM13.0465 16.7974C13.0465 16.3556 12.6884 15.9974 12.2465 15.9974C11.8047 15.9974 11.4465 16.3556 11.4465 16.7974C11.4465 17.2392 11.8047 17.5974 12.2465 17.5974C12.6884 17.5974 13.0465 17.2392 13.0465 16.7974Z" fill="black"/>
</svg>
