<svg width="24" height="24" viewBox="0 0 24 24" fill="none" xmlns="http://www.w3.org/2000/svg">
<path fill-rule="evenodd" clip-rule="evenodd" d="M12.7985 2.05665V3.26101C17.2698 3.66514 20.7734 7.42343 20.7734 12C20.7734 16.5766 17.2698 20.3349 12.7985 20.739V21.9434C17.9334 21.5359 21.9734 17.2398 21.9734 12C21.9734 6.7603 17.9334 2.46416 12.7985 2.05665ZM3.22344 12C3.22344 16.5767 6.72709 20.335 11.1985 20.7391V21.9434C6.06348 21.536 2.02344 17.2398 2.02344 12C2.02344 6.76027 6.06348 2.46411 11.1985 2.05664V3.261C6.72709 3.66508 3.22344 7.4234 3.22344 12ZM11.3984 6.10001V14.1H12.5984V6.10001H11.3984ZM12.7985 17.0999C12.7985 16.6581 12.4403 16.2999 11.9985 16.2999C11.5567 16.2999 11.1985 16.6581 11.1985 17.0999C11.1985 17.5417 11.5567 17.8999 11.9985 17.8999C12.4403 17.8999 12.7985 17.5417 12.7985 17.0999Z" fill="black"/>
</svg>
