<svg width="24" height="24" viewBox="0 0 24 24" fill="none" xmlns="http://www.w3.org/2000/svg">
<path fill-rule="evenodd" clip-rule="evenodd" d="M11.3983 2.09184C10.0429 2.36945 9.02344 3.56881 9.02344 5.00629C9.02344 6.44377 10.0429 7.64312 11.3983 7.92074V6.67728C10.7133 6.43125 10.2234 5.77598 10.2234 5.00629C10.2234 4.23659 10.7133 3.58133 11.3983 3.33529V2.09184ZM12.5983 6.67735C13.2834 6.43137 13.7734 5.77605 13.7734 5.00629C13.7734 4.23652 13.2834 3.5812 12.5983 3.33522V2.0918C13.9538 2.36933 14.9734 3.56874 14.9734 5.00629C14.9734 6.4438 13.9539 7.64318 12.5984 7.92076V20.6873C16.9666 20.3924 20.4583 16.9007 20.7532 12.5325H18.9984V11.3325H21.3734H21.9734V11.9325C21.9734 17.4416 17.5075 21.9075 11.9984 21.9075C6.4894 21.9075 2.02344 17.4416 2.02344 11.9325V11.3325H2.62344H4.99844V12.5325H3.24363C3.5386 16.9007 7.03025 20.3924 11.3984 20.6873V7.93256H12.5983V6.67735Z" fill="black"/>
</svg>
