<svg width="24" height="24" viewBox="0 0 24 24" fill="none" xmlns="http://www.w3.org/2000/svg">
<path fill-rule="evenodd" clip-rule="evenodd" d="M3.64844 4.29922C3.64844 3.82978 4.029 3.44922 4.49844 3.44922H10.7484C11.2179 3.44922 11.5984 3.82978 11.5984 4.29922V10.5492C11.5984 11.0187 11.2179 11.3992 10.7484 11.3992H4.49844C4.02899 11.3992 3.64844 11.0187 3.64844 10.5492V4.29922ZM4.84844 4.64922V10.1992H10.3984V4.64922H4.84844ZM12.3984 4.29922C12.3984 3.82978 12.779 3.44922 13.2484 3.44922H19.4984C19.9679 3.44922 20.3484 3.82978 20.3484 4.29922V10.5492C20.3484 11.0187 19.9679 11.3992 19.4984 11.3992H13.2484C12.779 11.3992 12.3984 11.0187 12.3984 10.5492V4.29922ZM13.5984 4.64922V10.1992H19.1484V4.64922H13.5984ZM3.64844 13.4492C3.64844 12.9798 4.029 12.5992 4.49844 12.5992H10.7484C11.2179 12.5992 11.5984 12.9798 11.5984 13.4492V19.6992C11.5984 20.1687 11.2179 20.5492 10.7484 20.5492H4.49844C4.02899 20.5492 3.64844 20.1687 3.64844 19.6992V13.4492ZM4.84844 13.7992V19.3492H10.3984V13.7992H4.84844ZM12.3984 13.4492C12.3984 12.9798 12.779 12.5992 13.2484 12.5992H19.4984C19.9679 12.5992 20.3484 12.9798 20.3484 13.4492V19.6992C20.3484 20.1687 19.9679 20.5492 19.4984 20.5492H13.2484C12.779 20.5492 12.3984 20.1687 12.3984 19.6992V13.4492ZM13.5984 13.7992V19.3492H19.1484V13.7992H13.5984Z" fill="black"/>
</svg>
