<svg width="24" height="24" viewBox="0 0 24 24" fill="none" xmlns="http://www.w3.org/2000/svg">
<path fill-rule="evenodd" clip-rule="evenodd" d="M7.62344 4.64922C6.09085 4.64922 4.84844 5.89163 4.84844 7.42422C4.84844 8.95681 6.09085 10.1992 7.62344 10.1992C9.15603 10.1992 10.3984 8.95681 10.3984 7.42422C10.3984 5.89163 9.15603 4.64922 7.62344 4.64922ZM3.64844 7.42422C3.64844 5.22889 5.42811 3.44922 7.62344 3.44922C9.81877 3.44922 11.5984 5.22889 11.5984 7.42422C11.5984 9.61955 9.81877 11.3992 7.62344 11.3992C5.42811 11.3992 3.64844 9.61955 3.64844 7.42422ZM16.3734 4.64922C14.8408 4.64922 13.5984 5.89163 13.5984 7.42422C13.5984 8.95681 14.8408 10.1992 16.3734 10.1992C17.906 10.1992 19.1484 8.95681 19.1484 7.42422C19.1484 5.89163 17.906 4.64922 16.3734 4.64922ZM12.3984 7.42422C12.3984 5.22889 14.1781 3.44922 16.3734 3.44922C18.5688 3.44922 20.3484 5.22889 20.3484 7.42422C20.3484 9.61955 18.5688 11.3992 16.3734 11.3992C14.1781 11.3992 12.3984 9.61955 12.3984 7.42422ZM7.62344 13.7992C6.09085 13.7992 4.84844 15.0417 4.84844 16.5742C4.84844 18.1068 6.09085 19.3492 7.62344 19.3492C9.15603 19.3492 10.3984 18.1068 10.3984 16.5742C10.3984 15.0417 9.15603 13.7992 7.62344 13.7992ZM3.64844 16.5742C3.64844 14.3789 5.42811 12.5992 7.62344 12.5992C9.81877 12.5992 11.5984 14.3789 11.5984 16.5742C11.5984 18.7696 9.81877 20.5492 7.62344 20.5492C5.42811 20.5492 3.64844 18.7696 3.64844 16.5742ZM16.3734 13.7992C14.8408 13.7992 13.5984 15.0417 13.5984 16.5742C13.5984 18.1068 14.8408 19.3492 16.3734 19.3492C17.906 19.3492 19.1484 18.1068 19.1484 16.5742C19.1484 15.0417 17.906 13.7992 16.3734 13.7992ZM12.3984 16.5742C12.3984 14.3789 14.1781 12.5992 16.3734 12.5992C18.5688 12.5992 20.3484 14.3789 20.3484 16.5742C20.3484 18.7696 18.5688 20.5492 16.3734 20.5492C14.1781 20.5492 12.3984 18.7696 12.3984 16.5742Z" fill="black"/>
</svg>
