<svg width="24" height="24" viewBox="0 0 24 24" fill="none" xmlns="http://www.w3.org/2000/svg">
<path fill-rule="evenodd" clip-rule="evenodd" d="M3.72344 5.10039V8.90039H20.2734V5.10039H3.72344ZM2.52344 4.75039C2.52344 4.28095 2.904 3.90039 3.37344 3.90039H20.6234C21.0929 3.90039 21.4734 4.28095 21.4734 4.75039V9.25039C21.4734 9.71983 21.0929 10.1004 20.6234 10.1004H3.37344C2.904 10.1004 2.52344 9.71983 2.52344 9.25039V4.75039ZM4.72344 18.9004V11.7004H3.52344V19.2504C3.52344 19.7198 3.904 20.1004 4.37344 20.1004H19.6234C20.0929 20.1004 20.4734 19.7198 20.4734 19.2504V11.7004H19.2734V18.9004H4.72344ZM14.9984 13.6004H8.99844V12.4004H14.9984V13.6004Z" fill="black"/>
</svg>
