<svg width="24" height="24" viewBox="0 0 24 24" fill="none" xmlns="http://www.w3.org/2000/svg">
<path fill-rule="evenodd" clip-rule="evenodd" d="M10.3622 5.93047C9.36404 5.93047 8.40672 6.327 7.70088 7.03284C6.99504 7.73868 6.59851 8.696 6.59851 9.6942H5.39851C5.39851 8.37774 5.92147 7.11519 6.85235 6.18431C7.78323 5.25343 9.04578 4.73047 10.3622 4.73047C11.6787 4.73047 12.9413 5.25343 13.8721 6.18431C14.803 7.11519 15.326 8.37774 15.326 9.6942H14.126C14.126 8.696 13.7294 7.73868 13.0236 7.03284C12.3178 6.327 11.3604 5.93047 10.3622 5.93047ZM5.39844 15.3666L5.39844 11.29H6.59844L6.59844 15.3666H5.39844ZM14.126 17.221V11.29H15.326V17.2208L17.5742 14.9726L18.4227 15.8211L15.3269 18.9169C14.995 19.2489 14.4568 19.2489 14.1248 18.9169L11.0286 15.8207L11.8771 14.9722L14.126 17.221Z" fill="black"/>
</svg>
