<svg width="24" height="24" viewBox="0 0 24 24" fill="none" xmlns="http://www.w3.org/2000/svg">
<path fill-rule="evenodd" clip-rule="evenodd" d="M5.0849 8.67197L8.1807 5.57617L9.02923 6.4247L6.78091 8.67302H12.7114V9.87302H6.78092L9.02967 12.1218L8.18114 12.9703L5.0849 9.87406C4.75295 9.54211 4.75295 9.00392 5.0849 8.67197ZM14.3076 8.67296C15.6241 8.67296 16.8866 9.19592 17.8175 10.1268C18.7484 11.0577 19.2714 12.3202 19.2714 13.6367C19.2714 14.9532 18.7484 16.2157 17.8175 17.1466C16.8866 18.0775 15.6241 18.6004 14.3076 18.6004V17.4004C15.3058 17.4004 16.2632 17.0039 16.969 16.2981C17.6748 15.5922 18.0714 14.6349 18.0714 13.6367C18.0714 12.6385 17.6748 11.6812 16.969 10.9753C16.2632 10.2695 15.3058 9.87296 14.3076 9.87296V8.67296ZM8.63524 17.4004H12.7114V18.6004H8.63524V17.4004Z" fill="black"/>
</svg>
