<svg width="24" height="24" viewBox="0 0 24 24" fill="none" xmlns="http://www.w3.org/2000/svg">
<path fill-rule="evenodd" clip-rule="evenodd" d="M14.1248 5.08294C14.4568 4.751 14.995 4.751 15.3269 5.08294L18.4227 8.17875L17.5742 9.02727L15.326 6.77908L15.326 12.7099H14.126L14.126 6.77884L11.8771 9.02772L11.0286 8.17919L14.1248 5.08294ZM6.59844 8.63328L6.59844 12.7099H5.39844L5.39844 8.63328H6.59844ZM6.85235 17.8156C5.92147 16.8847 5.39851 15.6221 5.39851 14.3057H6.59851C6.59851 15.3039 6.99505 16.2612 7.70088 16.967C8.40672 17.6729 9.36404 18.0694 10.3622 18.0694C11.3604 18.0694 12.3178 17.6729 13.0236 16.967C13.7294 16.2612 14.126 15.3039 14.126 14.3057H15.326C15.326 15.6221 14.803 16.8847 13.8721 17.8156C12.9413 18.7465 11.6787 19.2694 10.3622 19.2694C9.04578 19.2694 7.78323 18.7465 6.85235 17.8156Z" fill="black"/>
</svg>
