<svg width="24" height="24" viewBox="0 0 24 24" fill="none" xmlns="http://www.w3.org/2000/svg">
<path fill-rule="evenodd" clip-rule="evenodd" d="M12.7985 3.26101V2.05665C17.9334 2.46416 21.9734 6.7603 21.9734 12C21.9734 17.2398 17.9334 21.5359 12.7985 21.9434V20.739C17.2698 20.3349 20.7734 16.5766 20.7734 12C20.7734 7.42343 17.2698 3.66514 12.7985 3.26101ZM11.1985 20.7391C6.72709 20.335 3.22344 16.5767 3.22344 12C3.22344 7.4234 6.72709 3.66508 11.1985 3.261V2.05664C6.06348 2.46411 2.02344 6.76027 2.02344 12C2.02344 17.2398 6.06348 21.536 11.1985 21.9434V20.7391ZM14.5496 11.3997L11.8179 8.66789L12.6664 7.81936L16.2459 11.3989C16.5779 11.7308 16.5779 12.269 16.2459 12.601L12.6659 16.181L11.8173 15.3325L14.5502 12.5997L7.99802 12.6002L7.99793 11.4002L14.5496 11.3997Z" fill="black"/>
</svg>
