<svg width="24" height="24" viewBox="0 0 24 24" fill="none" xmlns="http://www.w3.org/2000/svg">
<path fill-rule="evenodd" clip-rule="evenodd" d="M17.2209 8.67302L14.9726 6.4247L15.8211 5.57617L18.9169 8.67197C19.2489 9.00392 19.2489 9.54211 18.9169 9.87406L15.8207 12.9703L14.9722 12.1218L17.2209 9.87302H11.2894V8.67302H17.2209ZM9.6942 9.87296C8.696 9.87296 7.73868 10.2695 7.03284 10.9753C6.327 11.6812 5.93047 12.6385 5.93047 13.6367C5.93047 14.6349 6.327 15.5922 7.03284 16.2981C7.73868 17.0039 8.696 17.4004 9.6942 17.4004V18.6004C8.37774 18.6004 7.11519 18.0775 6.18431 17.1466C5.25343 16.2157 4.73047 14.9532 4.73047 13.6367C4.73047 12.3202 5.25343 11.0577 6.18431 10.1268C7.11519 9.19592 8.37774 8.67296 9.6942 8.67296V9.87296ZM15.3666 18.6004H11.2894V17.4004H15.3666V18.6004Z" fill="black"/>
</svg>
