<svg width="24" height="24" viewBox="0 0 24 24" fill="none" xmlns="http://www.w3.org/2000/svg">
<path fill-rule="evenodd" clip-rule="evenodd" d="M4.39844 4.25039C4.39844 3.78095 4.77899 3.40039 5.24844 3.40039H18.7484C19.2179 3.40039 19.5984 3.78095 19.5984 4.25039V19.7504C19.5984 20.2198 19.2179 20.6004 18.7484 20.6004H5.24844C4.779 20.6004 4.39844 20.2198 4.39844 19.7504V4.25039ZM5.59844 4.60039V19.4004H18.3984V4.60039H5.59844ZM10.098 8.10039C9.60099 8.10039 9.19805 8.50333 9.19805 9.00039C9.19805 9.49745 9.60099 9.90039 10.098 9.90039C10.5951 9.90039 10.998 9.49745 10.998 9.00039C10.998 8.50333 10.5951 8.10039 10.098 8.10039ZM7.99805 9.00039C7.99805 7.84059 8.93825 6.90039 10.098 6.90039C11.2578 6.90039 12.198 7.84059 12.198 9.00039C12.198 10.1602 11.2578 11.1004 10.098 11.1004C8.93825 11.1004 7.99805 10.1602 7.99805 9.00039ZM15.9984 14.1004H7.99844V12.9004H15.9984V14.1004ZM15.9984 17.1004H7.99844V15.9004H15.9984V17.1004Z" fill="black"/>
</svg>
