<svg width="24" height="24" viewBox="0 0 24 24" fill="none" xmlns="http://www.w3.org/2000/svg">
<path fill-rule="evenodd" clip-rule="evenodd" d="M12.7985 3.26101V2.05665C17.9334 2.46416 21.9734 6.7603 21.9734 12C21.9734 17.2398 17.9334 21.5359 12.7985 21.9434V20.739C15.1588 20.5257 17.2494 19.3778 18.6974 17.6682C17.2931 17.2624 16.1771 16.1623 15.6797 14.7588C14.8405 15.8768 13.504 16.6 11.9984 16.6C9.45793 16.6 7.39844 14.5405 7.39844 12C7.39844 9.45952 9.45793 7.40003 11.9984 7.40003C14.5389 7.40003 16.5984 9.45952 16.5984 12V13.1142C16.5984 14.9312 17.8717 16.3834 19.468 16.6074C20.2957 15.2683 20.7734 13.69 20.7734 12C20.7734 7.42343 17.2698 3.66514 12.7985 3.26101ZM11.1985 20.7391C6.72709 20.335 3.22344 16.5767 3.22344 12C3.22344 7.4234 6.72709 3.66508 11.1985 3.261V2.05664C6.06348 2.46411 2.02344 6.76027 2.02344 12C2.02344 17.2398 6.06348 21.536 11.1985 21.9434V20.7391ZM15.3984 12C15.3984 10.1223 13.8762 8.60003 11.9984 8.60003C10.1207 8.60003 8.59844 10.1223 8.59844 12C8.59844 13.8778 10.1207 15.4 11.9984 15.4C13.8762 15.4 15.3984 13.8778 15.3984 12Z" fill="black"/>
</svg>
