<svg width="24" height="24" viewBox="0 0 24 24" fill="none" xmlns="http://www.w3.org/2000/svg">
<path fill-rule="evenodd" clip-rule="evenodd" d="M13.8986 3.68043C14.5614 3.40587 15.2908 3.33403 15.9945 3.474C16.6982 3.61397 17.3446 3.95947 17.8519 4.4668C18.3593 4.97413 18.7047 5.62051 18.8447 6.3242C18.9847 7.02789 18.9129 7.75728 18.6383 8.42014C18.4551 8.8624 18.1872 9.26178 17.8519 9.59701L17.0034 8.74849C17.2277 8.52414 17.407 8.25687 17.5296 7.96092C17.7134 7.51733 17.7614 7.02922 17.6678 6.55831C17.5741 6.0874 17.3429 5.65484 17.0034 5.31533C16.6639 4.97582 16.2313 4.74461 15.7604 4.65094C15.2895 4.55727 14.8014 4.60535 14.3578 4.78909C14.0619 4.91168 13.7946 5.09098 13.5702 5.31533L12.7217 4.4668C13.0569 4.13157 13.4563 3.86362 13.8986 3.68043ZM6.69794 10.4904L11.5911 5.59729L12.4396 6.44582L7.54647 11.339L6.69794 10.4904ZM13.7324 7.73865L14.581 8.58718L8.55461 14.6135C8.47016 14.698 8.40267 14.7986 8.35652 14.91C8.28736 15.077 8.26926 15.2607 8.30452 15.438C8.33978 15.6152 8.42681 15.7781 8.55461 15.9059C8.68241 16.0337 8.84523 16.1207 9.02249 16.1559C9.19976 16.1912 9.38349 16.1731 9.55047 16.1039C9.65395 16.0611 9.74813 15.9998 9.82869 15.9236L15.8731 9.87921L16.7216 10.7277L10.6952 16.7541C10.6861 16.7633 10.6771 16.7726 10.6678 16.7815L10.5706 16.8788L10.5656 16.8738C10.3998 17.014 10.2125 17.1286 10.0097 17.2126C9.62344 17.3726 9.19842 17.4145 8.78838 17.3329C8.37835 17.2513 8.0017 17.05 7.70608 16.7544C7.41046 16.4588 7.20914 16.0821 7.12758 15.6721C7.04602 15.262 7.08788 14.837 7.24787 14.4508C7.33187 14.248 7.44647 14.0606 7.58669 13.8948L7.58149 13.8896L13.7324 7.73865ZM6.41301 12.4725C6.04877 12.8367 5.75765 13.2707 5.55862 13.7512C5.2603 14.4714 5.18225 15.2639 5.33433 16.0284C5.48641 16.793 5.86179 17.4953 6.41301 18.0465C6.96423 18.5977 7.66652 18.9731 8.43108 19.1252C9.19564 19.2773 9.98813 19.1992 10.7083 18.9009C11.1888 18.7019 11.6228 18.4107 11.987 18.0465L12.8355 18.895C12.3604 19.3702 11.7944 19.7499 11.1675 20.0095C10.2281 20.3987 9.19431 20.5005 8.19697 20.3021C7.19963 20.1037 6.28352 19.6141 5.56448 18.895C4.84544 18.176 4.35577 17.2599 4.15739 16.2625C3.959 15.2652 4.06082 14.2314 4.44996 13.292C4.7096 12.6651 5.08936 12.0991 5.56448 11.624L6.41301 12.4725ZM13.1205 16.9131L18.0137 12.0199L18.8622 12.8684L13.969 17.7616L13.1205 16.9131Z" fill="black"/>
</svg>
