<svg width="24" height="24" viewBox="0 0 24 24" fill="none" xmlns="http://www.w3.org/2000/svg">
<path fill-rule="evenodd" clip-rule="evenodd" d="M11.1986 3.0508C8.17949 3.44295 5.84766 6.0243 5.84766 9.15027C5.84766 10.8733 6.55594 12.4306 7.69727 13.5471V20.0992C7.69727 20.7997 8.49691 21.1995 9.05727 20.7792L11.998 18.5737L14.9386 20.7792C15.499 21.1995 16.2986 20.7997 16.2986 20.0992V13.5486C17.4408 12.4319 18.1497 10.874 18.1497 9.15027C18.1497 6.02424 15.8178 3.44287 12.7986 3.05078V4.26353C15.1526 4.64592 16.9497 6.68823 16.9497 9.15027C16.9497 11.612 15.1524 13.6551 12.7986 14.0371V15.2497C12.8288 15.2458 12.8589 15.2416 12.889 15.2373C13.6851 15.1217 14.4319 14.8538 15.0986 14.464V19.3992L12.508 17.4562C12.2057 17.2296 11.7902 17.2296 11.488 17.4562L8.89727 19.3992V14.4632C9.56441 14.8534 10.3117 15.1216 11.1084 15.2373C11.1384 15.2416 11.1685 15.2457 11.1986 15.2497V14.0371C8.84485 13.655 7.04766 11.612 7.04766 9.15027C7.04766 6.68828 8.84467 4.64601 11.1986 4.26355V3.0508Z" fill="black"/>
</svg>
