<svg width="24" height="24" viewBox="0 0 24 24" fill="none" xmlns="http://www.w3.org/2000/svg">
<path fill-rule="evenodd" clip-rule="evenodd" d="M2.39844 7.75039C2.39844 7.28095 2.779 6.90039 3.24844 6.90039H16.7484C17.2179 6.90039 17.5984 7.28095 17.5984 7.75039V16.2504C17.5984 16.7198 17.2179 17.1004 16.7484 17.1004H3.24844C2.77899 17.1004 2.39844 16.7198 2.39844 16.2504V7.75039ZM3.59844 8.10039V15.9004H16.3984V8.10039H3.59844ZM20.3984 10.6004H19.198V9.40039H20.7484C21.2179 9.40039 21.5984 9.78095 21.5984 10.2504V13.7504C21.5984 14.2198 21.2179 14.6004 20.7484 14.6004H19.198V13.4004H20.3984V10.6004Z" fill="black"/>
</svg>
