<svg width="24" height="24" viewBox="0 0 24 24" fill="none" xmlns="http://www.w3.org/2000/svg">
<path fill-rule="evenodd" clip-rule="evenodd" d="M9.77318 7.18501C10.1805 6.61871 11.0746 6.90685 11.0746 7.60442V10.5696C11.0746 10.6724 11.1128 10.7606 11.1726 10.8212C11.237 10.8864 11.3228 10.9217 11.4107 10.9217C11.4108 10.9217 11.4107 10.9217 11.4107 10.9217L13.0604 10.9216C13.6457 10.9216 13.9853 11.5841 13.6436 12.0592L10.2273 16.8102C9.82001 17.3766 8.92584 17.0885 8.92584 16.3909V13.4258C8.92584 13.3245 8.88777 13.2358 8.8269 13.1742C8.76229 13.1088 8.67696 13.0738 8.58929 13.0738H6.93908C6.35377 13.0738 6.0142 12.4112 6.35596 11.9361L9.77318 7.18501ZM9.87458 9.09916L7.87893 11.8738H8.58929C9.00049 11.8738 9.39247 12.0392 9.6806 12.3309C9.97249 12.6264 10.1258 13.022 10.1258 13.4258V14.8959L12.1207 12.1217L11.4108 12.1217C10.9998 12.1217 10.6072 11.9564 10.3189 11.6645C10.026 11.368 9.87458 10.9718 9.87458 10.5696V9.09916ZM10.747 7.88618C10.7471 7.88602 10.7469 7.88633 10.747 7.88618ZM3.59844 8.09962H7.16844V6.89962H3.24844C2.779 6.89962 2.39844 7.28017 2.39844 7.74962V16.2496C2.39844 16.7191 2.77899 17.0996 3.24844 17.0996H7.32844V15.8996H3.59844V8.09962ZM16.3984 8.09962H12.6784V6.89962H16.7484C17.2179 6.89962 17.5984 7.28017 17.5984 7.74962V16.2496C17.5984 16.7191 17.2179 17.0996 16.7484 17.0996H12.1984V15.8996H16.3984V8.09962ZM20.398 10.5996H19.1977V9.39962H20.748C21.2175 9.39962 21.598 9.78017 21.598 10.2496V13.7496C21.598 14.2191 21.2175 14.5996 20.748 14.5996H19.1977V13.3996H20.398V10.5996Z" fill="black"/>
</svg>
