<svg width="24" height="24" viewBox="0 0 24 24" fill="none" xmlns="http://www.w3.org/2000/svg">
<path fill-rule="evenodd" clip-rule="evenodd" d="M2.54688 5.65039H3.74688V13.9631H11.8477V7.23116H17.0084V8.43116H13.0477V13.9631H20.25V11.6705H21.45V18.3507H20.25V15.1631H3.74688V18.3507H2.54688V5.65039ZM7.78831 8.43105C6.88037 8.43105 6.14434 9.16709 6.14434 10.075C6.14434 10.983 6.88037 11.719 7.78831 11.719C8.69625 11.719 9.43228 10.983 9.43228 10.075C9.43228 9.16709 8.69625 8.43105 7.78831 8.43105ZM4.94434 10.075C4.94434 8.50434 6.21763 7.23105 7.78831 7.23105C9.35899 7.23105 10.6323 8.50434 10.6323 10.075C10.6323 11.6457 9.35899 12.919 7.78831 12.919C6.21763 12.919 4.94434 11.6457 4.94434 10.075ZM20.2498 10.075C20.2498 9.16709 19.5138 8.43105 18.6059 8.43105V7.23105C20.1765 7.23105 21.4498 8.50434 21.4498 10.075H20.2498Z" fill="black"/>
</svg>
