<svg width="24" height="24" viewBox="0 0 24 24" fill="none" xmlns="http://www.w3.org/2000/svg">
<path fill-rule="evenodd" clip-rule="evenodd" d="M6.04364 9.15603C5.62351 10.0359 5.39946 11.0064 5.39946 12H6.59946C6.59946 11.3335 6.7227 10.6796 6.95655 10.0689L6.04364 9.15603ZM16.5504 17.4H16.5508L7.78041 8.62959C7.78034 8.62968 7.78027 8.62976 7.78021 8.62985L6.92735 7.77699C6.92742 7.77691 6.92749 7.77683 6.92756 7.77675L3.08984 3.93903L3.93814 3.09073L20.9084 20.061L20.0601 20.9093L17.7508 18.6H17.7504L16.5504 17.4ZM14.2876 17.4L6.19036 17.4C6.45543 16.9852 6.59946 16.5 6.59946 16L6.59946 13.6H5.39946L5.39946 16C5.39946 16.3713 5.25196 16.7274 4.98941 16.99C4.72686 17.2525 4.37076 17.4 3.99946 17.4V18.6L15.4876 18.6L14.2876 17.4ZM18.5995 15.4893V13.6H17.3995V14.2893L18.5995 15.4893ZM10.0676 6.95742C10.6785 6.72337 11.3326 6.60002 11.9995 6.60002C13.4316 6.60002 14.8051 7.16895 15.8178 8.18165C16.8305 9.19434 17.3995 10.5679 17.3995 12H18.5995C18.5995 10.2496 17.9041 8.57086 16.6664 7.33312C15.4286 6.09538 13.7499 5.40002 11.9995 5.40002C11.0056 5.40002 10.0348 5.6242 9.15472 6.04456L10.0676 6.95742ZM11.9995 2C11.3099 2 10.6486 2.27393 10.161 2.76152C9.67339 3.24912 9.39946 3.91044 9.39946 4.6H10.5995C10.5995 4.2287 10.747 3.8726 11.0095 3.61005C11.2721 3.3475 11.6282 3.2 11.9995 3.2C12.3708 3.2 12.7269 3.3475 12.9894 3.61005C13.252 3.8726 13.3995 4.2287 13.3995 4.6H14.5995C14.5995 3.91044 14.3255 3.24912 13.8379 2.76152C13.3503 2.27393 12.689 2 11.9995 2ZM13.3995 19.4C13.3995 20.1732 12.7727 20.8 11.9995 20.8C11.2263 20.8 10.5995 20.1732 10.5995 19.4H9.39946C9.39946 20.836 10.5635 22 11.9995 22C13.4354 22 14.5995 20.836 14.5995 19.4H13.3995Z" fill="black"/>
</svg>
