<svg width="24" height="24" viewBox="0 0 24 24" fill="none" xmlns="http://www.w3.org/2000/svg">
<path fill-rule="evenodd" clip-rule="evenodd" d="M11.4389 4.82617L15.4876 4.82794C15.8904 4.82811 16.2378 5.11103 16.3195 5.50549L17.1849 9.68249L17.1855 9.68536L17.5966 11.622L16.4228 11.8712L16.1311 10.4971L5.8163 12.287C5.29652 12.3772 4.82097 11.977 4.82097 11.4495V9.23617H3.44117V8.03617H7.40117V9.23617H6.02097V11.0335L15.8847 9.32188L15.2023 6.02781L11.4383 6.02617L11.4389 4.82617ZM16.2545 16.6242H14.9969C15.3556 18.088 16.6763 19.1742 18.2507 19.1742C19.8252 19.1742 21.1459 18.088 21.5046 16.6242H20.247C19.9296 17.4154 19.1554 17.9742 18.2507 17.9742C17.3461 17.9742 16.5719 17.4154 16.2545 16.6242ZM20.247 15.0242H21.5046C21.146 13.5603 19.8252 12.4741 18.2507 12.4741C16.6763 12.4741 15.3555 13.5603 14.9969 15.0242H16.2545C16.5719 14.2329 17.346 13.6741 18.2507 13.6741C19.1554 13.6741 19.9296 14.2329 20.247 15.0242ZM5.42009 14.3354C4.70227 14.3354 4.08153 14.7512 3.78552 15.355H2.50781C2.85838 14.0756 4.02944 13.1354 5.42009 13.1354C6.81074 13.1354 7.98181 14.0756 8.33237 15.355H7.05467C6.75866 14.7512 6.13792 14.3354 5.42009 14.3354ZM2.50791 16.955H3.78569C4.08177 17.5586 4.7024 17.9742 5.42009 17.9742C6.13778 17.9742 6.75842 17.5586 7.0545 16.955H8.33228C7.9816 18.2342 6.81062 19.1742 5.42009 19.1742C4.02957 19.1742 2.85859 18.2342 2.50791 16.955Z" fill="black"/>
</svg>
