<svg width="24" height="24" viewBox="0 0 24 24" fill="none" xmlns="http://www.w3.org/2000/svg">
<path fill-rule="evenodd" clip-rule="evenodd" d="M11.4799 2.25H14.7299C15.1993 2.25 15.5799 2.63056 15.5799 3.1V4.25H17.3799V5.45H15.5799V8.25H17.1949C17.5686 8.25 17.8984 8.49404 18.0077 8.85137L20.4548 16.8514C20.6219 17.3977 20.2133 17.95 19.642 17.95H3.26813C2.75086 17.95 2.35352 17.4919 2.42667 16.9798L3.35524 10.4798C3.41506 10.061 3.7737 9.75 4.1967 9.75H8.84608C9.13028 9.75 9.39568 9.89204 9.55332 10.1285L11.301 12.75H14.3799V3.45H11.4799V2.25ZM15.5799 9.45V13.1C15.5799 13.5694 15.1993 13.95 14.7299 13.95H11.1137C10.8295 13.95 10.5641 13.808 10.4064 13.5715L8.65877 10.95H4.50025L3.67168 16.75H19.1689L16.936 9.45H15.5799ZM18.9799 4.25C19.6694 4.25 20.3308 4.52393 20.8184 5.01152C21.306 5.49912 21.5799 6.16044 21.5799 6.85C21.5799 7.53956 21.306 8.20088 20.8184 8.68848C20.3308 9.17607 19.6694 9.45 18.9799 9.45V8.25C19.3512 8.25 19.7073 8.1025 19.9698 7.83995C20.2324 7.5774 20.3799 7.2213 20.3799 6.85C20.3799 6.4787 20.2324 6.1226 19.9698 5.86005C19.7073 5.5975 19.3512 5.45 18.9799 5.45V4.25ZM4.82988 19.15C4.82988 19.9232 5.45668 20.55 6.22987 20.55C7.00307 20.55 7.62987 19.9232 7.62987 19.15H8.82987C8.82987 20.5859 7.66581 21.75 6.22987 21.75C4.79393 21.75 3.62988 20.5859 3.62988 19.15H4.82988ZM14.8299 19.15C14.8299 19.9232 15.4567 20.55 16.2299 20.55C17.0031 20.55 17.6299 19.9232 17.6299 19.15H18.8299C18.8299 20.5859 17.6658 21.75 16.2299 21.75C14.7939 21.75 13.6299 20.5859 13.6299 19.15H14.8299Z" fill="black"/>
</svg>
