<svg width="24" height="24" viewBox="0 0 24 24" fill="none" xmlns="http://www.w3.org/2000/svg">
<path fill-rule="evenodd" clip-rule="evenodd" d="M5.89844 3.40039H9.89844V4.60039H7.09844V11.4004H9.89844V12.6004H7.09844V19.4004H11.8984V20.6004H5.89844V3.40039ZM13.9026 5.59623C13.265 4.9586 12.4002 4.60039 11.4984 4.60039V3.40039C12.7184 3.40039 13.8885 3.88503 14.7511 4.7477C15.6138 5.61037 16.0984 6.78039 16.0984 8.00039C16.0984 9.22039 15.6138 10.3904 14.7511 11.2531C14.6629 11.3413 14.5715 11.4255 14.4772 11.5057C15.3319 11.6918 16.123 12.1196 16.7511 12.7477C17.6138 13.6104 18.0984 14.7804 18.0984 16.0004C18.0984 17.2204 17.6138 18.3904 16.7511 19.2531C15.8885 20.1158 14.7184 20.6004 13.4984 20.6004V19.4004C14.4002 19.4004 15.265 19.0422 15.9026 18.4046C16.5402 17.7669 16.8984 16.9021 16.8984 16.0004C16.8984 15.0987 16.5402 14.2339 15.9026 13.5962C15.265 12.9586 14.4002 12.6004 13.4984 12.6004L11.4984 12.6004V11.4004C12.4002 11.4004 13.265 11.0422 13.9026 10.4046C14.5402 9.76693 14.8984 8.90213 14.8984 8.00039C14.8984 7.09865 14.5402 6.23385 13.9026 5.59623Z" fill="black"/>
</svg>
