<svg width="24" height="24" viewBox="0 0 24 24" fill="none" xmlns="http://www.w3.org/2000/svg">
<path fill-rule="evenodd" clip-rule="evenodd" d="M4.39844 4.25039C4.39844 3.78095 4.77899 3.40039 5.24844 3.40039H18.7484C19.2179 3.40039 19.5984 3.78095 19.5984 4.25039V19.7504C19.5984 20.2198 19.2179 20.6004 18.7484 20.6004H8.59844V19.4004H18.3984V16.6004H8.59844V15.4004H18.3984V4.60039H5.59844V15.8095C6.01328 15.5444 6.49843 15.4004 6.99844 15.4004V16.6004C6.62713 16.6004 6.27104 16.7479 6.00849 17.0104C5.74594 17.273 5.59844 17.6291 5.59844 18.0004C5.59844 18.3717 5.74594 18.7278 6.00849 18.9903C6.27104 19.2529 6.62713 19.4004 6.99844 19.4004V20.6004C6.30888 20.6004 5.64755 20.3265 5.15996 19.8389C4.67237 19.3513 4.39844 18.69 4.39844 18.0004V4.25039Z" fill="black"/>
</svg>
