<svg width="24" height="24" viewBox="0 0 24 24" fill="none" xmlns="http://www.w3.org/2000/svg">
<path fill-rule="evenodd" clip-rule="evenodd" d="M3.59844 5.39922L3.59844 17.1992H9.99844C10.4984 17.1992 10.9836 17.3432 11.3984 17.6083L11.3984 6.79922C11.3984 6.42792 11.2509 6.07182 10.9884 5.80927C10.7258 5.54672 10.3697 5.39922 9.99844 5.39922L3.59844 5.39922ZM11.9984 5.13788C11.9476 5.07663 11.8937 5.01751 11.8369 4.96074C11.3493 4.47315 10.688 4.19922 9.99844 4.19922L3.24844 4.19922C2.77899 4.19922 2.39844 4.57978 2.39844 5.04922L2.39844 17.5492C2.39844 18.0187 2.779 18.3992 3.24844 18.3992H9.99844C10.3697 18.3992 10.7258 18.5467 10.9884 18.8093C11.2509 19.0718 11.3984 19.4279 11.3984 19.7992H12.5984C12.5984 19.4279 12.7459 19.0718 13.0085 18.8093C13.271 18.5467 13.6271 18.3992 13.9984 18.3992H20.7484C21.2179 18.3992 21.5984 18.0187 21.5984 17.5492L21.5984 5.04922C21.5984 4.57978 21.2179 4.19922 20.7484 4.19922L13.9984 4.19922C13.3089 4.19922 12.6476 4.47315 12.16 4.96074C12.1032 5.01751 12.0493 5.07663 11.9984 5.13788ZM12.5984 17.6083C13.0133 17.3432 13.4984 17.1992 13.9984 17.1992H20.3984L20.3984 5.39922L13.9984 5.39922C13.6271 5.39922 13.271 5.54672 13.0085 5.80927C12.7459 6.07182 12.5984 6.42792 12.5984 6.79922L12.5984 17.6083Z" fill="black"/>
</svg>
