<svg width="24" height="24" viewBox="0 0 24 24" fill="none" xmlns="http://www.w3.org/2000/svg">
<path fill-rule="evenodd" clip-rule="evenodd" d="M8.74575 3.94692C9.60841 3.08425 10.7784 2.59961 11.9984 2.59961C13.2184 2.59961 14.3885 3.08425 15.2511 3.94692C16.1138 4.80959 16.5984 5.97961 16.5984 7.19961H15.3984C15.3984 6.29787 15.0402 5.43307 14.4026 4.79545C13.765 4.15782 12.9002 3.79961 11.9984 3.79961C11.0967 3.79961 10.2319 4.15782 9.59427 4.79545C8.95665 5.43307 8.59844 6.29787 8.59844 7.19961H7.39844C7.39844 5.97961 7.88308 4.80958 8.74575 3.94692ZM4.09844 9.99963V19.7996H19.8984V9.99963H4.09844ZM2.89844 9.64963C2.89844 9.18019 3.279 8.79963 3.74844 8.79963H20.2484C20.7179 8.79963 21.0984 9.18019 21.0984 9.64963V20.1496C21.0984 20.6191 20.7179 20.9996 20.2484 20.9996H3.74844C3.279 20.9996 2.89844 20.6191 2.89844 20.1496V9.64963ZM6.89844 18.1996V11.5996H8.09844V18.1996H6.89844ZM15.8984 18.1996V11.5996H17.0984V18.1996H15.8984Z" fill="black"/>
</svg>
