<svg width="24" height="24" viewBox="0 0 24 24" fill="none" xmlns="http://www.w3.org/2000/svg">
<path fill-rule="evenodd" clip-rule="evenodd" d="M9.54714 3.02123C10.1848 2.3836 11.0496 2.02539 11.9513 2.02539C12.853 2.02539 13.7178 2.3836 14.3555 3.02123C14.9931 3.65885 15.3513 4.52365 15.3513 5.42539H14.1513C14.1513 4.84191 13.9195 4.28234 13.5069 3.86976C13.0944 3.45718 12.5348 3.22539 11.9513 3.22539C11.3678 3.22539 10.8083 3.45718 10.3957 3.86976C9.98309 4.28234 9.75131 4.84191 9.75131 5.42539H8.55131C8.55131 4.52365 8.90952 3.65885 9.54714 3.02123ZM7.54955 8.00792C8.73243 6.82505 10.3367 6.16051 12.0096 6.16051C13.6824 6.16051 15.2867 6.82505 16.4696 8.00792C17.0091 8.54743 17.4408 9.17462 17.7508 9.856C18.3713 9.84454 18.9639 9.59309 19.4035 9.15346C19.8536 8.70338 20.1064 8.09293 20.1064 7.45641H21.3064C21.3064 8.41119 20.9272 9.32686 20.252 10.002C19.6825 10.5716 18.9417 10.9306 18.1507 11.0289C18.2604 11.4969 18.317 11.9795 18.317 12.468H17.117C17.117 11.1134 16.5789 9.81428 15.6211 8.85645C14.6633 7.89862 13.3642 7.36051 12.0096 7.36051C10.655 7.36051 9.35591 7.89862 8.39808 8.85645C7.44025 9.81428 6.90215 11.1134 6.90215 12.468H5.70215C5.70215 11.9799 5.75871 11.4977 5.86821 11.0301C5.07369 10.9334 4.32934 10.5738 3.75754 10.002C3.08241 9.32686 2.70312 8.41119 2.70312 7.45641H3.90313C3.90313 8.09293 4.15598 8.70338 4.60607 9.15346C5.04794 9.59534 5.64438 9.84711 6.26831 9.85615C6.57829 9.17472 7.01 8.54747 7.54955 8.00792ZM3.29141 13.468H6.29141V14.668H3.29141V13.468ZM17.7064 13.468H20.7064V14.668H17.7064V13.468ZM12.6103 15.3821V19.5172H11.4103V15.3821H12.6103ZM6.90232 15.668C6.90232 17.0225 7.44042 18.3216 8.39825 19.2795C9.35609 20.2373 10.6552 20.7754 12.0098 20.7754C13.3643 20.7754 14.6634 20.2373 15.6213 19.2795C16.5791 18.3216 17.1172 17.0225 17.1172 15.668H18.3172C18.3172 16.1525 18.2614 16.6313 18.1535 17.0958C18.9434 17.1946 19.6831 17.5535 20.252 18.1223C20.9272 18.7975 21.3064 19.7132 21.3064 20.6679H20.1064C20.1064 20.0314 19.8536 19.421 19.4035 18.9709C18.9651 18.5325 18.3747 18.2813 17.7562 18.2684C17.4458 18.9543 17.0123 19.5855 16.4698 20.128C15.2869 21.3109 13.6826 21.9754 12.0098 21.9754C10.3369 21.9754 8.7326 21.3109 7.54973 20.128C7.00714 19.5854 6.57362 18.9541 6.26327 18.2683C5.64117 18.2786 5.04675 18.5302 4.60607 18.9709C4.15598 19.421 3.90313 20.0314 3.90313 20.6679H2.70312C2.70312 19.7132 3.08241 18.7975 3.75754 18.1223C4.32875 17.5511 5.07216 17.1917 5.86576 17.0946C5.75798 16.6305 5.70232 16.1521 5.70232 15.668H6.90232Z" fill="black"/>
</svg>
