<svg width="24" height="24" viewBox="0 0 24 24" fill="none" xmlns="http://www.w3.org/2000/svg">
<path fill-rule="evenodd" clip-rule="evenodd" d="M6.67135 4.24297V4.24299C6.26536 4.24299 5.87601 4.40427 5.58893 4.69134C5.30185 4.97842 5.14057 5.36778 5.14057 5.77377H3.94057C3.94057 5.04952 4.22828 4.35494 4.7404 3.84282C5.20201 3.38121 5.81187 3.10193 6.45807 3.05133V3.04297H17.5373V3.05118C18.1841 3.1014 18.7947 3.38077 19.2568 3.84282C19.7689 4.35494 20.0566 5.04952 20.0566 5.77377H18.8566C18.8566 5.36778 18.6953 4.97842 18.4082 4.69134C18.1212 4.40427 17.7318 4.24299 17.3258 4.24299V4.24297H6.67135ZM5.14057 7.37021V16.3602H3.94057V8.57022H3.27031V11.3795H2.07031V8.22022C2.07031 7.75078 2.45087 7.37022 2.92031 7.37022H3.94057V7.37021H5.14057ZM18.856 16.3602V7.37021H20.056V7.37022H21.0769C21.5463 7.37022 21.9269 7.75078 21.9269 8.22022V11.3795H20.7269V8.57022H20.056V16.3602H18.856ZM17.5373 12.168H6.45807V10.968H17.5373V12.168ZM8.15967 14.2988C7.90265 14.2988 7.69429 14.5071 7.69429 14.7641C7.69429 15.0212 7.90265 15.2295 8.15967 15.2295C8.4167 15.2295 8.62506 15.0212 8.62506 14.7641C8.62506 14.5071 8.4167 14.2988 8.15967 14.2988ZM6.49429 14.7641C6.49429 13.8444 7.2399 13.0988 8.15967 13.0988C9.07944 13.0988 9.82506 13.8444 9.82506 14.7641C9.82506 15.6839 9.07944 16.4295 8.15967 16.4295C7.2399 16.4295 6.49429 15.6839 6.49429 14.7641ZM15.9409 14.2988C15.6839 14.2988 15.4755 14.5071 15.4755 14.7641C15.4755 15.0212 15.6839 15.2295 15.9409 15.2295C16.198 15.2295 16.4063 15.0212 16.4063 14.7641C16.4063 14.5071 16.198 14.2988 15.9409 14.2988ZM14.2755 14.7641C14.2755 13.8444 15.0212 13.0988 15.9409 13.0988C16.8607 13.0988 17.6063 13.8444 17.6063 14.7641C17.6063 15.6839 16.8607 16.4295 15.9409 16.4295C15.0212 16.4295 14.2755 15.6839 14.2755 14.7641ZM7.69751 18.5604V20.1075C7.69751 20.5769 7.31695 20.9575 6.84751 20.9575H4.79058C4.32113 20.9575 3.94057 20.5769 3.94057 20.1075V17.9604H5.14057V19.7575H6.49751V18.2104C6.49751 17.7409 6.87806 17.3604 7.34751 17.3604H16.649C17.1184 17.3604 17.499 17.7409 17.499 18.2104V19.7575H18.8559V17.9604H20.0559V20.1075C20.0559 20.5769 19.6753 20.9575 19.2059 20.9575H17.149C16.6795 20.9575 16.299 20.5769 16.299 20.1075V18.5604H7.69751Z" fill="black"/>
</svg>
