<svg width="24" height="24" viewBox="0 0 24 24" fill="none" xmlns="http://www.w3.org/2000/svg">
<path fill-rule="evenodd" clip-rule="evenodd" d="M7.60039 3.39922V5.39922H8.90039V3.39922H7.60039ZM6.40039 3.04922C6.40039 2.57978 6.78095 2.19922 7.25039 2.19922H9.25039C9.71983 2.19922 10.1004 2.57978 10.1004 3.04922V3.79919H13.9004V3.04922C13.9004 2.57978 14.2809 2.19922 14.7504 2.19922H16.7504C17.2198 2.19922 17.6004 2.57978 17.6004 3.04922V3.79919H20.15C20.6194 3.79919 21 4.17975 21 4.64919V9.59919H19.8V4.99919H17.6004V5.74922C17.6004 6.21866 17.2198 6.59922 16.7504 6.59922H14.7504C14.2809 6.59922 13.9004 6.21866 13.9004 5.74922V4.99919H10.1004V5.74922C10.1004 6.21866 9.71983 6.59922 9.25039 6.59922H7.25039C6.78095 6.59922 6.40039 6.21866 6.40039 5.74922V4.99919H4.2V9.59919H3V4.64919C3 4.17975 3.38056 3.79919 3.85 3.79919H6.40039V3.04922ZM15.1004 3.39922V5.39922H16.4004V3.39922H15.1004ZM18.5995 10.9992L5.40078 10.9992V9.79917L18.5995 9.79917V10.9992ZM4.2 20.5992V11.1992H3V20.9492C3 21.4186 3.38056 21.7992 3.85 21.7992H20.15C20.6194 21.7992 21 21.4186 21 20.9492V11.1992H19.8V20.5992H4.2Z" fill="black"/>
</svg>
