<svg width="24" height="24" viewBox="0 0 24 24" fill="none" xmlns="http://www.w3.org/2000/svg">
<path fill-rule="evenodd" clip-rule="evenodd" d="M12.0004 2.90039C10.7804 2.90039 9.61037 3.38503 8.7477 4.2477C7.88503 5.11037 7.40039 6.28039 7.40039 7.50039H8.60039C8.60039 6.59865 8.9586 5.73385 9.59623 5.09623C10.2339 4.4586 11.0987 4.10039 12.0004 4.10039C12.9021 4.10039 13.7669 4.4586 14.4046 5.09623C15.0422 5.73385 15.4004 6.59865 15.4004 7.50039H16.6004C16.6004 6.2804 16.1158 5.11037 15.2531 4.2477C14.3904 3.38503 13.2204 2.90039 12.0004 2.90039ZM5.80508 8.10039H3.2V19.9004H20.8V8.10039H18.2004V6.90039H21.15C21.6194 6.90039 22 7.28095 22 7.75039V20.2504C22 20.7198 21.6194 21.1004 21.15 21.1004H2.85C2.38056 21.1004 2 20.7198 2 20.2504V7.75039C2 7.28095 2.38056 6.90039 2.85 6.90039H5.80508V8.10039ZM12.7999 16.6488C14.1662 16.2942 15.175 15.0526 15.175 13.5754C15.175 12.0982 14.1662 10.8566 12.7999 10.502V9.27335C14.8341 9.64918 16.375 11.4323 16.375 13.5754C16.375 15.7185 14.8341 17.5016 12.7999 17.8775V16.6488ZM11.1999 10.5021C9.8337 10.8568 8.825 12.0983 8.825 13.5754C8.825 15.0525 9.8337 16.294 11.1999 16.6487V17.8774C9.16572 17.5015 7.625 15.7184 7.625 13.5754C7.625 11.4325 9.16572 9.64935 11.1999 9.27341V10.5021Z" fill="black"/>
</svg>
