<svg width="24" height="24" viewBox="0 0 24 24" fill="none" xmlns="http://www.w3.org/2000/svg">
<path fill-rule="evenodd" clip-rule="evenodd" d="M3.78809 6.90039H2.85C2.38056 6.90039 2 7.28095 2 7.75039V20.2504C2 20.7198 2.38056 21.1004 2.85 21.1004H17.9881L16.7881 19.9004H3.2V8.10039H4.98809L3.78809 6.90039ZM8.23442 11.3467C7.84727 11.9994 7.625 12.7615 7.625 13.5754C7.625 15.9916 9.58375 17.9504 12 17.9504C12.8139 17.9504 13.576 17.7281 14.2287 17.341L13.3416 16.4539C12.934 16.6441 12.4794 16.7504 12 16.7504C10.2465 16.7504 8.825 15.3289 8.825 13.5754C8.825 13.096 8.93126 12.6414 9.12153 12.2338L8.23442 11.3467ZM14.5786 15.4282C14.5787 15.4281 14.5788 15.428 14.5788 15.4279L10.1475 10.9966C10.1474 10.9966 10.1473 10.9967 10.1472 10.9968L9.29056 10.1401C9.29065 10.1401 9.29074 10.14 9.29083 10.1399L3.09029 3.93936L3.93857 3.09108L20.9089 20.0614L20.0604 20.9099L19.0508 19.9004H19.0513L15.4355 16.2846C15.4354 16.2847 15.4354 16.2848 15.4353 16.2848L14.5786 15.4282ZM8.1279 5.01766L9.00395 5.89372C9.15987 5.60291 9.35866 5.3338 9.59623 5.09623C10.2339 4.4586 11.0987 4.10039 12.0004 4.10039C12.9021 4.10039 13.7669 4.4586 14.4046 5.09623C15.0422 5.73385 15.4004 6.59865 15.4004 7.50039H16.6004C16.6004 6.2804 16.1158 5.11037 15.2531 4.2477C14.3904 3.38503 13.2204 2.90039 12.0004 2.90039C10.7804 2.90039 9.61037 3.38503 8.7477 4.2477C8.51221 4.48319 8.30488 4.74159 8.1279 5.01766ZM12.3223 9.2121L16.3633 13.2531C16.2061 11.0938 14.4816 9.36934 12.3223 9.2121ZM20.8 17.6898L22 18.8898V7.75039C22 7.28095 21.6194 6.90039 21.15 6.90039H18.2004V8.10039H20.8V17.6898Z" fill="black"/>
</svg>
