<svg width="24" height="24" viewBox="0 0 24 24" fill="none" xmlns="http://www.w3.org/2000/svg">
<path fill-rule="evenodd" clip-rule="evenodd" d="M6.44158 5.22539L4.59844 11.2156V15.5304H3.39844V11.163C3.39844 11.0783 3.41111 10.994 3.43602 10.913L4.00949 11.0895L3.43603 10.913L5.37067 4.62542C5.48041 4.26877 5.80993 4.02539 6.18308 4.02539H17.8138C18.1869 4.02539 18.5165 4.26876 18.6262 4.62542L20.5609 10.913C20.5858 10.994 20.5984 11.0783 20.5984 11.163V15.5304H19.3984V11.2156L17.5553 5.22539H6.44158ZM18.1975 11.7254H5.79824V10.5254H18.1975V11.7254ZM7.49844 13.7254C7.27752 13.7254 7.09844 13.9045 7.09844 14.1254C7.09844 14.3463 7.27752 14.5254 7.49844 14.5254C7.71935 14.5254 7.89844 14.3463 7.89844 14.1254C7.89844 13.9045 7.71935 13.7254 7.49844 13.7254ZM5.89844 14.1254C5.89844 13.2417 6.61478 12.5254 7.49844 12.5254C8.38209 12.5254 9.09844 13.2417 9.09844 14.1254C9.09844 15.009 8.38209 15.7254 7.49844 15.7254C6.61478 15.7254 5.89844 15.009 5.89844 14.1254ZM16.4984 13.7254C16.2775 13.7254 16.0984 13.9045 16.0984 14.1254C16.0984 14.3463 16.2775 14.5254 16.4984 14.5254C16.7194 14.5254 16.8984 14.3463 16.8984 14.1254C16.8984 13.9045 16.7194 13.7254 16.4984 13.7254ZM14.8984 14.1254C14.8984 13.2417 15.6148 12.5254 16.4984 12.5254C17.3821 12.5254 18.0984 13.2417 18.0984 14.1254C18.0984 15.009 17.3821 15.7254 16.4984 15.7254C15.6148 15.7254 14.8984 15.009 14.8984 14.1254ZM6.99844 17.7254V19.1254C6.99844 19.5948 6.61788 19.9754 6.14844 19.9754H4.24844C3.779 19.9754 3.39844 19.5948 3.39844 19.1254V17.1254H4.59844V18.7754H5.79844V17.3754C5.79844 16.9059 6.179 16.5254 6.64844 16.5254H17.348C17.8175 16.5254 18.198 16.9059 18.198 17.3754V18.7754H19.398V17.1254H20.598V19.1254C20.598 19.5948 20.2175 19.9754 19.748 19.9754H17.848C17.3786 19.9754 16.998 19.5948 16.998 19.1254V17.7254H6.99844Z" fill="black"/>
</svg>
