<svg width="24" height="24" viewBox="0 0 24 24" fill="none" xmlns="http://www.w3.org/2000/svg">
<path fill-rule="evenodd" clip-rule="evenodd" d="M3.1998 5.70539C3.1998 5.2608 3.56022 4.90039 4.0048 4.90039L19.994 4.9004C20.4386 4.9004 20.799 5.26081 20.799 5.7054V17.6954C20.799 18.14 20.4386 18.5004 19.994 18.5004L11.3296 18.5004L11.3296 17.3004L19.599 17.3004V6.1004L4.3998 6.10039V10.0703H3.1998V5.70539ZM3.19922 11.9704C4.93089 11.9704 6.59164 12.6583 7.81612 13.8828C9.0406 15.1073 9.7285 16.768 9.7285 18.4997H8.5285C8.5285 17.0863 7.96702 15.7307 6.96759 14.7313C5.96816 13.7319 4.61263 13.1704 3.19922 13.1704V11.9704ZM3.19922 14.8068C4.17881 14.8068 5.11827 15.1959 5.81095 15.8886C6.50362 16.5812 6.89276 17.5207 6.89276 18.5003H5.69276C5.69276 17.839 5.43005 17.2047 4.96242 16.7371C4.49479 16.2695 3.86055 16.0068 3.19922 16.0068V14.8068Z" fill="black"/>
</svg>
