<svg width="24" height="24" viewBox="0 0 24 24" fill="none" xmlns="http://www.w3.org/2000/svg">
<path fill-rule="evenodd" clip-rule="evenodd" d="M11.1984 2.68359C11.1802 2.68514 11.1621 2.68674 11.144 2.68839C9.39235 2.84806 7.71677 3.49984 6.30653 4.58195C4.5069 5.96286 3.27066 7.9509 2.82812 10.1757C2.4006 12.3249 2.74198 14.5535 3.78818 16.4735L3.08128 19.9337C2.96167 20.5192 3.47905 21.0366 4.06455 20.917L7.52476 20.2101C8.66726 20.8326 9.91906 21.2056 11.1984 21.3155V20.1104C10.0802 20.0001 8.98835 19.6589 7.9951 19.0988C7.82244 19.0014 7.61737 18.9664 7.41664 19.0074L4.36808 19.6302L4.99087 16.5816C5.03188 16.3809 4.99683 16.1758 4.89946 16.0031C3.94261 14.3064 3.62468 12.3221 4.00506 10.4098C4.3908 8.47055 5.46839 6.73765 7.03705 5.53398C8.2524 4.60141 9.69229 4.03611 11.1984 3.88859V2.68359ZM12.7984 20.1104C13.0625 20.0844 13.3261 20.0454 13.5884 19.9932C15.5277 19.6074 17.2606 18.5299 18.4643 16.9612C19.6679 15.3925 20.2603 13.4398 20.131 11.4668C20.0017 9.49374 19.1595 7.63502 17.7614 6.23689C16.4264 4.90198 14.6716 4.07387 12.7984 3.88916V2.68409C12.8146 2.68548 12.8308 2.68691 12.847 2.68839C15.022 2.88656 17.062 3.84047 18.6099 5.38836C20.2139 6.99235 21.18 9.12475 21.3284 11.3883C21.4768 13.6518 20.7972 15.8921 19.4163 17.6917C18.0354 19.4913 16.0473 20.7276 13.8225 21.1701C13.4826 21.2377 13.1407 21.2861 12.7984 21.3155V20.1104Z" fill="black"/>
</svg>
