<svg width="24" height="24" viewBox="0 0 24 24" fill="none" xmlns="http://www.w3.org/2000/svg">
<path fill-rule="evenodd" clip-rule="evenodd" d="M12.7985 3.26101V2.05665C17.9334 2.46416 21.9734 6.7603 21.9734 12C21.9734 17.2398 17.9334 21.5359 12.7985 21.9434V20.739C17.2698 20.3349 20.7734 16.5766 20.7734 12C20.7734 7.42343 17.2698 3.66514 12.7985 3.26101ZM11.1985 20.7391C6.72709 20.335 3.22344 16.5767 3.22344 12C3.22344 7.4234 6.72709 3.66508 11.1985 3.261V2.05664C6.06348 2.46411 2.02344 6.76027 2.02344 12C2.02344 17.2398 6.06348 21.536 11.1985 21.9434V20.7391ZM17.6557 9.01519L10.7615 15.9095C10.4295 16.2414 9.89132 16.2414 9.55937 15.9095L6.07417 12.4243L6.9227 11.5758L10.1604 14.8135L16.8072 8.16666L17.6557 9.01519Z" fill="black"/>
</svg>
