<svg width="24" height="24" viewBox="0 0 24 24" fill="none" xmlns="http://www.w3.org/2000/svg">
<path fill-rule="evenodd" clip-rule="evenodd" d="M12.7982 3.261V2.05664C17.9333 2.46403 21.9734 6.76023 21.9734 12C21.9734 17.2399 17.9333 21.536 12.7982 21.9434V20.7391C17.2697 20.3351 20.7734 16.5767 20.7734 12C20.7734 7.42336 17.2697 3.66501 12.7982 3.261ZM11.1982 20.739C6.72696 20.3349 3.22344 16.5766 3.22344 12C3.22344 7.42349 6.72696 3.66523 11.1982 3.26104V2.05667C6.06336 2.46425 2.02344 6.76036 2.02344 12C2.02344 17.2397 6.06336 21.5358 11.1982 21.9434V20.739ZM11.1497 12L8.01829 8.86865L8.86682 8.02012L11.9982 11.1515L15.1296 8.02012L15.9781 8.86865L12.8467 12L15.9781 15.1314L15.1296 15.98L11.9982 12.8486L8.86682 15.98L8.01829 15.1314L11.1497 12Z" fill="black"/>
</svg>
