<svg width="24" height="24" viewBox="0 0 24 24" fill="none" xmlns="http://www.w3.org/2000/svg">
<path fill-rule="evenodd" clip-rule="evenodd" d="M2.52344 3.37539C2.52344 2.90595 2.90399 2.52539 3.37344 2.52539H20.6234C21.0929 2.52539 21.4734 2.90595 21.4734 3.37539V20.6254C21.4734 21.0948 21.0929 21.4754 20.6234 21.4754H3.37344C2.904 21.4754 2.52344 21.0948 2.52344 20.6254V3.37539ZM3.72344 3.72539V20.2754H20.2734V3.72539H3.72344ZM11.1499 12.0004L8.01851 8.86899L8.86704 8.02046L11.9984 11.1519L15.1298 8.02046L15.9784 8.86899L12.847 12.0004L15.9784 15.1318L15.1298 15.9803L11.9984 12.8489L8.86704 15.9803L8.01851 15.1318L11.1499 12.0004Z" fill="black"/>
</svg>
