<svg width="24" height="24" viewBox="0 0 24 24" fill="none" xmlns="http://www.w3.org/2000/svg">
<path fill-rule="evenodd" clip-rule="evenodd" d="M7.50251 2.24896C7.66192 2.08955 7.87812 2 8.10355 2H15.8965C16.1219 2 16.3381 2.08955 16.4975 2.24894L21.7514 7.50252C21.9108 7.66192 22.0004 7.87814 22.0004 8.10358V15.8965C22.0004 16.1219 21.9108 16.3381 21.7514 16.4975L16.4975 21.7511C16.3381 21.9105 16.1219 22 15.8965 22H8.10355C7.87812 22 7.66192 21.9105 7.50251 21.7511L2.24896 16.4975C2.08955 16.3381 2 16.1219 2 15.8965V8.10358C2 7.87815 2.08955 7.66194 2.24896 7.50254L7.50251 2.24896ZM15.7515 3.2H8.24853L3.2 8.24855V15.7515L8.24853 20.8H15.7515L20.8004 15.7515V8.24856L15.7515 3.2ZM11.1514 12L8.01997 8.86859L8.8685 8.02007L11.9999 11.1515L15.1313 8.02007L15.9798 8.86859L12.8484 12L15.9798 15.1314L15.1313 15.9799L11.9999 12.8485L8.8685 15.9799L8.01997 15.1314L11.1514 12Z" fill="black"/>
</svg>
