<svg width="24" height="24" viewBox="0 0 24 24" fill="none" xmlns="http://www.w3.org/2000/svg">
<path fill-rule="evenodd" clip-rule="evenodd" d="M2.03125 15.9C2.03125 12.9505 4.31152 10.5336 7.20534 10.316L7.63125 10.7419V11.5C5.2012 11.5 3.23125 13.47 3.23125 15.9C3.23125 18.3299 5.20093 20.2997 7.63076 20.3V21.5C4.53819 21.4998 2.03125 18.9926 2.03125 15.9ZM10.7809 15.9C10.7809 15.2945 10.877 14.7115 11.0548 14.1654L12.0438 15.1544C12.0025 15.3968 11.9809 15.6459 11.9809 15.9H10.7809ZM16.4405 20.3001C16.6741 20.297 16.9034 20.2757 17.1269 20.2375L18.1159 21.2265C17.5696 21.4044 16.9865 21.5005 16.3809 21.5005V21.5H16.3808V20.3H16.4405V20.3001ZM18.7567 19.6046L19.6208 20.4687C19.6208 20.4686 19.6208 20.4686 19.6208 20.4686L20.0619 20.9097L20.9104 20.0611L3.93984 3.09058L3.09131 3.9391L6.06678 6.91458C6.06678 6.9146 6.06677 6.91463 6.06676 6.91465L7.06712 7.915C7.06712 7.91498 7.06713 7.91495 7.06713 7.91493L11.8126 12.6604C11.8126 12.6604 11.8126 12.6605 11.8126 12.6605L12.6767 13.5246C12.6767 13.5245 12.6767 13.5245 12.6767 13.5245L18.7568 19.6045C18.7567 19.6046 18.7567 19.6046 18.7567 19.6046ZM21.9809 15.9005C21.9809 16.7673 21.7839 17.588 21.4324 18.3205L20.5169 17.405C20.6877 16.9356 20.7809 16.4289 20.7809 15.9005C20.7809 13.4705 18.8109 11.5005 16.3809 11.5005H16.3808V10.3005H16.3809C19.4737 10.3005 21.9809 12.8077 21.9809 15.9005ZM14.7808 10.5324V11.6688L13.9608 10.8489C14.2234 10.7229 14.4974 10.6167 14.7808 10.5324ZM12.0059 3.7C10.5758 3.7 9.28599 4.30035 8.37467 5.26276L7.52589 4.41397C8.65459 3.23452 10.2444 2.5 12.0059 2.5C15.43 2.5 18.2059 5.27584 18.2059 8.70001H17.0059C17.0059 5.93858 14.7673 3.7 12.0059 3.7ZM9.23076 21.5H14.7808V20.3H9.23076V21.5Z" fill="black"/>
</svg>
