<svg width="24" height="24" viewBox="0 0 24 24" fill="none" xmlns="http://www.w3.org/2000/svg">
<path fill-rule="evenodd" clip-rule="evenodd" d="M5.80585 8.70001C5.80585 5.27584 8.58169 2.5 12.0059 2.5C15.43 2.5 18.2059 5.27584 18.2059 8.70001H17.0059C17.0059 5.93858 14.7673 3.7 12.0059 3.7C9.24443 3.7 7.00585 5.93858 7.00585 8.70001H5.80585ZM2.03125 15.9C2.03125 12.8072 4.53846 10.3 7.63125 10.3V11.5C5.2012 11.5 3.23125 13.47 3.23125 15.9C3.23125 18.3299 5.20093 20.2997 7.63076 20.3V21.5C4.53819 21.4998 2.03125 18.9926 2.03125 15.9ZM9.23076 21.5H14.7808V20.3H9.23076V21.5ZM16.4405 20.3H16.3808V21.5H16.3809V21.5005C19.4737 21.5005 21.9809 18.9933 21.9809 15.9005C21.9809 12.8077 19.4737 10.3005 16.3809 10.3005H16.3808V11.5005H16.3809C18.8109 11.5005 20.7809 13.4705 20.7809 15.9005C20.7809 18.3107 18.8431 20.2682 16.4405 20.3001V20.3ZM14.7808 11.8004V10.5324C12.4677 11.2207 10.7809 13.3632 10.7809 15.9H11.9809C11.9809 14.0345 13.1419 12.4404 14.7808 11.8004Z" fill="black"/>
</svg>
