<svg width="24" height="24" viewBox="0 0 24 24" fill="none" xmlns="http://www.w3.org/2000/svg">
<path fill-rule="evenodd" clip-rule="evenodd" d="M7.4276 4.99102C7.05629 4.99102 6.7002 5.13852 6.43765 5.40107C6.1751 5.66362 6.0276 6.01971 6.0276 6.39102C6.0276 6.76232 6.1751 7.11841 6.43765 7.38097C6.7002 7.64352 7.05629 7.79102 7.4276 7.79102V8.99102C6.73803 8.99102 6.07671 8.71709 5.58912 8.22949C5.10153 7.7419 4.8276 7.08058 4.8276 6.39102C4.8276 5.70145 5.10153 5.04013 5.58912 4.55254C6.07671 4.06494 6.73803 3.79102 7.4276 3.79102V4.99102ZM11.0277 4.99102C10.6564 4.99102 10.3003 5.13852 10.0377 5.40107C9.7752 5.66362 9.6277 6.01971 9.6277 6.39102C9.6277 6.76232 9.7752 7.11841 10.0377 7.38097C10.3003 7.64352 10.6564 7.79102 11.0277 7.79102V8.99102C10.3381 8.99102 9.67681 8.71709 9.18922 8.22949C8.70162 7.7419 8.4277 7.08058 8.4277 6.39102C8.4277 5.70145 8.70162 5.04013 9.18922 4.55254C9.67681 4.06494 10.3381 3.79102 11.0277 3.79102V4.99102ZM14.6278 4.99102C14.2565 4.99102 13.9004 5.13852 13.6378 5.40107C13.3753 5.66362 13.2278 6.01971 13.2278 6.39102C13.2278 6.76232 13.3753 7.11841 13.6378 7.38097C13.9004 7.64352 14.2565 7.79102 14.6278 7.79102V8.99102C13.9382 8.99102 13.2769 8.71709 12.7893 8.22949C12.3017 7.7419 12.0278 7.08058 12.0278 6.39102C12.0278 5.70145 12.3017 5.04013 12.7893 4.55254C13.2769 4.06494 13.9382 3.79102 14.6278 3.79102V4.99102ZM16.9393 11.6937H3.10938V10.4937H16.9393V11.6937ZM19.685 13.0937C19.685 12.3205 19.0582 11.6937 18.285 11.6937V10.4937C19.721 10.4937 20.885 11.6577 20.885 13.0937C20.885 14.5296 19.721 15.6937 18.285 15.6937V14.4937C19.0582 14.4937 19.685 13.8669 19.685 13.0937ZM4.31349 13.2937C4.31349 16.4496 6.87186 19.0079 10.0278 19.0079C13.1837 19.0079 15.7421 16.4496 15.7421 13.2937H16.9421C16.9421 17.1123 13.8464 20.208 10.0278 20.208C6.20912 20.208 3.11349 17.1123 3.11349 13.2937H4.31349Z" fill="black"/>
</svg>
