<svg width="24" height="24" viewBox="0 0 24 24" fill="none" xmlns="http://www.w3.org/2000/svg">
<path fill-rule="evenodd" clip-rule="evenodd" d="M5.39834 2.47023C3.68816 2.80763 2.39844 4.31555 2.39844 6.1247C2.39844 7.93385 3.68816 9.44176 5.39834 9.77917V8.54404C4.35722 8.23246 3.59844 7.26719 3.59844 6.1247C3.59844 4.98221 4.35722 4.01694 5.39834 3.70536V2.47023ZM6.59834 8.6497H8.64844V6.1247C8.64844 4.89251 7.76583 3.86647 6.59834 3.64429V2.42969C8.43135 2.66293 9.84844 4.22833 9.84844 6.1247V8.6497H14.1484V6.1247V5.9997H14.1505C14.2112 4.15998 15.6059 2.65789 17.3983 2.42971V3.64433C16.2309 3.86659 15.3484 4.89258 15.3484 6.1247V8.6497H17.3983V9.8497H15.3484V14.1497H17.3983V15.3497H15.3484V17.8747C15.3484 19.1068 16.2309 20.1328 17.3983 20.3551V21.5697C15.5654 21.3364 14.1484 19.771 14.1484 17.8747V15.3497H9.84844V17.8747V17.9997H9.84638C9.78572 19.8395 8.39091 21.3416 6.59834 21.5697V20.3551C7.76583 20.1329 8.64844 19.1069 8.64844 17.8747V15.3497H6.59834V14.1497H8.64844V9.8497H6.59834V8.6497ZM5.39834 14.2202C3.68816 14.5576 2.39844 16.0656 2.39844 17.8747C2.39844 19.6838 3.68816 21.1918 5.39834 21.5292V20.294C4.35722 19.9825 3.59844 19.0172 3.59844 17.8747C3.59844 16.7322 4.35722 15.7669 5.39834 15.4554V14.2202ZM20.3984 6.1247C20.3984 7.26726 19.6396 8.23258 18.5983 8.5441V9.77921C20.3086 9.44188 21.5984 7.93392 21.5984 6.1247C21.5984 4.31548 20.3086 2.80752 18.5983 2.47019V3.7053C19.6396 4.01682 20.3984 4.98214 20.3984 6.1247ZM18.5983 15.4553V14.2202C20.3086 14.5575 21.5984 16.0655 21.5984 17.8747C21.5984 19.6839 20.3086 21.1919 18.5983 21.5292V20.2941C19.6396 19.9826 20.3984 19.0173 20.3984 17.8747C20.3984 16.7321 19.6396 15.7668 18.5983 15.4553ZM9.84844 9.8497V14.1497H14.1484V9.8497H9.84844Z" fill="black"/>
</svg>
