<svg width="24" height="24" viewBox="0 0 24 24" fill="none" xmlns="http://www.w3.org/2000/svg">
<path fill-rule="evenodd" clip-rule="evenodd" d="M16.4129 4.63656C17.233 3.81646 18.5627 3.81646 19.3828 4.63656C20.2029 5.45666 20.2029 6.78631 19.3828 7.60641L19.3435 7.64569L18.495 6.79717L18.5342 6.75788C18.8857 6.40641 18.8857 5.83656 18.5342 5.48509C18.1828 5.13362 17.6129 5.13362 17.2615 5.48509L16.8372 5.06082L17.2615 5.48509L17.2222 5.52438L16.3736 4.67584L16.4129 4.63656ZM5.59844 5.60016H13.7984V4.40016H5.24844C4.779 4.40016 4.39844 4.78072 4.39844 5.25016V18.7502C4.39844 19.2196 4.77899 19.6002 5.24844 19.6002H18.7484C19.2179 19.6002 19.5984 19.2196 19.5984 18.7502V10.2002H18.3984V18.4002H5.59844V5.60016ZM9.64516 13.1014L16.3422 6.40433L15.4937 5.5558L8.69304 12.3565C8.53207 12.5174 8.4424 12.7362 8.4441 12.9638L8.4572 14.7185C8.46066 15.183 8.83634 15.5587 9.30083 15.5621L11.0555 15.5752C11.2831 15.5769 11.5019 15.4873 11.6629 15.3263L18.4635 8.52565L17.615 7.67712L10.918 14.3742L9.65459 14.3647L9.64516 13.1014Z" fill="black"/>
</svg>
