<svg width="24" height="24" viewBox="0 0 24 24" fill="none" xmlns="http://www.w3.org/2000/svg">
<path fill-rule="evenodd" clip-rule="evenodd" d="M12.7985 3.26101V2.05665C17.9334 2.46416 21.9734 6.7603 21.9734 12C21.9734 17.2398 17.9334 21.5359 12.7985 21.9434V20.739C17.2698 20.3349 20.7734 16.5766 20.7734 12C20.7734 7.42343 17.2698 3.66514 12.7985 3.26101ZM11.1985 20.7391C6.72709 20.335 3.22344 16.5767 3.22344 12C3.22344 7.4234 6.72709 3.66508 11.1985 3.261V2.05664C6.06348 2.46411 2.02344 6.76027 2.02344 12C2.02344 17.2398 6.06348 21.536 11.1985 21.9434V20.7391ZM14.7726 8.21283C15.4809 7.91893 16.1855 8.63918 15.8762 9.34083L14.0079 13.5782C13.9212 13.7749 13.7631 13.9315 13.5655 14.0163L9.27498 15.8584C8.56942 16.1613 7.85568 15.4475 8.15859 14.742L9.99936 10.4544C10.0867 10.2509 10.2501 10.0895 10.4546 10.0046L14.7726 8.21283ZM14.4257 9.65598L11.0459 11.0585L9.60709 14.4099L12.9655 12.968L14.4257 9.65598Z" fill="black"/>
</svg>
