<svg width="24" height="24" viewBox="0 0 24 24" fill="none" xmlns="http://www.w3.org/2000/svg">
<path fill-rule="evenodd" clip-rule="evenodd" d="M6.59902 4.25039C6.59902 3.78095 6.97957 3.40039 7.44902 3.40039H19.7484C20.2179 3.40039 20.5984 3.78095 20.5984 4.25039V16.5504C20.5984 17.0198 20.2179 17.4004 19.7484 17.4004H18.5988V16.2004H19.3984V4.60039H7.79902V5.40039H6.59902V4.25039ZM3.39844 7.45039C3.39844 6.98095 3.779 6.60039 4.24844 6.60039H16.5479C17.0173 6.60039 17.3979 6.98095 17.3979 7.45039V19.7504C17.3979 20.2198 17.0173 20.6004 16.5479 20.6004H4.24844C3.779 20.6004 3.39844 20.2198 3.39844 19.7504V7.45039ZM4.59844 7.80039V19.4004H16.1979V7.80039H4.59844Z" fill="black"/>
</svg>
