<svg width="24" height="24" viewBox="0 0 24 24" fill="none" xmlns="http://www.w3.org/2000/svg">
<path fill-rule="evenodd" clip-rule="evenodd" d="M12.6347 4.7305L18.9985 4.73047L18.9985 5.93047L12.6238 5.9305C12.6235 5.9305 12.6241 5.9305 12.6238 5.9305C11.6298 5.93359 10.6764 6.32978 9.97332 7.03285C9.26811 7.73806 8.87165 8.69431 8.87094 9.69155L8.87094 17.221L11.1198 14.9722L11.9683 15.8207L8.8721 18.9169C8.54016 19.2489 8.00197 19.2489 7.67002 18.9169L4.57422 15.8211L5.42275 14.9726L7.67094 17.2208L7.67094 9.69422C7.67094 9.69319 7.67094 9.69217 7.67094 9.69115V9.49996H7.67474C7.72349 8.25409 8.23979 7.06932 9.12479 6.18433C10.0523 5.25683 11.3091 4.73429 12.6203 4.7305L12.6347 4.7305Z" fill="black"/>
</svg>
