<svg width="24" height="24" viewBox="0 0 24 24" fill="none" xmlns="http://www.w3.org/2000/svg">
<path fill-rule="evenodd" clip-rule="evenodd" d="M18.0713 11.3747L18.0714 5L19.2714 5.00001L19.2713 11.3638V11.3762L19.2713 11.3781C19.2676 12.6894 18.745 13.9462 17.8175 14.8737C16.9325 15.7587 15.7478 16.275 14.5019 16.3237V16.3275H6.78103L9.02923 18.5757L8.1807 19.4243L5.0849 16.3285C4.75295 15.9965 4.75295 15.4583 5.0849 15.1264L8.18114 12.0301L9.02967 12.8787L6.78079 15.1275H14.3076C15.3058 15.1275 16.2631 14.731 16.969 14.0252C17.672 13.3221 18.0682 12.3686 18.0713 11.3747C18.0713 11.3743 18.0713 11.375 18.0713 11.3747Z" fill="black"/>
</svg>
