<svg width="24" height="24" viewBox="0 0 24 24" fill="none" xmlns="http://www.w3.org/2000/svg">
<path fill-rule="evenodd" clip-rule="evenodd" d="M18.668 7.67188L9.68805 7.67187L9.68805 8.87188L18.668 8.87188L18.668 7.67188Z" fill="black"/>
<path fill-rule="evenodd" clip-rule="evenodd" d="M17.8209 8.27302L14.9726 5.4247L15.8211 4.57617L18.9169 7.67197C19.2489 8.00392 19.2489 8.54211 18.9169 8.87406L15.8207 11.9703L14.9722 11.1218L17.8209 8.27302ZM9.69422 8.8729C8.69601 8.8729 7.73869 9.26943 7.03286 9.97527C6.32977 10.6784 5.93358 11.631 5.9305 12.6249C5.9305 12.6252 5.9305 12.6255 5.9305 12.6258L5.93047 19.0004L4.73047 19.0004L4.7305 12.6366H4.73048L4.7305 12.6241V12.624L4.7305 12.6223C4.73428 11.311 5.25682 10.0542 6.18433 9.12674C7.11521 8.19586 8.37775 7.6729 9.69422 7.6729V8.8729Z" fill="black"/>
</svg>
