<svg width="24" height="24" viewBox="0 0 24 24" fill="none" xmlns="http://www.w3.org/2000/svg">
<path fill-rule="evenodd" clip-rule="evenodd" d="M5.0849 7.67197L8.1807 4.57617L9.02923 5.4247L6.78103 7.6729L14.3076 7.6729C14.3081 7.6729 14.3086 7.6729 14.3092 7.6729C14.3101 7.6729 14.311 7.6729 14.3119 7.6729C15.6268 7.67404 16.8876 8.19688 17.8175 9.12674C18.745 10.0542 19.2676 11.311 19.2713 12.6223L19.2713 12.624V12.6243L19.2714 12.6366H19.2713L19.2714 19.0004L18.0714 19.0004L18.0713 12.6258C18.0713 12.6255 18.0713 12.6251 18.0713 12.6248C18.0682 11.6309 17.672 10.6783 16.969 9.97527C16.2635 9.26975 15.3067 8.87325 14.309 8.8729C14.3085 8.8729 14.3081 8.8729 14.3076 8.8729H6.78079L9.02967 11.1218L8.18114 11.9703L5.0849 8.87406C4.75295 8.54211 4.75295 8.00392 5.0849 7.67197Z" fill="black"/>
</svg>
