<svg width="24" height="24" viewBox="0 0 24 24" fill="none" xmlns="http://www.w3.org/2000/svg">
<path fill-rule="evenodd" clip-rule="evenodd" d="M4.7305 11.3638L4.73047 5.00001L5.93047 5L5.9305 11.3747C5.9305 11.3749 5.9305 11.3744 5.9305 11.3747C5.93358 12.3686 6.32977 13.3221 7.03286 14.0252C7.73869 14.731 8.69601 15.1275 9.69422 15.1275H17.221L14.9722 12.8787L15.8207 12.0301L18.9169 15.1264C19.2489 15.4583 19.2489 15.9965 18.9169 16.3285L15.8211 19.4243L14.9726 18.5757L17.2208 16.3275H9.4999V16.3237C8.25405 16.275 7.06931 15.7587 6.18433 14.8737C5.25682 13.9462 4.73428 12.6894 4.7305 11.3781L4.7305 11.3764L4.7305 11.3638Z" fill="black"/>
</svg>
