<svg width="24" height="24" viewBox="0 0 24 24" fill="none" xmlns="http://www.w3.org/2000/svg">
<path fill-rule="evenodd" clip-rule="evenodd" d="M8.87094 6.77884L11.1198 9.02772L11.9683 8.17919L8.8721 5.08294C8.54016 4.751 8.00197 4.751 7.67002 5.08294L4.57422 8.17875L5.42275 9.02727L7.67094 6.77908L7.67094 14.3057C7.67094 14.3069 7.67094 14.3082 7.67094 14.3095V14.4999H7.67474C7.72349 15.7458 8.23979 16.9306 9.12479 17.8156C10.0523 18.7431 11.3091 19.2656 12.6204 19.2694L12.6221 19.2694H12.6223L12.6347 19.2694V19.2694L18.9985 19.2694L18.9985 18.0694L12.6238 18.0694C12.6235 18.0694 12.6232 18.0694 12.6229 18.0694C11.6289 18.0663 10.6764 17.6701 9.97331 16.967C9.26825 16.262 8.87182 15.306 8.87094 14.309L8.87094 6.77884Z" fill="black"/>
</svg>
