<svg width="24" height="24" viewBox="0 0 24 24" fill="none" xmlns="http://www.w3.org/2000/svg">
<path fill-rule="evenodd" clip-rule="evenodd" d="M2.39844 5.75039C2.39844 5.28095 2.77899 4.90039 3.24844 4.90039H20.7484C21.2179 4.90039 21.5984 5.28095 21.5984 5.75039V8.30038H20.3984V6.10039H3.59844V8.30038H2.39844V5.75039ZM20.3984 9.90038V17.9004H3.59844V9.90038H2.39844V18.2504C2.39844 18.7198 2.779 19.1004 3.24844 19.1004H20.7484C21.2179 19.1004 21.5984 18.7198 21.5984 18.2504V9.90038H20.3984ZM18.9984 8.49919H4.99844V7.29919H18.9984V8.49919ZM18.9984 10.9015H4.99844V9.70154H18.9984V10.9015ZM16.1983 14.5004C16.1983 14.9422 16.5565 15.3004 16.9983 15.3004C17.4402 15.3004 17.7983 14.9422 17.7983 14.5004H18.9983C18.9983 15.605 18.1029 16.5004 16.9983 16.5004C15.8938 16.5004 14.9983 15.605 14.9983 14.5004H16.1983Z" fill="black"/>
</svg>
