<svg width="24" height="24" viewBox="0 0 24 24" fill="none" xmlns="http://www.w3.org/2000/svg">
<path fill-rule="evenodd" clip-rule="evenodd" d="M11.9984 3.70805L5.13052 8.0005L11.9984 12.293L18.8664 8.0005L11.9984 3.70805ZM19.3984 9.08305L12.5984 13.333V19.918L19.3984 15.668V9.08305ZM11.3984 19.918V13.333L4.59844 9.08305V15.668L11.3984 19.918ZM11.5479 2.57451C11.8236 2.40225 12.1733 2.40224 12.4489 2.57451L20.3164 7.4917C20.4919 7.60134 20.5984 7.79363 20.5984 8.0005V15.8619C20.5984 16.155 20.4475 16.4274 20.1989 16.5827L12.3164 21.5093C12.1219 21.6309 11.875 21.6309 11.6804 21.5093L3.79794 16.5827C3.54941 16.4274 3.39844 16.155 3.39844 15.8619V8.0005C3.39844 7.79363 3.50501 7.60134 3.68044 7.4917L11.5479 2.57451Z" fill="black"/>
</svg>
