<svg width="24" height="24" viewBox="0 0 24 24" fill="none" xmlns="http://www.w3.org/2000/svg">
<path fill-rule="evenodd" clip-rule="evenodd" d="M16.25 4.60039C15.4768 4.60039 14.85 5.22719 14.85 6.00039C14.85 6.77359 15.4768 7.40039 16.25 7.40039C17.0232 7.40039 17.65 6.77359 17.65 6.00039C17.65 5.22719 17.0232 4.60039 16.25 4.60039ZM13.65 6.00039C13.65 4.56445 14.814 3.40039 16.25 3.40039C17.6859 3.40039 18.85 4.56445 18.85 6.00039C18.85 7.43633 17.6859 8.60039 16.25 8.60039C14.814 8.60039 13.65 7.43633 13.65 6.00039ZM12.7981 9.6671C13.4372 11.3314 15.1184 12.4429 16.9831 12.2797L16.8785 11.0843C15.4304 11.211 14.1371 10.2501 13.8069 8.8784C13.7292 8.55552 13.4885 8.33302 13.2247 8.24299C12.956 8.15129 12.6065 8.18112 12.3441 8.4357L8.52495 12.1403C8.2438 12.413 8.21931 12.7875 8.32333 13.0646C8.4256 13.3371 8.67563 13.5876 9.03384 13.6366C10.933 13.8964 12.3965 15.5262 12.3965 17.4969H13.5965C13.5965 15.1334 11.9881 13.1464 9.80603 12.5694L12.7981 9.6671ZM5.74998 14.6744C4.84531 14.6744 4.07114 15.2331 3.75375 16.0244H2.49611C2.8548 14.5605 4.17555 13.4744 5.74998 13.4744C7.32442 13.4744 8.64517 14.5605 9.00386 16.0244H7.74621C7.42882 15.2331 6.65465 14.6744 5.74998 14.6744ZM2.49609 17.6244H3.75373C4.07111 18.4156 4.84529 18.9744 5.74998 18.9744C6.65467 18.9744 7.42886 18.4156 7.74623 17.6244H9.00387C8.6452 19.0882 7.32443 20.1744 5.74998 20.1744C4.17553 20.1744 2.85476 19.0882 2.49609 17.6244ZM16.2537 17.6244H14.9961C15.3548 19.0882 16.6755 20.1744 18.25 20.1744C19.8244 20.1744 21.1452 19.0882 21.5039 17.6244H20.2462C19.9289 18.4156 19.1547 18.9744 18.25 18.9744C17.3453 18.9744 16.5711 18.4156 16.2537 17.6244ZM20.2462 16.0244H21.5039C21.1452 14.5605 19.8244 13.4744 18.25 13.4744C16.6755 13.4744 15.3548 14.5605 14.9961 16.0244H16.2538C16.5711 15.2331 17.3453 14.6744 18.25 14.6744C19.1546 14.6744 19.9288 15.2331 20.2462 16.0244Z" fill="black"/>
</svg>
