<svg width="24" height="24" viewBox="0 0 24 24" fill="none" xmlns="http://www.w3.org/2000/svg">
<path fill-rule="evenodd" clip-rule="evenodd" d="M5.31328 5.92898C5.31333 5.85623 5.35709 5.69155 5.65722 5.45501C5.95075 5.22367 6.41267 4.98909 7.03695 4.78098C8.27924 4.36685 10.0336 4.10039 11.9989 4.10039C13.9643 4.10039 15.7186 4.36685 16.9609 4.78098C17.5852 4.98909 18.0471 5.22367 18.3406 5.45501C18.6409 5.69168 18.6846 5.85642 18.6846 5.9291V5.93233C18.6832 6.00664 18.6364 6.16996 18.3407 6.40304C18.0471 6.63437 17.5852 6.86893 16.9609 7.07703C15.7187 7.49113 13.9643 7.75755 11.9989 7.75755C10.0336 7.75755 8.27923 7.49113 7.03694 7.07703C6.41266 6.86893 5.95074 6.63437 5.65721 6.40304C5.35692 6.16639 5.31328 6.00166 5.31328 5.92898ZM4.11328 5.92898C4.11333 5.33109 4.4774 4.85696 4.91443 4.51253C5.35825 4.16274 5.96329 3.87398 6.65745 3.64257C8.05205 3.17766 9.94051 2.90039 11.9989 2.90039C14.0574 2.90039 15.9458 3.17766 17.3404 3.64257C18.0346 3.87398 18.6396 4.16275 19.0834 4.51253C19.5205 4.85697 19.8845 5.33109 19.8846 5.92898H19.8846C19.8846 5.93214 19.8846 5.9353 19.8846 5.93846V12.0005H19.8846C19.8846 12.0037 19.8846 12.0068 19.8846 12.01V18.0718H19.8846C19.8846 18.6698 19.5205 19.1439 19.0834 19.4884C18.6396 19.8381 18.0346 20.1269 17.3404 20.3583C15.9458 20.8231 14.0574 21.1004 11.9989 21.1004C9.94052 21.1004 8.05206 20.8231 6.65746 20.3583C5.9633 20.1269 5.35826 19.8381 4.91444 19.4884C4.47742 19.1439 4.11335 18.6698 4.11328 18.072C4.11328 18.0719 4.11328 18.0719 4.11328 18.0718V12.0005V5.9291C4.11328 5.92906 4.11328 5.92902 4.11328 5.92898ZM5.31328 13.6904V18.0718C5.31328 18.0719 5.31328 18.0719 5.31328 18.072C5.31334 18.1447 5.35714 18.3094 5.65721 18.5459C5.95074 18.7772 6.41266 19.0118 7.03694 19.2199C8.27923 19.634 10.0336 19.9004 11.9989 19.9004C13.9643 19.9004 15.7187 19.634 16.9609 19.2199C17.5852 19.0118 18.0471 18.7772 18.3407 18.5459C18.6407 18.3094 18.6845 18.1447 18.6846 18.072H18.6846V13.6904C18.302 13.9205 17.8447 14.1189 17.3404 14.287C15.9458 14.7519 14.0574 15.0291 11.9989 15.0291C9.94052 15.0291 8.05206 14.7519 6.65746 14.287C6.15315 14.1189 5.69587 13.9205 5.31328 13.6904ZM18.6846 12.0039C18.6832 12.0782 18.6364 12.2415 18.3407 12.4746C18.0471 12.7059 17.5852 12.9405 16.9609 13.1486C15.7187 13.5627 13.9643 13.8291 11.9989 13.8291C10.0336 13.8291 8.27923 13.5627 7.03694 13.1486C6.41266 12.9405 5.95074 12.7059 5.65721 12.4746C5.35692 12.2379 5.31328 12.0732 5.31328 12.0005V7.61889C5.69587 7.84896 6.15315 8.04734 6.65746 8.21545C8.05206 8.68032 9.94052 8.95755 11.9989 8.95755C14.0574 8.95755 15.9458 8.68032 17.3404 8.21545C17.8447 8.04735 18.302 7.84897 18.6846 7.61891V12.0039Z" fill="black"/>
</svg>
