<svg width="24" height="24" viewBox="0 0 24 24" fill="none" xmlns="http://www.w3.org/2000/svg">
<path fill-rule="evenodd" clip-rule="evenodd" d="M8.50286 5.64935C8.66227 5.48995 8.87847 5.40039 9.10391 5.40039H20.7504C21.2198 5.40039 21.6004 5.78095 21.6004 6.25039V17.7504C21.6004 18.2198 21.2198 18.6004 20.7504 18.6004H9.10391C8.87847 18.6004 8.66227 18.5108 8.50287 18.3514L8.92713 17.9272L8.50287 18.3514L2.75287 12.6014C2.42092 12.2695 2.42092 11.7313 2.75287 11.3993L8.50286 5.64935ZM9.24888 6.60039L3.84888 12.0004L9.24888 17.4004H20.4004V6.60039H9.24888ZM3.60165 11.7532C3.60157 11.7531 3.60148 11.753 3.60139 11.7529L3.35391 12.0004L3.60139 11.7529L3.60165 11.7532ZM9.35112 6.49815C9.35121 6.49806 9.3513 6.49797 9.35139 6.49788L9.10391 6.25039L9.35139 6.49788L9.35112 6.49815ZM14.0004 11.1519L16.5761 8.57613L17.4246 9.42465L14.8489 12.0004L17.4246 14.5761L16.5761 15.4247L14.0004 12.8489L11.4246 15.4247L10.5761 14.5761L13.1518 12.0004L10.5761 9.42465L11.4246 8.57613L14.0004 11.1519Z" fill="black"/>
</svg>
