<svg width="24" height="24" viewBox="0 0 24 24" fill="none" xmlns="http://www.w3.org/2000/svg">
<path fill-rule="evenodd" clip-rule="evenodd" d="M2.02344 12C2.02344 6.7603 6.06343 2.46416 11.1984 2.05665V3.26101C6.72704 3.66514 3.22344 7.42343 3.22344 12C3.22344 16.5766 6.72704 20.3349 11.1984 20.739V21.9434C6.06343 21.5359 2.02344 17.2398 2.02344 12ZM12.7984 21.9434C17.9334 21.536 21.9734 17.2398 21.9734 12C21.9734 6.76027 17.9334 2.46411 12.7984 2.05664V3.261C17.2698 3.66508 20.7734 7.4234 20.7734 12C20.7734 16.5767 17.2698 20.335 12.7984 20.7391V21.9434ZM11.9984 9.22503C10.4658 9.22503 9.22344 10.4674 9.22344 12C9.22344 13.5326 10.4658 14.775 11.9984 14.775C13.531 14.775 14.7734 13.5326 14.7734 12C14.7734 10.4674 13.531 9.22503 11.9984 9.22503ZM8.02344 12C8.02344 9.8047 9.80311 8.02503 11.9984 8.02503C14.1938 8.02503 15.9734 9.8047 15.9734 12C15.9734 14.1954 14.1938 15.975 11.9984 15.975C9.80311 15.975 8.02344 14.1954 8.02344 12Z" fill="black"/>
</svg>
