<svg width="24" height="24" viewBox="0 0 24 24" fill="none" xmlns="http://www.w3.org/2000/svg">
<path fill-rule="evenodd" clip-rule="evenodd" d="M9.15 6.37464C9.15 5.00649 10.1141 3.8635 11.3999 3.58793V4.83716C10.7854 5.07721 10.35 5.67508 10.35 6.37464C10.35 7.0742 10.7854 7.67208 11.3999 7.91212V9.16135C10.1141 8.88578 9.15 7.74279 9.15 6.37464ZM13.65 6.37464C13.65 7.07427 13.2146 7.6722 12.5999 7.9122V9.16139C13.8859 8.8859 14.85 7.74286 14.85 6.37464C14.85 5.00642 13.8859 3.86339 12.5999 3.58789V4.83709C13.2146 5.07708 13.65 5.67501 13.65 6.37464ZM3 12.5996V11.3996H21V12.5996H3ZM11.3999 16.0872C10.7854 16.3272 10.35 16.9251 10.35 17.6246C10.35 18.3242 10.7854 18.9221 11.3999 19.1621V20.4114C10.1141 20.1358 9.15 18.9928 9.15 17.6246C9.15 16.2565 10.1141 15.1135 11.3999 14.8379V16.0872ZM12.5999 19.1622C13.2146 18.9222 13.65 18.3243 13.65 17.6246C13.65 16.925 13.2146 16.3271 12.5999 16.0871V14.8379C13.8859 15.1134 14.85 16.2564 14.85 17.6246C14.85 18.9929 13.8859 20.1359 12.5999 20.4114V19.1622Z" fill="black"/>
</svg>
