<svg width="24" height="24" viewBox="0 0 24 24" fill="none" xmlns="http://www.w3.org/2000/svg">
<path fill-rule="evenodd" clip-rule="evenodd" d="M10.2719 5.10001H9.75001C8.75544 5.10001 7.80162 5.49509 7.09835 6.19836C6.39509 6.90162 6 7.85545 6 8.85001C6 9.84458 6.39509 10.7984 7.09835 11.5017C7.80161 12.2049 8.75544 12.6 9.75001 12.6H10.2719V11.4H9.75001C9.0737 11.4 8.4251 11.1314 7.94688 10.6531C7.46866 10.1749 7.2 9.52632 7.2 8.85001C7.2 8.17371 7.46866 7.5251 7.94688 7.04689C8.4251 6.56867 9.0737 6.30001 9.75001 6.30001H10.2719V5.10001ZM10.2719 17.7H6.6V18.9H10.2719V17.7ZM13.7103 18.9H14.124C15.1446 18.9 16.1278 18.5104 16.8564 17.8099C17.5857 17.1086 18 16.1524 18 15.15C18 14.1477 17.5857 13.1914 16.8564 12.4901C16.1579 11.8185 15.2252 11.4327 14.25 11.402V11.4L14.127 11.4L14.1266 11.4H13.7103V12.6L14.1261 12.6L14.1266 12.6H14.1271C14.8432 12.6008 15.5252 12.8749 16.0246 13.3551C16.524 13.8353 16.8 14.4815 16.8 15.15C16.8 15.8186 16.524 16.4647 16.0246 16.9449C15.5244 17.4259 14.8412 17.7 14.124 17.7H13.7103V18.9ZM13.7103 6.30001H17.4V5.10001H13.7103V6.30001ZM11.4719 3H12.5103V21H11.4719V3Z" fill="black"/>
</svg>
