<svg width="24" height="24" viewBox="0 0 24 24" fill="none" xmlns="http://www.w3.org/2000/svg">
<path fill-rule="evenodd" clip-rule="evenodd" d="M11.3993 3.75287C11.7313 3.42092 12.2694 3.42092 12.6014 3.75287L15.7114 6.86287L14.8629 7.7114L12.0004 4.84888L9.13739 7.71184L8.28886 6.86331L11.3993 3.75287ZM3.75287 11.3999L6.86287 8.28987L7.7114 9.13839L4.84888 12.0009L7.71184 14.8639L6.86331 15.7124L3.75287 12.602C3.42092 12.27 3.42092 11.7318 3.75287 11.3999ZM19.1527 12.0009L16.2902 9.13839L17.1388 8.28987L20.2488 11.3999C20.5807 11.7318 20.5807 12.27 20.2488 12.602L17.1383 15.7124L16.2898 14.8639L19.1527 12.0009ZM12.0008 11.2008C11.559 11.2008 11.2008 11.559 11.2008 12.0008C11.2008 12.4426 11.559 12.8008 12.0008 12.8008C12.4426 12.8008 12.8008 12.4426 12.8008 12.0008C12.8008 11.559 12.4426 11.2008 12.0008 11.2008ZM10.0008 12.0008C10.0008 10.8962 10.8962 10.0008 12.0008 10.0008C13.1054 10.0008 14.0008 10.8962 14.0008 12.0008C14.0008 13.1054 13.1054 14.0008 12.0008 14.0008C10.8962 14.0008 10.0008 13.1054 10.0008 12.0008ZM12.0004 19.1527L9.13739 16.2898L8.28886 17.1383L11.3993 20.2488C11.7313 20.5807 12.2694 20.5807 12.6014 20.2488L15.7114 17.1388L14.8629 16.2902L12.0004 19.1527Z" fill="black"/>
</svg>
