<svg width="24" height="24" viewBox="0 0 24 24" fill="none" xmlns="http://www.w3.org/2000/svg">
<path fill-rule="evenodd" clip-rule="evenodd" d="M14.2898 5.14141C15.1684 4.26276 16.593 4.26276 17.4716 5.14141C18.3503 6.02005 18.3503 7.44462 17.4716 8.32327L17.342 8.4529L16.4935 7.60437L16.6231 7.47474L17.0474 7.899L16.6231 7.47474C17.0331 7.06472 17.0331 6.39995 16.6231 5.98994C16.2131 5.57992 15.5483 5.57992 15.1383 5.98994L15.0087 6.11956L14.1601 5.27104L14.2898 5.14141L14.714 5.56567L14.2898 5.14141ZM6.03885 15.0894L13.8799 7.24837L13.0313 6.39984L5.0917 14.3395C4.93792 14.4933 4.84893 14.7002 4.84305 14.9176L4.78806 16.9523L4.78806 16.9523C4.77489 17.4396 5.17341 17.8382 5.66071 17.825L7.69549 17.77C7.91289 17.7641 8.11978 17.6751 8.27356 17.5213L16.2132 9.5817L15.3647 8.73317L7.52365 16.5742L5.9976 16.6154L6.03885 15.0894ZM19.7852 20.1991H4.78516V18.9991H19.7852V20.1991Z" fill="black"/>
</svg>
