<svg width="24" height="24" viewBox="0 0 24 24" fill="none" xmlns="http://www.w3.org/2000/svg">
<path fill-rule="evenodd" clip-rule="evenodd" d="M14.4022 3.40039H19.7519C20.2214 3.40039 20.6019 3.78093 20.6019 4.25036C20.6019 4.25037 20.6019 4.25038 20.6019 4.25039L20.6022 9.6004L19.4022 9.60046L19.402 5.44982L12.4268 12.4247L11.5783 11.5761L18.5544 4.60039H14.4022V3.40039ZM12.0023 4.60043C7.91544 4.60043 4.60234 7.91352 4.60234 12.0004C4.60234 16.0873 7.91544 19.4004 12.0023 19.4004C16.0893 19.4004 19.4023 16.0873 19.4023 12.0004H20.6023C20.6023 16.7501 16.752 20.6004 12.0023 20.6004C7.2527 20.6004 3.40234 16.7501 3.40234 12.0004C3.40234 7.25078 7.2527 3.40043 12.0023 3.40043V4.60043Z" fill="black"/>
</svg>
