<svg width="24" height="24" viewBox="0 0 24 24" fill="none" xmlns="http://www.w3.org/2000/svg">
<path fill-rule="evenodd" clip-rule="evenodd" d="M4.88963 8.00286C3.1171 9.80339 2.02344 12.2742 2.02344 15.0004H3.22344C3.22344 12.6055 4.1828 10.4348 5.73819 8.85142L4.88963 8.00286ZM8.79544 9.64593C8.79545 9.64592 8.79546 9.6459 8.79547 9.64589L6.96277 7.8132C6.96276 7.8132 6.96275 7.81321 6.96273 7.81322L6.10281 6.9533C6.10283 6.95329 6.10284 6.95328 6.10285 6.95328L4.57424 5.42467L5.42274 4.57617L19.4938 18.6472L18.6453 19.4957L16.8611 17.7115C16.8611 17.7116 16.8611 17.7116 16.8611 17.7116L15.9745 16.8249C15.9745 16.8249 15.9745 16.8249 15.9745 16.8249L14.3529 15.2034C14.3529 15.2034 14.3529 15.2034 14.3529 15.2034L13.4902 14.3407C13.4902 14.3407 13.4903 14.3407 13.4903 14.3407L9.65814 10.5086C9.65813 10.5086 9.65812 10.5086 9.65811 10.5086L8.79544 9.64593ZM8.10114 11.2144C8.05018 11.4685 8.02344 11.7313 8.02344 12.0004C8.02344 14.1957 9.80311 15.9754 11.9984 15.9754C12.2675 15.9754 12.5304 15.9487 12.7845 15.8977L11.6391 14.7523C10.3939 14.5913 9.40748 13.6049 9.24649 12.3597L8.10114 11.2144ZM14.3449 17.4581C13.5979 17.6649 12.8109 17.7754 11.9981 17.7754C9.09853 17.7754 6.52743 16.3697 4.92874 14.2L3.96267 14.9119C5.77781 17.3753 8.70112 18.9754 11.9981 18.9754C13.156 18.9754 14.2679 18.778 15.3019 18.4151L14.3449 17.4581ZM19.107 15.9977C19.4409 15.6586 19.7506 15.2957 20.0334 14.9119L19.0674 14.2C18.8202 14.5355 18.5498 14.8526 18.2585 15.1492L19.107 15.9977ZM15.8957 12.7864C15.9467 12.5323 15.9734 12.2695 15.9734 12.0004C15.9734 9.80506 14.1938 8.02539 11.9984 8.02539C11.7293 8.02539 11.4665 8.05213 11.2124 8.1031L12.3577 9.24844C13.603 9.40943 14.5894 10.3959 14.7504 11.6411L15.8957 12.7864ZM9.65195 6.54264C10.3988 6.33587 11.1857 6.22539 11.9984 6.22539C16.8447 6.22539 20.7734 10.1541 20.7734 15.0004H21.9734C21.9734 9.49135 17.5075 5.02539 11.9984 5.02539C10.8405 5.02539 9.72873 5.22268 8.69478 5.58547L9.65195 6.54264Z" fill="black"/>
</svg>
