<svg width="24" height="24" viewBox="0 0 24 24" fill="none" xmlns="http://www.w3.org/2000/svg">
<path fill-rule="evenodd" clip-rule="evenodd" d="M3.22344 15.0004C3.22344 10.1541 7.15214 6.22539 11.9984 6.22539C16.8447 6.22539 20.7734 10.1541 20.7734 15.0004H21.9734C21.9734 9.49135 17.5075 5.02539 11.9984 5.02539C6.4894 5.02539 2.02344 9.49135 2.02344 15.0004H3.22344ZM12.5985 14.7103C13.8426 14.4361 14.7734 13.3269 14.7734 12.0004C14.7734 10.6738 13.8426 9.56471 12.5985 9.29045V8.07039C14.5091 8.35971 15.9734 10.009 15.9734 12.0004C15.9734 13.9917 14.5091 15.6411 12.5985 15.9304V14.7103ZM11.3985 9.2904C10.1543 9.56459 9.22344 10.6738 9.22344 12.0004C9.22344 13.327 10.1543 14.4362 11.3985 14.7104V15.9304C9.48784 15.6412 8.02344 13.9918 8.02344 12.0004C8.02344 10.009 9.48784 8.35959 11.3985 8.07036V9.2904ZM11.9981 17.7754C9.09853 17.7754 6.52743 16.3697 4.92874 14.2L3.96267 14.9119C5.77781 17.3753 8.70112 18.9754 11.9981 18.9754C15.295 18.9754 18.2183 17.3753 20.0334 14.9119L19.0674 14.2C17.4687 16.3697 14.8976 17.7754 11.9981 17.7754Z" fill="black"/>
</svg>
