<svg width="24" height="24" viewBox="0 0 24 24" fill="none" xmlns="http://www.w3.org/2000/svg">
<path fill-rule="evenodd" clip-rule="evenodd" d="M10.247 4.60039L5.59844 9.24892V19.4004H18.3984V4.60039H10.247ZM9.50095 3.64935C9.66036 3.48994 9.87656 3.40039 10.102 3.40039H18.7484C19.2179 3.40039 19.5984 3.78095 19.5984 4.25039V19.7504C19.5984 20.2198 19.2179 20.6004 18.7484 20.6004H5.24844C4.77899 20.6004 4.39844 20.2198 4.39844 19.7504V9.10394C4.39844 8.87851 4.48799 8.66231 4.6474 8.5029L9.50095 3.64935ZM11.5984 6.19681V9.75039C11.5984 10.2198 11.2179 10.6004 10.7484 10.6004H7.1949V9.40039H10.3984V6.19681H11.5984Z" fill="black"/>
</svg>
