<svg width="24" height="24" viewBox="0 0 24 24" fill="none" xmlns="http://www.w3.org/2000/svg">
<path fill-rule="evenodd" clip-rule="evenodd" d="M9.50095 3.64935C9.66036 3.48994 9.87656 3.40039 10.102 3.40039H18.7484C19.2179 3.40039 19.5984 3.78095 19.5984 4.25039V19.7504C19.5984 20.2198 19.2179 20.6004 18.7484 20.6004H5.24844C4.77899 20.6004 4.39844 20.2198 4.39844 19.7504V9.10394C4.39844 8.87851 4.48799 8.66231 4.6474 8.5029L9.50095 3.64935ZM10.247 4.60039L5.59844 9.24892V19.4004H18.3984V4.60039H10.247ZM5.4962 9.35116L5.49592 9.35143L5.24844 9.10394L5.49592 9.35143C5.49602 9.35134 5.49611 9.35125 5.4962 9.35116ZM10.3492 4.49816C10.3493 4.49807 10.3494 4.49797 10.3495 4.49788L10.102 4.25039L10.3495 4.49788L10.3492 4.49816ZM11.3984 11.4004V9.00039H12.5984V11.4004H14.9984V12.6004H12.5984V15.0004H11.3984V12.6004H8.99844V11.4004H11.3984Z" fill="black"/>
</svg>
