<svg width="24" height="24" viewBox="0 0 24 24" fill="none" xmlns="http://www.w3.org/2000/svg">
<path fill-rule="evenodd" clip-rule="evenodd" d="M2.52344 3.37539C2.52344 2.90595 2.90399 2.52539 3.37344 2.52539H20.6234C21.0929 2.52539 21.4734 2.90595 21.4734 3.37539V20.6254C21.4734 21.0948 21.0929 21.4754 20.6234 21.4754H3.37344C2.904 21.4754 2.52344 21.0948 2.52344 20.6254V3.37539ZM3.72344 3.72539V6.90039H6.39844V3.72539H3.72344ZM7.59844 3.72539L7.59844 11.4004H16.3984V3.72539H7.59844ZM17.5984 3.72539V6.90039H20.2734V3.72539H17.5984ZM20.2734 8.10039H17.5984V11.4004H20.2734V8.10039ZM20.2734 12.6004H17.5984V15.4004H20.2734V12.6004ZM20.2734 16.6004H17.5984V20.2754H20.2734V16.6004ZM16.3984 20.2754V12.6004H7.59844L7.59844 20.2754H16.3984ZM6.39844 20.2754L6.39844 16.6004H3.72344V20.2754H6.39844ZM3.72344 15.4004H6.39844V12.6004H3.72344V15.4004ZM3.72344 11.4004H6.39844L6.39844 8.10039H3.72344V11.4004Z" fill="black"/>
</svg>
