<svg width="24" height="24" viewBox="0 0 24 24" fill="none" xmlns="http://www.w3.org/2000/svg">
<path fill-rule="evenodd" clip-rule="evenodd" d="M4.09844 5.89922V18.0992H19.8984V8.29921H10.1155C9.86327 8.29921 9.62404 8.18716 9.46254 7.99337L7.71741 5.89922H4.09844ZM2.89844 5.54922C2.89844 5.07978 3.279 4.69922 3.74844 4.69922H7.88134C8.13361 4.69922 8.37284 4.81127 8.53433 5.00506L10.2795 7.09921H20.2484C20.7179 7.09921 21.0984 7.47976 21.0984 7.94921V18.4492C21.0984 18.9186 20.7179 19.2992 20.2484 19.2992H3.74844C3.279 19.2992 2.89844 18.9186 2.89844 18.4492V5.54922Z" fill="black"/>
<path fill-rule="evenodd" clip-rule="evenodd" d="M11.3984 12.3993V9.99927H12.5984V12.3993H14.9984V13.5993H12.5984V15.9993H11.3984V13.5993H8.99841V12.3993H11.3984Z" fill="black"/>
</svg>
