<svg width="24" height="24" viewBox="0 0 24 24" fill="none" xmlns="http://www.w3.org/2000/svg">
<path fill-rule="evenodd" clip-rule="evenodd" d="M12.7987 3.26112V2.0567C14.3709 2.18328 15.9043 2.68202 17.2659 3.52877C18.4091 4.2396 19.3857 5.16738 20.1483 6.24799V3.99959H21.3483V7.68709C21.3483 8.19105 20.9398 8.59959 20.4358 8.59959H16.7483V7.39959H19.4712C18.7644 6.25152 17.7965 5.27175 16.6323 4.54781C15.4622 3.82022 14.1481 3.38472 12.7987 3.26112ZM11.1987 2.05664V3.26105C10.8939 3.28896 10.5894 3.33292 10.2866 3.39317C8.10143 3.82782 6.16346 5.07735 4.86574 6.88832C3.56802 8.69928 3.00774 10.9361 3.29854 13.1449C3.58934 15.3538 4.70946 17.3693 6.43167 18.7827C7.79722 19.9034 9.46025 20.579 11.1987 20.7381V21.9425C9.18294 21.7804 7.25131 21.0078 5.6704 19.7103C3.71267 18.1037 2.43938 15.8125 2.10881 13.3016C1.77823 10.7906 2.41514 8.24796 3.89032 6.18934C5.36551 4.13073 7.56851 2.71031 10.0524 2.21623C10.4329 2.14054 10.8157 2.08746 11.1987 2.05664ZM12.7987 21.9424C15.2703 21.7435 17.5814 20.6308 19.2789 18.8184C21.0101 16.9699 21.9735 14.5322 21.9735 11.9996H20.7735C20.7735 14.2275 19.926 16.372 18.403 17.9981C16.9318 19.5689 14.9367 20.5423 12.7987 20.738V21.9424ZM10.307 9.84959H14.7486V8.64959H9.8478C9.43864 8.64959 9.10696 8.98128 9.10696 9.39043V11.8587C9.10696 12.2679 9.43864 12.5996 9.8478 12.5996H13.6903V14.1496H9.24862V15.3496H14.1494C14.5586 15.3496 14.8903 15.0179 14.8903 14.6087V12.1404C14.8903 11.7313 14.5586 11.3996 14.1494 11.3996H10.307V9.84959Z" fill="black"/>
</svg>
