<svg width="24" height="24" viewBox="0 0 24 24" fill="none" xmlns="http://www.w3.org/2000/svg">
<path fill-rule="evenodd" clip-rule="evenodd" d="M10.2866 3.39317C10.5894 3.33292 10.8939 3.28896 11.1987 3.26105V2.05664C10.8157 2.08746 10.4329 2.14054 10.0524 2.21623C7.56851 2.71031 5.36551 4.13073 3.89032 6.18934C2.41514 8.24796 1.77823 10.7906 2.10881 13.3016C2.43938 15.8125 3.71267 18.1037 5.6704 19.7103C7.25131 21.0078 9.18294 21.7804 11.1987 21.9425V20.7381C9.46025 20.579 7.79722 19.9034 6.43167 18.7827C4.70946 17.3693 3.58934 15.3538 3.29854 13.1449C3.00774 10.9361 3.56802 8.69928 4.86574 6.88832C6.16346 5.07735 8.10143 3.82782 10.2866 3.39317ZM12.7987 20.738V21.9424C15.2703 21.7435 17.5814 20.6308 19.2789 18.8184C21.0101 16.9699 21.9735 14.5322 21.9735 11.9996H20.7735C20.7735 14.2275 19.926 16.372 18.403 17.9981C16.9318 19.5689 14.9367 20.5423 12.7987 20.738ZM16.6323 4.54781C15.4622 3.82022 14.1481 3.38472 12.7987 3.26112V2.0567C14.3709 2.18328 15.9043 2.68202 17.2659 3.52877C18.4091 4.2396 19.3857 5.16738 20.1483 6.24799V3.99959H21.3483V7.68709C21.3483 8.19105 20.9398 8.59959 20.4358 8.59959H16.7483V7.39959H19.4712C18.7644 6.25152 17.7965 5.27175 16.6323 4.54781ZM8.82343 15.3512L8.82343 8.64803H10.0234L10.0234 15.3512H8.82343ZM12.4238 9.84959V14.1496H13.9738V9.84959H12.4238ZM11.2238 9.49959C11.2238 9.03015 11.6044 8.64959 12.0738 8.64959H14.3238C14.7933 8.64959 15.1738 9.03015 15.1738 9.49959V14.4996C15.1738 14.969 14.7933 15.3496 14.3238 15.3496H12.0738C11.6044 15.3496 11.2238 14.969 11.2238 14.4996V9.49959Z" fill="black"/>
</svg>
