<svg width="24" height="24" viewBox="0 0 24 24" fill="none" xmlns="http://www.w3.org/2000/svg">
<path fill-rule="evenodd" clip-rule="evenodd" d="M19.1289 11.2383V6.5H20.3289V17.5H19.1289V12.7617L12.4113 17.2401C11.8465 17.6167 11.0898 17.2118 11.0898 16.5329V13.1732L4.98946 17.2401L4.65664 16.7409L4.98946 17.2401C4.42459 17.6167 3.66797 17.2118 3.66797 16.5329V7.46713C3.66797 6.78824 4.42459 6.3833 4.98946 6.75989L11.0898 10.8268V7.46713C11.0898 6.78824 11.8465 6.3833 12.4113 6.75989L19.1289 11.2383ZM10.6863 12L4.86797 8.12111V15.8789L10.6863 12ZM12.2898 8.12111L18.1082 12L12.2898 15.8789V8.12111Z" fill="black"/>
</svg>
