<svg width="25" height="24" viewBox="0 0 25 24" fill="none" xmlns="http://www.w3.org/2000/svg">
<path fill-rule="evenodd" clip-rule="evenodd" d="M2.52344 12C2.52344 6.7603 6.56343 2.46416 11.6984 2.05665V3.26101C7.22704 3.66514 3.72344 7.42343 3.72344 12C3.72344 16.5766 7.22704 20.3349 11.6984 20.739V21.9434C6.56343 21.5359 2.52344 17.2398 2.52344 12ZM13.2984 21.9434C18.4334 21.536 22.4734 17.2398 22.4734 12C22.4734 6.76027 18.4334 2.46411 13.2984 2.05664V3.261C17.7698 3.66508 21.2734 7.4234 21.2734 12C21.2734 16.5767 17.7698 20.335 13.2984 20.7391V21.9434ZM8.99844 8.60003C8.77752 8.60003 8.59844 8.77912 8.59844 9.00003C8.59844 9.22094 8.77752 9.40003 8.99844 9.40003C9.21935 9.40003 9.39844 9.22094 9.39844 9.00003C9.39844 8.77912 9.21935 8.60003 8.99844 8.60003ZM7.39844 9.00003C7.39844 8.11637 8.11478 7.40003 8.99844 7.40003C9.88209 7.40003 10.5984 8.11637 10.5984 9.00003C10.5984 9.88369 9.88209 10.6 8.99844 10.6C8.11478 10.6 7.39844 9.88369 7.39844 9.00003ZM15.9984 8.60003C15.7775 8.60003 15.5984 8.77912 15.5984 9.00003C15.5984 9.22094 15.7775 9.40003 15.9984 9.40003C16.2194 9.40003 16.3984 9.22094 16.3984 9.00003C16.3984 8.77912 16.2194 8.60003 15.9984 8.60003ZM14.3984 9.00003C14.3984 8.11637 15.1148 7.40003 15.9984 7.40003C16.8821 7.40003 17.5984 8.11637 17.5984 9.00003C17.5984 9.88369 16.8821 10.6 15.9984 10.6C15.1148 10.6 14.3984 9.88369 14.3984 9.00003ZM7.89844 17C7.89844 14.4595 9.95793 12.4 12.4984 12.4C15.0389 12.4 17.0984 14.4595 17.0984 17H15.8984C15.8984 15.1223 14.3762 13.6 12.4984 13.6C10.6207 13.6 9.09844 15.1223 9.09844 17H7.89844Z" fill="black"/>
</svg>
