<svg width="24" height="24" viewBox="0 0 24 24" fill="none" xmlns="http://www.w3.org/2000/svg">
<path fill-rule="evenodd" clip-rule="evenodd" d="M3.86379 5.78639C3.41245 5.23091 3.80775 4.40039 4.52348 4.40039H19.473C20.1887 4.40039 20.584 5.23091 20.1327 5.78639L14.0982 13.2134V17.8666C14.0982 18.1508 13.9562 18.4162 13.7197 18.5738L11.2197 20.2405C10.6549 20.6171 9.89824 20.2122 9.89824 19.5333V13.2134L3.86379 5.78639ZM5.25882 5.60039L10.9079 12.5531C11.031 12.7047 11.0982 12.8939 11.0982 13.0892V18.8793L12.8982 17.6793V13.0892C12.8982 12.8939 12.9654 12.7047 13.0885 12.5531L18.7377 5.60039H5.25882Z" fill="black"/>
</svg>
