<svg width="24" height="24" viewBox="0 0 24 24" fill="none" xmlns="http://www.w3.org/2000/svg">
<path fill-rule="evenodd" clip-rule="evenodd" d="M10.2508 2C9.78138 2 9.40082 2.38056 9.40082 2.85V4.52089C8.44544 4.85296 7.57378 5.36262 6.8252 6.00992L5.3767 5.17363C4.97016 4.93891 4.4503 5.0782 4.21558 5.48475L2.46558 8.51584C2.23086 8.92239 2.37016 9.44224 2.7767 9.67696L4.22409 10.5126C4.19856 10.6468 4.17641 10.7823 4.15775 10.9188C4.10937 11.2726 4.08442 11.6337 4.08442 12.0003C4.08442 12.3668 4.10937 12.7279 4.15775 13.0818C4.17644 13.2185 4.19861 13.3541 4.22419 13.4885L2.77745 14.3237C2.3709 14.5585 2.2316 15.0783 2.46633 15.4849L4.21633 18.5159C4.45105 18.9225 4.9709 19.0618 5.37745 18.8271L6.82561 17.991C7.5741 18.6381 8.44562 19.1476 9.40082 19.4796V21.1505C9.40082 21.6199 9.78138 22.0005 10.2508 22.0005H13.7508C14.2203 22.0005 14.6008 21.6199 14.6008 21.1505L14.6008 19.4796C15.5563 19.1476 16.428 18.6379 17.1766 17.9905L18.6252 18.8269C19.0317 19.0616 19.5516 18.9223 19.7863 18.5158L21.5363 15.4847C21.771 15.0781 21.6317 14.5583 21.2252 14.3236L19.7776 13.4878C19.8693 13.0056 19.9172 12.5083 19.9172 12.0003C19.9172 11.4923 19.8693 10.9951 19.7776 10.5129L21.2259 9.67673C21.6325 9.44201 21.7718 8.92216 21.537 8.51561L19.787 5.48452C19.5523 5.07798 19.0325 4.93868 18.6259 5.1734L17.1767 6.01012C16.428 5.36273 15.5563 4.853 14.6008 4.52089L14.6008 2.85C14.6008 2.38056 14.2203 2 13.7508 2H10.2508ZM10.6008 4.77161V3.2H13.4008L13.4008 4.77161C13.4008 5.15516 13.6548 5.47859 14.0033 5.58728C14.9625 5.88646 15.8301 6.39532 16.552 7.06091C16.8205 7.30844 17.2276 7.36639 17.5595 7.17474L18.9228 6.38763L20.3228 8.8125L18.9608 9.59889C18.629 9.79041 18.4758 10.1714 18.5554 10.5274C18.6612 11.0008 18.7172 11.4937 18.7172 12.0003C18.7172 12.5069 18.6612 12.9998 18.5553 13.4733C18.4757 13.8292 18.629 14.2103 18.9607 14.4018L20.3221 15.1878L18.9221 17.6127L17.5594 16.8259C17.2274 16.6343 16.8204 16.6922 16.5519 16.9397C15.83 17.6053 14.9625 18.1141 14.0033 18.4133C13.6548 18.5219 13.4008 18.8454 13.4008 19.2289L13.4008 20.8005H10.6008V19.2289C10.6008 18.8454 10.3468 18.522 9.99834 18.4133C9.03937 18.1142 8.17202 17.6055 7.45018 16.9401C7.18168 16.6926 6.77468 16.6347 6.44277 16.8264L5.08056 17.6128L3.68056 15.188L5.04107 14.4025C5.37284 14.2109 5.5261 13.8298 5.44644 13.4738C5.40569 13.2917 5.37232 13.1067 5.34669 12.9192C5.30566 12.6191 5.28442 12.3123 5.28442 12.0003C5.28442 11.6882 5.30566 11.3815 5.34669 11.0813C5.3723 10.894 5.40563 10.7091 5.44634 10.5271C5.52597 10.1712 5.3727 9.79012 5.04096 9.59858L3.67981 8.81273L5.07981 6.38786L6.44238 7.17453C6.77431 7.36618 7.18133 7.30824 7.44983 7.06072C8.17175 6.39523 9.03921 5.88643 9.99834 5.58728C10.3468 5.47859 10.6008 5.15516 10.6008 4.77161ZM12.804 15.2739C14.2779 14.914 15.3718 13.5848 15.3718 12C15.3718 10.4152 14.2779 9.08593 12.804 8.72604V7.50015C14.9454 7.87932 16.5718 9.74972 16.5718 12C16.5718 14.2502 14.9454 16.1206 12.804 16.4998V15.2739ZM11.204 8.72498C9.72784 9.08332 8.63178 10.4137 8.63178 12C8.63178 13.5863 9.72784 14.9166 11.204 15.275V16.5006C9.06038 16.1232 7.43178 14.2518 7.43178 12C7.43178 9.74819 9.06038 7.87678 11.204 7.49938V8.72498Z" fill="black"/>
</svg>
