<svg width="24" height="24" viewBox="0 0 24 24" fill="none" xmlns="http://www.w3.org/2000/svg">
<path fill-rule="evenodd" clip-rule="evenodd" d="M9.74087 3.85039C8.82515 3.85039 8.08281 4.59273 8.08281 5.50845C8.08281 6.42417 8.82515 7.16651 9.74087 7.16651C10.6566 7.16651 11.3989 6.42417 11.3989 5.50845C11.3989 4.59273 10.6566 3.85039 9.74087 3.85039ZM11.999 3.7563C11.4761 3.08337 10.6591 2.65039 9.74087 2.65039C8.16241 2.65039 6.88281 3.92999 6.88281 5.50845C6.88281 6.40607 7.29661 7.20705 7.94386 7.73102H4.90078C4.43134 7.73102 4.05078 8.11158 4.05078 8.58102V12.2208C4.05078 12.6902 4.43134 13.0708 4.90078 13.0708H19.097C19.5664 13.0708 19.947 12.6902 19.947 12.2208V8.58102C19.947 8.11158 19.5664 7.73102 19.097 7.73102H16.0545C16.7017 7.20705 17.1155 6.40607 17.1155 5.50845C17.1155 3.92999 15.8359 2.65039 14.2575 2.65039C13.3393 2.65039 12.5221 3.08335 11.999 3.7563ZM12.4603 7.73102C12.2891 7.59247 12.1342 7.43455 11.999 7.2606C11.8639 7.43455 11.709 7.59247 11.5379 7.73102H12.4603ZM12.5989 5.50845C12.5989 6.42401 13.3416 7.16651 14.2575 7.16651C15.1732 7.16651 15.9155 6.42417 15.9155 5.50845C15.9155 4.59273 15.1732 3.85039 14.2575 3.85039C13.3416 3.85039 12.5989 4.5929 12.5989 5.50845ZM5.25078 8.93102V11.8708H11.3984V8.93102H5.25078ZM12.5984 8.93102V11.8708H18.747V8.93102H12.5984ZM6.07988 20.1504V14.2924H4.87988V20.5004C4.87988 20.9698 5.26044 21.3504 5.72988 21.3504H18.2702C18.7396 21.3504 19.1202 20.9698 19.1202 20.5004V14.2924H17.9202V20.1504H12.5983V14.2924H11.3983V20.1504H6.07988Z" fill="black"/>
</svg>
