<svg width="24" height="24" viewBox="0 0 24 24" fill="none" xmlns="http://www.w3.org/2000/svg">
<path fill-rule="evenodd" clip-rule="evenodd" d="M2 11.4004H2.04275C2.04275 11.4004 2.04275 11.4004 2.04275 11.4003H3.24519C3.24519 11.4004 3.24519 11.4004 3.24519 11.4004H5.61038L5.6104 11.4003H6.92358L6.92356 11.4004H11.4V11.4003L12.6 11.4003V11.4004H17.0767L17.0767 11.4003H18.3899L18.3899 11.4004H20.7548C20.7548 11.4004 20.7548 11.4004 20.7548 11.4003H21.9572C21.9572 11.4004 21.9573 11.4004 21.9573 11.4004H21.9999V12.6003L2 12.6003V11.4004ZM2.26842 9.80034H3.50307C4.2287 6.9898 6.31198 4.72507 9.01173 3.74734L6.32151 9.80034H7.63469L10.5001 3.35307C10.7953 3.30223 11.0955 3.26614 11.4 3.24558V9.80034H12.6V3.24558C12.9046 3.26615 13.2049 3.30226 13.5002 3.35312L16.3656 9.80034H17.6788L14.9886 3.74747C17.6882 4.72527 19.7713 6.98992 20.4969 9.80034H21.7316C20.7297 5.34982 16.7531 2.02539 12 2.02539C7.2469 2.02539 3.27026 5.34982 2.26842 9.80034ZM21.7316 14.2003H20.497C19.7714 17.0107 17.6884 19.2753 14.989 20.2532L17.6789 14.2003H16.3657L13.5005 20.6476C13.2051 20.6985 12.9047 20.7346 12.6 20.7552V14.2003L11.4 14.2003V20.7552C11.0954 20.7346 10.7951 20.6985 10.4998 20.6477L7.63457 14.2003H6.3214L9.01141 20.2533C6.31179 19.2755 4.22862 17.0108 3.50305 14.2003H2.2684C3.2702 18.6509 7.24686 21.9754 12 21.9754C16.7531 21.9754 20.7298 18.6509 21.7316 14.2003Z" fill="black"/>
</svg>
