<svg width="24" height="24" viewBox="0 0 24 24" fill="none" xmlns="http://www.w3.org/2000/svg">
<path fill-rule="evenodd" clip-rule="evenodd" d="M6.19844 6.75469C5.05644 6.75469 4.13066 7.68046 4.13066 8.82247C4.13066 9.96447 5.05644 10.8902 6.19844 10.8902C6.98169 10.8902 7.66322 10.4548 8.01413 9.81274C8.00374 9.93289 7.99844 10.0545 7.99844 10.1773C7.99844 10.609 8.06389 11.0253 8.1854 11.417C7.63482 11.8393 6.94594 12.0902 6.19844 12.0902C4.3937 12.0902 2.93066 10.6272 2.93066 8.82247C2.93066 7.01772 4.3937 5.55469 6.19844 5.55469C7.46898 5.55469 8.57015 6.27978 9.11074 7.33873C8.74556 7.73295 8.45549 8.19773 8.26324 8.71034C8.205 7.62047 7.30283 6.75469 6.19844 6.75469ZM17.4413 12.0902C16.9393 12.0902 16.4636 11.977 16.0386 11.7747C16.1946 11.398 16.297 10.9935 16.3365 10.5707C16.6561 10.7731 17.035 10.8902 17.4413 10.8902C18.5833 10.8902 19.5091 9.96447 19.5091 8.82247C19.5091 7.68046 18.5833 6.75469 17.4413 6.75469C16.6612 6.75469 15.982 7.18671 15.6299 7.82456C15.3955 7.48123 15.1112 7.17465 14.7876 6.91525C15.3808 6.09121 16.3484 5.55469 17.4413 5.55469C19.2461 5.55469 20.7091 7.01772 20.7091 8.82247C20.7091 10.6272 19.2461 12.0902 17.4413 12.0902ZM2.39844 17.1593C2.39844 14.8634 4.25961 13.0023 6.55548 13.0023C7.67976 13.0023 8.69926 13.4486 9.44712 14.1729C9.09801 14.3838 8.77643 14.6357 8.48904 14.9218C7.97033 14.4732 7.29432 14.2023 6.55548 14.2023C4.92235 14.2023 3.59844 15.5262 3.59844 17.1593H2.39844ZM17.4411 14.2023C16.7637 14.2023 16.139 14.43 15.6401 14.8137C15.3397 14.5324 15.005 14.2872 14.6429 14.0852C15.3812 13.4127 16.363 13.0023 17.4411 13.0023C19.737 13.0023 21.5982 14.8634 21.5982 17.1593H20.3982C20.3982 15.5262 19.0743 14.2023 17.4411 14.2023ZM10.1072 10.1774C10.1072 9.03544 11.033 8.10967 12.175 8.10967C13.317 8.10967 14.2428 9.03544 14.2428 10.1774C14.2428 11.3195 13.317 12.2452 12.175 12.2452C11.033 12.2452 10.1072 11.3195 10.1072 10.1774ZM12.175 6.90967C10.3703 6.90967 8.90723 8.3727 8.90723 10.1774C8.90723 11.9822 10.3703 13.4452 12.175 13.4452C13.9798 13.4452 15.4428 11.9822 15.4428 10.1774C15.4428 8.3727 13.9798 6.90967 12.175 6.90967ZM9.21855 18.5134C9.21855 16.8803 10.5425 15.5564 12.1756 15.5564C13.8087 15.5564 15.1326 16.8803 15.1326 18.5134H16.3326C16.3326 16.2176 14.4715 14.3564 12.1756 14.3564C9.87973 14.3564 8.01855 16.2176 8.01855 18.5134H9.21855Z" fill="black"/>
</svg>
