<svg width="24" height="24" viewBox="0 0 24 24" fill="none" xmlns="http://www.w3.org/2000/svg">
<path fill-rule="evenodd" clip-rule="evenodd" d="M4.39844 4.25039C4.39844 3.78095 4.77899 3.40039 5.24844 3.40039H18.7484C19.2179 3.40039 19.5984 3.78095 19.5984 4.25039V19.7504C19.5984 20.2198 19.2179 20.6004 18.7484 20.6004H5.24844C4.779 20.6004 4.39844 20.2198 4.39844 19.7504V4.25039ZM5.59844 4.60039V13.4004H18.3984V4.60039H5.59844ZM18.3984 14.6004H5.59844V19.4004H18.3984V14.6004ZM11.601 16.6004C11.3801 16.6004 11.201 16.7795 11.201 17.0004C11.201 17.2213 11.3801 17.4004 11.601 17.4004C11.8219 17.4004 12.001 17.2213 12.001 17.0004C12.001 16.7795 11.8219 16.6004 11.601 16.6004ZM10.001 17.0004C10.001 16.1167 10.7173 15.4004 11.601 15.4004C12.4846 15.4004 13.201 16.1167 13.201 17.0004C13.201 17.884 12.4846 18.6004 11.601 18.6004C10.7173 18.6004 10.001 17.884 10.001 17.0004ZM15.799 16.6004C15.5781 16.6004 15.399 16.7795 15.399 17.0004C15.399 17.2213 15.5781 17.4004 15.799 17.4004C16.0199 17.4004 16.199 17.2213 16.199 17.0004C16.199 16.7795 16.0199 16.6004 15.799 16.6004ZM14.199 17.0004C14.199 16.1167 14.9153 15.4004 15.799 15.4004C16.6826 15.4004 17.399 16.1167 17.399 17.0004C17.399 17.884 16.6826 18.6004 15.799 18.6004C14.9153 18.6004 14.199 17.884 14.199 17.0004Z" fill="black"/>
</svg>
