<svg width="24" height="24" viewBox="0 0 24 24" fill="none" xmlns="http://www.w3.org/2000/svg">
<path fill-rule="evenodd" clip-rule="evenodd" d="M4.94505 5.63255C6.81572 3.76187 9.35291 2.71094 11.9984 2.71094C14.644 2.71094 17.1812 3.76187 19.0518 5.63255C20.9218 7.50251 21.9734 10.0246 21.9734 12.6711V17.9407C21.9734 19.7909 20.4736 21.2907 18.6234 21.2907V20.0907C19.8109 20.0907 20.7734 19.1281 20.7734 17.9407C20.7734 16.7533 19.8109 15.7907 18.6234 15.7907V14.5907C19.4418 14.5907 20.1916 14.8842 20.7734 15.3716V12.6711C20.7734 10.3448 19.8496 8.12742 18.2033 6.48108C16.5577 4.83544 14.3257 3.91094 11.9984 3.91094C9.67116 3.91094 7.43921 4.83544 5.79358 6.48107C4.14723 8.12742 3.22344 10.3448 3.22344 12.6711V15.3716C3.80525 14.8842 4.55507 14.5907 5.37344 14.5907V15.7907C4.18603 15.7907 3.22344 16.7533 3.22344 17.9407C3.22344 19.1281 4.18602 20.0907 5.37344 20.0907V21.2907C3.52328 21.2907 2.02344 19.7909 2.02344 17.9407V12.6711C2.02344 10.0246 3.07509 7.50251 4.94505 5.63255ZM8.17844 21.2903H6.97844L6.97844 14.5911H8.17844L8.17844 21.2903ZM17.2284 21.2903H16.0284V14.5911H17.2284V21.2903Z" fill="black"/>
</svg>
