<svg width="24" height="24" viewBox="0 0 24 24" fill="none" xmlns="http://www.w3.org/2000/svg">
<path fill-rule="evenodd" clip-rule="evenodd" d="M7.29805 2.91406C4.36986 2.91406 1.99609 5.28783 1.99609 8.21602V8.51407H3.19609V8.21602C3.19609 5.95057 5.0326 4.11406 7.29805 4.11406C9.56352 4.11406 11.4001 5.95059 11.4001 8.21602V8.51406H12.6001V8.21602C12.6001 5.95057 14.4366 4.11406 16.7021 4.11406C18.9675 4.11406 20.804 5.95057 20.804 8.21602V8.51406H20.8L21.9999 8.51407V8.54396C22 8.53399 22 8.52403 22 8.51406H22.004V8.21602C22.004 5.28783 19.6303 2.91406 16.7021 2.91406C14.6587 2.91406 12.8852 4.07004 12.0001 5.76372C11.1149 4.07004 9.34145 2.91406 7.29805 2.91406ZM21.8 10.1141H20.5527C20.3052 10.8955 19.8775 11.6161 19.295 12.2136L11.9999 19.6955L4.51744 12.0245C3.98919 11.483 3.60597 10.8261 3.3923 10.1141H2.15079C2.39208 11.1422 2.90935 12.0945 3.65842 12.8624L11.4532 20.8536C11.753 21.1609 12.2471 21.1608 12.5469 20.8534L20.1541 13.0513C20.9578 12.2271 21.5212 11.2117 21.8 10.1141Z" fill="black"/>
</svg>
