<svg width="24" height="24" viewBox="0 0 24 24" fill="none" xmlns="http://www.w3.org/2000/svg">
<path fill-rule="evenodd" clip-rule="evenodd" d="M12.4489 2.57451C12.1733 2.40224 11.8236 2.40225 11.5479 2.57451L3.79794 7.41826C3.54942 7.57359 3.39844 7.84599 3.39844 8.13906V15.8619C3.39844 16.155 3.54941 16.4274 3.79794 16.5827L11.5479 21.4265C11.8236 21.5988 12.1733 21.5988 12.4489 21.4265L20.1989 16.5827C20.4475 16.4274 20.5984 16.155 20.5984 15.8619V8.13906C20.5984 7.84599 20.4475 7.57359 20.1989 7.41826L12.4489 2.57451ZM4.59839 8.33305L11.9984 3.70805L19.3984 8.33305V15.668L11.9984 20.293L4.59839 15.668V8.33305Z" fill="black"/>
<path fill-rule="evenodd" clip-rule="evenodd" d="M12.4489 2.57451C12.1733 2.40224 11.8236 2.40225 11.5479 2.57451L3.79794 7.41826C3.54942 7.57359 3.39844 7.84599 3.39844 8.13906V15.8619C3.39844 16.155 3.54941 16.4274 3.79794 16.5827L11.5479 21.4265C11.8236 21.5988 12.1733 21.5988 12.4489 21.4265L20.1989 16.5827C20.4475 16.4274 20.5984 16.155 20.5984 15.8619V8.13906C20.5984 7.84599 20.4475 7.57359 20.1989 7.41826L12.4489 2.57451ZM4.59839 8.33305L11.9984 3.70805L19.3984 8.33305V15.668L11.9984 20.293L4.59839 15.668V8.33305Z" fill="black"/>
</svg>
