<svg width="24" height="24" viewBox="0 0 24 24" fill="none" xmlns="http://www.w3.org/2000/svg">
<path fill-rule="evenodd" clip-rule="evenodd" d="M11.995 3.52617L4.20001 10.5026L4.20037 20.5922H8.42046V18.3922H9.62046V20.9422C9.62046 21.4116 9.2399 21.7922 8.77046 21.7922H3.85038C3.38095 21.7922 3.00039 21.4116 3.00038 20.9422L3 10.346C2.99999 10.0952 3.11132 9.86115 3.29487 9.70221L11.439 2.41336L11.4457 2.40771C11.7659 2.13755 12.2421 2.1379 12.5608 2.42251M11.995 3.52617L19.8004 10.498V20.5922H15.5787V18.3922H14.3787V20.9422C14.3787 21.4116 14.7593 21.7922 15.2287 21.7922H20.1504C20.6198 21.7922 21.0004 21.4116 21.0004 20.9422V10.3413C21.0004 10.0993 20.8972 9.86867 20.7166 9.70741L12.5608 2.42251M8.42046 16.4298C8.42046 14.4531 10.0229 12.8506 11.9996 12.8506C13.9763 12.8506 15.5787 14.4531 15.5787 16.4298V16.7872H14.3787V16.4298C14.3787 15.1158 13.3135 14.0506 11.9996 14.0506C10.6856 14.0506 9.62046 15.1158 9.62046 16.4298V16.7872H8.42046V16.4298Z" fill="black"/>
</svg>
