<svg width="24" height="24" viewBox="0 0 24 24" fill="none" xmlns="http://www.w3.org/2000/svg">
<path fill-rule="evenodd" clip-rule="evenodd" d="M2 4.25039C2 3.78095 2.38056 3.40039 2.85 3.40039H21.1C21.5694 3.40039 21.95 3.78095 21.95 4.25039V19.7504C21.95 20.2198 21.5694 20.6004 21.1 20.6004H2.85C2.38056 20.6004 2 20.2198 2 19.7504V4.25039ZM3.2 4.60039V19.4004H20.75V4.60039H3.2ZM15.2002 8.30037C14.4822 8.30037 13.9002 8.8824 13.9002 9.60037C13.9002 10.3183 14.4822 10.9004 15.2002 10.9004C15.9182 10.9004 16.5002 10.3183 16.5002 9.60037C16.5002 8.8824 15.9182 8.30037 15.2002 8.30037ZM12.7002 9.60037C12.7002 8.21965 13.8195 7.10037 15.2002 7.10037C16.5809 7.10037 17.7002 8.21965 17.7002 9.60037C17.7002 10.9811 16.5809 12.1004 15.2002 12.1004C13.8195 12.1004 12.7002 10.9811 12.7002 9.60037ZM10.5597 14.2625C9.49008 13.6995 8.16875 14.0199 7.47568 15.0101L5.49193 17.8444L4.5088 17.1563L6.49256 14.322C7.53216 12.8367 9.51415 12.3562 11.1185 13.2005L18.2798 16.9694L17.7209 18.0313L10.5597 14.2625Z" fill="black"/>
</svg>
