<svg width="24" height="24" viewBox="0 0 24 24" fill="none" xmlns="http://www.w3.org/2000/svg">
<path fill-rule="evenodd" clip-rule="evenodd" d="M2.52344 4.75039C2.52344 4.28095 2.904 3.90039 3.37344 3.90039H20.6234C21.0929 3.90039 21.4734 4.28095 21.4734 4.75039V11.5804H20.2734V5.10039H3.72344V11.5804H2.52344V4.75039ZM4.92886 11.7754L8.3736 11.7761C8.84298 11.7762 9.22344 12.1567 9.22344 12.6261V12.7804C9.22344 14.313 10.4658 15.5554 11.9984 15.5554C13.531 15.5554 14.7734 14.313 14.7734 12.7804V12.6261C14.7734 12.1567 15.1539 11.7762 15.6233 11.7761L19.0786 11.7754L19.0789 12.9754L15.9687 12.976C15.8667 15.0805 14.1282 16.7554 11.9984 16.7554C9.86869 16.7554 8.13013 15.0805 8.02817 12.976L4.92863 12.9754L4.92886 11.7754ZM3.72344 18.9004V13.1804H2.52344V19.2504C2.52344 19.7198 2.904 20.1004 3.37344 20.1004H20.6234C21.0929 20.1004 21.4734 19.7198 21.4734 19.2504V13.1804H20.2734V18.9004H3.72344Z" fill="black"/>
</svg>
