<svg width="24" height="24" viewBox="0 0 24 24" fill="none" xmlns="http://www.w3.org/2000/svg">
<path fill-rule="evenodd" clip-rule="evenodd" d="M13.9334 3.37305C11.1625 3.7097 9.01585 6.07011 9.01585 8.93188C9.01585 10.2622 9.47975 11.4842 10.2546 12.445L7.64854 15.051L5.50005 17.1995L3.78125 18.9183L4.62978 19.7668L5.92431 18.4723L8.07824 20.6262L8.92677 19.7777L6.77284 17.6238L8.0728 16.3238L10.2267 18.4778L11.0753 17.6292L8.92133 15.4753L11.1032 13.2935C11.897 13.9336 12.8691 14.3614 13.9334 14.4907V13.2793C11.8274 12.9513 10.2158 11.1298 10.2158 8.93188C10.2158 6.73395 11.8274 4.91242 13.9334 4.58449V3.37305ZM15.5334 13.2361C17.523 12.814 19.0158 11.0473 19.0158 8.93188C19.0158 6.81648 17.523 5.04975 15.5334 4.62769V3.40668C18.1897 3.8445 20.2159 6.15157 20.2159 8.93188C20.2159 11.7122 18.1897 14.0193 15.5334 14.4571V13.2361Z" fill="black"/>
</svg>
