<svg width="24" height="24" viewBox="0 0 24 24" fill="none" xmlns="http://www.w3.org/2000/svg">
<path fill-rule="evenodd" clip-rule="evenodd" d="M11.6503 3.79362C11.8721 3.6938 12.1261 3.69379 12.3479 3.79362L20.2197 7.33592C20.898 7.64114 20.8848 8.60875 20.1985 8.89539L12.3267 12.183C12.1171 12.2706 11.8812 12.2706 11.6715 12.183L3.79977 8.89539C3.11343 8.60875 3.10026 7.64114 3.77854 7.33592L11.6503 3.79362ZM11.9991 4.95255L5.00686 8.09908L11.9991 11.0194L18.9914 8.09908L11.9991 4.95255ZM11.9991 14.5437L3.71731 11.3107L3.28094 12.4285L11.6843 15.709L11.9025 15.1501L11.6843 15.709C11.8868 15.788 12.1115 15.788 12.3139 15.709L20.7173 12.4285L20.2809 11.3107L11.9991 14.5437ZM11.9991 18.0619L3.71731 14.8289L3.28094 15.9467L11.6843 19.2272C11.8868 19.3062 12.1115 19.3062 12.3139 19.2272L20.7173 15.9467L20.2809 14.8289L11.9991 18.0619ZM11.878 18.1092L11.8775 18.1094Z" fill="black"/>
</svg>
