<svg width="24" height="24" viewBox="0 0 24 24" fill="none" xmlns="http://www.w3.org/2000/svg">
<path fill-rule="evenodd" clip-rule="evenodd" d="M2.39844 4.25039C2.39844 3.78095 2.779 3.40039 3.24844 3.40039H20.7484C21.2179 3.40039 21.5984 3.78095 21.5984 4.25039V19.7504C21.5984 20.2198 21.2179 20.6004 20.7484 20.6004H3.24844C2.779 20.6004 2.39844 20.2198 2.39844 19.7504V4.25039ZM3.59844 4.60039V8.40039L8.39844 8.40039V4.60039H3.59844ZM9.59844 4.60039V8.40039L14.3984 8.40039V4.60039H9.59844ZM15.5984 4.60039V8.40039L20.3984 8.40039V4.60039H15.5984ZM20.3984 9.60039L15.5984 9.60039V14.082L20.3984 14.082V9.60039ZM20.3984 15.282L15.5984 15.282V19.4004H20.3984V15.282ZM14.3984 19.4004V15.282H9.59844V19.4004H14.3984ZM8.39844 19.4004V15.282L3.59844 15.282V19.4004H8.39844ZM3.59844 14.082L8.39844 14.082V9.60039L3.59844 9.60039V14.082ZM9.59844 9.60039V14.082H14.3984V9.60039L9.59844 9.60039Z" fill="black"/>
</svg>
