<svg width="24" height="24" viewBox="0 0 24 24" fill="none" xmlns="http://www.w3.org/2000/svg">
<path fill-rule="evenodd" clip-rule="evenodd" d="M2.39844 4.25039C2.39844 3.78095 2.779 3.40039 3.24844 3.40039H20.7484C21.2179 3.40039 21.5984 3.78095 21.5984 4.25039V19.7504C21.5984 20.2198 21.2179 20.6004 20.7484 20.6004H3.24844C2.779 20.6004 2.39844 20.2198 2.39844 19.7504V4.25039ZM3.59844 4.60039V11.3004L11.3984 11.3004V4.60039H3.59844ZM12.5984 4.60039V11.3004L20.3984 11.3004V4.60039H12.5984ZM20.3984 12.5004L12.5984 12.5004V19.4004H20.3984V12.5004ZM11.3984 19.4004V12.5004L3.59844 12.5004V19.4004H11.3984Z" fill="black"/>
</svg>
