<svg width="24" height="24" viewBox="0 0 24 24" fill="none" xmlns="http://www.w3.org/2000/svg">
<path fill-rule="evenodd" clip-rule="evenodd" d="M2.02344 12C2.02344 6.7603 6.06343 2.46416 11.1984 2.05665V3.26101C9.30543 3.4321 7.58592 4.20435 6.23226 5.38534L9.64396 8.79704C10.303 8.31177 11.1172 8.02503 11.9984 8.02503C12.8069 8.02503 13.5589 8.26637 14.1865 8.68093L17.6121 5.25533C16.2828 4.14774 14.621 3.42571 12.7984 3.261V2.05664C17.9334 2.46411 21.9734 6.76027 21.9734 12C21.9734 17.2398 17.9334 21.536 12.7984 21.9434V20.7391C14.6914 20.568 16.4109 19.7957 17.7646 18.6147L14.3529 15.203C13.6939 15.6883 12.8796 15.975 11.9984 15.975C11.0449 15.975 10.1698 15.6393 9.48491 15.0796L6.08301 18.4815C7.45847 19.7375 9.23515 20.5616 11.1984 20.739V21.9434C6.06343 21.5359 2.02344 17.2398 2.02344 12ZM5.38374 6.23387C4.03836 7.77595 3.22344 9.79282 3.22344 12C3.22344 14.1352 3.98604 16.0923 5.25373 17.6137L8.67934 14.1881C8.26478 13.5605 8.02344 12.8085 8.02344 12C8.02344 11.1188 8.31017 10.3046 8.79543 9.64557L5.38374 6.23387ZM18.4799 6.08461L15.078 9.4865C15.6377 10.1714 15.9734 11.0465 15.9734 12C15.9734 12.8812 15.6867 13.6955 15.2014 14.3545L18.6131 17.7662C19.9585 16.2241 20.7734 14.2072 20.7734 12C20.7734 9.72088 19.9045 7.64468 18.4799 6.08461ZM11.9984 9.22503C10.4658 9.22503 9.22344 10.4674 9.22344 12C9.22344 13.5326 10.4658 14.775 11.9984 14.775C13.531 14.775 14.7734 13.5326 14.7734 12C14.7734 10.4674 13.531 9.22503 11.9984 9.22503Z" fill="black"/>
</svg>
