<svg width="24" height="24" viewBox="0 0 24 24" fill="none" xmlns="http://www.w3.org/2000/svg">
<path fill-rule="evenodd" clip-rule="evenodd" d="M12.0675 2.3446C12.5507 1.68091 13.6009 2.02273 13.6009 2.84371L13.6009 9.02443C13.6009 9.39851 13.7425 9.74824 13.9971 10.0028C14.2565 10.2622 14.6084 10.408 14.9754 10.408H18.4554C19.1485 10.408 19.5489 11.1946 19.1409 11.755L11.9346 21.6547C11.4514 22.3185 10.4011 21.9767 10.4011 21.1557L10.4011 14.9751C10.4011 14.6026 10.2586 14.2524 10.003 13.9968C9.74353 13.7373 9.39162 13.5916 9.02467 13.5916H5.54477C4.85155 13.5916 4.45124 12.8049 4.85928 12.2445L12.0675 2.3446L12.5525 2.69777L12.0675 2.3446ZM12.4009 3.92534L6.23659 12.3916H9.02467C9.70988 12.3916 10.367 12.6638 10.8515 13.1483C11.3399 13.6367 11.6011 14.2955 11.6011 14.9751L11.6011 20.0739L17.7636 11.608H14.9754C14.2902 11.608 13.633 11.3358 13.1485 10.8513C12.6591 10.3618 12.4009 9.70251 12.4009 9.02443L12.4009 3.92534Z" fill="black"/>
</svg>
