<svg width="24" height="24" viewBox="0 0 24 24" fill="none" xmlns="http://www.w3.org/2000/svg">
<path fill-rule="evenodd" clip-rule="evenodd" d="M9.73796 4.92919C12.3154 2.35173 16.4943 2.35173 19.0718 4.92919C21.6492 7.50665 21.6492 11.6855 19.0718 14.263L18.5627 14.7721L17.7141 13.9236L18.2232 13.4145C20.3321 11.3056 20.3321 7.88655 18.2232 5.77772C16.1144 3.66889 12.6953 3.66889 10.5865 5.77772L10.0774 6.28683L9.22885 5.43831L9.73796 4.92919ZM8.9458 7.41841L7.41845 8.94576L6.56992 8.09723L8.09727 6.56988L8.9458 7.41841ZM15.2532 9.5963L9.59632 15.2532L8.74779 14.4046L14.4046 8.74777L15.2532 9.5963ZM4.92919 9.73796L5.43831 9.22884L6.28683 10.0774L5.77772 10.5865C3.66889 12.6953 3.66889 16.1144 5.77772 18.2232C7.88655 20.3321 11.3056 20.3321 13.4145 18.2232L13.9236 17.7141L14.7721 18.5627L14.263 19.0718C11.6855 21.6492 7.50665 21.6492 4.92919 19.0718C2.35173 16.4943 2.35173 12.3154 4.92919 9.73796ZM17.4311 15.9037L15.9037 17.431L15.0552 16.5825L16.5825 15.0552L17.4311 15.9037Z" fill="black"/>
</svg>
