<svg width="24" height="24" viewBox="0 0 24 24" fill="none" xmlns="http://www.w3.org/2000/svg">
<path fill-rule="evenodd" clip-rule="evenodd" d="M5.32492 6.30078L5.32492 8.90078H5.92492L5.92492 6.30078H5.32492ZM6.36167 10.7008H4.43989V11.3008H6.31167V11.7008H4.88984C4.58609 11.7008 4.33984 11.947 4.33984 12.2508V12.7508C4.33984 13.0546 4.58609 13.3008 4.88984 13.3008H6.80995V12.7008H4.93984V12.3008H6.36167C6.66543 12.3008 6.91167 12.0546 6.91167 11.7508V11.2508C6.91167 10.947 6.66543 10.7008 6.36167 10.7008ZM6.36167 15.1008H4.43989V15.7008H6.31167V16.1008H4.43989V16.7008H6.31167V17.1008H4.43986V17.7008H6.36167C6.66543 17.7008 6.91167 17.4546 6.91167 17.1508V15.6508C6.91167 15.3471 6.66543 15.1008 6.36167 15.1008ZM20.0001 7.00073L8.83008 7.00073V8.20073L20.0001 8.20073V7.00073ZM20.0001 11.4008L8.83008 11.4008V12.6008L20.0001 12.6008V11.4008ZM20.0001 15.8008H8.83008V17.0008H20.0001V15.8008Z" fill="black"/>
</svg>
