<svg width="24" height="24" viewBox="0 0 24 24" fill="none" xmlns="http://www.w3.org/2000/svg">
<path fill-rule="evenodd" clip-rule="evenodd" d="M5.62734 7.2C5.40643 7.2 5.22734 7.37909 5.22734 7.6C5.22734 7.82091 5.40643 8 5.62734 8C5.84826 8 6.02734 7.82091 6.02734 7.6C6.02734 7.37909 5.84826 7.2 5.62734 7.2ZM4.02734 7.6C4.02734 6.71634 4.74369 6 5.62734 6C6.511 6 7.22734 6.71634 7.22734 7.6C7.22734 8.48366 6.511 9.2 5.62734 9.2C4.74369 9.2 4.02734 8.48366 4.02734 7.6ZM8.83135 7L20.0013 7V8.2L8.83135 8.2V7ZM5.62734 11.6C5.40643 11.6 5.22734 11.7791 5.22734 12C5.22734 12.2209 5.40643 12.4 5.62734 12.4C5.84826 12.4 6.02734 12.2209 6.02734 12C6.02734 11.7791 5.84826 11.6 5.62734 11.6ZM4.02734 12C4.02734 11.1164 4.74369 10.4 5.62734 10.4C6.511 10.4 7.22734 11.1164 7.22734 12C7.22734 12.8837 6.511 13.6 5.62734 13.6C4.74369 13.6 4.02734 12.8837 4.02734 12ZM8.83135 11.4L20.0013 11.4V12.6L8.83135 12.6V11.4ZM5.62734 16C5.40643 16 5.22734 16.1791 5.22734 16.4C5.22734 16.621 5.40643 16.8 5.62734 16.8C5.84826 16.8 6.02734 16.621 6.02734 16.4C6.02734 16.1791 5.84826 16 5.62734 16ZM4.02734 16.4C4.02734 15.5164 4.74369 14.8 5.62734 14.8C6.511 14.8 7.22734 15.5164 7.22734 16.4C7.22734 17.2837 6.511 18 5.62734 18C4.74369 18 4.02734 17.2837 4.02734 16.4ZM8.83135 15.8H20.0013V17H8.83135V15.8Z" fill="black"/>
</svg>
