<svg width="24" height="24" viewBox="0 0 24 24" fill="none" xmlns="http://www.w3.org/2000/svg">
<path fill-rule="evenodd" clip-rule="evenodd" d="M8.74575 3.34731C9.60841 2.48464 10.7784 2 11.9984 2C13.2184 2 14.3885 2.48464 15.2511 3.34731C16.1138 4.20998 16.5984 5.38 16.5984 6.6V9.79999H15.3984V6.6C15.3984 5.69826 15.0402 4.83346 14.4026 4.19584C13.765 3.55821 12.9002 3.2 11.9984 3.2C11.0967 3.2 10.2319 3.55821 9.59427 4.19584C8.95665 4.83346 8.59844 5.69826 8.59844 6.6V9.79999H7.39844V6.6C7.39844 5.38 7.88308 4.20998 8.74575 3.34731ZM4.59844 10.4H5.79844V9.19998H4.24844C3.779 9.19998 3.39844 9.58053 3.39844 10.05V21.15C3.39844 21.6194 3.779 22 4.24844 22H19.7484C20.2179 22 20.5984 21.6194 20.5984 21.15V10.05C20.5984 9.58053 20.2179 9.19998 19.7484 9.19998H18.1984V10.4H19.3984V20.8H4.59844V10.4ZM13.7984 10.4H10.1986V9.2H13.7984V10.4ZM12.0029 14.8001C11.5611 14.8001 11.2029 15.1582 11.2029 15.6001C11.2029 16.0419 11.5611 16.4001 12.0029 16.4001C12.4448 16.4001 12.8029 16.0419 12.8029 15.6001C12.8029 15.1582 12.4448 14.8001 12.0029 14.8001ZM10.0029 15.6001C10.0029 14.4955 10.8984 13.6001 12.0029 13.6001C13.1075 13.6001 14.0029 14.4955 14.0029 15.6001C14.0029 16.7046 13.1075 17.6001 12.0029 17.6001C10.8984 17.6001 10.0029 16.7046 10.0029 15.6001Z" fill="black"/>
</svg>
