<svg width="24" height="24" viewBox="0 0 24 24" fill="none" xmlns="http://www.w3.org/2000/svg">
<path fill-rule="evenodd" clip-rule="evenodd" d="M10.079 2.21706C12.0139 1.83217 14.0196 2.02971 15.8423 2.7847C17.665 3.53968 19.2228 4.8182 20.3189 6.45858C21.415 8.09896 22 10.0275 22 12.0004C22 13.9733 21.415 15.9018 20.3189 17.5422C19.2228 19.1826 17.665 20.4611 15.8423 21.2161C14.0196 21.9711 12.0139 22.1686 10.079 21.7837C8.14402 21.3988 6.36664 20.4488 4.97162 19.0538L5.82015 18.2052C7.04735 19.4325 8.61091 20.2682 10.3131 20.6068C12.0153 20.9454 13.7796 20.7716 15.383 20.1074C16.9865 19.4433 18.3569 18.3186 19.3211 16.8755C20.2854 15.4325 20.8 13.7359 20.8 12.0004C20.8 10.2649 20.2854 8.56831 19.3211 7.12526C18.3569 5.68222 16.9865 4.55751 15.383 3.89335C13.7796 3.22919 12.0153 3.05542 10.3131 3.394C8.61091 3.73259 7.04735 4.56833 5.82015 5.79553L4.97162 4.947C6.36665 3.55197 8.14402 2.60195 10.079 2.21706ZM10.3843 7.57612L14.1671 11.359C14.499 11.6909 14.499 12.2291 14.1671 12.561L10.3842 16.3442L9.53568 15.4958L12.4307 12.6004L2 12.6004V11.4004L12.5115 11.4004L9.53572 8.42465L10.3843 7.57612Z" fill="black"/>
</svg>
