<svg width="24" height="24" viewBox="0 0 24 24" fill="none" xmlns="http://www.w3.org/2000/svg">
<path fill-rule="evenodd" clip-rule="evenodd" d="M9.22656 2.03711C5.17305 2.42797 2.00391 5.8438 2.00391 9.99983C2.00391 14.1559 5.17305 17.5717 9.22656 17.9625V16.7559C5.8371 16.3702 3.20391 13.4925 3.20391 9.99983C3.20391 6.50715 5.8371 3.6295 9.22656 3.24377V2.03711ZM10.8266 16.7506C14.1942 16.3445 16.8039 13.4769 16.8039 9.99983C16.8039 6.52273 14.1942 3.65518 10.8266 3.24908V2.04161C14.8584 2.45346 18.0039 5.8593 18.0039 9.99983C18.0039 14.1404 14.8584 17.5462 10.8266 17.958V16.7506ZM16.3613 17.2093L21.1429 21.9909L21.9914 21.1423L17.2098 16.3608L16.3613 17.2093Z" fill="black"/>
</svg>
