<svg width="24" height="24" viewBox="0 0 24 24" fill="none" xmlns="http://www.w3.org/2000/svg">
<path fill-rule="evenodd" clip-rule="evenodd" d="M9.39527 3.77811C9.13212 3.6441 8.81828 3.65627 8.5663 3.81026ZM9.02508 4.93623L4.59844 7.6414V18.6896L8.39844 16.4096V6.74934H9.59844V16.3785L14.9722 19.0654L19.3984 16.4096V5.31918L15.5984 7.6414V17.2493H14.3984V7.67267L9.02508 4.93623ZM14.9718 6.61801L19.3052 3.96982C19.8716 3.62368 20.5984 4.03132 20.5984 4.69511V16.6078C20.5984 16.9064 20.4418 17.1831 20.1858 17.3367L15.4248 20.1932C15.1756 20.3428 14.8673 20.3546 14.6074 20.2246L9.0247 17.4333L4.68576 20.0367C4.11921 20.3766 3.39844 19.9685 3.39844 19.3078V7.44511C3.39844 7.14899 3.55254 6.87422 3.8052 6.71982L8.5663 3.81026L9.39527 3.77811M9.39527 3.77811L14.9718 6.61801Z" fill="black"/>
</svg>
