<svg width="24" height="24" viewBox="0 0 24 24" fill="none" xmlns="http://www.w3.org/2000/svg">
<path fill-rule="evenodd" clip-rule="evenodd" d="M15.8984 3.40039L17.4984 3.40039C19.2105 3.40039 20.5984 4.78831 20.5984 6.50039V8.10039H19.3984V6.50039C19.3984 5.45105 18.5478 4.60039 17.4984 4.60039L15.8984 4.60039V3.40039ZM6.49844 4.60039C5.4491 4.60039 4.59844 5.45105 4.59844 6.50039V8.10039H3.39844L3.39844 6.50039C3.39844 4.78831 4.78636 3.40039 6.49844 3.40039L8.09844 3.40039V4.60039L6.49844 4.60039ZM4.59844 15.9004V17.5004C4.59844 18.5497 5.4491 19.4004 6.49844 19.4004H8.09844V20.6004H6.49844C4.78636 20.6004 3.39844 19.2125 3.39844 17.5004L3.39844 15.9004H4.59844ZM20.5984 15.9004V17.5004C20.5984 19.2125 19.2105 20.6004 17.4984 20.6004H15.8984V19.4004H17.4984C18.5478 19.4004 19.3984 18.5497 19.3984 17.5004V15.9004H20.5984Z" fill="black"/>
</svg>
