<svg width="24" height="24" viewBox="0 0 24 24" fill="none" xmlns="http://www.w3.org/2000/svg">
<path fill-rule="evenodd" clip-rule="evenodd" d="M2 4.25039C2 3.78095 2.38056 3.40039 2.85 3.40039H21.1C21.5694 3.40039 21.95 3.78095 21.95 4.25039V19.7504C21.95 20.2198 21.5694 20.6004 21.1 20.6004H2.85C2.38056 20.6004 2 20.2198 2 19.7504V4.25039ZM3.2 4.60039V19.4004H20.75V4.60039H3.2ZM10.1004 9.60573V14.3951L14.2911 12.0004L10.1004 9.60573ZM8.90039 9.00261C8.90039 8.34996 9.60545 7.9408 10.1721 8.26461L15.4182 11.2624C15.9893 11.5887 15.9893 12.4121 15.4182 12.7384L10.1721 15.7362C9.60545 16.06 8.90039 15.6508 8.90039 14.9982V9.00261Z" fill="black"/>
</svg>
