<svg width="24" height="24" viewBox="0 0 24 24" fill="none" xmlns="http://www.w3.org/2000/svg">
<path fill-rule="evenodd" clip-rule="evenodd" d="M6.81445 9.36254V10.6104H8.01445V10.5625L6.81445 9.36254ZM14.4762 15.3273C14.4763 15.3272 14.4764 15.3271 14.4765 15.327L8.01445 8.86497V8.86548L6.81445 7.66548V7.66497L3.08887 3.93938L3.93714 3.09111L20.9074 20.0614L20.0591 20.9096L18.5774 19.4279C18.5773 19.428 18.5772 19.4281 18.5771 19.4282L17.7276 18.5786C17.7276 18.5785 17.7277 18.5784 17.7278 18.5783L15.3293 16.1798C15.3292 16.1799 15.3291 16.18 15.329 16.1801L14.4762 15.3273ZM13.3917 15.9398C12.9503 16.1046 12.4789 16.1913 11.9987 16.1913C10.942 16.1913 9.92864 15.7715 9.18147 15.0244C8.43431 14.2772 8.01455 13.2638 8.01455 12.2072H6.81455C6.81455 13.5821 7.36073 14.9007 8.33294 15.8729C9.30515 16.8451 10.6238 17.3913 11.9987 17.3913C12.8057 17.3913 13.5934 17.2031 14.3029 16.851L13.3917 15.9398ZM16.7736 19.3216C15.3717 20.2625 13.7117 20.7754 11.9987 20.7754C9.72627 20.7754 7.5469 19.8727 5.94005 18.2658C4.33319 16.659 3.43047 14.4796 3.43047 12.2072H2.23047C2.23047 14.7979 3.25962 17.2824 5.09152 19.1143C6.92342 20.9462 9.40801 21.9754 11.9987 21.9754C14.0312 21.9754 15.9984 21.342 17.6363 20.1844L16.7736 19.3216ZM20.1433 17.6002C21.1944 16.0127 21.7669 14.1395 21.7669 12.2072H20.5669C20.5669 13.8193 20.1126 15.3845 19.2749 16.7318L20.1433 17.6002ZM16.7722 14.2291C17.0406 13.5955 17.1828 12.9086 17.1828 12.2072H15.9828C15.9828 12.5765 15.9315 12.9406 15.8329 13.2898L16.7722 14.2291ZM8.29188 5.7488C8.49034 5.24521 8.79122 4.78247 9.18137 4.39231C9.92854 3.64514 10.9419 3.22539 11.9986 3.22539C13.0552 3.22539 14.0686 3.64514 14.8158 4.39231C15.5629 5.13948 15.9827 6.15285 15.9827 7.20951V10.6104H17.1827V7.20951C17.1827 5.83459 16.6365 4.51599 15.6643 3.54378C14.6921 2.57157 13.3735 2.02539 11.9986 2.02539C10.6237 2.02539 9.30506 2.57157 8.33285 3.54378C7.94804 3.92859 7.62997 4.36767 7.3861 4.84302L8.29188 5.7488Z" fill="black"/>
</svg>
