<svg width="24" height="24" viewBox="0 0 24 24" fill="none" xmlns="http://www.w3.org/2000/svg">
<path fill-rule="evenodd" clip-rule="evenodd" d="M8.33285 3.54378C9.30506 2.57157 10.6237 2.02539 11.9986 2.02539C13.3735 2.02539 14.6921 2.57157 15.6643 3.54378C16.6365 4.51599 17.1827 5.83459 17.1827 7.20951V10.6104H15.9827V7.20951C15.9827 6.15285 15.5629 5.13948 14.8158 4.39231C14.0686 3.64514 13.0552 3.22539 11.9986 3.22539C10.9419 3.22539 9.92854 3.64514 9.18137 4.39231C8.43421 5.13948 8.01445 6.15285 8.01445 7.20951V10.6104H6.81445V7.20951C6.81445 5.83459 7.36064 4.51599 8.33285 3.54378ZM14.8158 15.0244C15.5629 14.2772 15.9827 13.2638 15.9827 12.2072H17.1827C17.1827 13.5821 16.6365 14.9007 15.6643 15.8729C14.6921 16.8451 13.3735 17.3913 11.9986 17.3913C10.6237 17.3913 9.30506 16.8451 8.33285 15.8729C7.36064 14.9007 6.81445 13.5821 6.81445 12.2072H8.01445C8.01445 13.2638 8.43421 14.2772 9.18137 15.0244C9.92854 15.7715 10.9419 16.1913 11.9986 16.1913C13.0552 16.1913 14.0686 15.7715 14.8158 15.0244ZM18.0574 18.2658C19.6642 16.659 20.5669 14.4796 20.5669 12.2072H21.7669C21.7669 14.7979 20.7378 17.2824 18.9059 19.1143C17.074 20.9462 14.5894 21.9754 11.9987 21.9754C9.40801 21.9754 6.92342 20.9462 5.09152 19.1143C3.25962 17.2824 2.23047 14.7979 2.23047 12.2072H3.43047C3.43047 14.4796 4.33319 16.659 5.94005 18.2658C7.5469 19.8727 9.72627 20.7754 11.9987 20.7754C14.2711 20.7754 16.4505 19.8727 18.0574 18.2658Z" fill="black"/>
</svg>
