<svg width="24" height="24" viewBox="0 0 24 24" fill="none" xmlns="http://www.w3.org/2000/svg">
<path fill-rule="evenodd" clip-rule="evenodd" d="M10.7 6V7.6C10.7 9.31208 9.31208 10.7 7.6 10.7H6V9.5H7.6C8.64934 9.5 9.5 8.64934 9.5 7.6V6H10.7ZM14.5999 6L14.5999 7.6C14.5999 8.64934 15.4506 9.5 16.4999 9.5H18.0999V10.7H16.4999C14.7878 10.7 13.3999 9.31208 13.3999 7.6L13.3999 6H14.5999ZM6 13.4H7.6C9.31208 13.4 10.7 14.7879 10.7 16.5V18.1H9.5V16.5C9.5 15.4506 8.64934 14.6 7.6 14.6H6V13.4ZM16.4999 14.6C15.4506 14.6 14.5999 15.4506 14.5999 16.5L14.5999 18.1H13.3999L13.3999 16.5C13.3999 14.7879 14.7878 13.4 16.4999 13.4H18.0999V14.6H16.4999Z" fill="black"/>
</svg>
