<svg width="24" height="24" viewBox="0 0 24 24" fill="none" xmlns="http://www.w3.org/2000/svg">
<path fill-rule="evenodd" clip-rule="evenodd" d="M11.1629 3.29206C11.3191 3.54532 11.3446 3.89495 11.1538 4.19107C10.525 5.16706 10.1601 6.32874 10.1601 7.57748C10.1601 11.0359 12.9637 13.8394 16.422 13.8394C17.6706 13.8394 18.8322 13.4746 19.8081 12.846C20.1043 12.6552 20.4539 12.6807 20.7071 12.8369C20.9667 12.9969 21.1561 13.3174 21.0829 13.692C20.2583 17.9143 16.5399 21.1008 12.0759 21.1008C7.00731 21.1008 2.89844 16.9919 2.89844 11.9234C2.89844 7.45919 6.08528 3.74063 10.3078 2.91624C10.6825 2.8431 11.0029 3.03247 11.1629 3.29206ZM9.71648 4.30046C6.46246 5.30635 4.09844 8.33936 4.09844 11.9234C4.09844 16.3292 7.67005 19.9008 12.0759 19.9008C15.6597 19.9008 18.6926 17.537 19.6986 14.2833C18.7092 14.7676 17.5968 15.0394 16.422 15.0394C12.3009 15.0394 8.96011 11.6986 8.96011 7.57748C8.96011 6.40258 9.23203 5.29005 9.71648 4.30046Z" fill="black"/>
</svg>
