<svg width="24" height="24" viewBox="0 0 24 24" fill="none" xmlns="http://www.w3.org/2000/svg">
<path fill-rule="evenodd" clip-rule="evenodd" d="M18.1751 4.1375H12.8202V17.2655C12.8202 19.0982 11.5223 20.6278 9.79557 20.9853V19.747C10.8527 19.4175 11.6202 18.4311 11.6202 17.2655C11.6202 16.0999 10.8527 15.1135 9.79557 14.784V13.5457C10.4928 13.69 11.12 14.0254 11.6202 14.4947V3.7875C11.6202 3.31806 12.0007 2.9375 12.4702 2.9375H18.1751V4.1375ZM8.19557 13.5568C6.49467 13.9338 5.22266 15.4511 5.22266 17.2655C5.22266 19.0799 6.49467 20.5972 8.19557 20.9742V19.7303C7.16517 19.3852 6.42266 18.4121 6.42266 17.2655C6.42266 16.1189 7.16517 15.1458 8.19557 14.8007V13.5568Z" fill="black"/>
</svg>
