<svg width="24" height="24" viewBox="0 0 24 24" fill="none" xmlns="http://www.w3.org/2000/svg">
<path fill-rule="evenodd" clip-rule="evenodd" d="M9.62876 4.1375V17.2655C9.62876 19.0992 8.32956 20.6294 6.60146 20.9859V19.7478C7.66002 19.4192 8.42876 18.4321 8.42876 17.2655C8.42876 16.0989 7.66002 15.1118 6.60146 14.7832V13.5451C7.29973 13.6892 7.92796 14.0248 8.42876 14.4947V3.7875C8.42876 3.31806 8.80932 2.9375 9.27876 2.9375H21.1313C21.6007 2.9375 21.9813 3.31806 21.9813 3.7875V17.2655C21.9813 19.089 20.6964 20.6125 18.9826 20.9798V19.7388C20.0263 19.4014 20.7812 18.4216 20.7812 17.2655C20.7812 16.1094 20.0263 15.1296 18.9826 14.7922V13.5511C19.6694 13.6984 20.2873 14.0313 20.7812 14.4947V4.1375H9.62876ZM17.3826 13.5511C15.6687 13.9184 14.3837 15.4419 14.3837 17.2655C14.3837 19.0891 15.6687 20.6125 17.3826 20.9799V19.7388C16.3387 19.4015 15.5837 18.4216 15.5837 17.2655C15.5837 16.1093 16.3387 15.1295 17.3826 14.7922V13.5511ZM5.00146 19.7294V20.9736C3.30192 20.5956 2.03125 19.0789 2.03125 17.2655C2.03125 15.4521 3.30192 13.9354 5.00146 13.5574V14.8016C3.97246 15.1475 3.23125 16.1199 3.23125 17.2655C3.23125 18.4111 3.97246 19.3835 5.00146 19.7294Z" fill="black"/>
</svg>
