<svg width="24" height="24" viewBox="0 0 24 24" fill="none" xmlns="http://www.w3.org/2000/svg">
<path fill-rule="evenodd" clip-rule="evenodd" d="M11.5479 2.55108C11.8236 2.37881 12.1733 2.37881 12.4489 2.55108L20.3164 7.46826C20.4919 7.57791 20.5984 7.77019 20.5984 7.97706V15.8385C20.5984 16.1316 20.4475 16.404 20.1989 16.5593L12.3164 21.4859C12.1219 21.6075 11.875 21.6075 11.6804 21.4859L3.79794 16.5593C3.54941 16.404 3.39844 16.1316 3.39844 15.8385V7.97706C3.39844 7.77019 3.50501 7.57791 3.68044 7.46826L11.5479 2.55108ZM11.9984 3.68461L10.1305 4.85206L16.9984 9.14451L18.8664 7.97706L11.9984 3.68461ZM19.3984 9.05961L12.5984 13.3096V19.8945L19.3984 15.6445V9.05961ZM11.3984 19.8945V13.3096L4.59844 9.05961V15.6445L11.3984 19.8945ZM5.13052 7.97706L11.9984 12.2695L13.8664 11.1021L6.99844 6.80961L5.13052 7.97706ZM8.13052 6.10206L14.9984 10.3945L15.8664 9.85206L8.99844 5.55961L8.13052 6.10206Z" fill="black"/>
</svg>
