<svg width="24" height="24" viewBox="0 0 24 24" fill="none" xmlns="http://www.w3.org/2000/svg">
<path fill-rule="evenodd" clip-rule="evenodd" d="M5.39844 6.25039C5.39844 5.78095 5.779 5.40039 6.24844 5.40039H9.74844C10.2179 5.40039 10.5984 5.78095 10.5984 6.25039V17.7504C10.5984 18.2198 10.2179 18.6004 9.74844 18.6004H6.24844C5.779 18.6004 5.39844 18.2198 5.39844 17.7504V6.25039ZM6.59844 6.60039V17.4004H9.39844V6.60039H6.59844ZM13.3984 6.25039C13.3984 5.78095 13.779 5.40039 14.2484 5.40039H17.7484C18.2179 5.40039 18.5984 5.78095 18.5984 6.25039V17.7504C18.5984 18.2198 18.2179 18.6004 17.7484 18.6004H14.2484C13.779 18.6004 13.3984 18.2198 13.3984 17.7504V6.25039ZM14.5984 6.60039V17.4004H17.3984V6.60039H14.5984Z" fill="black"/>
</svg>
