<svg width="24" height="24" viewBox="0 0 24 24" fill="none" xmlns="http://www.w3.org/2000/svg">
<path fill-rule="evenodd" clip-rule="evenodd" d="M12.7982 3.261V2.05664C17.9333 2.46403 21.9734 6.76023 21.9734 12C21.9734 17.2399 17.9333 21.536 12.7982 21.9434V20.7391C17.2697 20.3351 20.7734 16.5767 20.7734 12C20.7734 7.42336 17.2697 3.66501 12.7982 3.261ZM11.1982 20.739C6.72696 20.3349 3.22344 16.5766 3.22344 12C3.22344 7.42349 6.72696 3.66523 11.1982 3.26104V2.05667C6.06336 2.46425 2.02344 6.76036 2.02344 12C2.02344 17.2397 6.06336 21.5358 11.1982 21.9434V20.739ZM8.02305 8.83596C8.02305 8.38809 8.38612 8.02502 8.83399 8.02502H10.6621C11.11 8.02502 11.4731 8.38809 11.4731 8.83596V15.1641C11.4731 15.6119 11.11 15.975 10.6621 15.975H8.83399C8.38612 15.975 8.02305 15.6119 8.02305 15.1641V8.83596ZM9.22305 9.22502V14.775H10.2731V9.22502H9.22305ZM12.5231 8.83596C12.5231 8.38809 12.8861 8.02502 13.334 8.02502H15.1621C15.61 8.02502 15.9731 8.38809 15.9731 8.83596V15.1641C15.9731 15.6119 15.61 15.975 15.1621 15.975H13.334C12.8861 15.975 12.5231 15.6119 12.5231 15.1641V8.83596ZM13.7231 9.22502V14.775H14.7731V9.22502H13.7231Z" fill="black"/>
</svg>
