<svg width="24" height="24" viewBox="0 0 24 24" fill="none" xmlns="http://www.w3.org/2000/svg">
<path fill-rule="evenodd" clip-rule="evenodd" d="M4.32028 4.42575C4.47554 4.27049 4.7032 4.21244 4.91385 4.2744L16.7804 7.76457C17.0998 7.85851 17.335 8.13026 17.3821 8.45982L18.0382 13.0525L19.4877 14.502C19.8197 14.834 19.8197 15.3722 19.4877 15.7041L15.5986 19.5932C15.2667 19.9251 14.7285 19.9251 14.3966 19.5932L12.947 18.1436L8.35436 17.4875C8.02479 17.4405 7.75304 17.2053 7.6591 16.8859L4.16893 5.01931C4.10697 4.80867 4.16503 4.58101 4.32028 4.42575ZM14.0784 17.5779L14.9976 18.4972L18.3917 15.1031L17.4725 14.1838L14.0784 17.5779ZM16.8361 13.1232L16.226 8.85231L6.83263 6.08957L10.4629 9.71983C11.2588 9.28901 12.2743 9.40993 12.947 10.0826C13.7671 10.9027 13.7671 12.2324 12.947 13.0525C12.1269 13.8726 10.7972 13.8726 9.97714 13.0525C9.30446 12.3798 9.18354 11.3643 9.61436 10.5684L5.9841 6.9381L8.74684 16.3314L13.0177 16.9415L16.8361 13.1232ZM12.0985 10.9311C11.747 10.5797 11.1771 10.5797 10.8257 10.9311C10.4742 11.2826 10.4742 11.8525 10.8257 12.2039C11.1771 12.5554 11.747 12.5554 12.0985 12.2039C12.4499 11.8525 12.4499 11.2826 12.0985 10.9311Z" fill="black"/>
</svg>
