<svg width="24" height="24" viewBox="0 0 24 24" fill="none" xmlns="http://www.w3.org/2000/svg">
<path fill-rule="evenodd" clip-rule="evenodd" d="M15.3928 5.21268C16.33 4.27542 17.8496 4.27542 18.7869 5.21268C19.7242 6.14994 19.7242 7.66954 18.7869 8.60679L18.6455 8.74821L17.797 7.89969L17.9384 7.75827C18.407 7.28964 18.407 6.52984 17.9384 6.06121C17.4697 5.59258 16.7099 5.59258 16.2413 6.06121L16.0999 6.20263L15.2514 5.3541L15.3928 5.21268ZM6.29875 16.0038L14.9685 7.334L14.12 6.48547L5.3516 15.2539C5.19781 15.4077 5.10883 15.6145 5.10295 15.8319L5.04206 18.0849C5.02889 18.5722 5.42741 18.9707 5.91472 18.9575L8.16764 18.8966C8.38504 18.8908 8.59193 18.8018 8.74571 18.648L17.5141 9.87959L16.6656 9.03106L7.9958 17.7008L6.25161 17.748L6.29875 16.0038Z" fill="black"/>
</svg>
