<svg width="24" height="24" viewBox="0 0 24 24" fill="none" xmlns="http://www.w3.org/2000/svg">
<path fill-rule="evenodd" clip-rule="evenodd" d="M4.39844 7.49971C4.39844 6.06427 5.37407 4.8567 6.69839 4.50393V5.77586C6.04881 6.07785 5.59844 6.73618 5.59844 7.49971C5.59844 8.26324 6.04881 8.92157 6.69839 9.22356V10.4955C5.37407 10.1427 4.39844 8.93515 4.39844 7.49971ZM9.39844 7.49971C9.39844 8.26327 8.94802 8.92164 8.29839 9.2236V10.4955C9.62276 10.1428 10.5984 8.93518 10.5984 7.49971C10.5984 6.06423 9.62276 4.85664 8.29839 4.50391V5.77582C8.94802 6.07778 9.39844 6.73614 9.39844 7.49971ZM4.57417 18.5754L18.5742 4.57544L19.4227 5.42397L5.4227 19.424L4.57417 18.5754ZM15.6984 14.7759C15.0488 15.0778 14.5984 15.7362 14.5984 16.4997C14.5984 17.2632 15.0488 17.9216 15.6984 18.2236V19.4955C14.3741 19.1427 13.3984 17.9352 13.3984 16.4997C13.3984 15.0643 14.3741 13.8567 15.6984 13.5039V14.7759ZM17.2984 18.2236C17.948 17.9216 18.3984 17.2633 18.3984 16.4997C18.3984 15.7361 17.948 15.0778 17.2984 14.7758V13.5039C18.6228 13.8566 19.5984 15.0642 19.5984 16.4997C19.5984 17.9352 18.6228 19.1428 17.2984 19.4955V18.2236Z" fill="black"/>
</svg>
