<svg width="24" height="24" viewBox="0 0 24 24" fill="none" xmlns="http://www.w3.org/2000/svg">
<path fill-rule="evenodd" clip-rule="evenodd" d="M6.37534 4.00287C6.70729 3.67092 7.24548 3.67092 7.57742 4.00287L10.4058 6.83129C10.7378 7.16324 10.7378 7.70143 10.4058 8.03337L9.12242 9.3168L14.6379 14.8322L15.9213 13.5488C16.2532 13.2169 16.7914 13.2169 17.1234 13.5488L19.9518 16.3772C20.2837 16.7092 20.2837 17.2474 19.9518 17.5793L19.7025 17.8286L18.854 16.98L18.8558 16.9783L16.5223 14.6448L15.2389 15.9282C14.9069 16.2602 14.3688 16.2602 14.0368 15.9282L8.02641 9.91784C7.69446 9.5859 7.69446 9.04771 8.02641 8.71576L9.30983 7.43233L6.97638 5.09888L6.97461 5.10065L6.12609 4.25212L6.37534 4.00287ZM3.79688 8.22783C3.79687 7.17359 4.21567 6.16254 4.96113 5.41708L5.80966 6.26561C5.28924 6.78602 4.99687 7.49185 4.99688 8.22783C4.99688 8.9638 5.28924 9.66964 5.80965 10.19L5.80972 10.1901L13.7633 18.1461L12.9146 18.9945L4.96113 11.0386C4.9611 11.0386 4.96108 11.0385 4.96106 11.0385C4.21565 10.2931 3.79688 9.28203 3.79688 8.22783ZM15.7268 18.9578C16.4628 18.9578 17.1686 18.6654 17.689 18.145L18.5376 18.9935C17.7921 19.739 16.7811 20.1578 15.7268 20.1578C14.6726 20.1578 13.6615 19.739 12.9161 18.9935L13.7646 18.145C14.285 18.6654 14.9909 18.9578 15.7268 18.9578Z" fill="black"/>
</svg>
