<svg width="24" height="24" viewBox="0 0 24 24" fill="none" xmlns="http://www.w3.org/2000/svg">
<path fill-rule="evenodd" clip-rule="evenodd" d="M12.3267 12.5211L19.4942 5.35354L18.6457 4.50501L11.4782 11.6725L10.6296 12.5211L9.38516 13.7656L8.53663 14.6141L4.50359 18.6471L5.35212 19.4957L9.38516 15.4626L10.2337 14.6141L11.4782 13.3696L12.3267 12.5211ZM12.6095 14.501L13.4581 13.6524L14.6379 14.8322L15.9213 13.5488L16.3455 13.9731L15.9213 13.5488C16.2532 13.2169 16.7914 13.2169 17.1234 13.5488L19.9518 16.3772C20.2837 16.7092 20.2837 17.2474 19.9518 17.5793L19.7025 17.8286L18.854 16.98L18.8558 16.9783L16.5223 14.6448L15.2389 15.9282C14.9069 16.2602 14.3688 16.2602 14.0368 15.9282L12.6095 14.501ZM11.3651 15.7455L10.5165 16.594L12.9164 18.9939L12.9165 18.994L12.9178 18.9952L13.0747 19.1521L13.0792 19.1477C13.8056 19.7965 14.7476 20.1578 15.7268 20.1578C16.7811 20.1578 17.7921 19.739 18.5376 18.9935L17.689 18.145C17.1686 18.6654 16.4628 18.9578 15.7268 18.9578C14.991 18.9578 14.2853 18.6655 13.7649 18.1453L11.3651 15.7455ZM7.40527 13.4827L8.25379 12.6342L5.80965 10.19C5.28924 9.66964 4.99687 8.9638 4.99687 8.22783C4.99687 7.49185 5.28924 6.78602 5.80965 6.26561L4.96113 5.41708C4.21567 6.16253 3.79688 7.17359 3.79688 8.22783C3.79688 9.28206 4.21567 10.2931 4.96113 11.0386L7.40527 13.4827ZM9.49827 11.3897L10.3468 10.5412L9.12242 9.3168L10.4058 8.03337C10.7378 7.70143 10.7378 7.16324 10.4058 6.83129L7.57742 4.00287C7.24548 3.67092 6.70728 3.67092 6.37534 4.00287L6.12608 4.25212L6.97461 5.10065L6.97638 5.09888L9.30983 7.43233L8.02641 8.71576C7.69446 9.0477 7.69446 9.5859 8.02641 9.91784L9.49827 11.3897Z" fill="black"/>
</svg>
