<svg width="24" height="24" viewBox="0 0 24 24" fill="none" xmlns="http://www.w3.org/2000/svg">
<path fill-rule="evenodd" clip-rule="evenodd" d="M9.79825 2.26773C5.34762 3.26987 2.02344 7.24588 2.02344 11.9992C2.02344 17.5082 6.4894 21.9742 11.9984 21.9742C16.7518 21.9742 20.7278 18.6499 21.7299 14.1992C21.7277 14.1992 21.7255 14.1992 21.7232 14.1992H20.4955C19.5194 17.9806 16.0847 20.7742 11.9984 20.7742C7.15214 20.7742 3.22344 16.8455 3.22344 11.9992C3.22344 7.91289 6.01697 4.47828 9.79824 3.50213V2.27418C9.79824 2.27203 9.79825 2.26988 9.79825 2.26773ZM20.4894 11.3992H20.7534C20.4585 7.03111 16.9666 3.53917 12.5985 3.24433V3.4996C12.5983 3.50365 12.5982 3.50772 12.5982 3.51182V3.64534V10.9992V11.1492C12.5982 11.1533 12.5983 11.1574 12.5985 11.1614V11.3991H12.8444C12.8457 11.3992 12.847 11.3992 12.8482 11.3992H12.9982H20.3521H20.4856C20.4869 11.3992 20.4881 11.3992 20.4894 11.3992ZM21.9703 11.7561C21.9644 11.5068 21.9493 11.2596 21.9253 11.0151C21.4628 6.29171 17.7057 2.53466 12.9823 2.07211C12.743 2.04867 12.5012 2.03369 12.2572 2.02747C11.7773 2.01915 11.3985 2.40922 11.3985 2.87415L11.3985 11.7492C11.3985 12.2186 11.7791 12.5992 12.2485 12.5992L21.1235 12.5992C21.5834 12.5992 21.97 12.2286 21.9703 11.7561Z" fill="black"/>
</svg>
