<svg width="24" height="24" viewBox="0 0 24 24" fill="none" xmlns="http://www.w3.org/2000/svg">
<path fill-rule="evenodd" clip-rule="evenodd" d="M16.9522 5.32683C14.2179 2.59262 9.78489 2.59262 7.05068 5.32683C5.83081 6.5467 5.15519 8.10472 5.0238 9.69915H3.82031C3.95399 7.79698 4.74793 5.93252 6.20215 4.4783C9.40499 1.27546 14.5978 1.27546 17.8007 4.4783C19.2549 5.93252 20.0488 7.79698 20.1825 9.69915H18.979C18.8476 8.10472 18.172 6.5467 16.9522 5.32683ZM18.9283 11.2992C18.7174 12.737 18.0587 14.1218 16.9522 15.2283L12.0014 20.179L7.05068 15.2283C5.94413 14.1218 5.28541 12.737 5.07451 11.2992H3.86351C4.08154 13.0458 4.86108 14.7358 6.20215 16.0768L11.5738 21.4485C11.81 21.6847 12.1928 21.6847 12.429 21.4485L17.8007 16.0768C19.1417 14.7358 19.9213 13.0458 20.1393 11.2992H18.9283ZM12.0014 9.09913C11.2282 9.09913 10.6014 9.72593 10.6014 10.4991C10.6014 11.2723 11.2282 11.8991 12.0014 11.8991C12.7746 11.8991 13.4014 11.2723 13.4014 10.4991C13.4014 9.72593 12.7746 9.09913 12.0014 9.09913ZM9.40141 10.4991C9.40141 9.06319 10.5655 7.89913 12.0014 7.89913C13.4374 7.89913 14.6014 9.06319 14.6014 10.4991C14.6014 11.9351 13.4374 13.0991 12.0014 13.0991C10.5655 13.0991 9.40141 11.9351 9.40141 10.4991Z" fill="black"/>
</svg>
