<svg width="24" height="24" viewBox="0 0 24 24" fill="none" xmlns="http://www.w3.org/2000/svg">
<mask id="mask0_493_43858" style="mask-type:alpha" maskUnits="userSpaceOnUse" x="2" y="2" width="20" height="20">
<path d="M2 4C2 2.89543 2.89543 2 4 2H20C21.1046 2 22 2.89543 22 4V20C22 21.1046 21.1046 22 20 22H4C2.89543 22 2 21.1046 2 20V4Z" fill="#D9D9D9"/>
</mask>
<g mask="url(#mask0_493_43858)">
<path fill-rule="evenodd" clip-rule="evenodd" d="M23.0968 -0.0849459C19.1199 -3.42196 13.1908 -2.90323 9.85375 1.07367L8.9345 0.302324C12.6975 -4.18227 19.3835 -4.76722 23.8681 -1.0042L23.0968 -0.0849459ZM-4.95131 2.22698C-0.974409 5.564 4.95469 5.04527 8.29171 1.06837L9.21097 1.83971C5.44795 6.3243 -1.23806 6.90925 -5.72266 3.14623L-4.95131 2.22698ZM24.5609 5.37917C20.584 2.04215 14.6549 2.56088 11.3179 6.53778L10.3986 5.76643C14.1616 1.28184 20.8476 0.696893 25.3322 4.45991L24.5609 5.37917ZM-3.4872 7.69109C0.489703 11.0281 6.41881 10.5094 9.75582 6.53248L10.6751 7.30382C6.91206 11.7884 0.226047 12.3734 -4.25854 8.61035L-3.4872 7.69109ZM26.025 10.8433C22.0481 7.50626 16.119 8.02499 12.782 12.0019L11.8627 11.2305C15.6257 6.74595 22.3118 6.16101 26.7963 9.92402L26.025 10.8433ZM-2.02309 13.1552C1.95381 16.4922 7.88292 15.9735 11.2199 11.9966L12.1392 12.7679C8.37617 17.2525 1.69016 17.8375 -2.79443 14.0745L-2.02309 13.1552ZM27.4891 16.3074C23.5122 12.9704 17.5831 13.4891 14.2461 17.466L13.3268 16.6947C17.0899 12.2101 23.7759 11.6251 28.2605 15.3881L27.4891 16.3074ZM-0.558977 18.6193C3.41792 21.9563 9.34703 21.4376 12.684 17.4607L13.6033 18.232C9.84028 22.7166 3.15427 23.3016 -1.33032 19.5386L-0.558977 18.6193ZM28.9535 21.7715C24.9766 18.4345 19.0475 18.9532 15.7104 22.9301L14.7912 22.1588C18.5542 17.6742 25.2402 17.0892 29.7248 20.8522L28.9535 21.7715ZM0.905378 24.0834C4.88228 27.4204 10.8114 26.9017 14.1484 22.9248L15.0677 23.6962C11.3046 28.1807 4.61863 28.7657 0.134033 25.0027L0.905378 24.0834Z" fill="black"/>
</g>
</svg>
