<svg width="24" height="24" viewBox="0 0 24 24" fill="none" xmlns="http://www.w3.org/2000/svg">
<path fill-rule="evenodd" clip-rule="evenodd" d="M10.16 2.79082C10.6476 2.30322 11.3089 2.0293 11.9984 2.0293C12.688 2.0293 13.3493 2.30322 13.8369 2.79082C14.3245 3.27841 14.5984 3.93973 14.5984 4.6293H13.3984C13.3984 4.25799 13.2509 3.9019 12.9884 3.63935C12.7258 3.3768 12.3697 3.2293 11.9984 3.2293C11.6271 3.2293 11.271 3.3768 11.0085 3.63935C10.7459 3.9019 10.5984 4.25799 10.5984 4.6293H9.39844C9.39844 3.93973 9.67237 3.27841 10.16 2.79082ZM9.39844 8.5293V6.22928H10.5984V8.7043C10.5984 8.97184 10.4725 9.22377 10.2584 9.3843L4.59844 13.6293V14.9968L9.47964 13.3698C10.03 13.1863 10.5984 13.596 10.5984 14.1762V18.2043C10.5984 18.4718 10.4725 18.7238 10.2584 18.8843L8.59844 20.1293V20.5608L11.7923 19.7624C11.9276 19.7285 12.0692 19.7285 12.2046 19.7624L15.3984 20.5608V20.1293L13.7384 18.8843C13.5244 18.7238 13.3984 18.4718 13.3984 18.2043V14.1762C13.3984 13.596 13.9668 13.1863 14.5172 13.3698L19.3984 14.9968V13.6293L13.7384 9.3843C13.5244 9.22377 13.3984 8.97184 13.3984 8.7043V6.22928H14.5984V8.5293L20.2584 12.7743C20.4725 12.9348 20.5984 13.1868 20.5984 13.4543V15.4824C20.5984 16.0626 20.03 16.4723 19.4796 16.2888L14.5984 14.6618V18.0293L16.2584 19.2743C16.4725 19.4348 16.5984 19.6868 16.5984 19.9543V21.0091C16.5984 21.5621 16.0788 21.9678 15.5423 21.8337L11.9984 20.9478L8.45459 21.8337C7.91812 21.9678 7.39844 21.5621 7.39844 21.0091V19.9543C7.39844 19.6868 7.5244 19.4348 7.73844 19.2743L9.39844 18.0293V14.6618L4.51723 16.2888C3.96683 16.4723 3.39844 16.0626 3.39844 15.4824V13.4543C3.39844 13.1868 3.5244 12.9348 3.73844 12.7743L9.39844 8.5293ZM9.53844 17.9243L9.53798 17.9246ZM12.0833 20.9265C12.0831 20.9266 12.083 20.9266 12.0828 20.9267ZM14.4589 8.42461C14.4587 8.4245 14.4586 8.4244 14.4584 8.42429L14.2484 8.7043L14.4584 8.4243L14.4589 8.42461ZM19.538 13.734C19.5382 13.7341 19.5383 13.7342 19.5384 13.7343L19.7484 13.4543L19.5384 13.7343L19.538 13.734ZM4.45898 13.7339L4.45844 13.7343L4.24844 13.4543L4.45844 13.7343C4.45862 13.7342 4.4588 13.734 4.45898 13.7339Z" fill="black"/>
</svg>
