<svg width="24" height="24" viewBox="0 0 24 24" fill="none" xmlns="http://www.w3.org/2000/svg">
<path fill-rule="evenodd" clip-rule="evenodd" d="M6.39844 3.50039C6.39844 3.03095 6.779 2.65039 7.24844 2.65039H16.7484C17.2179 2.65039 17.5984 3.03095 17.5984 3.50039V5.55039H16.3984V3.85039H7.59844V5.55039H6.39844V3.50039ZM2.39844 8.00039C2.39844 7.53095 2.779 7.15039 3.24844 7.15039H20.7484C21.2179 7.15039 21.5984 7.53095 21.5984 8.00039V17.4828C21.5984 17.9523 21.2179 18.3328 20.7484 18.3328H19.1984V17.1328H20.3984V8.35039H3.59844V17.1387L4.80429 17.1504L4.79259 18.3504L3.24015 18.3352C2.77396 18.3307 2.39844 17.9515 2.39844 17.4853V8.00039ZM16.398 9.548C16.398 9.98983 16.7562 10.348 17.198 10.348C17.6399 10.348 17.998 9.98983 17.998 9.548H19.198C19.198 10.6526 18.3026 11.548 17.198 11.548C16.0935 11.548 15.198 10.6526 15.198 9.548H16.398ZM6.39844 16.0004C6.39844 15.5309 6.77899 15.1504 7.24844 15.1504H16.7484C17.2179 15.1504 17.5984 15.5309 17.5984 16.0004V20.5004C17.5984 20.9698 17.2179 21.3504 16.7484 21.3504H7.24844C6.77899 21.3504 6.39844 20.9698 6.39844 20.5004V16.0004ZM7.59844 16.3504V20.1504H16.3984V16.3504H7.59844Z" fill="black"/>
</svg>
