<svg width="24" height="24" viewBox="0 0 24 24" fill="none" xmlns="http://www.w3.org/2000/svg">
<path fill-rule="evenodd" clip-rule="evenodd" d="M12.7985 2.05665V3.26101C17.2698 3.66514 20.7734 7.42343 20.7734 12C20.7734 16.5766 17.2698 20.3349 12.7985 20.739V21.9434C17.9334 21.5359 21.9734 17.2398 21.9734 12C21.9734 6.7603 17.9334 2.46416 12.7985 2.05665ZM3.22344 12C3.22344 16.5767 6.72709 20.335 11.1985 20.7391V21.9434C6.06348 21.536 2.02344 17.2398 2.02344 12C2.02344 6.76027 6.06348 2.46411 11.1985 2.05664V3.261C6.72709 3.66508 3.22344 7.4234 3.22344 12ZM11.7805 6.15001C11.1047 6.15001 10.4408 6.3279 9.85551 6.66581C9.27023 7.00372 8.78422 7.48973 8.44631 8.07501L9.48554 8.67501C9.71813 8.27216 10.0527 7.93762 10.4555 7.70504C10.8584 7.47245 11.3153 7.35001 11.7805 7.35001C12.2457 7.35001 12.7027 7.47245 13.1055 7.70504C13.5084 7.93763 13.8429 8.27216 14.0755 8.67501C14.3081 9.07786 14.4305 9.53483 14.4305 10C14.4305 10.4652 14.3081 10.9222 14.0755 11.325C13.8429 11.7279 13.5084 12.0624 13.1055 12.295C12.7027 12.5276 12.2457 12.65 11.7805 12.65V13.85C12.4563 13.85 13.1202 13.6721 13.7055 13.3342C14.2908 12.9963 14.7768 12.5103 15.1147 11.925C15.4526 11.3397 15.6305 10.6758 15.6305 10C15.6305 9.32419 15.4526 8.66028 15.1147 8.07501C14.7768 7.48973 14.2908 7.00372 13.7055 6.66581C13.1202 6.3279 12.4563 6.15001 11.7805 6.15001ZM12.7982 16.45C12.7982 16.0082 12.4401 15.65 11.9982 15.65C11.5564 15.65 11.1982 16.0082 11.1982 16.45C11.1982 16.8918 11.5564 17.25 11.9982 17.25C12.4401 17.25 12.7982 16.8918 12.7982 16.45Z" fill="black"/>
</svg>
