<svg width="24" height="24" viewBox="0 0 24 24" fill="none" xmlns="http://www.w3.org/2000/svg">
<path fill-rule="evenodd" clip-rule="evenodd" d="M7.99844 7.2293C6.73307 7.2293 5.51952 7.73196 4.62477 8.62672C3.73001 9.52147 3.22734 10.735 3.22734 12.0004C3.22734 13.2658 3.73001 14.4793 4.62477 15.3741C5.51952 16.2688 6.73307 16.7715 7.99844 16.7715V17.9715C6.41481 17.9715 4.89604 17.3424 3.77624 16.2226C2.65644 15.1028 2.02734 13.584 2.02734 12.0004C2.02734 10.4168 2.65644 8.89799 3.77624 7.77819C4.89603 6.65839 6.41481 6.0293 7.99844 6.0293V7.2293ZM16.0224 6.0293C17.6061 6.0293 19.1248 6.65839 20.2446 7.77819C21.3644 8.89799 21.9935 10.4168 21.9935 12.0004C21.9935 13.584 21.3644 15.1028 20.2446 16.2226C19.1248 17.3424 17.6061 17.9715 16.0224 17.9715V16.7715C17.2878 16.7715 18.5013 16.2688 19.3961 15.3741C20.2909 14.4793 20.7935 13.2658 20.7935 12.0004C20.7935 10.735 20.2909 9.52147 19.3961 8.62672C18.5013 7.73196 17.2878 7.2293 16.0224 7.2293V6.0293ZM7.99899 9.79808C7.4149 9.79808 6.85474 10.0301 6.44172 10.4431C6.02871 10.8561 5.79668 11.4163 5.79668 12.0004C5.79668 12.5845 6.02871 13.1447 6.44172 13.5577C6.85473 13.9707 7.4149 14.2027 7.99899 14.2027V15.4027C7.09664 15.4027 6.23125 15.0443 5.59319 14.4062C4.95514 13.7681 4.59668 12.9027 4.59668 12.0004C4.59668 11.098 4.95514 10.2327 5.59319 9.5946C6.23125 8.95654 7.09664 8.59808 7.99899 8.59808V9.79808ZM16.0219 8.59808C16.9242 8.59808 17.7896 8.95654 18.4277 9.5946C19.0657 10.2327 19.4242 11.098 19.4242 12.0004C19.4242 12.9027 19.0657 13.7681 18.4277 14.4062C17.7896 15.0443 16.9242 15.4027 16.0219 15.4027V14.2027C16.606 14.2027 17.1661 13.9707 17.5791 13.5577C17.9922 13.1447 18.2242 12.5845 18.2242 12.0004C18.2242 11.4163 17.9922 10.8561 17.5791 10.4431C17.1661 10.0301 16.606 9.79808 16.0219 9.79808V8.59808ZM11.999 10.6004C11.2258 10.6004 10.599 11.2272 10.599 12.0004C10.599 12.7736 11.2258 13.4004 11.999 13.4004C12.7722 13.4004 13.399 12.7736 13.399 12.0004C13.399 11.2272 12.7722 10.6004 11.999 10.6004ZM9.39899 12.0004C9.39899 10.5645 10.5631 9.40039 11.999 9.40039C13.4349 9.40039 14.599 10.5645 14.599 12.0004C14.599 13.4363 13.4349 14.6004 11.999 14.6004C10.5631 14.6004 9.39899 13.4363 9.39899 12.0004Z" fill="black"/>
</svg>
