<svg width="24" height="24" viewBox="0 0 24 24" fill="none" xmlns="http://www.w3.org/2000/svg">
<path fill-rule="evenodd" clip-rule="evenodd" d="M12.7982 3.261V2.05664C17.9333 2.46403 21.9734 6.76023 21.9734 12C21.9734 17.2399 17.9333 21.536 12.7982 21.9434V20.7391C17.2697 20.3351 20.7734 16.5767 20.7734 12C20.7734 7.42336 17.2697 3.66501 12.7982 3.261ZM11.1982 20.739C6.72696 20.3349 3.22344 16.5766 3.22344 12C3.22344 7.42349 6.72696 3.66523 11.1982 3.26104V2.05667C6.06336 2.46425 2.02344 6.76036 2.02344 12C2.02344 17.2397 6.06336 21.5358 11.1982 21.9434V20.739ZM11.9981 9.22503C10.4655 9.22503 9.22314 10.4674 9.22314 12C9.22314 13.5326 10.4655 14.775 11.9981 14.775C13.5307 14.775 14.7731 13.5326 14.7731 12C14.7731 10.4674 13.5307 9.22503 11.9981 9.22503ZM8.02314 12C8.02314 9.8047 9.80281 8.02503 11.9981 8.02503C14.1935 8.02503 15.9731 9.8047 15.9731 12C15.9731 14.1954 14.1935 15.975 11.9981 15.975C9.80281 15.975 8.02314 14.1954 8.02314 12Z" fill="black"/>
</svg>
