<svg width="24" height="24" viewBox="0 0 24 24" fill="none" xmlns="http://www.w3.org/2000/svg">
<path fill-rule="evenodd" clip-rule="evenodd" d="M11.2 2.06445C9.62747 2.19093 8.09386 2.68969 6.73195 3.53658C5.58889 4.24739 4.61228 5.17513 3.84967 6.25567V3.99974H2.64967V7.68724C2.64967 8.1912 3.05821 8.59974 3.56217 8.59974H7.24967V7.39974H4.53146C5.2378 6.25497 6.20403 5.27796 7.36563 4.55563C8.53592 3.82789 9.85033 3.39237 11.2 3.26886V2.06445ZM11.2 20.8885C10.8843 20.8608 10.5689 20.8159 10.2553 20.7535C8.07018 20.3189 6.13221 19.0693 4.83449 17.2584C3.53677 15.4474 2.97649 13.2106 3.26729 11.0018L2.07756 10.8451C1.74698 13.3561 2.38389 15.8987 3.85907 17.9573C5.33426 20.016 7.53726 21.4364 10.0212 21.9305C10.4124 22.0083 10.806 22.0622 11.2 22.0926V20.8885ZM12.8 22.0873V20.8825C14.1379 20.755 15.4403 20.3206 16.601 19.5989C17.8147 18.8442 18.8151 17.8114 19.5286 16.5997H16.8112V15.3997H20.4987C21.0027 15.3997 21.4112 15.8083 21.4112 16.3122V19.9997H20.2112V17.763C19.4355 18.9017 18.4254 19.8775 17.2347 20.6179C15.8824 21.4588 14.3608 21.9565 12.8 22.0873ZM12.8 3.26895V2.06452C13.1828 2.09535 13.5652 2.14841 13.9455 2.22404C16.4294 2.71813 18.6324 4.13855 20.1076 6.19716C21.5828 8.25578 22.2197 10.7984 21.8891 13.3094L20.6994 13.1527C20.9902 10.9439 20.4299 8.7071 19.1322 6.89613C17.8344 5.08517 15.8965 3.83563 13.7113 3.40099C13.4087 3.34079 13.1045 3.29686 12.8 3.26895Z" fill="black"/>
</svg>
