<svg width="24" height="24" viewBox="0 0 24 24" fill="none" xmlns="http://www.w3.org/2000/svg">
<path fill-rule="evenodd" clip-rule="evenodd" d="M5.76653 3.82389C6.32688 3.40363 7.12653 3.80345 7.12653 4.50389V9.2296C7.12653 9.92096 6.34507 10.3231 5.78248 9.92127L2.55517 7.61605C2.08733 7.28188 2.07928 6.58933 2.53922 6.24437L5.76653 3.82389ZM5.92653 5.20389L3.64174 6.91748L5.92653 8.54948V5.20389ZM8.73062 6.34121H14.0485C16.9034 6.34121 19.2178 8.65555 19.2178 11.5104V12.3154H18.0178V11.5104C18.0178 9.31829 16.2407 7.54121 14.0485 7.54121H8.73062V6.34121ZM5.51013 11.6836V12.6527C5.51013 14.8449 7.28721 16.6219 9.47934 16.6219H15.2709V17.8219H9.47934C6.62446 17.8219 4.31013 15.5076 4.31013 12.6527V11.6836H5.51013ZM18.0755 15.4505V18.7961L20.3602 17.0825L18.0755 15.4505ZM16.8755 14.7704C16.8755 14.079 17.6569 13.6769 18.2195 14.0787L21.4468 16.384C21.9147 16.7181 21.9227 17.4107 21.4628 17.7556L18.2355 20.1761C17.6751 20.5964 16.8755 20.1965 16.8755 19.4961V14.7704Z" fill="black"/>
</svg>
