<svg width="24" height="24" viewBox="0 0 24 24" fill="none" xmlns="http://www.w3.org/2000/svg">
<path fill-rule="evenodd" clip-rule="evenodd" d="M12.799 3.26113V2.05671C13.1818 2.08754 13.5642 2.1406 13.9445 2.21623C16.4284 2.71032 18.6314 4.13073 20.1066 6.18935C21.5818 8.24797 22.2187 10.7906 21.8881 13.3016C21.5575 15.8125 20.2842 18.1037 18.3265 19.7103C16.7458 21.0076 14.8145 21.7802 12.799 21.9424V20.738C14.5372 20.5788 16.1999 19.9032 17.5652 18.7827C19.2874 17.3693 20.4076 15.3538 20.6984 13.1449C20.9892 10.9361 20.4289 8.69929 19.1312 6.88832C17.8335 5.07736 15.8955 3.82782 13.7104 3.39317C13.4078 3.33298 13.1036 3.28904 12.799 3.26113ZM11.199 20.7381C9.06072 20.5425 7.06526 19.5691 5.59388 17.9981C4.07089 16.372 3.22344 14.2275 3.22344 11.9996H2.02344C2.02344 14.5322 2.98678 16.9699 4.71804 18.8184C6.41569 20.631 8.72706 21.7438 11.199 21.9425V20.7381ZM11.199 2.05664V3.26105C9.84935 3.38455 8.53494 3.82008 7.36464 4.54782C6.20044 5.27176 5.2325 6.25153 4.52575 7.3996H7.24859V8.5996H3.56109C3.05713 8.5996 2.64859 8.19106 2.64859 7.6871V3.9996H3.84859V6.24799C4.61121 5.16739 5.58785 4.2396 6.73096 3.52877C8.09288 2.68188 9.62649 2.18311 11.199 2.05664ZM10.3069 9.8496H14.7486V8.6496H9.84777C9.43861 8.6496 9.10692 8.98128 9.10692 9.39044V11.8588C9.10692 12.2679 9.43861 12.5996 9.84777 12.5996H13.6903V14.1496H9.24859V15.3496H14.1494C14.5586 15.3496 14.8903 15.0179 14.8903 14.6088V12.1404C14.8903 11.7313 14.5586 11.3996 14.1494 11.3996H10.3069V9.8496Z" fill="black"/>
</svg>
