<svg width="24" height="24" viewBox="0 0 24 24" fill="none" xmlns="http://www.w3.org/2000/svg">
<path fill-rule="evenodd" clip-rule="evenodd" d="M11.3184 6.75942C11.8833 6.38284 12.6399 6.78777 12.6399 7.46666V10.8263L18.7403 6.75942C19.3052 6.38284 20.0618 6.78777 20.0618 7.46666V16.5324C20.0618 17.2113 19.3052 17.6162 18.7403 17.2396L12.6399 13.1727V16.5324C12.6399 17.2113 11.8833 17.6162 11.3184 17.2396L4.51913 12.7068C4.01446 12.3703 4.01446 11.6287 4.51913 11.2923L4.85195 11.7915L4.85558 11.797M4.85195 11.7915L4.51913 11.2923L11.3184 6.75942M13.0435 11.9995L18.8618 15.8784V8.12064L13.0435 11.9995ZM11.4399 8.12064L5.6216 11.9995L11.4399 15.8784V8.12064Z" fill="black"/>
</svg>
