<svg width="24" height="24" viewBox="0 0 24 24" fill="none" xmlns="http://www.w3.org/2000/svg">
<path fill-rule="evenodd" clip-rule="evenodd" d="M12.7987 3.26109V2.05667C13.1816 2.0875 13.5641 2.14056 13.9445 2.21621C16.4284 2.7103 18.6314 4.13071 20.1066 6.18933C21.5818 8.24795 22.2187 10.7906 21.8881 13.3015C21.5575 15.8125 20.2842 18.1037 18.3265 19.7103C16.7457 21.0076 14.8143 21.7802 12.7987 21.9424V20.738C14.537 20.5788 16.1998 19.9033 17.5652 18.7827C19.2874 17.3693 20.4076 15.3538 20.6984 13.1449C20.9892 10.936 20.4289 8.69927 19.1312 6.8883C17.8334 5.07734 15.8955 3.8278 13.7104 3.39316C13.4077 3.33295 13.1034 3.289 12.7987 3.26109ZM11.1987 20.738C9.06056 20.5424 7.0652 19.569 5.59388 17.9981C4.07089 16.372 3.22344 14.2275 3.22344 11.9995H2.02344C2.02344 14.5321 2.98678 16.9699 4.71804 18.8184C6.41563 20.6309 8.72691 21.7437 11.1987 21.9424V20.738ZM11.1987 2.05664V3.26105C9.84919 3.38459 8.53486 3.82011 7.36464 4.5478C6.20044 5.27174 5.2325 6.25151 4.52575 7.39958H7.24859V8.59958H3.56109C3.05713 8.59958 2.64859 8.19104 2.64859 7.68708V3.99958H3.84859V6.24797C4.61121 5.16737 5.58785 4.23958 6.73096 3.52875C8.0928 2.6819 9.62633 2.18314 11.1987 2.05664ZM8.89859 15.3511L8.89859 8.64801H10.0986L10.0986 15.3511H8.89859ZM12.7238 9.84958H15.1486V8.64958H12.3738C11.9043 8.64958 11.5238 9.03013 11.5238 9.49958V11.7496C11.5238 12.219 11.9043 12.5996 12.3738 12.5996H14.0238V14.1496H11.5986V15.3496H14.3738C14.8432 15.3496 15.2238 14.969 15.2238 14.4996V12.2496C15.2238 11.7801 14.8432 11.3996 14.3738 11.3996H12.7238V9.84958Z" fill="black"/>
</svg>
