<svg width="24" height="24" viewBox="0 0 24 24" fill="none" xmlns="http://www.w3.org/2000/svg">
<path fill-rule="evenodd" clip-rule="evenodd" d="M12.7987 2.05667V3.26109C13.1034 3.289 13.4077 3.33295 13.7104 3.39316C15.8955 3.8278 17.8334 5.07734 19.1312 6.8883C20.4289 8.69927 20.9892 10.936 20.6984 13.1449C20.4076 15.3538 19.2874 17.3693 17.5652 18.7827C16.1998 19.9033 14.537 20.5788 12.7987 20.738V21.9424C14.8143 21.7802 16.7457 21.0076 18.3265 19.7103C20.2842 18.1037 21.5575 15.8125 21.8881 13.3015C22.2187 10.7906 21.5818 8.24795 20.1066 6.18933C18.6314 4.13071 16.4284 2.7103 13.9445 2.21621C13.5641 2.14056 13.1816 2.0875 12.7987 2.05667ZM11.1987 3.26105V2.05664C9.62633 2.18314 8.0928 2.6819 6.73096 3.52875C5.58785 4.23958 4.61121 5.16737 3.84859 6.24797V3.99958H2.64859V7.68708C2.64859 8.19104 3.05713 8.59958 3.56109 8.59958H7.24859V7.39958H4.52575C5.2325 6.25151 6.20044 5.27174 7.36464 4.5478C8.53486 3.82011 9.84919 3.38459 11.1987 3.26105ZM11.1987 20.738V21.9424C8.72691 21.7437 6.41563 20.6309 4.71804 18.8184C2.98678 16.9699 2.02344 14.5321 2.02344 11.9995H3.22344C3.22344 14.2275 4.07089 16.372 5.59388 17.9981C7.0652 19.569 9.06056 20.5424 11.1987 20.738ZM8.82339 15.3511L8.82339 8.64801H10.0234L10.0234 15.3511H8.82339ZM12.4238 9.84958V14.1496H13.9738V9.84958H12.4238ZM11.2238 9.49958C11.2238 9.03013 11.6043 8.64958 12.0738 8.64958H14.3238C14.7932 8.64958 15.1738 9.03013 15.1738 9.49958V14.4996C15.1738 14.969 14.7932 15.3496 14.3238 15.3496H12.0738C11.6043 15.3496 11.2238 14.969 11.2238 14.4996V9.49958Z" fill="black"/>
</svg>
