<svg width="24" height="24" viewBox="0 0 24 24" fill="none" xmlns="http://www.w3.org/2000/svg">
<path fill-rule="evenodd" clip-rule="evenodd" d="M15.738 8.26242C12.6249 5.14931 8.40259 3.40039 4 3.40039V4.60039C8.08433 4.60039 12.0014 6.22289 14.8894 9.11095C17.7775 11.999 19.4 15.9161 19.4 20.0004H20.6C20.6 15.5978 18.8511 11.3755 15.738 8.26242ZM12.2024 11.798C10.027 9.62253 7.07651 8.40039 4 8.40039V9.60039C6.75825 9.60039 9.40353 10.6961 11.3539 12.6465C13.3043 14.5969 14.4 17.2421 14.4 20.0004H15.6C15.6 16.9239 14.3779 13.9734 12.2024 11.798ZM7.45 18.6879C8.06466 18.448 8.5001 17.85 8.5001 17.1504C8.5001 16.4508 8.06466 15.8528 7.45 15.6128V14.3636C8.73595 14.6391 9.7001 15.7822 9.7001 17.1504C9.7001 18.5186 8.73595 19.6616 7.45 19.9371V18.6879ZM6.25 15.6129C5.63545 15.853 5.2001 16.4508 5.2001 17.1504C5.2001 17.8499 5.63545 18.4478 6.25 18.6879V19.9371C4.96415 19.6615 4.0001 18.5185 4.0001 17.1504C4.0001 15.7822 4.96415 14.6393 6.25 14.3637V15.6129Z" fill="black"/>
</svg>
