<svg width="24" height="24" viewBox="0 0 24 24" fill="none" xmlns="http://www.w3.org/2000/svg">
<path fill-rule="evenodd" clip-rule="evenodd" d="M13.7255 3.95195C12.9523 3.95195 12.3255 4.57875 12.3255 5.35195C12.3255 6.12515 12.9523 6.75195 13.7255 6.75195C14.4987 6.75195 15.1255 6.12515 15.1255 5.35195C15.1255 4.57875 14.4987 3.95195 13.7255 3.95195ZM11.1255 5.35195C11.1255 3.91601 12.2896 2.75195 13.7255 2.75195C15.1615 2.75195 16.3255 3.91601 16.3255 5.35195C16.3255 6.78789 15.1615 7.95195 13.7255 7.95195C12.2896 7.95195 11.1255 6.78789 11.1255 5.35195ZM12.718 9.61933C10.8409 9.41986 9.0454 10.6098 8.54145 12.4905L7.38234 12.1799C8.1116 9.4583 10.9092 7.84314 13.6308 8.57239L14.0755 8.69154V9.15194C14.0755 11.0285 15.5966 12.5497 17.4731 12.5497V13.7497C15.7482 13.7497 14.2453 12.7999 13.4587 11.3948L12.2541 15.611C14.6992 15.9859 16.572 18.0985 16.572 20.6485H15.372C15.372 18.6383 13.8498 16.9836 11.8952 16.7743C11.0257 18.9315 8.64838 20.126 6.36328 19.4708L6.69405 18.3173C8.49855 18.8347 10.3809 17.7915 10.8986 15.9871C10.8986 15.9871 10.8986 15.9871 10.8986 15.9871C10.8986 15.9871 10.8986 15.987 10.8987 15.9869C10.8987 15.9868 10.8987 15.9867 10.8988 15.9866L12.0376 11.9876L12.041 11.9886L12.718 9.61933Z" fill="black"/>
</svg>
