<svg width="24" height="24" viewBox="0 0 24 24" fill="none" xmlns="http://www.w3.org/2000/svg">
<path fill-rule="evenodd" clip-rule="evenodd" d="M11.3533 4.13209C11.8651 3.52844 12.8516 3.89037 12.8516 4.68178V13.4808C12.8516 13.9502 12.471 14.3308 12.0016 14.3308H4.54133C3.81728 14.3308 3.42476 13.4834 3.893 12.9311L11.3533 4.13209ZM11.6516 5.6358L5.29695 13.1308H11.6516V5.6358ZM3.72509 17.2291C3.37658 16.6628 3.78402 15.9337 4.449 15.9337H19.5542C20.2192 15.9337 20.6266 16.6628 20.2781 17.2291L18.4525 20.1958C18.2978 20.4472 18.0237 20.6003 17.7286 20.6003H6.27464C5.97947 20.6003 5.70543 20.4472 5.55073 20.1958L3.72509 17.2291ZM5.07535 17.1337L6.47022 19.4003H17.533L18.9279 17.1337H5.07535Z" fill="black"/>
</svg>
