<svg width="24" height="24" viewBox="0 0 24 24" fill="none" xmlns="http://www.w3.org/2000/svg">
<path fill-rule="evenodd" clip-rule="evenodd" d="M4.59844 4.60039V19.4004H7.39844V14.2861C7.39844 13.7969 7.79499 13.4004 8.28415 13.4004H15.7127C16.2019 13.4004 16.5984 13.7969 16.5984 14.2861V19.4004H19.3984V7.67749L16.3213 4.60039H4.59844ZM15.3984 19.4004V14.6004H8.59844V19.4004H15.3984ZM3.39844 4.2861C3.39844 3.79694 3.79498 3.40039 4.28415 3.40039H16.4515C16.6864 3.40039 16.9117 3.49371 17.0778 3.65981L20.339 6.92101C20.5051 7.08712 20.5984 7.3124 20.5984 7.54731V19.7147C20.5984 20.2038 20.2019 20.6004 19.7127 20.6004H4.28415C3.79499 20.6004 3.39844 20.2038 3.39844 19.7147V4.2861ZM13.5984 6.20039C13.5984 7.91247 12.2105 9.30039 10.4984 9.30039C8.78635 9.30039 7.39844 7.91247 7.39844 6.20039H8.59844C8.59844 7.24973 9.4491 8.10039 10.4984 8.10039C11.5478 8.10039 12.3984 7.24973 12.3984 6.20039H13.5984Z" fill="black"/>
</svg>
