<svg width="24" height="24" viewBox="0 0 24 24" fill="none" xmlns="http://www.w3.org/2000/svg">
<path fill-rule="evenodd" clip-rule="evenodd" d="M16.6438 4.68588C15.7601 4.68588 15.0438 5.40223 15.0438 6.28588C15.0438 7.16953 15.7601 7.88588 16.6438 7.88588C17.5275 7.88588 18.2438 7.16953 18.2438 6.28588C18.2438 5.40223 17.5275 4.68588 16.6438 4.68588ZM13.6724 6.28588C13.6724 4.6448 15.0027 3.31445 16.6438 3.31445C18.2849 3.31445 19.6152 4.6448 19.6152 6.28588C19.6152 7.92696 18.2849 9.25731 16.6438 9.25731C15.7772 9.25731 14.9973 8.88637 14.4542 8.29461L9.24688 11.301C9.30095 11.5252 9.32959 11.7593 9.32959 12.0001C9.32959 12.2409 9.30094 12.4751 9.24686 12.6993L14.4542 15.7057C14.9973 15.114 15.7772 14.743 16.6438 14.743C18.2849 14.743 19.6152 16.0734 19.6152 17.7145C19.6152 19.3555 18.2849 20.6859 16.6438 20.6859C15.0027 20.6859 13.6724 19.3555 13.6724 17.7145C13.6724 17.433 13.7115 17.1607 13.7846 16.9027L8.62358 13.923C8.07854 14.5645 7.26588 14.9715 6.35815 14.9715C4.71708 14.9715 3.38672 13.6412 3.38672 12.0001C3.38672 10.359 4.71708 9.02869 6.35815 9.02869C7.26591 9.02869 8.0786 9.43574 8.62364 10.0773L13.7846 7.0976C13.7115 6.83959 13.6724 6.56731 13.6724 6.28588ZM6.35815 10.4001C5.47449 10.4001 4.75815 11.1165 4.75815 12.0001C4.75815 12.8838 5.47449 13.6001 6.35815 13.6001C7.24181 13.6001 7.95816 12.8838 7.95816 12.0001C7.95816 11.1165 7.24181 10.4001 6.35815 10.4001ZM16.6438 16.1145C15.7601 16.1145 15.0438 16.8308 15.0438 17.7145C15.0438 18.5981 15.7601 19.3145 16.6438 19.3145C17.5275 19.3145 18.2438 18.5981 18.2438 17.7145C18.2438 16.8308 17.5275 16.1145 16.6438 16.1145Z" fill="black"/>
</svg>
