<svg width="24" height="24" viewBox="0 0 24 24" fill="none" xmlns="http://www.w3.org/2000/svg">
<path fill-rule="evenodd" clip-rule="evenodd" d="M11.398 3.06535C11.73 2.73342 12.2681 2.73342 12.6001 3.06536L16.6657 7.13096L15.8172 7.97949L12.5984 4.76077L12.5984 15.3123H11.3984L11.3984 4.76191L8.1805 7.97957L7.332 7.131L11.398 3.06537C11.398 3.06537 11.398 3.06536 11.398 3.06535ZM20.1055 14.6703C20.5486 13.6005 20.7734 12.4591 20.7734 11.3122L21.9734 11.3123C21.9734 12.6159 21.7179 13.9134 21.2141 15.1295C20.4592 16.9522 19.1806 18.5101 17.5403 19.6061C15.8999 20.7022 13.9713 21.2872 11.9984 21.2872C10.0256 21.2872 8.09701 20.7022 6.45663 19.6061C4.81625 18.5101 3.53773 16.9522 2.78274 15.1295C2.27902 13.9134 2.02345 12.6159 2.02344 11.3122L3.22344 11.3122C3.22345 12.4591 3.44828 13.6005 3.8914 14.6703C4.55556 16.2737 5.68027 17.6442 7.12331 18.6084C8.56635 19.5726 10.2629 20.0872 11.9984 20.0872C13.734 20.0872 15.4305 19.5726 16.8736 18.6084C18.3166 17.6442 19.4413 16.2737 20.1055 14.6703Z" fill="black"/>
</svg>
