<svg width="24" height="24" viewBox="0 0 24 24" fill="none" xmlns="http://www.w3.org/2000/svg">
<path fill-rule="evenodd" clip-rule="evenodd" d="M11.9984 3.25643L4.59844 5.47642V11.8H3.39844V5.21601C3.39844 4.84064 3.64466 4.50972 4.00419 4.40186L11.7542 2.07686C11.9135 2.02907 12.0834 2.02907 12.2427 2.07686L19.9927 4.40186L19.8203 4.97655L19.9927 4.40186C20.3522 4.50972 20.5984 4.84064 20.5984 5.21601V11.8H19.3984V5.47642L11.9984 3.25643ZM4.59844 13.4C4.59844 17.4869 7.91153 20.8 11.9984 20.8C16.0853 20.8 19.3984 17.4869 19.3984 13.4H20.5984C20.5984 18.1496 16.7481 22 11.9984 22C7.24879 22 3.39844 18.1496 3.39844 13.4H4.59844Z" fill="black"/>
</svg>
