<svg width="24" height="24" viewBox="0 0 24 24" fill="none" xmlns="http://www.w3.org/2000/svg">
<path fill-rule="evenodd" clip-rule="evenodd" d="M3.39917 6.51106V11.8H4.59917V7.71106L3.39917 6.51106ZM16.3062 19.4181C15.093 20.2879 13.6059 20.8 11.9992 20.8C7.91227 20.8 4.59917 17.4869 4.59917 13.4H3.39917C3.39917 18.1496 7.24953 22 11.9992 22C13.9377 22 15.7264 21.3586 17.1646 20.2765L16.3062 19.4181ZM19.1004 18.2525C19.1004 18.2525 19.1003 18.2526 19.1003 18.2526L20.9087 20.061L20.0603 20.9094L3.08984 3.93899L3.93827 3.09057L4.96234 4.11464L4.9625 4.11459L5.92622 5.07831L5.92606 5.07836L18.2345 17.3868C18.2345 17.3867 18.2345 17.3867 18.2346 17.3867L19.1004 18.2525ZM19.9039 16.7932C20.3513 15.7521 20.5992 14.605 20.5992 13.4H19.3992C19.3992 14.2651 19.2507 15.0956 18.9779 15.8672L19.9039 16.7932ZM7.66679 4.55614L11.9992 3.25643L19.3992 5.47642V11.8H20.5992V5.21601C20.5992 4.84064 20.353 4.50972 19.9934 4.40186L12.2434 2.07686C12.0841 2.02907 11.9142 2.02907 11.7549 2.07686L6.70307 3.59242L7.66679 4.55614Z" fill="black"/>
</svg>
