<svg width="24" height="24" viewBox="0 0 24 24" fill="none" xmlns="http://www.w3.org/2000/svg">
<path fill-rule="evenodd" clip-rule="evenodd" d="M9.00272 3.10938C8.31316 3.10938 7.65184 3.3833 7.16425 3.8709C6.67665 4.35849 6.40272 5.01981 6.40272 5.70937H7.60272C7.60272 5.33807 7.75022 4.98198 8.01277 4.71943C8.27533 4.45687 8.63142 4.30937 9.00272 4.30937C9.37403 4.30937 9.73012 4.45687 9.99267 4.71943C10.2552 4.98198 10.4027 5.33807 10.4027 5.70937H11.6027C11.6027 5.01981 11.3288 4.35849 10.8412 3.8709C10.3536 3.3833 9.69229 3.10938 9.00272 3.10938ZM6.60272 10.1094V7.7094H15.5703L16.4335 10.2992L17.5719 9.91969L16.6289 7.0906C16.5132 6.74352 16.1884 6.5094 15.8225 6.5094H6.25272C5.78328 6.5094 5.40272 6.88996 5.40272 7.3594V10.1094H6.60272ZM3.17622 11.007V11.007L3.17151 11.007C2.6424 11.0112 2.24563 11.4925 2.34257 12.0127L3.40601 17.7193L4.5857 17.4994L3.59943 12.207H15.6277H20.3034L18.801 17.4439L19.9545 17.7748L21.613 11.9938C21.6458 11.8794 21.6633 11.7327 21.6218 11.5743C21.5783 11.4084 21.4823 11.277 21.3661 11.1858C21.1616 11.0252 20.9235 11.007 20.7959 11.007H15.6277H3.17622ZM8.24882 15.932C7.59241 15.932 6.96288 16.1927 6.49873 16.6569C6.1788 16.9768 5.9555 17.3753 5.84762 17.807H7.12378C7.18245 17.697 7.25747 17.5952 7.34726 17.5054C7.58636 17.2663 7.91067 17.132 8.24882 17.132C8.58697 17.132 8.91127 17.2663 9.15038 17.5054C9.24017 17.5952 9.31518 17.697 9.37386 17.807H10.65C10.5421 17.3753 10.3188 16.9768 9.99891 16.6569C9.53475 16.1927 8.90523 15.932 8.24882 15.932ZM10.8739 19.007C10.9325 19.117 11.0075 19.2188 11.0973 19.3085C11.3364 19.5476 11.6607 19.682 11.9988 19.682C12.337 19.682 12.6613 19.5476 12.9004 19.3085C12.9901 19.2188 13.0651 19.117 13.1238 19.007H14.4C14.2921 19.4387 14.0688 19.8372 13.7489 20.1571C13.2848 20.6212 12.6552 20.882 11.9988 20.882C11.3424 20.882 10.7129 20.6212 10.2487 20.1571C9.92883 19.8372 9.70555 19.4387 9.59766 19.007H10.8739ZM6.89998 19.007H5.62378C5.56512 19.117 5.49013 19.2188 5.40038 19.3085C5.16127 19.5476 4.83697 19.682 4.49882 19.682C4.16067 19.682 3.83636 19.5476 3.59726 19.3085C3.50751 19.2188 3.43252 19.117 3.37385 19.007H2.09766C2.20555 19.4387 2.42883 19.8372 2.74873 20.1571C3.21288 20.6212 3.84241 20.882 4.49882 20.882C5.15523 20.882 5.78475 20.6212 6.24891 20.1571C6.56881 19.8372 6.79209 19.4387 6.89998 19.007ZM14.6238 17.807H13.3476C13.4555 17.3753 13.6788 16.9768 13.9987 16.6569C14.4629 16.1927 15.0924 15.932 15.7488 15.932C16.4052 15.932 17.0348 16.1927 17.4989 16.6569C17.8188 16.9768 18.0421 17.3753 18.15 17.807H16.8739C16.8152 17.697 16.7402 17.5952 16.6504 17.5054C16.4113 17.2663 16.087 17.132 15.7488 17.132C15.4107 17.132 15.0864 17.2663 14.8473 17.5054C14.7575 17.5952 14.6825 17.697 14.6238 17.807ZM17.0977 19.007C17.2055 19.4387 17.4288 19.8372 17.7487 20.1571C18.2129 20.6212 18.8424 20.882 19.4988 20.882C20.1552 20.882 20.7848 20.6212 21.2489 20.1571C21.5688 19.8372 21.7921 19.4387 21.9 19.007H20.6238C20.5651 19.117 20.4901 19.2188 20.4004 19.3085C20.1613 19.5476 19.837 19.682 19.4988 19.682C19.1607 19.682 18.8364 19.5476 18.5973 19.3085C18.5075 19.2188 18.4325 19.117 18.3739 19.007H17.0977Z" fill="black"/>
</svg>
