<svg width="24" height="24" viewBox="0 0 24 24" fill="none" xmlns="http://www.w3.org/2000/svg">
<path fill-rule="evenodd" clip-rule="evenodd" d="M8.59728 3.43522C9.49999 2.53252 10.7243 2.02539 12.0009 2.02539C13.2775 2.02539 14.5019 2.53252 15.4046 3.43522C16.3073 4.33793 16.8144 5.56225 16.8144 6.83886V9.1563H15.6144V6.83886C15.6144 5.88051 15.2337 4.96141 14.556 4.28375C13.8784 3.6061 12.9593 3.22539 12.0009 3.22539C11.0426 3.22539 10.1235 3.60609 9.44581 4.28375C8.76815 4.96141 8.38745 5.88051 8.38745 6.83886V9.1563H7.18745V6.83886C7.18745 5.56225 7.69458 4.33793 8.59728 3.43522ZM5.22734 9.75629H5.59039V8.55629H4.87734C4.4079 8.55629 4.02734 8.93685 4.02734 9.40629V21.1254C4.02734 21.5948 4.4079 21.9754 4.87734 21.9754H19.1245C19.5939 21.9754 19.9745 21.5948 19.9745 21.1254V9.40629C19.9745 8.93685 19.5939 8.55629 19.1245 8.55629H18.4104V9.75629H18.7745V20.7754H5.22734V9.75629ZM14.0105 9.75631H9.99048V8.55631H14.0105V9.75631ZM8.3874 10.7563C8.3874 12.752 10.0052 14.3698 12.0009 14.3698C13.9965 14.3698 15.6143 12.752 15.6143 10.7563H16.8143C16.8143 13.4147 14.6593 15.5698 12.0009 15.5698C9.34246 15.5698 7.1874 13.4147 7.1874 10.7563H8.3874Z" fill="black"/>
</svg>
