<svg width="24" height="24" viewBox="0 0 24 24" fill="none" xmlns="http://www.w3.org/2000/svg">
<path fill-rule="evenodd" clip-rule="evenodd" d="M3.98367 4.28461C3.66063 3.96156 3.22248 3.78008 2.76562 3.78008V2.58008C3.54074 2.58008 4.28411 2.88799 4.8322 3.43608C5.38029 3.98417 5.68821 4.72754 5.68821 5.50266H4.48821C4.48821 5.0458 4.30672 4.60766 3.98367 4.28461ZM4.48821 7.952C4.48821 7.48256 4.86876 7.102 5.33821 7.102H20.4454C20.9984 7.102 21.4042 7.62169 21.2701 8.15816L19.0725 16.9485C18.9779 17.3269 18.6379 17.5923 18.2479 17.5923H5.33821C4.86877 17.5923 4.48821 17.2118 4.48821 16.7423V7.952ZM5.68821 8.302V16.3923H17.9746L19.9972 8.302H5.68821ZM6.26926 19.1927C6.26926 19.7592 6.72853 20.2185 7.29507 20.2185C7.8616 20.2185 8.32087 19.7592 8.32087 19.1927H9.52087C9.52087 20.4219 8.52435 21.4185 7.29507 21.4185C6.06579 21.4185 5.06926 20.4219 5.06926 19.1927H6.26926ZM14.6306 19.1927C14.6306 19.7592 15.0899 20.2185 15.6564 20.2185C16.2229 20.2185 16.6822 19.7592 16.6822 19.1927H17.8822C17.8822 20.4219 16.8857 21.4185 15.6564 21.4185C14.4271 21.4185 13.4306 20.4219 13.4306 19.1927H14.6306Z" fill="black"/>
</svg>
