<svg width="24" height="24" viewBox="0 0 24 24" fill="none" xmlns="http://www.w3.org/2000/svg">
<path fill-rule="evenodd" clip-rule="evenodd" d="M17.7315 4.10194V7.77913L20.2427 5.89569L17.7315 4.10194ZM16.5315 3.42181C16.5315 2.73044 17.313 2.32829 17.8756 2.73014L21.3293 5.19714C21.7971 5.53131 21.8051 6.22384 21.3452 6.5688L17.8915 9.15914C17.3312 9.57941 16.5315 9.17959 16.5315 8.47914V3.42181ZM2.21875 5.05543C4.06072 5.05543 5.82725 5.78717 7.12971 7.08967C7.74386 7.70383 8.23111 8.42118 8.57458 9.20096C8.91806 8.42118 9.4053 7.70383 10.0195 7.08967C11.3219 5.78717 13.0884 5.05543 14.9304 5.05543V6.25543C13.4067 6.25543 11.9454 6.86073 10.868 7.93819C9.79057 9.01564 9.18527 10.477 9.18527 12.0007C9.18527 13.5245 9.79057 14.9858 10.868 16.0633C11.9454 17.1407 13.4067 17.746 14.9304 17.746V18.946C13.0884 18.946 11.3219 18.2143 10.0195 16.9118C9.4053 16.2976 8.91806 15.5803 8.57458 14.8005C8.23111 15.5803 7.74386 16.2976 7.12971 16.9118C5.82725 18.2143 4.06072 18.946 2.21875 18.946V17.746C3.74245 17.746 5.20375 17.1407 6.28117 16.0633C7.3586 14.9858 7.96389 13.5245 7.96389 12.0007C7.96389 10.477 7.3586 9.01564 6.28117 7.93819C5.20375 6.86073 3.74245 6.25543 2.21875 6.25543V5.05543ZM17.7335 16.1882V19.8654L20.2447 17.982L17.7335 16.1882ZM20.6338 18.2599C20.6335 18.2597 20.6333 18.2596 20.6331 18.2595ZM16.5335 15.5081C16.5335 14.8167 17.315 14.4146 17.8775 14.8164L21.3312 17.2834C21.7991 17.6176 21.8071 18.3101 21.3472 18.6551L17.8935 21.2454C17.3331 21.6657 16.5335 21.2659 16.5335 20.5654V15.5081Z" fill="black"/>
</svg>
