<svg width="24" height="24" viewBox="0 0 24 24" fill="none" xmlns="http://www.w3.org/2000/svg">
<path fill-rule="evenodd" clip-rule="evenodd" d="M12.798 3.261V2.05664C17.9332 2.46392 21.9734 6.76016 21.9734 12.0001C21.9734 17.24 17.9332 21.5362 12.798 21.9435V20.7391C14.6911 20.5681 16.4107 19.7959 17.7645 18.6149L5.38361 6.23405C4.03831 7.7761 3.22344 9.79292 3.22344 12.0001C3.22344 16.5765 6.72684 20.3347 11.198 20.739V21.9434C6.06323 21.5357 2.02344 17.2397 2.02344 12.0001C2.02344 6.76046 6.06323 2.46441 11.198 2.05671V3.26108C9.30513 3.43224 7.5857 4.20451 6.23212 5.3855L18.613 17.7664C19.9585 16.2243 20.7734 14.2073 20.7734 12.0001C20.7734 7.42329 17.2696 3.6649 12.798 3.261Z" fill="black"/>
</svg>
