<svg width="24" height="24" viewBox="0 0 24 24" fill="none" xmlns="http://www.w3.org/2000/svg">
<path fill-rule="evenodd" clip-rule="evenodd" d="M5.6 5.60039C4.55501 5.60039 3.66602 6.26824 3.33656 7.20039L2.0892 7.20039C2.45298 5.5972 3.88673 4.40039 5.6 4.40039C7.31327 4.40039 8.74702 5.5972 9.1108 7.20039L7.86344 7.20039C7.53398 6.26824 6.64499 5.60039 5.6 5.60039ZM2.08921 8.80039H3.33658C3.66606 9.73251 4.55504 10.4003 5.6 10.4003C6.64496 10.4003 7.53394 9.73251 7.86342 8.80039H9.11079C8.74699 10.4036 7.31325 11.6003 5.6 11.6003C3.88675 11.6003 2.45301 10.4036 2.08921 8.80039ZM2.00039 7.94678L2.00039 8.05394C2.00013 8.03611 2 8.01825 2 8.00036C2 7.98247 2.00013 7.96461 2.00039 7.94678ZM10.7978 7.4004L20.9978 7.35676L21.003 8.55675L10.803 8.60039L10.7978 7.4004ZM16.1363 16.7518H14.889C15.2527 18.3551 16.6865 19.5519 18.3998 19.5519C20.1132 19.5519 21.5469 18.3551 21.9107 16.7518H20.6633C20.3339 17.684 19.4449 18.3519 18.3998 18.3519C17.3548 18.3519 16.4658 17.684 16.1363 16.7518ZM20.6633 15.1518H21.9106C21.5468 13.5487 20.1131 12.3519 18.3998 12.3519C16.6866 12.3519 15.2529 13.5487 14.889 15.1518H16.1364C16.4659 14.2197 17.3549 13.5519 18.3998 13.5519C19.4448 13.5519 20.3337 14.2197 20.6633 15.1518ZM14.8002 16.0055V15.8983C14.7999 15.9162 14.7998 15.934 14.7998 15.9519C14.7998 15.9698 14.7999 15.9877 14.8002 16.0055ZM2.99782 15.4004L13.1978 15.3568L13.203 16.5567L3.00296 16.6004L2.99782 15.4004Z" fill="black"/>
</svg>
