<svg width="24" height="24" viewBox="0 0 24 24" fill="none" xmlns="http://www.w3.org/2000/svg">
<path fill-rule="evenodd" clip-rule="evenodd" d="M7.60039 2.49805L7.64403 13.0977L6.44404 13.1026L6.4004 2.50299L7.60039 2.49805ZM19.4004 6.09994C19.4004 7.21826 18.6355 8.15792 17.6004 8.42434V9.65017C19.303 9.36454 20.6004 7.88375 20.6004 6.09994C20.6004 4.31614 19.303 2.83535 17.6004 2.54971V3.77555C18.6355 4.04197 19.4004 4.98163 19.4004 6.09994ZM14.6004 6.09994C14.6004 4.98165 15.3653 4.042 16.4004 3.77556V2.54972C14.6978 2.83538 13.4004 4.31616 13.4004 6.09994C13.4004 7.88372 14.6978 9.3645 16.4004 9.65016V8.42432C15.3653 8.15789 14.6004 7.21824 14.6004 6.09994ZM17.0004 2.49994L17.0459 2.50022L16.9549 2.50022L17.0004 2.49994ZM17.6004 10.8983L17.644 21.4979L16.444 21.5028L16.4004 10.9032L17.6004 10.8983ZM6.44922 15.5755C5.41409 15.842 4.64922 16.7816 4.64922 17.9C4.64922 19.0183 5.41409 19.9579 6.44922 20.2244V21.4502C4.74659 21.1646 3.44922 19.6838 3.44922 17.9C3.44922 16.1162 4.74659 14.6354 6.44922 14.3497V15.5755ZM7.64922 20.2244C8.68435 19.9579 9.44922 19.0183 9.44922 17.9C9.44922 16.7816 8.68435 15.842 7.64922 15.5755V14.3497C9.35185 14.6354 10.6492 16.1162 10.6492 17.9C10.6492 19.6838 9.35185 21.1646 7.64922 21.4502V20.2244ZM7.09941 14.3003C7.08271 14.3 7.06598 14.2999 7.04922 14.2999C7.03246 14.2999 7.01572 14.3 6.99902 14.3003L7.09941 14.3003Z" fill="black"/>
</svg>
