<svg width="24" height="24" viewBox="0 0 24 24" fill="none" xmlns="http://www.w3.org/2000/svg">
<path fill-rule="evenodd" clip-rule="evenodd" d="M5.53906 2.87539C5.53906 2.40595 5.91962 2.02539 6.38906 2.02539H17.6078C18.0773 2.02539 18.4578 2.40595 18.4578 2.87539V4.22039H17.2578V3.22539H6.73906V4.22039H5.53906V2.87539ZM13.9984 5.62041H9.99844V4.42041H13.9984V5.62041ZM6.73906 20.7754V5.82039H5.53906V21.1254C5.53906 21.5948 5.91962 21.9754 6.38906 21.9754H17.6078C18.0773 21.9754 18.4578 21.5948 18.4578 21.1254V5.82039H17.2578V20.7754H6.73906ZM11.9984 17.2254C11.5704 17.2254 11.2234 17.5724 11.2234 18.0004C11.2234 18.4284 11.5704 18.7754 11.9984 18.7754C12.4265 18.7754 12.7734 18.4284 12.7734 18.0004C12.7734 17.5724 12.4265 17.2254 11.9984 17.2254ZM10.0234 18.0004C10.0234 16.9096 10.9077 16.0254 11.9984 16.0254C13.0892 16.0254 13.9734 16.9096 13.9734 18.0004C13.9734 19.0912 13.0892 19.9754 11.9984 19.9754C10.9077 19.9754 10.0234 19.0912 10.0234 18.0004Z" fill="black"/>
</svg>
