<svg width="24" height="24" viewBox="0 0 24 24" fill="none" xmlns="http://www.w3.org/2000/svg">
<path fill-rule="evenodd" clip-rule="evenodd" d="M6.24844 3.40039C5.779 3.40039 5.39844 3.78095 5.39844 4.25039V19.7504C5.39844 20.2198 5.77899 20.6004 6.24844 20.6004H17.7484C18.2179 20.6004 18.5984 20.2198 18.5984 19.7504V4.25039C18.5984 3.78095 18.2179 3.40039 17.7484 3.40039H6.24844ZM6.59844 19.4004V4.60039H17.3984V19.4004H6.59844ZM11.5984 7.50039C11.5984 7.27948 11.7775 7.10039 11.9984 7.10039C12.2194 7.10039 12.3984 7.27948 12.3984 7.50039C12.3984 7.7213 12.2194 7.90039 11.9984 7.90039C11.7775 7.90039 11.5984 7.7213 11.5984 7.50039ZM11.9984 5.90039C11.1148 5.90039 10.3984 6.61673 10.3984 7.50039C10.3984 8.38405 11.1148 9.10039 11.9984 9.10039C12.8821 9.10039 13.5984 8.38405 13.5984 7.50039C13.5984 6.61673 12.8821 5.90039 11.9984 5.90039ZM12.5983 16.8248C13.6335 16.5584 14.3984 15.6187 14.3984 14.5004C14.3984 13.3821 13.6335 12.4424 12.5983 12.176V10.9501C14.301 11.2358 15.5984 12.7166 15.5984 14.5004C15.5984 16.2842 14.301 17.765 12.5983 18.0506V16.8248ZM11.3983 12.176C10.3633 12.4425 9.59844 13.3821 9.59844 14.5004C9.59844 15.6187 10.3633 16.5583 11.3983 16.8248V18.0506C9.69576 17.7649 8.39844 16.2842 8.39844 14.5004C8.39844 12.7166 9.69576 11.2359 11.3983 10.9502V12.176Z" fill="black"/>
</svg>
