<svg width="24" height="24" viewBox="0 0 24 24" fill="none" xmlns="http://www.w3.org/2000/svg">
<path fill-rule="evenodd" clip-rule="evenodd" d="M10.5491 3.23572C11.0568 1.89872 12.9478 1.89775 13.4569 3.23422L15.293 8.05413L20.2924 8.41432C21.6947 8.51535 22.2541 10.2772 21.167 11.1687L17.0315 14.5599L19.1843 19.5592C19.787 20.959 18.226 22.3007 16.9326 21.4945L12.014 18.4283L7.48452 21.4689C6.23569 22.3072 4.64248 21.0613 5.15509 19.6472L6.99303 14.577L2.84491 11.1755C1.75598 10.2825 2.31933 8.51766 3.72423 8.42076L8.71062 8.07683L10.5491 3.23572ZM11.8157 18.3047L11.8162 18.305ZM15.3748 8.26863L15.375 8.26922L15.0375 8.39777L15.375 8.26922C15.3749 8.26902 15.3748 8.26882 15.3748 8.26863ZM12.3356 3.66141C12.2192 3.35592 11.787 3.35615 11.6709 3.66175L9.75037 8.71899C9.63414 9.02506 9.35047 9.23554 9.02385 9.25807L3.80681 9.61792C3.48569 9.64007 3.35692 10.0435 3.60582 10.2476L7.95155 13.8111C8.22663 14.0367 8.32952 14.4113 8.20828 14.7457L6.28325 20.0561C6.16609 20.3794 6.53025 20.6642 6.81569 20.4725L11.5391 17.3017C11.5391 17.3017 11.5391 17.3017 11.5392 17.3017C11.8134 17.1176 12.1702 17.1116 12.4505 17.2863L17.5674 20.4761C17.8631 20.6604 18.2199 20.3537 18.0821 20.0338L15.8219 14.7848C15.674 14.4413 15.7713 14.0414 16.0604 13.8043L16.4409 14.2683L16.0604 13.8043L20.4061 10.2408C20.6545 10.037 20.5267 9.63431 20.2062 9.61121L14.9772 9.23449C14.6519 9.21105 14.3697 9.00118 14.2536 8.6964L12.3356 3.66141Z" fill="black"/>
</svg>
