<svg width="24" height="24" viewBox="0 0 24 24" fill="none" xmlns="http://www.w3.org/2000/svg">
<path fill-rule="evenodd" clip-rule="evenodd" d="M14.753 19.3996L19.4016 14.7511V4.59961H4.60156V19.3996H14.753ZM15.499 20.3507C15.3396 20.5101 15.1234 20.5996 14.898 20.5996H4.25156C3.78212 20.5996 3.40156 20.2191 3.40156 19.7496V4.24961C3.40156 3.78017 3.78212 3.39961 4.25156 3.39961H19.7516C20.221 3.39961 20.6016 3.78017 20.6016 4.24961V14.8961C20.6016 15.1215 20.512 15.3377 20.3526 15.4971L15.499 20.3507ZM13.4016 17.7887V14.2496C13.4016 13.7802 13.7821 13.3996 14.2516 13.3996H17.8016V14.5996H14.6016V17.7887H13.4016Z" fill="black"/>
</svg>
