<svg width="24" height="24" viewBox="0 0 24 24" fill="none" xmlns="http://www.w3.org/2000/svg">
<path fill-rule="evenodd" clip-rule="evenodd" d="M12.7982 3.261V2.05664C17.9333 2.46403 21.9734 6.76023 21.9734 12C21.9734 17.2399 17.9333 21.536 12.7982 21.9434V20.7391C17.2697 20.3351 20.7734 16.5767 20.7734 12C20.7734 7.42336 17.2697 3.66501 12.7982 3.261ZM11.1982 20.739C6.72696 20.3349 3.22344 16.5766 3.22344 12C3.22344 7.42349 6.72696 3.66523 11.1982 3.26104V2.05667C6.06336 2.46425 2.02344 6.76036 2.02344 12C2.02344 17.2397 6.06336 21.5358 11.1982 21.9434V20.739ZM8.02314 8.87503C8.02314 8.40559 8.4037 8.02503 8.87314 8.02503H15.1231C15.5926 8.02503 15.9731 8.40559 15.9731 8.87503V15.125C15.9731 15.5945 15.5926 15.975 15.1231 15.975H8.87314C8.4037 15.975 8.02314 15.5945 8.02314 15.125V8.87503ZM9.22314 9.22503V14.775H14.7731V9.22503H9.22314Z" fill="black"/>
</svg>
