<svg width="24" height="24" viewBox="0 0 24 24" fill="none" xmlns="http://www.w3.org/2000/svg">
<path fill-rule="evenodd" clip-rule="evenodd" d="M5.56719 3.22539V20.7754H18.4297V3.22539H5.56719ZM4.36719 2.87539C4.36719 2.40595 4.74775 2.02539 5.21719 2.02539H18.7797C19.2491 2.02539 19.6297 2.40595 19.6297 2.87539V21.1254C19.6297 21.5948 19.2491 21.9754 18.7797 21.9754H5.21719C4.74774 21.9754 4.36719 21.5948 4.36719 21.1254V2.87539ZM11.9984 17.2254C11.5704 17.2254 11.2234 17.5724 11.2234 18.0004C11.2234 18.4284 11.5704 18.7754 11.9984 18.7754C12.4265 18.7754 12.7734 18.4284 12.7734 18.0004C12.7734 17.5724 12.4265 17.2254 11.9984 17.2254ZM10.0234 18.0004C10.0234 16.9096 10.9077 16.0254 11.9984 16.0254C13.0892 16.0254 13.9734 16.9096 13.9734 18.0004C13.9734 19.0912 13.0892 19.9754 11.9984 19.9754C10.9077 19.9754 10.0234 19.0912 10.0234 18.0004Z" fill="black"/>
</svg>
