<svg width="24" height="24" viewBox="0 0 24 24" fill="none" xmlns="http://www.w3.org/2000/svg">
<path fill-rule="evenodd" clip-rule="evenodd" d="M3.8507 4.56327C3.8627 4.10578 4.23476 3.73992 4.69239 3.7356L11.2335 3.67387C11.4617 3.67171 11.6812 3.76142 11.8426 3.92279L20.0769 12.1571C20.4088 12.489 20.4088 13.0272 20.0769 13.3592L13.3594 20.0767C13.0274 20.4086 12.4892 20.4086 12.1573 20.0767L3.92474 11.8441C3.75987 11.6793 3.66996 11.4539 3.67607 11.2208L3.8507 4.56327ZM5.04143 4.93236L4.8796 11.1019L12.7583 18.9807L18.9809 12.7581L11.0979 4.8752L5.04143 4.93236Z" fill="black"/>
<path fill-rule="evenodd" clip-rule="evenodd" d="M7.588 7.58767C7.43179 7.74388 7.43179 7.99714 7.588 8.15335C7.74421 8.30956 7.99747 8.30956 8.15368 8.15335C8.30989 7.99714 8.30989 7.74388 8.15368 7.58767C7.99747 7.43146 7.74421 7.43146 7.588 7.58767ZM6.73947 9.00188C6.11463 8.37704 6.11463 7.36398 6.73947 6.73914C7.36431 6.1143 8.37737 6.1143 9.00221 6.73914C9.62705 7.36398 9.62705 8.37704 9.00221 9.00188C8.37737 9.62672 7.36431 9.62672 6.73947 9.00188Z" fill="black"/>
</svg>
