<svg width="24" height="24" viewBox="0 0 24 24" fill="none" xmlns="http://www.w3.org/2000/svg">
<path fill-rule="evenodd" clip-rule="evenodd" d="M2.02344 12C2.02344 6.76023 6.06356 2.46403 11.1986 2.05664V3.261C6.72717 3.66501 3.22344 7.42336 3.22344 12C3.22344 16.5767 6.72717 20.3351 11.1986 20.7391V21.9434C6.06356 21.536 2.02344 17.2399 2.02344 12ZM12.7986 21.9434C17.9335 21.5358 21.9734 17.2397 21.9734 12C21.9734 6.76036 17.9335 2.46425 12.7986 2.05667V3.26104C17.2699 3.66523 20.7734 7.42349 20.7734 12C20.7734 16.5766 17.2699 20.3349 12.7986 20.739V21.9434ZM11.9985 6.72505C9.08523 6.72505 6.72354 9.08674 6.72354 12C6.72354 14.9133 9.08523 17.275 11.9985 17.275C14.9118 17.275 17.2735 14.9133 17.2735 12C17.2735 9.08674 14.9118 6.72505 11.9985 6.72505ZM5.52354 12C5.52354 8.424 8.42249 5.52505 11.9985 5.52505C15.5746 5.52505 18.4735 8.424 18.4735 12C18.4735 15.5761 15.5746 18.475 11.9985 18.475C8.42249 18.475 5.52354 15.5761 5.52354 12ZM11.9985 10.225C11.0182 10.225 10.2235 11.0197 10.2235 12C10.2235 12.9804 11.0182 13.775 11.9985 13.775C12.9788 13.775 13.7735 12.9804 13.7735 12C13.7735 11.0197 12.9788 10.225 11.9985 10.225ZM9.02354 12C9.02354 10.357 10.3555 9.02505 11.9985 9.02505C13.6416 9.02505 14.9735 10.357 14.9735 12C14.9735 13.6431 13.6416 14.975 11.9985 14.975C10.3555 14.975 9.02354 13.6431 9.02354 12Z" fill="black"/>
</svg>
