<svg width="24" height="24" viewBox="0 0 24 24" fill="none" xmlns="http://www.w3.org/2000/svg">
<path fill-rule="evenodd" clip-rule="evenodd" d="M9.87712 3.7029C10.4397 3.14029 11.2028 2.82422 11.9984 2.82422C12.7941 2.82422 13.5571 3.14029 14.1198 3.7029C14.6824 4.26551 14.9984 5.02857 14.9984 5.82422H13.7984C13.7984 5.34683 13.6088 4.88899 13.2712 4.55143C12.9337 4.21386 12.4758 4.02422 11.9984 4.02422C11.521 4.02422 11.0632 4.21386 10.7256 4.55143C10.3881 4.88899 10.1984 5.34683 10.1984 5.82422H8.99844C8.99844 5.02857 9.31451 4.26551 9.87712 3.7029ZM6.44158 6.42422H7.79922V5.22422H6.18308C5.80993 5.22422 5.48041 5.46759 5.37067 5.82425L3.43603 12.1118L4.00949 12.2883L3.43602 12.1118C3.41111 12.1928 3.39844 12.2771 3.39844 12.3618V16.7292H4.59844V12.4144L6.44158 6.42422ZM17.5553 6.42422H16.2016V5.22422H17.8138C18.1869 5.22422 18.5165 5.46759 18.6262 5.82425L20.5609 12.1118C20.5858 12.1928 20.5984 12.2771 20.5984 12.3618V16.7292H19.3984V12.4144L17.5553 6.42422ZM18.1975 12.9242H5.79824V11.7242H18.1975V12.9242ZM7.49844 14.9242C7.27752 14.9242 7.09844 15.1033 7.09844 15.3242C7.09844 15.5451 7.27752 15.7242 7.49844 15.7242C7.71935 15.7242 7.89844 15.5451 7.89844 15.3242C7.89844 15.1033 7.71935 14.9242 7.49844 14.9242ZM5.89844 15.3242C5.89844 14.4406 6.61478 13.7242 7.49844 13.7242C8.38209 13.7242 9.09844 14.4406 9.09844 15.3242C9.09844 16.2079 8.38209 16.9242 7.49844 16.9242C6.61478 16.9242 5.89844 16.2079 5.89844 15.3242ZM16.4984 14.9242C16.2775 14.9242 16.0984 15.1033 16.0984 15.3242C16.0984 15.5451 16.2775 15.7242 16.4984 15.7242C16.7194 15.7242 16.8984 15.5451 16.8984 15.3242C16.8984 15.1033 16.7194 14.9242 16.4984 14.9242ZM14.8984 15.3242C14.8984 14.4406 15.6148 13.7242 16.4984 13.7242C17.3821 13.7242 18.0984 14.4406 18.0984 15.3242C18.0984 16.2079 17.3821 16.9242 16.4984 16.9242C15.6148 16.9242 14.8984 16.2079 14.8984 15.3242ZM6.99844 18.9242V20.3242C6.99844 20.7937 6.61788 21.1742 6.14844 21.1742H4.24844C3.779 21.1742 3.39844 20.7937 3.39844 20.3242V18.3242H4.59844V19.9742H5.79844V18.5742C5.79844 18.1048 6.179 17.7242 6.64844 17.7242H17.348C17.8175 17.7242 18.198 18.1048 18.198 18.5742V19.9742H19.398V18.3242H20.598V20.3242C20.598 20.7937 20.2175 21.1742 19.748 21.1742H17.848C17.3786 21.1742 16.998 20.7937 16.998 20.3242V18.9242H6.99844Z" fill="black"/>
</svg>
