<svg width="25" height="24" viewBox="0 0 25 24" fill="none" xmlns="http://www.w3.org/2000/svg">
<path fill-rule="evenodd" clip-rule="evenodd" d="M5.76659 6.10039L4.90777 13.4004H9.22182C9.55937 13.4004 9.83304 13.674 9.83304 14.0116V17.0475C9.83304 17.5186 10.2149 17.9004 10.6859 17.9004C11.053 17.9004 11.3789 17.6655 11.495 17.3172L13.1588 12.3256C13.2435 12.0717 13.4811 11.9004 13.7488 11.9004H15.0331V6.10039H5.76659ZM4.61117 5.65107C4.66154 5.223 5.02433 4.90039 5.45535 4.90039H16.2331V13.1004H14.1655L12.6334 17.6967C12.354 18.535 11.5695 19.1004 10.6859 19.1004C9.55213 19.1004 8.63304 18.1813 8.63304 17.0475V14.6004H4.51417C4.00537 14.6004 3.61055 14.1564 3.67 13.6511L4.61117 5.65107ZM14.2973 12.7051C14.2973 12.705 14.2972 12.7052 14.2973 12.7051ZM19.2836 6.94978C18.7397 6.40593 18.0021 6.10039 17.233 6.10039V4.90039C18.3204 4.90039 19.3632 5.33235 20.1321 6.10125C20.901 6.87015 21.333 7.913 21.333 9.00039C21.333 10.0878 20.901 11.1306 20.1321 11.8995C19.3632 12.6684 18.3204 13.1004 17.233 13.1004V11.9004C18.0021 11.9004 18.7397 11.5949 19.2836 11.051C19.8275 10.5071 20.133 9.76952 20.133 9.00039C20.133 8.23126 19.8275 7.49364 19.2836 6.94978Z" fill="black"/>
</svg>
