<svg width="25" height="24" viewBox="0 0 25 24" fill="none" xmlns="http://www.w3.org/2000/svg">
<path fill-rule="evenodd" clip-rule="evenodd" d="M14.2955 6.10039C13.9285 6.10039 13.6025 6.33529 13.4865 6.68354L11.8226 11.6752C11.7379 11.9291 11.5003 12.1004 11.2326 12.1004H9.94829V17.9004H19.2148L20.0737 10.6004H15.7596C15.4221 10.6004 15.1484 10.3268 15.1484 9.98917V6.95324C15.1484 6.48222 14.7666 6.10039 14.2955 6.10039ZM12.348 6.30407C12.6275 5.46581 13.4119 4.90039 14.2955 4.90039C15.4293 4.90039 16.3484 5.81948 16.3484 6.95324V9.40039H20.4673C20.9761 9.40039 21.3709 9.84439 21.3114 10.3497L20.3703 18.3497C20.3199 18.7778 19.9571 19.1004 19.5261 19.1004H8.74829V10.9004H10.8159L12.348 6.30407ZM7.74844 12.1004C6.97931 12.1004 6.24168 12.4059 5.69783 12.9498C5.15397 13.4936 4.84844 14.2313 4.84844 15.0004C4.84844 15.7695 5.15397 16.5071 5.69783 17.051C6.24168 17.5949 6.97931 17.9004 7.74844 17.9004V19.1004C6.66105 19.1004 5.6182 18.6684 4.8493 17.8995C4.0804 17.1306 3.64844 16.0878 3.64844 15.0004C3.64844 13.913 4.0804 12.8702 4.8493 12.1013C5.6182 11.3324 6.66105 10.9004 7.74844 10.9004V12.1004Z" fill="black"/>
</svg>
