<svg width="24" height="24" viewBox="0 0 24 24" fill="none" xmlns="http://www.w3.org/2000/svg">
<path fill-rule="evenodd" clip-rule="evenodd" d="M17.3715 3.88366C15.1449 2.79584 12.3807 3.17611 10.529 5.02781C8.79785 6.75898 8.35289 9.28771 9.19096 11.4287L4.92473 15.695L5.77326 16.5435L10.2028 12.1139C10.4605 11.8562 10.5165 11.4759 10.3797 11.1633C9.61501 9.41579 9.94881 7.30507 11.3775 5.87634C12.726 4.52793 14.6819 4.1549 16.3663 4.75981L13.0685 8.05758C12.7366 8.38953 12.7366 8.92772 13.0685 9.25966L14.7401 10.9313C15.0721 11.2633 15.6103 11.2633 15.9422 10.9313L19.24 7.63352C19.845 9.31792 19.4719 11.2739 18.1235 12.6223C16.6947 14.0511 14.5839 14.3849 12.8364 13.6201C12.5238 13.4833 12.1435 13.5392 11.8857 13.797L7.45624 18.2265L8.30476 19.075L12.5709 14.8088C14.712 15.647 17.2408 15.2021 18.972 13.4708C20.8238 11.6191 21.204 8.85494 20.1162 6.62828C19.8507 6.08502 19.1556 6.02086 18.7674 6.40906L15.3412 9.83529L14.1645 8.65862L17.5907 5.23241C17.9789 4.8442 17.9148 4.14907 17.3715 3.88366ZM7.17339 20.2064L6.32486 19.3578L6.30965 19.373C5.84491 19.8378 5.09142 19.8378 4.62668 19.373C4.16194 18.9083 4.16194 18.1548 4.62668 17.6901L4.64189 17.6749L3.79336 16.8263L3.77815 16.8415C2.84478 17.7749 2.84478 19.2882 3.77815 20.2216C4.71152 21.1549 6.22481 21.1549 7.15818 20.2216L7.17339 20.2064Z" fill="black"/>
</svg>
