<svg width="24" height="24" viewBox="0 0 24 24" fill="none" xmlns="http://www.w3.org/2000/svg">
<path fill-rule="evenodd" clip-rule="evenodd" d="M6.49941 3V3.00547C5.83822 3.04736 5.21248 3.32858 4.74123 3.79983C4.22911 4.31195 3.94141 5.00653 3.94141 5.73078H5.14141C5.14141 5.32479 5.30268 4.93543 5.58976 4.64835C5.87684 4.36128 6.2662 4.2 6.67218 4.2H17.3266C17.7326 4.2 18.122 4.36128 18.4091 4.64835C18.6961 4.93543 18.8574 5.32479 18.8574 5.73078H20.0574C20.0574 5.00653 19.7697 4.31195 19.2576 3.79983C18.7455 3.28771 18.0509 3 17.3266 3H6.49941ZM11.3988 10.2554H6.7397V11.4554H17.2597V10.2554H12.5988V5.77654H11.3988V10.2554ZM5.1417 17.3338V7.30654H3.9417V17.6838C3.9417 18.1532 4.32225 18.5338 4.7917 18.5338H19.2071C19.6766 18.5338 20.0571 18.1532 20.0571 17.6838V7.30654H18.8571V17.3338H5.1417ZM8.16051 14.2558C7.90348 14.2558 7.69512 14.4641 7.69512 14.7212C7.69512 14.9782 7.90348 15.1865 8.16051 15.1865C8.41753 15.1865 8.62589 14.9782 8.62589 14.7212C8.62589 14.4641 8.41753 14.2558 8.16051 14.2558ZM6.49512 14.7212C6.49512 13.8014 7.24074 13.0558 8.16051 13.0558C9.08027 13.0558 9.82589 13.8014 9.82589 14.7212C9.82589 15.6409 9.08027 16.3865 8.16051 16.3865C7.24074 16.3865 6.49512 15.6409 6.49512 14.7212ZM15.9418 14.2558C15.6847 14.2558 15.4764 14.4641 15.4764 14.7212C15.4764 14.9782 15.6847 15.1865 15.9418 15.1865C16.1988 15.1865 16.4071 14.9782 16.4071 14.7212C16.4071 14.4641 16.1988 14.2558 15.9418 14.2558ZM14.2764 14.7212C14.2764 13.8014 15.022 13.0558 15.9418 13.0558C16.8615 13.0558 17.6071 13.8014 17.6071 14.7212C17.6071 15.6409 16.8615 16.3865 15.9418 16.3865C15.022 16.3865 14.2764 15.6409 14.2764 14.7212ZM6.45941 19.7572H17.5394V20.9572H6.45941V19.7572Z" fill="black"/>
</svg>
