<svg width="24" height="24" viewBox="0 0 24 24" fill="none" xmlns="http://www.w3.org/2000/svg">
<path fill-rule="evenodd" clip-rule="evenodd" d="M9.45442 3.08371C10.1295 2.40858 11.0452 2.0293 12 2.0293C12.9548 2.0293 13.8705 2.40858 14.5456 3.08371C15.2207 3.75884 15.6 4.67452 15.6 5.6293H14.4C14.4 4.99278 14.1471 4.38233 13.6971 3.93224C13.247 3.48215 12.6365 3.2293 12 3.2293C11.3635 3.2293 10.753 3.48215 10.3029 3.93224C9.85286 4.38233 9.6 4.99278 9.6 5.6293H8.4C8.4 4.67452 8.77928 3.75884 9.45442 3.08371ZM21 7.22931V8.42931H3V7.22931H21ZM17.3998 20.7993L17.3963 10.0295L18.5963 10.0291L18.5999 21.149C18.6001 21.6186 18.2195 21.9993 17.7499 21.9993H6.25C5.78056 21.9993 5.4 21.6187 5.4 21.1493L5.40018 10.0293L6.60018 10.0293L6.60001 20.7993H17.3998ZM9.4002 17.4993L9.4 11.4993L10.6 11.4993L10.6002 17.4993L9.4002 17.4993ZM13.3998 17.4993L13.4 11.4993L14.6 11.4993L14.5998 17.4993L13.3998 17.4993Z" fill="black"/>
</svg>
