<svg width="24" height="24" viewBox="0 0 24 24" fill="none" xmlns="http://www.w3.org/2000/svg">
<path fill-rule="evenodd" clip-rule="evenodd" d="M2.14844 5.55117C2.14844 5.08173 2.529 4.70117 2.99844 4.70117H14.2984C14.7679 4.70117 15.1484 5.08173 15.1484 5.55117V15.0512C15.1484 15.5206 14.7679 15.9012 14.2984 15.9012H2.99844C2.529 15.9012 2.14844 15.5206 2.14844 15.0512V5.55117ZM3.34844 5.90117V14.7012H13.9484V5.90117H3.34844ZM17.3992 8.90117H15.9486V7.70117H19.5756C19.9299 7.70117 20.247 7.92096 20.3715 8.25272L21.8488 12.1924V15.0512C21.8488 15.5206 21.4683 15.9012 20.9988 15.9012H15.9486V14.7012H20.6488V12.9012H18.2492C17.7798 12.9012 17.3992 12.5206 17.3992 12.0512V8.90117ZM18.5992 8.90117V11.7012H20.383L19.333 8.90117H18.5992ZM4.84844 16.7006C4.84844 17.4738 5.47524 18.1006 6.24844 18.1006C7.02163 18.1006 7.64843 17.4738 7.64843 16.7006H8.84843C8.84843 18.1365 7.68438 19.3006 6.24844 19.3006C4.8125 19.3006 3.64844 18.1365 3.64844 16.7006H4.84844ZM14.8484 16.7006C14.8484 17.4738 15.4752 18.1006 16.2484 18.1006C17.0216 18.1006 17.6484 17.4738 17.6484 16.7006H18.8484C18.8484 18.1365 17.6844 19.3006 16.2484 19.3006C14.8125 19.3006 13.6484 18.1365 13.6484 16.7006H14.8484Z" fill="black"/>
</svg>
