<svg width="24" height="24" viewBox="0 0 24 24" fill="none" xmlns="http://www.w3.org/2000/svg">
<path fill-rule="evenodd" clip-rule="evenodd" d="M5.21076 5.41138C7.0111 3.61104 9.4529 2.59961 11.999 2.59961C14.5451 2.59961 16.9869 3.61103 18.7872 5.41138C20.5246 7.14879 21.5273 9.48356 21.5953 11.933C21.6088 12.4196 21.214 12.7996 20.749 12.7996H12.599L12.599 16.1996H11.399L11.399 12.7996H3.24898C2.78396 12.7996 2.38917 12.4196 2.40268 11.933C2.47068 9.48356 3.47335 7.14879 5.21076 5.41138ZM11.999 3.79961C9.77116 3.79961 7.63459 4.68461 6.05928 6.25991C4.62601 7.69319 3.76417 9.5911 3.62042 11.5996L20.3775 11.5996C20.2338 9.5911 19.372 7.69319 17.9387 6.25991C16.3634 4.68461 14.2268 3.79961 11.999 3.79961ZM12.4534 20.3452C11.7783 19.67 11.399 18.7544 11.399 17.7996H12.599C12.599 18.4361 12.8518 19.0466 13.3019 19.4966C13.752 19.9467 14.3625 20.1996 14.999 20.1996C15.6355 20.1996 16.2459 19.9467 16.696 19.4966C17.1461 19.0466 17.399 18.4361 17.399 17.7996H18.599C18.599 18.7544 18.2197 19.67 17.5446 20.3452C16.8694 21.0203 15.9538 21.3996 14.999 21.3996C14.0442 21.3996 13.1285 21.0203 12.4534 20.3452Z" fill="black"/>
</svg>
