<svg width="24" height="24" viewBox="0 0 24 24" fill="none" xmlns="http://www.w3.org/2000/svg">
<path fill-rule="evenodd" clip-rule="evenodd" d="M5.7332 9.61047L5.7332 3.73047H6.9332L6.9332 9.61047H5.7332ZM17.0709 9.61047V3.73047H18.2709V9.61047H17.0709ZM6.9332 11.2135C6.9332 12.5579 7.46726 13.8473 8.41789 14.7979C9.36853 15.7485 10.6579 16.2826 12.0023 16.2826C13.3467 16.2826 14.636 15.7485 15.5866 14.7979C16.5373 13.8473 17.0713 12.5579 17.0713 11.2135H18.2713C18.2713 12.8762 17.6108 14.4707 16.4351 15.6464C15.2595 16.8221 13.6649 17.4826 12.0023 17.4826C10.3396 17.4826 8.74504 16.8221 7.56936 15.6464C6.39369 14.4707 5.7332 12.8762 5.7332 11.2135H6.9332ZM19.176 20.2805H4.82812V19.0805H19.176V20.2805Z" fill="black"/>
</svg>
