<svg width="24" height="24" viewBox="0 0 24 24" fill="none" xmlns="http://www.w3.org/2000/svg">
<path fill-rule="evenodd" clip-rule="evenodd" d="M6.99949 7.90473C6.99949 5.14088 9.24014 2.90039 12.0041 2.90039C14.768 2.90039 17.0086 5.14088 17.0086 7.90473H15.8086C15.8086 5.80368 14.1053 4.10039 12.0041 4.10039C9.90282 4.10039 8.19949 5.80368 8.19949 7.90473H6.99949ZM2.39844 13.5671C2.39844 11.0639 4.4278 9.03471 6.93108 9.03471V10.2347C5.09048 10.2347 3.59844 11.7267 3.59844 13.5671C3.59844 15.1345 4.68113 16.4505 6.14024 16.8053L5.85668 17.9714C3.87227 17.4888 2.39844 15.7008 2.39844 13.5671ZM20.3311 13.5679C20.3311 11.7275 18.8391 10.2355 16.9985 10.2355V9.0355C19.5017 9.0355 21.5311 11.0647 21.5311 13.5679C21.5311 15.6737 20.0955 17.4427 18.1506 17.9525L17.8463 16.7917C19.2766 16.4168 20.3311 15.1147 20.3311 13.5679ZM11.5301 12.1594C11.8104 11.8791 12.2649 11.8791 12.5452 12.1594L16.2184 15.8325L15.3699 16.681L12.6357 13.9469L12.6362 20.5005L11.4362 20.5006L11.4357 13.9509L8.7059 16.6805L7.85738 15.832L11.5301 12.1594Z" fill="black"/>
</svg>
