<svg width="24" height="24" viewBox="0 0 24 24" fill="none" xmlns="http://www.w3.org/2000/svg">
<path fill-rule="evenodd" clip-rule="evenodd" d="M14.1847 10.7487C14.1253 11.1633 14.0241 11.5644 13.8855 11.9475C14.4729 12.2306 15.1316 12.3892 15.8273 12.3892C18.3008 12.3892 20.3061 10.384 20.3061 7.91043C20.3061 5.43686 18.3008 3.43164 15.8273 3.43164C14.3217 3.43164 12.9897 4.1745 12.1777 5.31368C12.4875 5.58568 12.7694 5.88872 13.0185 6.21792C13.5926 5.26725 14.6357 4.63164 15.8273 4.63164C17.6381 4.63164 19.1061 6.0996 19.1061 7.91043C19.1061 9.72125 17.6381 11.1892 15.8273 11.1892C15.2287 11.1892 14.6677 11.0288 14.1847 10.7487ZM15.8269 15.4599C14.7613 15.4599 13.7803 15.8246 13.0025 16.4364C12.6919 16.1664 12.3583 15.922 12.0052 15.7066C13.0228 14.8066 14.3608 14.2599 15.8269 14.2599C19.0146 14.2599 21.5987 16.844 21.5987 20.0317H20.3987C20.3987 17.5068 18.3518 15.4599 15.8269 15.4599Z" fill="black"/>
<path fill-rule="evenodd" clip-rule="evenodd" d="M8.17015 6.6016C6.35933 6.6016 4.89137 8.06957 4.89137 9.88039C4.89137 11.6912 6.35933 13.1592 8.17015 13.1592C9.98098 13.1592 11.4489 11.6912 11.4489 9.88039C11.4489 8.06957 9.98098 6.6016 8.17015 6.6016ZM3.69137 9.88039C3.69137 7.40682 5.69659 5.4016 8.17015 5.4016C10.6437 5.4016 12.6489 7.40682 12.6489 9.88039C12.6489 12.354 10.6437 14.3592 8.17015 14.3592C5.69659 14.3592 3.69137 12.354 3.69137 9.88039ZM8.17015 17.4287C5.64526 17.4287 3.59844 19.4755 3.59844 22.0004H2.39844C2.39844 18.8128 4.98252 16.2287 8.17015 16.2287C11.3578 16.2287 13.9419 18.8128 13.9419 22.0004H12.7419C12.7419 19.4755 10.695 17.4287 8.17015 17.4287Z" fill="black"/>
</svg>
