<svg width="24" height="24" viewBox="0 0 24 24" fill="none" xmlns="http://www.w3.org/2000/svg">
<path fill-rule="evenodd" clip-rule="evenodd" d="M9.98526 5.22148C8.30731 5.22148 6.94707 6.58173 6.94707 8.25968C6.94707 9.93762 8.30731 11.2979 9.98526 11.2979C11.6632 11.2979 13.0235 9.93762 13.0235 8.25968C13.0235 6.58173 11.6632 5.22148 9.98526 5.22148ZM5.74707 8.25968C5.74707 5.91899 7.64457 4.02148 9.98526 4.02148C12.326 4.02148 14.2235 5.91899 14.2235 8.25968C14.2235 10.6004 12.326 12.4979 9.98526 12.4979C7.64457 12.4979 5.74707 10.6004 5.74707 8.25968ZM19.9286 11.5132L16.6466 14.7952C16.3147 15.1271 15.7765 15.1271 15.4445 14.7952L13.5742 12.9248L14.4227 12.0763L16.0456 13.6992L19.0801 10.6647L19.9286 11.5132ZM9.98506 15.2233C7.34666 15.2233 5.20781 17.3622 5.20781 20.0006H4.00781C4.00781 16.6994 6.68392 14.0233 9.98506 14.0233C13.2862 14.0233 15.9623 16.6994 15.9623 20.0006H14.7623C14.7623 17.3622 12.6235 15.2233 9.98506 15.2233Z" fill="black"/>
</svg>
