<svg width="24" height="24" viewBox="0 0 24 24" fill="none" xmlns="http://www.w3.org/2000/svg">
<path fill-rule="evenodd" clip-rule="evenodd" d="M12.0005 5.22148C10.3225 5.22148 8.96228 6.58173 8.96228 8.25968C8.96228 9.93762 10.3225 11.2979 12.0005 11.2979C13.6784 11.2979 15.0387 9.93762 15.0387 8.25968C15.0387 6.58173 13.6784 5.22148 12.0005 5.22148ZM7.76228 8.25968C7.76228 5.91899 9.65978 4.02148 12.0005 4.02148C14.3412 4.02148 16.2387 5.91899 16.2387 8.25968C16.2387 10.6004 14.3412 12.4979 12.0005 12.4979C9.65978 12.4979 7.76228 10.6004 7.76228 8.25968ZM12.0007 15.2233C9.36228 15.2233 7.22344 17.3622 7.22344 20.0006H6.02344C6.02344 16.6994 8.69954 14.0233 12.0007 14.0233C15.3018 14.0233 17.9779 16.6994 17.9779 20.0006H16.7779C16.7779 17.3622 14.6391 15.2233 12.0007 15.2233Z" fill="black"/>
</svg>
