<svg width="24" height="24" viewBox="0 0 24 24" fill="none" xmlns="http://www.w3.org/2000/svg">
<path fill-rule="evenodd" clip-rule="evenodd" d="M12.7985 3.26101V2.05665C17.9334 2.46416 21.9734 6.7603 21.9734 12C21.9734 17.2398 17.9334 21.5359 12.7985 21.9434V20.739C17.2698 20.3349 20.7734 16.5766 20.7734 12C20.7734 7.42343 17.2698 3.66514 12.7985 3.26101ZM11.1985 20.7391C6.72709 20.335 3.22344 16.5767 3.22344 12C3.22344 7.4234 6.72709 3.66508 11.1985 3.261V2.05664C6.06348 2.46411 2.02344 6.76027 2.02344 12C2.02344 17.2398 6.06348 21.536 11.1985 21.9434V20.7391ZM11.9984 6.72503C10.673 6.72503 9.59844 7.79955 9.59844 9.12503C9.59844 10.4505 10.673 11.525 11.9984 11.525C13.3239 11.525 14.3984 10.4505 14.3984 9.12503C14.3984 7.79955 13.3239 6.72503 11.9984 6.72503ZM8.39844 9.12503C8.39844 7.13681 10.0102 5.52503 11.9984 5.52503C13.9867 5.52503 15.5984 7.13681 15.5984 9.12503C15.5984 11.1133 13.9867 12.725 11.9984 12.725C10.0102 12.725 8.39844 11.1133 8.39844 9.12503ZM11.9984 15.1C10.1207 15.1 8.59844 16.6223 8.59844 18.5H7.39844C7.39844 15.9595 9.45793 13.9 11.9984 13.9C14.5389 13.9 16.5984 15.9595 16.5984 18.5H15.3984C15.3984 16.6223 13.8762 15.1 11.9984 15.1Z" fill="black"/>
</svg>
