<svg width="24" height="24" viewBox="0 0 24 24" fill="none" xmlns="http://www.w3.org/2000/svg">
<path fill-rule="evenodd" clip-rule="evenodd" d="M2.54297 6.25039C2.54297 5.78095 2.92353 5.40039 3.39297 5.40039H14.893C15.3624 5.40039 15.743 5.78095 15.743 6.25039V17.7504C15.743 18.2198 15.3624 18.6004 14.893 18.6004H3.39297C2.92353 18.6004 2.54297 18.2198 2.54297 17.7504V6.25039ZM3.74297 6.60039V17.4004H14.543V6.60039H3.74297ZM20.0804 6.85524C20.6371 6.41105 21.4605 6.80747 21.4605 7.51967V16.4811C21.4605 17.1933 20.6371 17.5897 20.0804 17.1455L16.9671 14.6616L17.7156 13.7236L20.2605 15.7541V8.24667L17.7156 10.2772L16.9671 9.33915L20.0804 6.85524Z" fill="black"/>
</svg>
