<svg width="24" height="24" viewBox="0 0 24 24" fill="none" xmlns="http://www.w3.org/2000/svg">
<path fill-rule="evenodd" clip-rule="evenodd" d="M2.75315 5.69017C2.62228 5.83968 2.54297 6.03546 2.54297 6.24977V17.7498C2.54297 18.2192 2.92353 18.5998 3.39297 18.5998H14.893C15.1073 18.5998 15.3031 18.5205 15.4526 18.3896L14.4628 17.3998H3.74297V6.67998L2.75315 5.69017ZM14.543 15.7829V15.7816L5.36111 6.59977H5.35982L4.15982 5.39977H4.16111L2.70101 3.93968L3.5489 3.0918L20.5179 20.0608L19.67 20.9087L15.743 16.9816V16.9829L14.543 15.7829ZM15.743 13.5888V6.24977C15.743 5.78033 15.3624 5.39977 14.893 5.39977H7.55393L8.75393 6.59977H14.543V12.3888L15.743 13.5888ZM21.4605 7.51906C21.4605 6.80686 20.6371 6.41043 20.0804 6.85462L16.9671 9.33854L17.7156 10.2766L20.2605 8.24606V15.7535L17.7156 13.723L16.9671 14.661L20.0804 17.1449C20.6371 17.5891 21.4605 17.1927 21.4605 16.4805V7.51906Z" fill="black"/>
</svg>
