<svg width="24" height="24" viewBox="0 0 24 24" fill="none" xmlns="http://www.w3.org/2000/svg">
<path fill-rule="evenodd" clip-rule="evenodd" d="M16.7406 8.10547C14.9286 8.47562 13.5654 10.0786 13.5654 12C13.5654 13.0796 13.9958 14.0586 14.6944 14.775H9.21949C9.91805 14.0586 10.3484 13.0796 10.3484 12C10.3484 10.0787 8.9853 8.47571 7.17339 8.1055V9.34201C8.31601 9.68542 9.14844 10.7455 9.14844 12C9.14844 13.2545 8.31601 14.3145 7.17339 14.6579V15.975H16.7406V14.658C15.5979 14.3146 14.7654 13.2545 14.7654 12C14.7654 10.7454 15.5979 9.68533 16.7406 9.34197V8.10547ZM18.3406 14.6579C19.4831 14.3144 20.3154 13.2544 20.3154 12C20.3154 10.7456 19.4831 9.68557 18.3406 9.34209V8.10555C20.1524 8.47585 21.5154 10.0787 21.5154 12C21.5154 13.9212 20.1524 15.5241 18.3406 15.8944V14.6579ZM2.39844 12C2.39844 10.0787 3.76152 8.47577 5.57339 8.10552V9.34204C4.43082 9.68548 3.59844 10.7455 3.59844 12C3.59844 13.2544 4.43082 14.3145 5.57339 14.6579V15.8944C3.76152 15.5242 2.39844 13.9213 2.39844 12Z" fill="black"/>
</svg>
