<svg width="24" height="24" viewBox="0 0 24 24" fill="none" xmlns="http://www.w3.org/2000/svg">
<path fill-rule="evenodd" clip-rule="evenodd" d="M16.5978 5.28052L11.6513 9.40251C11.4985 9.5298 11.306 9.59951 11.1071 9.59951H10.1977V8.39951H10.9804L16.4037 3.88027C16.9573 3.41892 17.7978 3.81261 17.7978 4.53326V19.4658C17.7978 20.1864 16.9573 20.5801 16.4037 20.1188L10.9804 15.5995H10.1977V14.3995H11.1071C11.306 14.3995 11.4985 14.4692 11.6513 14.5965L16.5978 18.7185V5.28052ZM10.8831 15.5184L10.8834 15.5187ZM8.99844 9.59951C8.36192 9.59951 7.75147 9.85237 7.30138 10.3025C6.85129 10.7525 6.59844 11.363 6.59844 11.9995C6.59844 12.636 6.85129 13.2465 7.30138 13.6966C7.75147 14.1467 8.36192 14.3995 8.99844 14.3995V15.5995C8.04366 15.5995 7.12798 15.2202 6.45285 14.5451C5.77772 13.87 5.39844 12.9543 5.39844 11.9995C5.39844 11.0447 5.77772 10.1291 6.45285 9.45393C7.12798 8.7788 8.04366 8.39951 8.99844 8.39951V9.59951Z" fill="black"/>
</svg>
