<svg width="24" height="24" viewBox="0 0 24 24" fill="none" xmlns="http://www.w3.org/2000/svg">
<path fill-rule="evenodd" clip-rule="evenodd" d="M14.3992 5.28052L9.45266 9.40251L9.45266 9.40251C9.2999 9.5298 9.10736 9.59951 8.90851 9.59951H8.3998V8.39951H8.7818L14.205 3.88027C14.7587 3.41892 15.5992 3.81261 15.5992 4.53326V19.4658C15.5992 20.1864 14.7587 20.5801 14.205 20.1188L8.7818 15.5995H8.3998V14.3995H8.90851C9.10736 14.3995 9.29991 14.4692 9.45266 14.5965L14.3992 18.7185V5.28052ZM6.79922 9.59951C6.1627 9.59951 5.55225 9.85237 5.10216 10.3025C4.65208 10.7525 4.39922 11.363 4.39922 11.9995C4.39922 12.636 4.65208 13.2465 5.10216 13.6966C5.55225 14.1467 6.1627 14.3995 6.79922 14.3995V15.5995C5.84444 15.5995 4.92877 15.2202 4.25363 14.5451C3.5785 13.87 3.19922 12.9543 3.19922 11.9995C3.19922 11.0447 3.5785 10.1291 4.25363 9.45393C4.92877 8.7788 5.84444 8.39951 6.79922 8.39951V9.59951ZM17.1996 8.39951C18.1544 8.39951 19.0701 8.7788 19.7452 9.45393C20.4203 10.1291 20.7996 11.0447 20.7996 11.9995C20.7996 12.9543 20.4203 13.87 19.7452 14.5451C19.0701 15.2202 18.1544 15.5995 17.1996 15.5995V14.3995C17.8361 14.3995 18.4466 14.1467 18.8967 13.6966C19.3468 13.2465 19.5996 12.636 19.5996 11.9995C19.5996 11.363 19.3468 10.7525 18.8967 10.3025C18.4466 9.85237 17.8361 9.59951 17.1996 9.59951V8.39951Z" fill="black"/>
</svg>
