<svg width="24" height="24" viewBox="0 0 24 24" fill="none" xmlns="http://www.w3.org/2000/svg">
<path fill-rule="evenodd" clip-rule="evenodd" d="M13.2228 5.28052L8.27629 9.40251L8.27629 9.40251C8.12354 9.5298 7.93099 9.59951 7.73215 9.59951H7.21844V8.39951H7.60543L13.0287 3.88027C13.5823 3.41892 14.4228 3.81261 14.4228 4.53326V19.4658C14.4228 20.1864 13.5823 20.5801 13.0287 20.1188L7.60543 15.5995H7.21844V14.3995H7.73215C7.93099 14.3995 8.12354 14.4692 8.27629 14.5965L13.2228 18.7185V5.28052ZM16.0219 6.02842C17.6055 6.02842 19.1243 6.65751 20.2441 7.77731C21.3639 8.89711 21.993 10.4159 21.993 11.9995C21.993 13.5831 21.3639 15.1019 20.2441 16.2217C19.1243 17.3415 17.6055 17.9706 16.0219 17.9706V16.7706C17.2872 16.7706 18.5008 16.2679 19.3955 15.3732C20.2903 14.4784 20.793 13.2649 20.793 11.9995C20.793 10.7341 20.2903 9.52059 19.3955 8.62584C18.5008 7.73108 17.2872 7.22842 16.0219 7.22842V6.02842ZM5.62344 9.59951C4.98692 9.59951 4.37647 9.85237 3.92638 10.3025C3.47629 10.7525 3.22344 11.363 3.22344 11.9995C3.22344 12.636 3.47629 13.2465 3.92638 13.6966C4.37647 14.1467 4.98692 14.3995 5.62344 14.3995V15.5995C4.66866 15.5995 3.75298 15.2202 3.07785 14.5451C2.40272 13.87 2.02344 12.9543 2.02344 11.9995C2.02344 11.0447 2.40272 10.1291 3.07785 9.45393C3.75298 8.7788 4.66866 8.39951 5.62344 8.39951V9.59951ZM16.0214 8.59721C16.9238 8.59721 17.7891 8.95567 18.4272 9.59373C19.0653 10.2318 19.4237 11.0972 19.4237 11.9995C19.4237 12.9019 19.0653 13.7673 18.4272 14.4053C17.7891 15.0434 16.9238 15.4018 16.0214 15.4018V14.2018C16.6055 14.2018 17.1657 13.9698 17.5787 13.5568C17.9917 13.1438 18.2237 12.5836 18.2237 11.9995C18.2237 11.4154 17.9917 10.8553 17.5787 10.4423C17.1657 10.0292 16.6055 9.79721 16.0214 9.79721V8.59721Z" fill="black"/>
</svg>
