<svg width="24" height="24" viewBox="0 0 24 24" fill="none" xmlns="http://www.w3.org/2000/svg">
<path fill-rule="evenodd" clip-rule="evenodd" d="M13.2228 5.28052L8.27629 9.40251L8.27629 9.40251C8.12354 9.5298 7.93099 9.59951 7.73215 9.59951H7.21844V8.39951H7.60543L13.0287 3.88027C13.5823 3.41892 14.4228 3.81261 14.4228 4.53326V19.4658C14.4228 20.1864 13.5823 20.5801 13.0287 20.1188L7.60543 15.5995H7.21844V14.3995H7.73215C7.93099 14.3995 8.12354 14.4692 8.27629 14.5965L13.2228 18.7185V5.28052ZM5.62344 9.59951C4.98692 9.59951 4.37647 9.85237 3.92638 10.3025C3.47629 10.7525 3.22344 11.363 3.22344 11.9995C3.22344 12.636 3.47629 13.2465 3.92638 13.6966C4.37647 14.1467 4.98692 14.3995 5.62344 14.3995V15.5995C4.66866 15.5995 3.75298 15.2202 3.07785 14.5451C2.40272 13.87 2.02344 12.9543 2.02344 11.9995C2.02344 11.0447 2.40272 10.1291 3.07785 9.45393C3.75298 8.7788 4.66866 8.39951 5.62344 8.39951V9.59951ZM18.1119 11.9995L15.9697 9.85737L16.8182 9.00884L18.9604 11.151L21.1025 9.00884L21.9511 9.85737L19.8089 11.9995L21.9511 14.1417L21.1025 14.9902L18.9604 12.848L16.8182 14.9902L15.9697 14.1417L18.1119 11.9995Z" fill="black"/>
</svg>
