<svg width="24" height="24" viewBox="0 0 24 24" fill="none" xmlns="http://www.w3.org/2000/svg">
<path fill-rule="evenodd" clip-rule="evenodd" d="M11.4984 3.60039C10.7252 3.60039 10.0984 4.22719 10.0984 5.00039C10.0984 5.77359 10.7252 6.40039 11.4984 6.40039C12.2716 6.40039 12.8984 5.77359 12.8984 5.00039C12.8984 4.22719 12.2716 3.60039 11.4984 3.60039ZM8.89844 5.00039C8.89844 3.56445 10.0625 2.40039 11.4984 2.40039C12.9344 2.40039 14.0984 3.56445 14.0984 5.00039C14.0984 6.43633 12.9344 7.60039 11.4984 7.60039C10.0625 7.60039 8.89844 6.43633 8.89844 5.00039ZM10.8984 9.40182C9.06692 9.45472 7.59844 10.9561 7.59844 12.8004H6.39844C6.39844 10.2933 8.4041 8.25464 10.8984 8.20144V8.20038H12.0984V8.30038C12.0984 10.4543 13.8445 12.2004 15.9984 12.2004V13.4004C14.4339 13.4004 13.034 12.6959 12.0984 11.5869V15.2321C14.9091 15.5315 17.0984 17.9103 17.0984 20.8004H15.8984C15.8984 18.5603 14.2245 16.7112 12.0592 16.4358C11.7465 18.9526 9.59992 20.9004 6.99844 20.9004V19.7004C9.15235 19.7004 10.8984 17.9543 10.8984 15.8004V9.40182Z" fill="black"/>
</svg>
