<svg width="24" height="24" viewBox="0 0 24 24" fill="none" xmlns="http://www.w3.org/2000/svg">
<path fill-rule="evenodd" clip-rule="evenodd" d="M9.63746 3.35039L9.27797 6.22643C9.8734 5.94539 10.5193 5.75375 11.1984 5.66881V6.88053C8.71674 7.26519 6.81719 9.41096 6.81719 12.0004C6.81719 14.5898 8.71674 16.7356 11.1984 17.1202V18.332C10.5193 18.247 9.8734 18.0554 9.27797 17.7744L9.63746 20.6504H14.3594L14.7189 17.7744C14.1234 18.0554 13.4775 18.2471 12.7984 18.332V17.1203C15.2801 16.7357 17.1797 14.5899 17.1797 12.0004C17.1797 9.41092 15.2801 7.26513 12.7984 6.88052V5.6688C13.4775 5.75373 14.1234 5.94538 14.7189 6.22642L14.3594 3.35039H9.63746ZM16.0318 7.05524L15.5201 2.96151C15.4622 2.49813 15.0683 2.15039 14.6013 2.15039H9.39556C8.92857 2.15039 8.53465 2.49813 8.47673 2.96152L7.96504 7.05524C6.53207 8.22541 5.61719 10.0061 5.61719 12.0004C5.61719 13.9947 6.53207 15.7754 7.96504 16.9455L8.47673 21.0393C8.53465 21.5027 8.92857 21.8504 9.39556 21.8504H14.6013C15.0683 21.8504 15.4622 21.5027 15.5201 21.0393L16.0318 16.9455C17.4648 15.7754 18.3797 13.9947 18.3797 12.0004C18.3797 10.0061 17.4648 8.2254 16.0318 7.05524ZM11.3984 11.8807V8.53164H12.5984V11.7519L14.7352 13.8886L13.8867 14.7372L11.6588 12.5093C11.4921 12.3426 11.3984 12.1164 11.3984 11.8807Z" fill="black"/>
</svg>
