<svg width="24" height="24" viewBox="0 0 24 24" fill="none" xmlns="http://www.w3.org/2000/svg">
<path fill-rule="evenodd" clip-rule="evenodd" d="M3.57422 10.0754C6.08559 7.56401 8.85 6.58594 11.9985 6.58594C15.1582 6.58594 18.1885 7.84113 20.4228 10.0754L19.5742 10.9239C17.565 8.9147 14.84 7.78594 11.9985 7.78594C9.14581 7.78594 6.69369 8.65297 4.42275 10.9239L3.57422 10.0754ZM6.57422 13.0754C8.18891 11.4607 9.97522 10.8286 11.9985 10.8286C14.033 10.8286 15.9842 11.6368 17.4228 13.0754L16.5742 13.9239C15.3607 12.7104 13.7147 12.0286 11.9985 12.0286C10.271 12.0286 8.797 12.5497 7.42275 13.9239L6.57422 13.0754ZM10.8229 14.8267C11.4722 14.1774 12.5248 14.1774 13.174 14.8267C13.8233 15.4759 13.8233 16.5286 13.174 17.1778C12.5248 17.8271 11.4722 17.8271 10.8229 17.1778C10.1737 16.5286 10.1737 15.4759 10.8229 14.8267ZM12.3255 15.6752C12.1449 15.4946 11.8521 15.4946 11.6714 15.6752C11.4908 15.8558 11.4908 16.1487 11.6714 16.3293C11.8521 16.5099 12.1449 16.5099 12.3255 16.3293C12.5061 16.1487 12.5061 15.8558 12.3255 15.6752Z" fill="black"/>
</svg>
