<svg width="24" height="24" viewBox="0 0 24 24" fill="none" xmlns="http://www.w3.org/2000/svg">
<path fill-rule="evenodd" clip-rule="evenodd" d="M5.41823 8.53244C4.78794 8.96481 4.17387 9.47704 3.57422 10.0767L4.42275 10.9252C5.02857 10.3194 5.6473 9.81348 6.28308 9.39729L5.41823 8.53244ZM10.1733 11.0248C10.1735 11.0248 10.1736 11.0248 10.1737 11.0247L7.75308 8.60409C7.75297 8.60413 7.75287 8.60418 7.75276 8.60423L6.84779 7.69926C6.8479 7.69921 6.848 7.69916 6.8481 7.69911L4.50315 5.35416L5.35145 4.50586L19.4933 18.6478L18.645 19.4961L11.2172 12.0682C11.2171 12.0683 11.217 12.0683 11.2168 12.0683L10.1733 11.0248ZM8.51608 11.6303C7.84096 11.9805 7.19491 12.456 6.57422 13.0767L7.42275 13.9252C8.06049 13.2875 8.71973 12.8335 9.4158 12.53L8.51608 11.6303ZM11.3557 14.4699C11.162 14.551 10.9806 14.6703 10.8229 14.828C10.1737 15.4772 10.1737 16.5299 10.8229 17.1791C11.4722 17.8284 12.5248 17.8284 13.174 17.1791C13.3317 17.0215 13.4511 16.84 13.5322 16.6464L11.3557 14.4699ZM16.8039 13.6956L17.4228 13.0767C16.5383 12.1922 15.46 11.546 14.2878 11.1794L16.8039 13.6956ZM10.938 7.82968C11.2854 7.80103 11.6388 7.78725 11.9985 7.78725C14.84 7.78725 17.565 8.91601 19.5742 10.9252L20.4228 10.0767C18.1885 7.84244 15.1582 6.58725 11.9985 6.58725C11.2659 6.58725 10.5541 6.6402 9.86143 6.7531L10.938 7.82968ZM11.6714 15.6765C11.8521 15.4959 12.1449 15.4959 12.3255 15.6765C12.5061 15.8571 12.5061 16.15 12.3255 16.3306C12.1449 16.5112 11.8521 16.5112 11.6714 16.3306C11.4908 16.15 11.4908 15.8571 11.6714 15.6765Z" fill="black"/>
</svg>
