<svg width="24" height="24" viewBox="0 0 24 24" fill="none" xmlns="http://www.w3.org/2000/svg">
<path fill-rule="evenodd" clip-rule="evenodd" d="M2.00391 9.99983C2.00391 5.8438 5.17305 2.42797 9.22656 2.03711V3.24377C5.8371 3.6295 3.20391 6.50715 3.20391 9.99983C3.20391 13.4925 5.8371 16.3702 9.22656 16.7559V17.9625C5.17305 17.5717 2.00391 14.1559 2.00391 9.99983ZM10.8266 17.958C14.8584 17.5462 18.0039 14.1404 18.0039 9.99983C18.0039 5.8593 14.8584 2.45346 10.8266 2.04161V3.24908C14.1942 3.65518 16.8039 6.52273 16.8039 9.99983C16.8039 13.4769 14.1942 16.3445 10.8266 16.7506V17.958ZM13.0004 10.5999H7.00039V9.39985H13.0004V10.5999ZM21.1429 21.9909L16.3613 17.2093L17.2098 16.3608L21.9914 21.1423L21.1429 21.9909Z" fill="black"/>
</svg>
