<svg width="24" height="24" viewBox="0 0 24 24" fill="none" xmlns="http://www.w3.org/2000/svg">
<path d="M3.87344 4.68164C3.404 4.68164 3.02344 5.0622 3.02344 5.53164V15.7504C3.02344 16.2198 3.40399 16.6004 3.87344 16.6004H7.86313L10.4788 12.6769C11.2018 11.5924 12.7954 11.5924 13.5184 12.6769L16.134 16.6004H20.1234C20.5929 16.6004 20.9734 16.2198 20.9734 15.7504V5.53164C20.9734 5.0622 20.5929 4.68164 20.1234 4.68164H3.87344Z" fill="black"/>
<path d="M12.1658 12.8804C12.0372 12.8542 11.9034 12.8585 11.7766 12.8935C11.595 12.9435 11.4278 13.0562 11.3108 13.2316L8.1092 18.0341C8.01263 18.179 7.96891 18.3368 7.96899 18.4907C7.96913 18.9204 8.31081 19.3193 8.79695 19.3193H15.2003C15.6864 19.3193 16.0281 18.9204 16.0282 18.4907C16.0283 18.3368 15.9846 18.179 15.888 18.0341L12.6864 13.2316C12.5578 13.0387 12.3683 12.9216 12.1658 12.8804Z" fill="black"/>
</svg>
