<svg width="24" height="24" viewBox="0 0 24 24" fill="none" xmlns="http://www.w3.org/2000/svg">
<path fill-rule="evenodd" clip-rule="evenodd" d="M2.7594 18.4935C2.28559 19.2919 2.86097 20.3024 3.78933 20.3024L20.2129 20.3024C21.1289 20.3024 21.7058 19.316 21.2568 18.5177L13.2654 4.30974C12.8136 3.50654 11.6619 3.49314 11.1916 4.28563L2.7594 18.4935ZM11.6348 14.7002V8.30249H12.8348V14.7002H11.6348ZM13.0348 17.1001C13.0348 16.6583 12.6766 16.3001 12.2348 16.3001C11.793 16.3001 11.4348 16.6583 11.4348 17.1001C11.4348 17.542 11.793 17.9001 12.2348 17.9001C12.6766 17.9001 13.0348 17.542 13.0348 17.1001Z" fill="black"/>
</svg>
