<svg width="24" height="24" viewBox="0 0 24 24" fill="none" xmlns="http://www.w3.org/2000/svg">
<path fill-rule="evenodd" clip-rule="evenodd" d="M9.02344 5.07266C9.02344 3.42961 10.3554 2.09766 11.9984 2.09766C13.6415 2.09766 14.9734 3.42961 14.9734 5.07266C14.9734 6.51017 13.9539 7.70955 12.5984 7.98713V20.7537C16.9666 20.4588 20.4583 16.9671 20.7532 12.5989H18.9984V11.3989H21.9734V11.9989C21.9734 17.508 17.5075 21.9739 11.9984 21.9739C6.4894 21.9739 2.02344 17.508 2.02344 11.9989V11.3989H4.99844V12.5989H3.24363C3.5386 16.9671 7.03025 20.4588 11.3984 20.7537V7.98713C10.043 7.70955 9.02344 6.51017 9.02344 5.07266Z" fill="black"/>
</svg>
