<svg width="24" height="24" viewBox="0 0 24 24" fill="none" xmlns="http://www.w3.org/2000/svg">
<path fill-rule="evenodd" clip-rule="evenodd" d="M7.62344 3.44922C5.42811 3.44922 3.64844 5.22889 3.64844 7.42422C3.64844 9.61955 5.42811 11.3992 7.62344 11.3992C9.81877 11.3992 11.5984 9.61955 11.5984 7.42422C11.5984 5.22889 9.81877 3.44922 7.62344 3.44922Z" fill="black"/>
<path fill-rule="evenodd" clip-rule="evenodd" d="M7.62344 12.5994C5.42811 12.5994 3.64844 14.379 3.64844 16.5744C3.64844 18.7697 5.42811 20.5494 7.62344 20.5494C9.81877 20.5494 11.5984 18.7697 11.5984 16.5744C11.5984 14.379 9.81877 12.5994 7.62344 12.5994Z" fill="black"/>
<path fill-rule="evenodd" clip-rule="evenodd" d="M16.3734 3.44922C14.1781 3.44922 12.3984 5.22889 12.3984 7.42422C12.3984 9.61955 14.1781 11.3992 16.3734 11.3992C18.5688 11.3992 20.3484 9.61955 20.3484 7.42422C20.3484 5.22889 18.5688 3.44922 16.3734 3.44922Z" fill="black"/>
<path fill-rule="evenodd" clip-rule="evenodd" d="M16.3734 12.5994C14.1781 12.5994 12.3984 14.379 12.3984 16.5744C12.3984 18.7697 14.1781 20.5494 16.3734 20.5494C18.5688 20.5494 20.3484 18.7697 20.3484 16.5744C20.3484 14.379 18.5688 12.5994 16.3734 12.5994Z" fill="black"/>
</svg>
