<svg width="24" height="24" viewBox="0 0 24 24" fill="none" xmlns="http://www.w3.org/2000/svg">
<path d="M4.49844 3.44922C4.029 3.44922 3.64844 3.82978 3.64844 4.29922V10.5492C3.64844 11.0187 4.02899 11.3992 4.49844 11.3992H10.7484C11.2179 11.3992 11.5984 11.0187 11.5984 10.5492V4.29922C11.5984 3.82978 11.2179 3.44922 10.7484 3.44922H4.49844Z" fill="black"/>
<path d="M4.49844 12.5994C4.029 12.5994 3.64844 12.9799 3.64844 13.4494V19.6994C3.64844 20.1688 4.02899 20.5494 4.49844 20.5494H10.7484C11.2179 20.5494 11.5984 20.1688 11.5984 19.6994V13.4494C11.5984 12.9799 11.2179 12.5994 10.7484 12.5994H4.49844Z" fill="black"/>
<path d="M13.2484 3.44922C12.779 3.44922 12.3984 3.82978 12.3984 4.29922V10.5492C12.3984 11.0187 12.779 11.3992 13.2484 11.3992H19.4984C19.9679 11.3992 20.3484 11.0187 20.3484 10.5492V4.29922C20.3484 3.82978 19.9679 3.44922 19.4984 3.44922H13.2484Z" fill="black"/>
<path d="M13.2484 12.5994C12.779 12.5994 12.3984 12.9799 12.3984 13.4494V19.6994C12.3984 20.1688 12.779 20.5494 13.2484 20.5494H19.4984C19.9679 20.5494 20.3484 20.1688 20.3484 19.6994V13.4494C20.3484 12.9799 19.9679 12.5994 19.4984 12.5994H13.2484Z" fill="black"/>
</svg>
