<svg width="24" height="24" viewBox="0 0 24 24" fill="none" xmlns="http://www.w3.org/2000/svg">
<path d="M5.03021 8.58408L8.12601 5.48828L8.97454 6.33681L6.72614 8.58521H12.6568V9.7852H6.72631L8.97498 12.0339L8.12645 12.8824L5.03021 9.78617C4.69826 9.45422 4.69826 8.91603 5.03021 8.58408Z" fill="black"/>
<path d="M19.2168 13.5489C19.2168 12.2325 18.6939 10.9699 17.763 10.039C16.8321 9.10817 15.5696 8.58521 14.2531 8.5852V9.7852C15.2513 9.78521 16.2086 10.1817 16.9145 10.8876C17.6203 11.5934 18.0168 12.5507 18.0168 13.5489C18.0168 14.5471 17.6203 15.5045 16.9145 16.2103C16.2086 16.9161 15.2513 17.3127 14.2531 17.3127V18.5127C15.5696 18.5127 16.8321 17.9897 17.763 17.0588C18.6939 16.1279 19.2168 14.8654 19.2168 13.5489Z" fill="black"/>
<path d="M12.7085 17.4004H8.63232V18.6004H12.7085V17.4004Z" fill="black"/>
</svg>
