<svg width="24" height="24" viewBox="0 0 24 24" fill="none" xmlns="http://www.w3.org/2000/svg">
<path fill-rule="evenodd" clip-rule="evenodd" d="M18.5125 8.12601L15.4167 5.03021C15.0848 4.69826 14.5466 4.69826 14.2146 5.03021L11.1184 8.12645L11.9669 8.97498L14.2158 6.72606L14.2158 12.6572H15.4158V6.72639L17.664 8.97454L18.5125 8.12601ZM10.4521 19.2168C11.7686 19.2168 13.0311 18.6939 13.962 17.763C14.8929 16.8321 15.4158 15.5696 15.4158 14.2531H14.2158C14.2158 15.2513 13.8193 16.2086 13.1134 16.9145C12.4076 17.6203 11.4503 18.0168 10.4521 18.0168C9.45388 18.0168 8.49656 17.6203 7.79073 16.9145C7.08489 16.2086 6.68835 15.2513 6.68835 14.2531H5.48835C5.48835 15.5696 6.01132 16.8321 6.9422 17.763C7.87308 18.6939 9.13562 19.2168 10.4521 19.2168ZM6.68828 8.5806L6.68828 12.6572H5.48828V8.5806H6.68828Z" fill="black"/>
</svg>
