<svg width="24" height="24" viewBox="0 0 24 24" fill="none" xmlns="http://www.w3.org/2000/svg">
<path fill-rule="evenodd" clip-rule="evenodd" d="M10.4521 4.78125C11.7686 4.78125 13.0311 5.30421 13.962 6.23509C14.8929 7.16597 15.4158 8.42852 15.4158 9.74498H14.2158C14.2158 8.74678 13.8193 7.78946 13.1134 7.08362C12.4076 6.37778 11.4503 5.98125 10.4521 5.98125C9.45388 5.98125 8.49656 6.37779 7.79073 7.08362C7.08489 7.78946 6.68835 8.74678 6.68835 9.74498H5.48835C5.48835 8.42852 6.01132 7.16598 6.9422 6.23509C7.87308 5.30421 9.13562 4.78125 10.4521 4.78125ZM14.2158 17.272L11.9669 15.0231L11.1184 15.8716L14.2146 18.9679C14.5466 19.2998 15.0848 19.2998 15.4167 18.9679L18.5125 15.8721L17.664 15.0235L15.4158 17.2717V11.3408H14.2158L14.2158 17.272ZM6.68828 15.4175L6.68828 11.3408H5.48828V15.4175H6.68828Z" fill="black"/>
</svg>
