<svg width="24" height="24" viewBox="0 0 24 24" fill="none" xmlns="http://www.w3.org/2000/svg">
<path fill-rule="evenodd" clip-rule="evenodd" d="M15.8718 5.48828L18.9676 8.58408C19.2996 8.91603 19.2996 9.45422 18.9676 9.78617L15.8714 12.8824L15.0229 12.0339L17.2715 9.7852H11.3403V8.58521H17.2717L15.0233 6.33681L15.8718 5.48828ZM4.78125 13.5489C4.78125 12.2325 5.30421 10.9699 6.23509 10.039C7.16597 9.10817 8.42852 8.58521 9.74498 8.5852V9.7852C8.74678 9.78521 7.78946 10.1817 7.08362 10.8876C6.37779 11.5934 5.98125 12.5507 5.98125 13.5489C5.98125 14.5471 6.37779 15.5045 7.08362 16.2103C7.78946 16.9161 8.74678 17.3127 9.74498 17.3127V18.5127C8.42852 18.5127 7.16598 17.9897 6.23509 17.0588C5.30421 16.1279 4.78125 14.8654 4.78125 13.5489ZM15.4175 17.3125H11.3403V18.5125H15.4175V17.3125Z" fill="black"/>
</svg>
