<svg width="24" height="24" viewBox="0 0 24 24" fill="none" xmlns="http://www.w3.org/2000/svg">
<path fill-rule="evenodd" clip-rule="evenodd" d="M4.39844 4.25039C4.39844 3.78095 4.77899 3.40039 5.24844 3.40039H18.7484C19.2179 3.40039 19.5984 3.78095 19.5984 4.25039V19.7504C19.5984 20.2198 19.2179 20.6004 18.7484 20.6004H5.24844C4.779 20.6004 4.39844 20.2198 4.39844 19.7504V4.25039ZM9.19814 9.00049C9.19814 8.50343 9.60109 8.10049 10.0981 8.10049C10.5952 8.10049 10.9981 8.50343 10.9981 9.00049C10.9981 9.49754 10.5952 9.90049 10.0981 9.90049C9.60109 9.90049 9.19814 9.49754 9.19814 9.00049ZM10.0981 6.90049C8.93835 6.90049 7.99814 7.84069 7.99814 9.00049C7.99814 10.1603 8.93835 11.1005 10.0981 11.1005C11.2579 11.1005 12.1981 10.1603 12.1981 9.00049C12.1981 7.84069 11.2579 6.90049 10.0981 6.90049ZM15.9985 14.1005H7.99854V12.9005H15.9985V14.1005ZM7.99854 17.1005H15.9985V15.9005H7.99854V17.1005Z" fill="black"/>
</svg>
