<svg width="24" height="24" viewBox="0 0 24 24" fill="none" xmlns="http://www.w3.org/2000/svg">
<path fill-rule="evenodd" clip-rule="evenodd" d="M2.02344 12.0004C2.02344 6.49135 6.4894 2.02539 11.9984 2.02539C17.5075 2.02539 21.9734 6.49135 21.9734 12.0004C21.9734 17.5094 17.5075 21.9754 11.9984 21.9754C6.4894 21.9754 2.02344 17.5094 2.02344 12.0004ZM4.27966 12.0005C4.27966 7.7376 7.7354 4.28186 11.9983 4.28186C16.2612 4.28186 19.7169 7.7376 19.7169 12.0005C19.7169 13.5793 19.2429 15.0474 18.4293 16.2703C17.3543 15.698 16.5984 14.5092 16.5984 13.1147V12.0034L16.5984 12.0004C16.5984 9.45988 14.5389 7.40039 11.9984 7.40039C9.45793 7.40039 7.39844 9.45988 7.39844 12.0004C7.39844 14.5409 9.45793 16.6004 11.9984 16.6004C13.5036 16.6004 14.8399 15.8775 15.6791 14.7599C16.0487 15.8039 16.7607 16.6778 17.6799 17.2251C16.2693 18.7583 14.246 19.7191 11.9983 19.7191C7.7354 19.7191 4.27966 16.2633 4.27966 12.0005ZM15.3984 12.0004V12.0005C15.3984 13.8782 13.8762 15.4004 11.9984 15.4004C10.1207 15.4004 8.59844 13.8782 8.59844 12.0004C8.59844 10.1226 10.1207 8.60039 11.9984 8.60039C13.8762 8.60039 15.3984 10.1226 15.3984 12.0004ZM11.9983 3.22632C7.15244 3.22632 3.22412 7.15464 3.22412 12.0005C3.22412 16.8463 7.15244 20.7746 11.9983 20.7746C16.8441 20.7746 20.7724 16.8463 20.7724 12.0005C20.7724 7.15464 16.8441 3.22632 11.9983 3.22632Z" fill="black"/>
</svg>
