<svg width="24" height="24" viewBox="0 0 24 24" fill="none" xmlns="http://www.w3.org/2000/svg">
<path fill-rule="evenodd" clip-rule="evenodd" d="M14.082 5.41299C14.3063 5.18864 14.5736 5.00933 14.8695 4.88675C15.3131 4.70301 15.8012 4.65493 16.2721 4.7486C16.7431 4.84227 17.1756 5.07348 17.5151 5.41299C17.8546 5.75249 18.0858 6.18505 18.1795 6.65596C18.2732 7.12687 18.2251 7.61498 18.0414 8.05857C17.9188 8.35453 17.7395 8.6218 17.5151 8.84615L18.3637 9.69467C18.6989 9.35944 18.9668 8.96005 19.15 8.51779C19.4246 7.85493 19.4964 7.12554 19.3564 6.42185C19.2165 5.71817 18.871 5.07179 18.3636 4.56446C17.8563 4.05713 17.2099 3.71163 16.5062 3.57166C15.8026 3.43169 15.0732 3.50352 14.4103 3.77809C13.9681 3.96128 13.5687 4.22923 13.2334 4.56445L14.082 5.41299ZM9.06556 14.7119C8.98146 14.7962 8.91424 14.8965 8.86824 15.0075C8.79908 15.1745 8.78098 15.3583 8.81624 15.5355C8.8515 15.7128 8.93853 15.8756 9.06633 16.0034C9.19413 16.1312 9.35695 16.2182 9.53421 16.2535C9.71147 16.2888 9.89521 16.2707 10.0622 16.2015C10.1662 16.1584 10.2607 16.0968 10.3416 16.02L16.3848 9.97681L17.2333 10.8253L11.2069 16.8517L11.2072 16.8519C11.1986 16.8605 11.19 16.869 11.1813 16.8774L11.0823 16.9764L11.0773 16.9714C10.9115 17.1116 10.7242 17.2262 10.5214 17.3101C10.1352 17.4701 9.71014 17.512 9.3001 17.4304C8.89007 17.3489 8.51342 17.1476 8.2178 16.8519C7.92218 16.5563 7.72086 16.1797 7.6393 15.7696C7.55774 15.3596 7.5996 14.9346 7.75958 14.5483C7.84359 14.3455 7.95819 14.1582 8.09841 13.9923L8.09321 13.9871L8.2178 13.8626L14.2442 7.83619L15.0927 8.68472L9.06633 14.7111L9.06556 14.7119ZM6.07034 13.8487C6.26937 13.3681 6.56049 12.9342 6.92473 12.57L6.07619 11.7214C5.60108 12.1966 5.22132 12.7626 4.96168 13.3894C4.57254 14.3289 4.47072 15.3627 4.66911 16.36C4.86749 17.3574 5.35716 18.2735 6.0762 18.9925C6.79524 19.7115 7.71135 20.2012 8.70869 20.3996C9.70603 20.598 10.7398 20.4962 11.6793 20.107C12.3061 19.8474 12.8721 19.4676 13.3473 18.9925L12.4987 18.144C12.1345 18.5082 11.7006 18.7993 11.22 18.9984C10.4998 19.2967 9.70736 19.3747 8.9428 19.2227C8.17824 19.0706 7.47595 18.6952 6.92473 18.144C6.37351 17.5928 5.99813 16.8905 5.84605 16.1259C5.69397 15.3613 5.77202 14.5689 6.07034 13.8487ZM7.20966 10.588L12.1028 5.69483L12.9513 6.54336L8.05819 11.4365L7.20966 10.588ZM18.5257 12.1174L13.6325 17.0106L14.481 17.8592L19.3742 12.966L18.5257 12.1174Z" fill="black"/>
</svg>
