<svg width="24" height="24" viewBox="0 0 24 24" fill="none" xmlns="http://www.w3.org/2000/svg">
<path fill-rule="evenodd" clip-rule="evenodd" d="M6.44922 8.87422C6.44922 5.80904 8.93404 3.32422 11.9992 3.32422C15.0644 3.32422 17.5492 5.80904 17.5492 8.87422C17.5492 11.9394 15.0644 14.4242 11.9992 14.4242C8.93404 14.4242 6.44922 11.9394 6.44922 8.87422ZM16.2991 14.0777C15.1314 15.0437 13.6331 15.6242 11.9992 15.6242C10.3646 15.6242 8.86565 15.0432 7.69771 14.0763V19.8231C7.69771 20.5235 8.49735 20.9234 9.05771 20.5031L11.9984 18.2976L14.9391 20.5031C15.4994 20.9234 16.2991 20.5235 16.2991 19.8231V14.0777Z" fill="black"/>
</svg>
