<svg width="24" height="24" viewBox="0 0 24 24" fill="none" xmlns="http://www.w3.org/2000/svg">
<path fill-rule="evenodd" clip-rule="evenodd" d="M3.24844 6.90039C2.779 6.90039 2.39844 7.28095 2.39844 7.75039V16.2504C2.39844 16.7198 2.77899 17.1004 3.24844 17.1004H16.7484C17.2179 17.1004 17.5984 16.7198 17.5984 16.2504V7.75039C17.5984 7.28095 17.2179 6.90039 16.7484 6.90039H3.24844Z" fill="black"/>
<path fill-rule="evenodd" clip-rule="evenodd" d="M19.4481 9.40039C18.9787 9.40039 18.5981 9.78095 18.5981 10.2504V13.7504C18.5981 14.2198 18.9787 14.6004 19.4481 14.6004H20.7485C21.218 14.6004 21.5985 14.2198 21.5985 13.7504V10.2504C21.5985 9.78095 21.218 9.40039 20.7485 9.40039H19.4481Z" fill="black"/>
</svg>
