<svg width="24" height="24" viewBox="0 0 24 24" fill="none" xmlns="http://www.w3.org/2000/svg">
<path fill-rule="evenodd" clip-rule="evenodd" d="M13.9198 12.4297C14.5432 11.5628 13.9237 10.3543 12.856 10.3543L11.643 10.3543L11.643 7.89906C11.643 7.47167 11.4591 7.12853 11.1866 6.90039H16.7484C17.2179 6.90039 17.5984 7.28095 17.5984 7.75039V16.2504C17.5984 16.7198 17.2179 17.1004 16.7484 17.1004H10.5165C10.5941 17.033 10.6665 16.954 10.732 16.8629L13.9198 12.4297ZM8.81883 17.1004H3.24844C2.77899 17.1004 2.39844 16.7198 2.39844 16.2504V7.75039C2.39844 7.28095 2.779 6.90039 3.24844 6.90039H9.47989C9.404 6.96693 9.33312 7.0446 9.26888 7.13392L6.0802 11.5672C5.45672 12.4341 6.0762 13.6427 7.14399 13.6427H8.35775V16.0979C8.35775 16.5277 8.54379 16.8723 8.81883 17.1004ZM10.6961 11.2941C10.8606 11.4607 11.0839 11.5543 11.3166 11.5543L12.856 11.5543C12.9459 11.5543 12.9981 11.6561 12.9456 11.7291L12.856 11.8537L9.75773 16.1623C9.69515 16.2494 9.55775 16.2051 9.55775 16.0979V13.3311C9.55775 13.0954 9.46844 12.8695 9.30386 12.7029C9.13928 12.5363 8.91659 12.4427 8.68383 12.4427H7.14399C7.05405 12.4427 7.00187 12.3409 7.05439 12.2679L10.2431 7.83461C10.3057 7.74759 10.443 7.79187 10.443 7.89906V10.666C10.443 10.9016 10.5315 11.1275 10.6961 11.2941ZM18.5977 10.2504C18.5977 9.78095 18.9782 9.40039 19.4477 9.40039H20.748C21.2175 9.40039 21.598 9.78095 21.598 10.2504V13.7504C21.598 14.2198 21.2175 14.6004 20.748 14.6004H19.4477C18.9782 14.6004 18.5977 14.2198 18.5977 13.7504V10.2504Z" fill="black"/>
</svg>
