<svg width="24" height="24" viewBox="0 0 24 24" fill="none" xmlns="http://www.w3.org/2000/svg">
<path d="M13.4142 3.1854C13.7893 3.56047 14 4.06918 14 4.59961L10 4.59961C10 4.06918 10.2107 3.56047 10.5858 3.1854C10.9609 2.81032 11.4696 2.59961 12 2.59961C12.5304 2.59961 13.0391 2.81032 13.4142 3.1854Z" fill="black"/>
<path fill-rule="evenodd" clip-rule="evenodd" d="M10 4.59961C10 4.16437 10.1419 3.74377 10.4 3.39961C10.4564 3.32433 10.5185 3.25271 10.5858 3.1854C10.9609 2.81032 11.4696 2.59961 12 2.59961C12.5304 2.59961 13.0391 2.81032 13.4142 3.1854C13.4815 3.25271 13.5436 3.32433 13.6 3.39961C13.8581 3.74377 14 4.16438 14 4.59961L10 4.59961Z" fill="black"/>
<path d="M12 21.3996C13.1046 21.3996 14 20.5042 14 19.3996H10C10 20.5042 10.8954 21.3996 12 21.3996Z" fill="black"/>
<path fill-rule="evenodd" clip-rule="evenodd" d="M10 19.3996H14C14 19.8499 13.8512 20.2654 13.6001 20.5996C13.2353 21.0854 12.6543 21.3996 12 21.3996C11.3457 21.3996 10.7647 21.0854 10.3999 20.5996C10.1488 20.2654 10 19.8499 10 19.3996Z" fill="black"/>
<path fill-rule="evenodd" clip-rule="evenodd" d="M5.3999 11.9995C5.3999 10.2491 6.09526 8.57037 7.333 7.33263C8.57074 6.09489 10.2495 5.39954 11.9999 5.39954C13.7503 5.39954 15.4292 6.09489 16.6669 7.33263C17.9046 8.57037 18.6 10.2491 18.6 11.9995V15.9995C18.6 16.3708 18.7475 16.7269 19.0101 16.9895C19.2726 17.252 19.6287 17.3995 20 17.3995V18.5995L4.03292 18.5995L4.0001 18.5997L4 17.3995C4.3713 17.3995 4.7274 17.252 4.98995 16.9895C5.2525 16.7269 5.4 16.3708 5.4 15.9995L5.3999 11.9995Z" fill="black"/>
</svg>
