<svg width="24" height="24" viewBox="0 0 24 24" fill="none" xmlns="http://www.w3.org/2000/svg">
<path fill-rule="evenodd" clip-rule="evenodd" d="M11.4367 4.82617L15.4854 4.82794C15.8882 4.82811 16.2356 5.11103 16.3173 5.5055L17.1827 9.68249L17.1833 9.68536L17.5944 11.622L16.4206 11.8712L16.1289 10.4971L5.8141 12.287C5.29432 12.3772 4.81877 11.977 4.81877 11.4495V9.23617H3.43896V8.03617H7.39896V9.23617H6.01877V11.0335L15.8825 9.32188L15.2001 6.02781L11.4361 6.02617L11.4367 4.82617Z" fill="black"/>
<path d="M5.41779 13.1354C3.75025 13.1354 2.39844 14.4872 2.39844 16.1548C2.39844 17.8223 3.75025 19.1742 5.41779 19.1742C7.08534 19.1742 8.43715 17.8223 8.43715 16.1548C8.43715 14.4872 7.08534 13.1354 5.41779 13.1354Z" fill="black"/>
<path d="M18.2484 12.474C16.3983 12.474 14.8984 13.9739 14.8984 15.8241C14.8984 17.6742 16.3983 19.1741 18.2484 19.1741C20.0986 19.1741 21.5984 17.6742 21.5984 15.8241C21.5984 13.9739 20.0986 12.474 18.2484 12.474Z" fill="black"/>
</svg>
