<svg width="24" height="24" viewBox="0 0 24 24" fill="none" xmlns="http://www.w3.org/2000/svg">
<path d="M6.53076 21.4508C7.55083 21.4508 8.39254 20.6871 8.51535 19.7003C8.5324 19.5633 8.41883 19.4508 8.28076 19.4508H4.78076C4.64269 19.4508 4.52912 19.5633 4.54617 19.7003C4.66898 20.6871 5.51069 21.4508 6.53076 21.4508Z" fill="black"/>
<path fill-rule="evenodd" clip-rule="evenodd" d="M8.13964 20.6391C8.19125 20.5693 8.23842 20.4961 8.28076 20.4198C8.40177 20.2017 8.4832 19.9586 8.51535 19.7003C8.5324 19.5633 8.41883 19.4508 8.28076 19.4508H4.78076C4.64269 19.4508 4.52912 19.5633 4.54617 19.7003C4.57832 19.9586 4.65975 20.2017 4.78076 20.4198C4.8231 20.4961 4.87028 20.5693 4.92188 20.6391C4.92478 20.643 4.92769 20.6469 4.93061 20.6508C5.2955 21.1366 5.87643 21.4508 6.53076 21.4508C7.18509 21.4508 7.76602 21.1366 8.13091 20.6508C8.13383 20.6469 8.13674 20.643 8.13964 20.6391Z" fill="black"/>
<path d="M16.5308 21.4508C17.5508 21.4508 18.3925 20.6871 18.5153 19.7003C18.5324 19.5633 18.4188 19.4508 18.2808 19.4508H14.7808C14.6427 19.4508 14.5291 19.5633 14.5462 19.7003C14.669 20.6871 15.5107 21.4508 16.5308 21.4508Z" fill="black"/>
<path fill-rule="evenodd" clip-rule="evenodd" d="M18.1396 20.6391C18.1912 20.5693 18.2384 20.4961 18.2808 20.4198C18.4018 20.2017 18.4832 19.9586 18.5153 19.7003C18.5324 19.5633 18.4188 19.4508 18.2808 19.4508H14.7808C14.6427 19.4508 14.5291 19.5633 14.5462 19.7003C14.5783 19.9586 14.6598 20.2017 14.7808 20.4198C14.8231 20.4961 14.8703 20.5693 14.9219 20.6391C14.9248 20.643 14.9277 20.6469 14.9306 20.6508C15.2955 21.1366 15.8764 21.4508 16.5308 21.4508C17.1851 21.4508 17.766 21.1366 18.1309 20.6508C18.1338 20.6469 18.1367 20.643 18.1396 20.6391Z" fill="black"/>
<path d="M15.0307 2.55078H11.7807V3.75078H14.6807V13.0508H11.6018L9.8541 10.4293C9.69646 10.1928 9.43106 10.0508 9.14686 10.0508H4.49748C4.07448 10.0508 3.71585 10.3618 3.65602 10.7806L2.72745 17.2806C2.6543 17.7926 3.05164 18.2508 3.56891 18.2508H19.9428C20.5141 18.2508 20.9227 17.6985 20.7556 17.1522L18.2807 9.06107V5.40078C18.2807 4.93134 17.9001 4.55078 17.4307 4.55078H15.8807V3.40078C15.8807 2.93134 15.5001 2.55078 15.0307 2.55078Z" fill="black"/>
<path d="M20.695 8.565C20.3792 8.88081 19.9686 9.0801 19.5301 9.13519C19.3931 9.1524 19.2808 9.03886 19.2808 8.90079V5.40079C19.2808 5.26272 19.3931 5.14917 19.5301 5.16639C19.9686 5.22148 20.3792 5.42076 20.695 5.73657C21.07 6.11165 21.2808 6.62036 21.2808 7.15079C21.2808 7.68122 21.07 8.18993 20.695 8.565Z" fill="black"/>
<path fill-rule="evenodd" clip-rule="evenodd" d="M20.469 5.54202C20.3986 5.49005 20.3251 5.4429 20.249 5.40079C20.0273 5.27811 19.7834 5.1982 19.5301 5.16639C19.3931 5.14917 19.2808 5.26272 19.2808 5.40079V8.90079C19.2808 9.03886 19.3931 9.1524 19.5301 9.13519C19.7834 9.10337 20.0273 9.02346 20.249 8.90079C20.3251 8.85868 20.3986 8.81153 20.469 8.75955C20.4729 8.75665 20.4769 8.75373 20.4808 8.7508C20.556 8.69434 20.6277 8.63232 20.695 8.565C21.07 8.18993 21.2808 7.68122 21.2808 7.15079C21.2808 6.62036 21.07 6.11165 20.695 5.73657C20.6277 5.66926 20.556 5.60724 20.4808 5.55078C20.4769 5.54785 20.4729 5.54493 20.469 5.54202Z" fill="black"/>
</svg>
