<svg width="24" height="24" viewBox="0 0 24 24" fill="none" xmlns="http://www.w3.org/2000/svg">
<path fill-rule="evenodd" clip-rule="evenodd" d="M12.5985 5.44863V10.5516L15.15 8.0001L12.5985 5.44863ZM11.3985 10.5516V4.60366C11.3985 3.84639 12.3141 3.46715 12.8495 4.00262L16.246 7.39906C16.5779 7.73101 16.5779 8.2692 16.246 8.60114L12.847 12.0001L16.246 15.3991C16.5779 15.731 16.5779 16.2692 16.246 16.6011L12.8495 19.9976C12.3141 20.5331 11.3985 20.1538 11.3985 19.3966V13.4486L8.42275 16.4244L7.57422 15.5758L11.15 12.0001L7.57422 8.42437L8.42275 7.57584L11.3985 10.5516ZM12.5985 13.4486V18.5516L15.15 16.0001L12.5985 13.4486Z" fill="black"/>
</svg>
