<svg width="24" height="24" viewBox="0 0 24 24" fill="none" xmlns="http://www.w3.org/2000/svg">
<path fill-rule="evenodd" clip-rule="evenodd" d="M9.89844 3.40039H5.89844V20.6004H11.8984V19.4004H7.09844V12.6004H9.89844V11.4004H7.09844V4.60039H9.89844V3.40039ZM14.7513 11.2533C15.614 10.3906 16.0986 9.22058 16.0986 8.00059C16.0986 6.78059 15.614 5.61056 14.7513 4.7479C13.8887 3.88523 12.7186 3.40059 11.4986 3.40059V4.60059C12.4004 4.60059 13.2652 4.9588 13.9028 5.59642C14.5404 6.23405 14.8986 7.09885 14.8986 8.00059C14.8986 8.90232 14.5404 9.76713 13.9028 10.4047C13.2658 11.0418 12.402 11.3999 11.5012 11.4006L11.4986 11.4006V12.6006H13.4986C14.4004 12.6006 15.2652 12.9588 15.9028 13.5964C16.5404 14.234 16.8986 15.0988 16.8986 16.0006C16.8986 16.9023 16.5404 17.7671 15.9028 18.4047C15.2652 19.0424 14.4004 19.4006 13.4986 19.4006V20.6006C14.7186 20.6006 15.8887 20.1159 16.7513 19.2533C17.614 18.3906 18.0986 17.2206 18.0986 16.0006C18.0986 14.7806 17.614 13.6106 16.7513 12.7479C16.1232 12.1197 15.3321 11.692 14.4774 11.5059C14.5717 11.4257 14.6631 11.3415 14.7513 11.2533Z" fill="black"/>
</svg>
