<svg width="24" height="24" viewBox="0 0 24 24" fill="none" xmlns="http://www.w3.org/2000/svg">
<path fill-rule="evenodd" clip-rule="evenodd" d="M4.39844 4.25039C4.39844 3.78095 4.77899 3.40039 5.24844 3.40039H18.7484C19.2179 3.40039 19.5984 3.78095 19.5984 4.25039V19.7504C19.5984 20.2198 19.2179 20.6004 18.7484 20.6004H6.99844C6.30888 20.6004 5.64755 20.3265 5.15996 19.8389C4.67237 19.3513 4.39844 18.69 4.39844 18.0004V4.25039ZM18.3984 19.4004H6.99844C6.62713 19.4004 6.27104 19.2529 6.00849 18.9903C5.74594 18.7278 5.59844 18.3717 5.59844 18.0004C5.59844 17.6291 5.74594 17.273 6.00849 17.0104C6.27104 16.7479 6.62713 16.6004 6.99844 16.6004H18.3984V19.4004Z" fill="black"/>
</svg>
