<svg width="24" height="24" viewBox="0 0 24 24" fill="none" xmlns="http://www.w3.org/2000/svg">
<path fill-rule="evenodd" clip-rule="evenodd" d="M20.7482 18.3992H13.9982C13.6269 18.3992 13.2708 18.5467 13.0083 18.8093C12.7502 19.0674 12.6033 19.4159 12.5984 19.7803L12.5983 19.792V4.60829C13.0131 4.34323 13.4983 4.19922 13.9982 4.19922H20.7482C21.2177 4.19922 21.5982 4.57978 21.5982 5.04922L21.5982 17.5492C21.5982 18.0187 21.2177 18.3992 20.7482 18.3992ZM11.3983 4.60822C10.9835 4.34321 10.4984 4.19922 9.99844 4.19922H3.24844C2.779 4.19922 2.39844 4.57978 2.39844 5.04922V17.5492C2.39844 18.0187 2.779 18.3992 3.24844 18.3992H9.99844C10.3697 18.3992 10.7258 18.5467 10.9884 18.8093C11.2461 19.067 11.393 19.415 11.3983 19.7789V4.60822ZM11.3983 19.7858L11.3982 19.7992H11.3983V19.7858Z" fill="black"/>
</svg>
