<svg width="24" height="24" viewBox="0 0 24 24" fill="none" xmlns="http://www.w3.org/2000/svg">
<path fill-rule="evenodd" clip-rule="evenodd" d="M2.89844 9.64966C2.89844 9.18022 3.279 8.79966 3.74844 8.79966H20.2484C20.7179 8.79966 21.0984 9.18022 21.0984 9.64966V20.1497C21.0984 20.6191 20.7179 20.9997 20.2484 20.9997H3.74844C3.279 20.9997 2.89844 20.6191 2.89844 20.1497V9.64966ZM6.89844 11.5997V18.1997H8.09844V11.5997H6.89844ZM15.8984 11.5997V18.1997H17.0984V11.5997H15.8984Z" fill="black"/>
<path fill-rule="evenodd" clip-rule="evenodd" d="M8.74584 3.94692C9.60851 3.08425 10.7785 2.59961 11.9985 2.59961C13.2185 2.59961 14.3886 3.08425 15.2512 3.94692C16.1139 4.80959 16.5985 5.97961 16.5985 7.19961H15.3985C15.3985 6.29787 15.0403 5.43307 14.4027 4.79545C13.7651 4.15782 12.9003 3.79961 11.9985 3.79961C11.0968 3.79961 10.232 4.15782 9.59437 4.79545C8.95675 5.43307 8.59854 6.29787 8.59854 7.19961H7.39854C7.39854 5.97961 7.88318 4.80959 8.74584 3.94692Z" fill="black"/>
</svg>
