<svg width="24" height="24" viewBox="0 0 24 24" fill="none" xmlns="http://www.w3.org/2000/svg">
<path fill-rule="evenodd" clip-rule="evenodd" d="M10.0624 2.93674C10.5634 2.43575 11.2429 2.1543 11.9514 2.1543C12.6599 2.1543 13.3394 2.43575 13.8403 2.93674C14.3413 3.43773 14.6228 4.11722 14.6228 4.82573V5.29715L9.27993 5.29715V4.82573C9.27993 4.11722 9.56139 3.43773 10.0624 2.93674ZM6.25922 9.85624C7.25272 7.67897 9.44878 6.16577 11.9983 6.16577C14.5478 6.16577 16.7439 7.67907 17.7374 9.85644C18.3627 9.84838 18.9607 9.59648 19.4035 9.1537C19.8536 8.70361 20.1064 8.09316 20.1064 7.45664H21.3064C21.3064 8.41142 20.9272 9.32709 20.252 10.0022C19.6794 10.5748 18.9338 10.9346 18.1381 11.0307C18.2313 11.43 18.2867 11.8439 18.3001 12.2683H16.5064V15.8683H18.3002C18.2873 16.2888 18.2332 16.6989 18.1418 17.0948C18.9361 17.1915 19.6803 17.5511 20.252 18.1228C20.9272 18.7979 21.3064 19.7136 21.3064 20.6684H20.1064C20.1064 20.0318 19.8536 19.4214 19.4035 18.9713C18.9625 18.5303 18.3675 18.2786 17.7449 18.2687C16.755 20.4549 14.5542 21.9758 11.9983 21.9758C9.44238 21.9758 7.2417 20.455 6.25176 18.2689C5.63385 18.2821 5.04404 18.5333 4.60607 18.9713C4.15598 19.4214 3.90313 20.0318 3.90313 20.6684H2.70312C2.70312 19.7136 3.08241 18.7979 3.75754 18.1228C4.3262 17.5541 5.06551 17.1954 5.8551 17.0963C5.76349 16.7 5.70926 16.2893 5.6963 15.8683H7.49136V12.2683H5.69645C5.70986 11.8433 5.76533 11.4289 5.85884 11.0291C5.06784 10.9308 4.32709 10.5718 3.75754 10.0022C3.08241 9.32709 2.70312 8.41142 2.70312 7.45664H3.90313C3.90313 8.09316 4.15598 8.70361 4.60607 9.1537C5.0458 9.59343 5.63859 9.8449 6.25922 9.85624ZM18.3033 14.6683H17.7064V13.4683H18.3033L20.7064 13.4683V14.6683L18.3033 14.6683ZM3.29141 13.4683L5.69326 13.4683H6.29136V14.6683H5.69326L3.29141 14.6683L3.29141 13.4683ZM12.6104 19.5176V15.3825H11.4104V19.5176H12.6104Z" fill="black"/>
</svg>
