<svg width="24" height="24" viewBox="0 0 24 24" fill="none" xmlns="http://www.w3.org/2000/svg">
<path fill-rule="evenodd" clip-rule="evenodd" d="M20.0567 5.77375C20.0567 5.0495 19.769 4.35491 19.2569 3.84279C18.7447 3.33068 18.0502 3.04297 17.3259 3.04297V3.04303H6.67125V3.04297C5.94701 3.04297 5.25242 3.33068 4.7403 3.84279C4.229 4.3541 3.9414 5.04728 3.94048 5.77027H3.94048V5.77375V7.37036H2.92031C2.45087 7.37036 2.07031 7.75092 2.07031 8.22036V11.3796H3.27031V8.57036H3.94048V16.2813V16.3603V20.1076C3.94048 20.5771 4.32104 20.9576 4.79048 20.9576H6.84741C7.31685 20.9576 7.69741 20.5771 7.69741 20.1076V18.5605H11.9982V18.0003H11.9986V18.5604H16.299V20.1076C16.299 20.577 16.6795 20.9576 17.149 20.9576H19.2059C19.6753 20.9576 20.0559 20.577 20.0559 20.1076V16.3603H20.0559V8.57036H20.7269V11.3796H21.9269V8.22036C21.9269 7.75092 21.5463 7.37036 21.0769 7.37036H20.0559V5.77375H20.0567ZM6.45801 12.168H17.5372V10.968H6.45801V12.168ZM8.15958 13.3987C7.40549 13.3987 6.79419 14.01 6.79419 14.7641C6.79419 15.5182 7.40549 16.1295 8.15958 16.1295C8.91366 16.1295 9.52497 15.5182 9.52497 14.7641C9.52497 14.01 8.91366 13.3987 8.15958 13.3987ZM15.9408 13.3987C15.1867 13.3987 14.5754 14.01 14.5754 14.7641C14.5754 15.5182 15.1867 16.1295 15.9408 16.1295C16.6949 16.1295 17.3062 15.5182 17.3062 14.7641C17.3062 14.01 16.6949 13.3987 15.9408 13.3987Z" fill="black"/>
</svg>
