<svg width="24" height="24" viewBox="0 0 24 24" fill="none" xmlns="http://www.w3.org/2000/svg">
<path fill-rule="evenodd" clip-rule="evenodd" d="M7.85039 2H8.55039C9.3512 2 10.0004 2.64919 10.0004 3.45V4H14.0005V3.45C14.0005 2.64919 14.6497 2 15.4505 2H16.1505C16.9513 2 17.6005 2.64919 17.6005 3.45V4H20.15C20.6194 4 21 4.38056 21 4.85V21.15C21 21.6194 20.6194 22 20.15 22H3.85C3.38056 22 3 21.6194 3 21.15V4.85C3 4.38056 3.38056 4 3.85 4H6.40039V3.45C6.40039 2.64919 7.04958 2 7.85039 2ZM5.40088 11.1999L18.5996 11.1999V9.99985L5.40088 9.99985V11.1999Z" fill="black"/>
</svg>
