<svg width="24" height="24" viewBox="0 0 24 24" fill="none" xmlns="http://www.w3.org/2000/svg">
<path fill-rule="evenodd" clip-rule="evenodd" d="M8.7477 4.2477C9.61037 3.38503 10.7804 2.90039 12.0004 2.90039C13.2204 2.90039 14.3904 3.38503 15.2531 4.2477C15.9731 4.96771 16.4298 5.90182 16.5611 6.90039H21.15C21.6194 6.90039 22 7.28095 22 7.75039V20.2504C22 20.7198 21.6194 21.1004 21.15 21.1004H2.85C2.38056 21.1004 2 20.7198 2 20.2504V7.75039C2 7.28095 2.38056 6.90039 2.85 6.90039L7.43967 6.90039C7.57102 5.90182 8.0277 4.9677 8.7477 4.2477ZM16.075 13.5755C16.075 15.826 14.2506 17.6505 12 17.6505C9.74949 17.6505 7.92505 15.826 7.92505 13.5755C7.92505 11.3249 9.74949 9.50049 12 9.50049C14.2506 9.50049 16.075 11.3249 16.075 13.5755Z" fill="black"/>
</svg>
