<svg width="24" height="24" viewBox="0 0 24 24" fill="none" xmlns="http://www.w3.org/2000/svg">
<path fill-rule="evenodd" clip-rule="evenodd" d="M3.78809 6.90039H2.85C2.38056 6.90039 2 7.28095 2 7.75039V20.2504C2 20.7198 2.38056 21.1004 2.85 21.1004H17.9881L14.0092 17.1215C13.4162 17.4582 12.7304 17.6505 11.9998 17.6505C9.74924 17.6505 7.9248 15.826 7.9248 13.5755C7.9248 12.8448 8.1171 12.1591 8.45383 11.5661L3.78809 6.90039ZM15.2215 16.0711L20.0605 20.91L20.909 20.0615L15.8266 14.9791C15.6811 15.3756 15.4758 15.7433 15.2215 16.0711ZM10.5962 9.74868C10.1996 9.89416 9.83202 10.0995 9.50423 10.3538L6.05083 6.90039L7.43967 6.90039C7.45138 6.81138 7.46567 6.72289 7.4825 6.63501L10.5962 9.74868ZM16.0208 12.9106C15.7389 11.1927 14.3826 9.83639 12.6647 9.55446L8.1279 5.01766C8.30488 4.74159 8.51221 4.48319 8.7477 4.2477C9.61037 3.38503 10.7804 2.90039 12.0004 2.90039C13.2204 2.90039 14.3904 3.38503 15.2531 4.2477C15.9731 4.96771 16.4298 5.90182 16.5611 6.90039H21.15C21.6194 6.90039 22 7.28095 22 7.75039V18.8898L16.0208 12.9106Z" fill="black"/>
<path d="M3.08984 3.93945L3.93837 3.09092L20.909 20.0615L20.0605 20.91L3.08984 3.93945Z" fill="black"/>
</svg>
