<svg width="24" height="24" viewBox="0 0 24 24" fill="none" xmlns="http://www.w3.org/2000/svg">
<path fill-rule="evenodd" clip-rule="evenodd" d="M3.39844 17.1254V11.163C3.39844 11.0783 3.41111 10.994 3.43603 10.913L5.37067 4.62542C5.48041 4.26877 5.80993 4.02539 6.18308 4.02539H17.8138C18.1869 4.02539 18.5165 4.26876 18.6262 4.62542L20.5609 10.913C20.5858 10.994 20.5984 11.0783 20.5984 11.163V17.1619H20.598V19.1254C20.598 19.5948 20.2175 19.9754 19.748 19.9754H17.848C17.3786 19.9754 16.998 19.5948 16.998 19.1254V17.7254H11.9984H11.9984H6.99844V19.1254C6.99844 19.5948 6.61788 19.9754 6.14844 19.9754H4.24844C3.779 19.9754 3.39844 19.5948 3.39844 19.1254V17.1619V17.1254ZM6.19836 14.1254C6.19836 13.4075 6.78039 12.8254 7.49836 12.8254C8.21633 12.8254 8.79836 13.4075 8.79836 14.1254C8.79836 14.8434 8.21633 15.4254 7.49836 15.4254C6.78039 15.4254 6.19836 14.8434 6.19836 14.1254ZM16.4984 12.8254C15.7804 12.8254 15.1984 13.4075 15.1984 14.1254C15.1984 14.8434 15.7804 15.4254 16.4984 15.4254C17.2163 15.4254 17.7984 14.8434 17.7984 14.1254C17.7984 13.4075 17.2163 12.8254 16.4984 12.8254ZM5.79822 11.7254H18.1974V10.5254H5.79822V11.7254Z" fill="black"/>
</svg>
