<svg width="24" height="24" viewBox="0 0 24 24" fill="none" xmlns="http://www.w3.org/2000/svg">
<path fill-rule="evenodd" clip-rule="evenodd" d="M3.19922 15.1056C4.17881 15.1056 5.11827 15.4947 5.81095 16.1874C6.50362 16.8801 6.89276 17.8195 6.89276 18.7991H5.69276C5.69276 18.1378 5.43005 17.5036 4.96242 17.0359C4.49479 16.5683 3.86055 16.3056 3.19922 16.3056L3.19922 15.1056Z" fill="black"/>
<path fill-rule="evenodd" clip-rule="evenodd" d="M3.19922 12.2692C4.93089 12.2692 6.59164 12.9571 7.81612 14.1816C9.0406 15.4061 9.7285 17.0668 9.7285 18.7985L8.5285 18.7985C8.5285 17.3851 7.96702 16.0296 6.96759 15.0301C5.96816 14.0307 4.61263 13.4692 3.19922 13.4692L3.19922 12.2692Z" fill="black"/>
<path d="M5.84912 7.59921C5.71104 7.59921 5.59912 7.71114 5.59912 7.84921V11.4512C6.74419 11.8252 7.79697 12.4653 8.66469 13.333C9.53255 14.2009 10.1727 15.2539 10.5467 16.3992H18.1491C18.2872 16.3992 18.3991 16.2873 18.3991 16.1492V7.84921C18.3991 7.71114 18.2872 7.59921 18.1491 7.59921H5.84912Z" fill="black"/>
<path fill-rule="evenodd" clip-rule="evenodd" d="M3.1998 6.00422C3.1998 5.55963 3.56022 5.19922 4.00481 5.19922L19.994 5.19923C20.4386 5.19923 20.799 5.55964 20.799 6.00423V17.9942C20.799 18.4388 20.4386 18.7992 19.994 18.7992L11.3296 18.7992L11.3296 17.5992L19.599 17.5992V6.39923L4.3998 6.39922V10.3692H3.1998V6.00422Z" fill="black"/>
</svg>
