<svg width="24" height="24" viewBox="0 0 24 24" fill="none" xmlns="http://www.w3.org/2000/svg">
<path fill-rule="evenodd" clip-rule="evenodd" d="M6.30654 4.58255C8.10617 3.20164 10.3464 2.52206 12.61 2.67042C14.8735 2.81878 17.0059 3.78496 18.6099 5.38895C20.2139 6.99295 21.1801 9.12535 21.3284 11.3889C21.4768 13.6524 20.7972 15.8927 19.4163 17.6923C18.0354 19.492 16.0474 20.7282 13.8226 21.1707C11.6733 21.5983 9.44472 21.2569 7.52477 20.2107L4.06455 20.9176C3.47905 21.0372 2.96167 20.5198 3.08129 19.9343L3.78818 16.4741C2.74198 14.5541 2.4006 12.3256 2.82812 10.1763C3.27066 7.9515 4.50691 5.96345 6.30654 4.58255Z" fill="black"/>
</svg>
