<svg width="24" height="24" viewBox="0 0 24 24" fill="none" xmlns="http://www.w3.org/2000/svg">
<path fill-rule="evenodd" clip-rule="evenodd" d="M11.7542 2.07686C11.9135 2.02907 12.0834 2.02907 12.2427 2.07686L19.9927 4.40186C20.3522 4.50972 20.5984 4.84064 20.5984 5.21601V13.4C20.5984 18.1497 16.7481 22 11.9984 22C7.24879 22 3.39844 18.1497 3.39844 13.4V5.21601C3.39844 4.84064 3.64466 4.50972 4.00419 4.40186L11.7542 2.07686ZM7.07422 12.2821L9.96813 15.176C10.3001 15.508 10.8383 15.508 11.1702 15.176L16.9227 9.42348L16.0742 8.57495L10.5692 14.08L7.92275 11.4336L7.07422 12.2821Z" fill="black"/>
</svg>
