<svg width="24" height="24" viewBox="0 0 24 24" fill="none" xmlns="http://www.w3.org/2000/svg">
<path fill-rule="evenodd" clip-rule="evenodd" d="M5.80854 8.51898C5.80681 8.57911 5.80594 8.63946 5.80594 8.70001V10.6042C3.60934 11.3612 2.03125 13.4463 2.03125 15.9C2.03125 18.9928 4.53846 21.5 7.63125 21.5H16.3809C17.0968 21.5 17.7814 21.3661 18.4108 21.1213L12.113 14.8234C12.0263 15.1679 11.9803 15.5286 11.9803 15.9H10.7803C10.7803 15.184 10.9147 14.4994 11.1596 13.87L5.80854 8.51898ZM12.8396 13.2873L19.8495 20.2972C20.1643 20.0485 20.4517 19.7668 20.7066 19.4572L13.6773 12.4279C13.3606 12.6749 13.0785 12.9642 12.8396 13.2873ZM12.8236 11.5743C12.5141 11.8291 12.2323 12.1166 11.9836 12.4313L6.16579 6.61349C6.30995 6.21001 6.49475 5.82583 6.71524 5.46589L12.8236 11.5743ZM15.1783 11.6662C15.5604 11.558 15.9636 11.5 16.3803 11.5C16.8805 11.5 17.36 11.5833 17.8065 11.7362L18.1953 10.6009C17.6253 10.4057 17.0145 10.3 16.3803 10.3C15.6211 10.3 14.8972 10.4511 14.237 10.7249L7.72616 4.21407C8.83895 3.15211 10.3463 2.5 12.0059 2.5C15.4301 2.5 18.206 5.27584 18.206 8.70001V10.6047C20.4027 11.3616 21.9809 13.4467 21.9809 15.9005C21.9809 16.6597 21.8298 17.3837 21.556 18.0439L15.1783 11.6662Z" fill="black"/>
<path d="M3.09131 3.53906L3.93984 2.69053L20.9104 19.6611L20.0619 20.5096L3.09131 3.53906Z" fill="black"/>
</svg>
