<svg width="24" height="24" viewBox="0 0 24 24" fill="none" xmlns="http://www.w3.org/2000/svg">
<path fill-rule="evenodd" clip-rule="evenodd" d="M5.80594 8.70001C5.80594 5.27584 8.58178 2.5 12.0059 2.5C15.4301 2.5 18.206 5.27584 18.206 8.70001V10.6047C20.4027 11.3616 21.9809 13.4467 21.9809 15.9005C21.9809 18.9933 19.4737 21.5005 16.3809 21.5005V21.5H7.63125C4.53846 21.5 2.03125 18.9928 2.03125 15.9C2.03125 13.4463 3.60934 11.3612 5.80594 10.6042V8.70001ZM11.9803 15.9C11.9803 13.47 13.9502 11.5 16.3803 11.5C16.8805 11.5 17.36 11.5833 17.8065 11.7362L18.1953 10.6009C17.6253 10.4057 17.0145 10.3 16.3803 10.3C13.2875 10.3 10.7803 12.8073 10.7803 15.9H11.9803Z" fill="black"/>
</svg>
