<svg width="24" height="24" viewBox="0 0 24 24" fill="none" xmlns="http://www.w3.org/2000/svg">
<path d="M18.5342 14.4741C19.521 14.3513 20.2847 13.5096 20.2847 12.4895C20.2847 11.4694 19.521 10.6277 18.5342 10.5049C18.3972 10.4878 18.2847 10.6014 18.2847 10.7395V14.2395C18.2847 14.3776 18.3972 14.4911 18.5342 14.4741Z" fill="black"/>
<path fill-rule="evenodd" clip-rule="evenodd" d="M19.473 10.8806C19.4032 10.829 19.33 10.7818 19.2537 10.7395C19.0356 10.6185 18.7925 10.537 18.5342 10.5049C18.3972 10.4878 18.2847 10.6014 18.2847 10.7395V14.2395C18.2847 14.3776 18.3972 14.4911 18.5342 14.4741C18.7925 14.4419 19.0356 14.3605 19.2537 14.2395C19.33 14.1971 19.4032 14.15 19.473 14.0984C19.4769 14.0955 19.4808 14.0926 19.4847 14.0896C19.9704 13.7247 20.2847 13.1438 20.2847 12.4895C20.2847 11.8352 19.9704 11.2542 19.4847 10.8893C19.4808 10.8864 19.4769 10.8835 19.473 10.8806Z" fill="black"/>
<path d="M3.96328 10.4936C3.49384 10.4936 3.11328 10.8742 3.11328 11.3436L3.11391 13.3876C3.16417 17.1629 6.24027 20.2079 10.0276 20.2079C13.8149 20.2079 16.8916 17.1629 16.9419 13.3876V11.3436C16.9419 10.8742 16.5613 10.4936 16.0919 10.4936H3.96328Z" fill="black"/>
<path fill-rule="evenodd" clip-rule="evenodd" d="M12.7891 4.55254C12.3015 5.04013 12.0276 5.70145 12.0276 6.39102C12.0276 7.08058 12.3015 7.7419 12.7891 8.22949C13.2767 8.71709 13.938 8.99102 14.6276 8.99102V7.79102C14.2563 7.79102 13.9002 7.64352 13.6376 7.38097C13.3751 7.11841 13.2276 6.76232 13.2276 6.39102C13.2276 6.01971 13.3751 5.66362 13.6376 5.40107C13.9002 5.13852 14.2563 4.99102 14.6276 4.99102V3.79102C13.938 3.79102 13.2767 4.06494 12.7891 4.55254Z" fill="black"/>
<path fill-rule="evenodd" clip-rule="evenodd" d="M5.58889 4.55254C5.1013 5.04013 4.82737 5.70145 4.82737 6.39102C4.82737 7.08058 5.1013 7.7419 5.58889 8.22949C6.07648 8.71709 6.73781 8.99102 7.42737 8.99102V7.79102C7.05606 7.79102 6.69997 7.64352 6.43742 7.38097C6.17487 7.11841 6.02737 6.76232 6.02737 6.39102C6.02737 6.01971 6.17487 5.66362 6.43742 5.40107C6.69997 5.13852 7.05606 4.99102 7.42737 4.99102L7.42737 3.79102C6.7378 3.79102 6.07648 4.06494 5.58889 4.55254Z" fill="black"/>
<path fill-rule="evenodd" clip-rule="evenodd" d="M9.18899 4.55254C8.70139 5.04013 8.42747 5.70145 8.42747 6.39102C8.42747 7.08058 8.70139 7.7419 9.18899 8.22949C9.67658 8.71709 10.3379 8.99102 11.0275 8.99102V7.79102C10.6562 7.79102 10.3001 7.64352 10.0375 7.38097C9.77496 7.11841 9.62747 6.76232 9.62747 6.39102C9.62747 6.01971 9.77496 5.66362 10.0375 5.40107C10.3001 5.13852 10.6562 4.99102 11.0275 4.99102L11.0275 3.79102C10.3379 3.79102 9.67658 4.06494 9.18899 4.55254Z" fill="black"/>
</svg>
