<svg width="24" height="24" viewBox="0 0 24 24" fill="none" xmlns="http://www.w3.org/2000/svg">
<path fill-rule="evenodd" clip-rule="evenodd" d="M5.39832 2.47025C3.68816 2.80767 2.39846 4.31557 2.39846 6.12471C2.39846 7.93384 3.68816 9.44174 5.39832 9.77917V8.54403C4.35723 8.23243 3.59846 7.26718 3.59846 6.12471C3.59846 4.98223 4.35723 4.01698 5.39832 3.70538V2.47025ZM6.59832 8.64971H8.64846V6.12471C8.64846 4.8925 7.76583 3.86645 6.59832 3.64429V2.42969C8.43135 2.66291 9.84846 4.22831 9.84846 6.12471V8.64971H14.1485V5.9999H14.1505C14.2111 4.16012 15.6058 2.65795 17.3983 2.42973V3.64435C16.231 3.86664 15.3485 4.89261 15.3485 6.12471H15.3485V8.64971H17.3983V9.84971H15.3485V14.1499H17.3983V15.3499H15.3485V17.8749C15.3485 19.107 16.2309 20.133 17.3983 20.3553V21.5699C15.5654 21.3365 14.1485 19.7712 14.1485 17.8749V15.3499H9.84846V17.9997H9.84639C9.78582 19.8396 8.39096 21.3418 6.59832 21.5699V20.3553C7.76582 20.1331 8.64844 19.1071 8.64844 17.8749H8.64846V15.3499H6.59832V14.1499H8.64846V9.84971H6.59832V8.64971ZM5.39832 14.2204C3.68815 14.5578 2.39844 16.0658 2.39844 17.8749C2.39844 19.684 3.68815 21.192 5.39832 21.5294V20.2942C4.35721 19.9826 3.59844 19.0174 3.59844 17.8749C3.59844 16.7324 4.35721 15.7672 5.39832 15.4556V14.2204ZM20.3985 6.12471C20.3985 7.26729 19.6396 8.23263 18.5983 8.54413V9.77923C20.3086 9.44193 21.5985 7.93395 21.5985 6.12471C21.5985 4.31546 20.3086 2.80748 18.5983 2.47018V3.70528C19.6396 4.01678 20.3985 4.98212 20.3985 6.12471ZM18.5983 15.4555V14.2204C20.3086 14.5577 21.5985 16.0657 21.5985 17.8749C21.5985 19.6841 20.3086 21.1921 18.5983 21.5294V20.2943C19.6396 19.9828 20.3985 19.0175 20.3985 17.8749C20.3985 16.7323 19.6396 15.767 18.5983 15.4555ZM14.1485 9.84971H9.84846V14.1499H14.1485V9.84971Z" fill="black"/>
</svg>
