<svg width="24" height="24" viewBox="0 0 24 24" fill="none" xmlns="http://www.w3.org/2000/svg">
<path fill-rule="evenodd" clip-rule="evenodd" d="M17.3724 5.33749L16.684 4.64905C17.4274 3.92986 18.6132 3.93737 19.3474 4.67159C20.0816 5.40578 20.0891 6.59142 19.3701 7.3349L18.6807 6.64551L17.7623 7.56392L18.4518 8.25349L11.468 15.2373C11.3444 15.3609 11.1781 15.4325 11.0033 15.4372L9.23545 15.485C8.84375 15.4956 8.52342 15.1752 8.53401 14.7835L8.58179 13.0156C8.58651 12.8409 8.65804 12.6746 8.78165 12.551L15.7654 5.56727L16.454 6.2559L17.3724 5.33749ZM15.2362 4.39937H5.24844C4.779 4.39937 4.39844 4.77992 4.39844 5.24936V18.7494C4.39844 19.2188 4.77899 19.5994 5.24844 19.5994H18.7484C19.2179 19.5994 19.5984 19.2188 19.5984 18.7494V8.80395L12.3165 16.0859C11.9758 16.4266 11.5174 16.6237 11.0358 16.6368L9.26787 16.6845C8.18821 16.7137 7.30527 15.8308 7.33444 14.7511L7.38222 12.9832C7.39524 12.5015 7.5924 12.0432 7.93312 11.7025L15.2362 4.39937Z" fill="black"/>
</svg>
