<svg width="24" height="24" viewBox="0 0 24 24" fill="none" xmlns="http://www.w3.org/2000/svg">
<path d="M4.24844 6.60049C3.779 6.60049 3.39844 6.98105 3.39844 7.45049V19.7505C3.39844 20.2199 3.779 20.6005 4.24844 20.6005H16.5479C17.0173 20.6005 17.3979 20.2199 17.3979 19.7505V7.45049C17.3979 6.98105 17.0173 6.60049 16.5479 6.60049H4.24844Z" fill="black"/>
<path fill-rule="evenodd" clip-rule="evenodd" d="M6.59911 4.25039C6.59911 3.78095 6.97967 3.40039 7.44911 3.40039H19.7485C20.218 3.40039 20.5985 3.78095 20.5985 4.25039V16.5504C20.5985 17.0198 20.218 17.4004 19.7485 17.4004H18.5989V16.2004H19.3985V4.60039H7.79911V5.40039H6.59911V4.25039Z" fill="black"/>
</svg>
