<svg width="24" height="24" viewBox="0 0 24 24" fill="none" xmlns="http://www.w3.org/2000/svg">
<path fill-rule="evenodd" clip-rule="evenodd" d="M11.1529 4.78128L4.78906 4.78125V5.98125L11.1646 5.98128C12.1586 5.98437 13.1112 6.38056 13.8142 7.08364C14.5194 7.78884 14.9159 8.74508 14.9166 9.74232L14.9166 9.745L14.9166 17.272L12.6677 15.0231L11.8192 15.8716L14.9154 18.9679C15.2473 19.2998 15.7855 19.2998 16.1175 18.9679L19.2133 15.8721L18.3648 15.0235L16.1166 17.2717L16.1166 9.745V9.74487V9.74202C16.1158 8.42663 15.5929 7.16529 14.6628 6.23511C13.7319 5.30423 12.4693 4.78126 11.1529 4.78126V4.78128Z" fill="black"/>
</svg>
