<svg width="24" height="24" viewBox="0 0 24 24" fill="none" xmlns="http://www.w3.org/2000/svg">
<path fill-rule="evenodd" clip-rule="evenodd" d="M12.8497 4.78128L19.2135 4.78125V5.98125L12.838 5.98128C11.844 5.98437 10.8914 6.38056 10.1884 7.08364C9.48297 7.78903 9.08649 8.74558 9.08599 9.7431L9.08599 9.745L9.08599 17.2718L11.3347 15.0231L12.1832 15.8716L9.08695 18.9679C8.755 19.2998 8.21681 19.2998 7.88486 18.9679L4.78906 15.8721L5.63759 15.0235L7.88599 17.2719L7.88599 9.745L7.88599 9.74202C7.88677 8.42663 8.40965 7.16529 9.33983 6.23511C10.2707 5.30423 11.5333 4.78126 12.8497 4.78126V4.78128Z" fill="black"/>
</svg>
