<svg width="24" height="24" viewBox="0 0 24 24" fill="none" xmlns="http://www.w3.org/2000/svg">
<path fill-rule="evenodd" clip-rule="evenodd" d="M2.02344 5.45352C2.02344 4.98407 2.404 4.60352 2.87344 4.60352H21.1234C21.5929 4.60352 21.9734 4.98407 21.9734 5.45352V18.5473C21.9734 19.0167 21.5929 19.3973 21.1234 19.3973H2.87344C2.40399 19.3973 2.02344 19.0167 2.02344 18.5473V5.45352ZM18.1982 15.0004C18.1982 15.4422 17.84 15.8004 17.3982 15.8004C16.9564 15.8004 16.5982 15.4422 16.5982 15.0004H15.3982C15.3982 16.105 16.2936 17.0004 17.3982 17.0004C18.5028 17.0004 19.3982 16.105 19.3982 15.0004H18.1982ZM19.5685 7.80054V9.00054H4.42847V7.80054H19.5685ZM19.5685 10.2004H4.42847V11.4004H19.5685V10.2004Z" fill="black"/>
</svg>
