<svg width="24" height="24" viewBox="0 0 24 24" fill="none" xmlns="http://www.w3.org/2000/svg">
<path fill-rule="evenodd" clip-rule="evenodd" d="M11.5479 2.68584C11.8236 2.51357 12.1733 2.51357 12.4489 2.68584L20.0049 7.40832L19.6897 7.59741L11.9984 12.4044L4.33804 7.61662L4.02925 7.38502L11.5479 2.68584ZM3.39844 8.41192V15.9733C3.39844 16.2663 3.54941 16.5387 3.79794 16.6941L11.3984 21.4444V13.4445L3.68043 8.62071C3.66603 8.61171 3.65201 8.6021 3.63843 8.59191L3.39844 8.41192ZM12.5984 21.4444L20.1989 16.6941C20.4475 16.5387 20.5984 16.2663 20.5984 15.9733V8.45162L20.3118 8.62359L12.5984 13.4445V21.4444Z" fill="black"/>
</svg>
