<svg width="24" height="24" viewBox="0 0 24 24" fill="none" xmlns="http://www.w3.org/2000/svg">
<path d="M18.2484 13.6873C16.3983 13.6873 14.8984 15.1871 14.8984 17.0373C14.8984 18.8874 16.3983 20.3873 18.2484 20.3873C20.0986 20.3873 21.5984 18.8874 21.5984 17.0373C21.5984 15.1871 20.0986 13.6873 18.2484 13.6873Z" fill="black"/>
<path d="M5.74844 13.6873C3.89828 13.6873 2.39844 15.1871 2.39844 17.0373C2.39844 18.8874 3.89828 20.3873 5.74844 20.3873C7.59859 20.3873 9.09844 18.8874 9.09844 17.0373C9.09844 15.1871 7.59859 13.6873 5.74844 13.6873Z" fill="black"/>
<path d="M16.2484 3.61328C14.8125 3.61328 13.6484 4.77734 13.6484 6.21328C13.6484 7.64922 14.8125 8.81328 16.2484 8.81328C17.6844 8.81328 18.8484 7.64922 18.8484 6.21328C18.8484 4.77734 17.6844 3.61328 16.2484 3.61328Z" fill="black"/>
<path d="M13.7358 8.66636C13.7253 8.5318 13.6696 8.39997 13.5683 8.29553C13.3376 8.05767 12.9577 8.05189 12.7198 8.28261L8.08068 12.7826C7.84283 13.0133 7.83704 13.3932 8.06776 13.631C8.18544 13.7523 8.3419 13.8133 8.49854 13.8133C10.6505 13.8133 12.395 15.558 12.395 17.71H13.595C13.595 15.3467 11.9865 13.3591 9.80447 12.7823L12.7964 9.8801C13.4354 11.5442 15.1173 12.6557 16.9816 12.4926L16.877 11.2972C15.2833 11.4366 13.8781 10.2591 13.7358 8.66636Z" fill="black"/>
</svg>
