<svg width="24" height="24" viewBox="0 0 24 24" fill="none" xmlns="http://www.w3.org/2000/svg">
<path fill-rule="evenodd" clip-rule="evenodd" d="M11.9989 2.90039C9.94052 2.90039 8.05206 3.17763 6.65746 3.6425C5.9633 3.87389 5.35826 4.16265 4.91444 4.51242C4.47738 4.85687 4.11328 5.33103 4.11328 5.92898V5.96606C4.12254 5.98342 4.13771 6.00714 4.16219 6.03686C4.23416 6.1242 4.36343 6.23543 4.57072 6.36025C4.9854 6.60995 5.6106 6.85403 6.39693 7.06709C7.9616 7.49103 10.0332 7.75752 11.9989 7.75752C13.9647 7.75752 16.0363 7.49103 17.6009 7.06709C18.3873 6.85403 19.0125 6.60995 19.4271 6.36025C19.6344 6.23543 19.7637 6.12421 19.8357 6.03686C19.8601 6.00714 19.8753 5.98342 19.8846 5.96606V5.92898C19.8846 5.33103 19.5205 4.85687 19.0834 4.51242C18.6396 4.16265 18.0346 3.87389 17.3404 3.6425C15.9458 3.17763 14.0574 2.90039 11.9989 2.90039ZM19.8846 7.48105C19.3538 7.7721 18.6713 8.02035 17.9148 8.22533C16.2354 8.68036 14.057 8.95752 11.9989 8.95752C9.94092 8.95752 7.76252 8.68036 6.08311 8.22533C5.32659 8.02035 4.6441 7.7721 4.11328 7.48105V12.0376C4.12254 12.055 4.13771 12.0787 4.16219 12.1084C4.23416 12.1957 4.36343 12.307 4.57072 12.4318C4.9854 12.6815 5.6106 12.9256 6.39693 13.1386C7.9616 13.5626 10.0332 13.8291 11.9989 13.8291C13.9647 13.8291 16.0363 13.5626 17.6009 13.1386C18.3873 12.9256 19.0125 12.6815 19.4271 12.4318C19.6344 12.307 19.7637 12.1957 19.8357 12.1084C19.8601 12.0787 19.8753 12.055 19.8846 12.0376V7.48105ZM4.11328 18.0718V13.5526C4.6441 13.8436 5.32659 14.0919 6.08311 14.2969C7.76252 14.7519 9.94092 15.0291 11.9989 15.0291C14.057 15.0291 16.2354 14.7519 17.9148 14.2969C18.6713 14.0919 19.3538 13.8436 19.8846 13.5526V18.0718C19.8846 18.6698 19.5205 19.1439 19.0834 19.4884C18.6396 19.8382 18.0346 20.1269 17.3404 20.3583C15.9458 20.8232 14.0574 21.1004 11.9989 21.1004C9.94052 21.1004 8.05206 20.8232 6.65747 20.3583C5.9633 20.1269 5.35826 19.8382 4.91444 19.4884C4.47738 19.1439 4.11328 18.6698 4.11328 18.0718Z" fill="black"/>
</svg>
