<svg width="24" height="24" viewBox="0 0 24 24" fill="none" xmlns="http://www.w3.org/2000/svg">
<path fill-rule="evenodd" clip-rule="evenodd" d="M9.05312 5.40039C8.82769 5.40039 8.61149 5.48995 8.45208 5.64935L2.70208 11.3993C2.37014 11.7313 2.37014 12.2695 2.70208 12.6014L8.45209 18.3514C8.61149 18.5108 8.82769 18.6004 9.05313 18.6004H20.6996C21.169 18.6004 21.5496 18.2198 21.5496 17.7504V6.25039C21.5496 5.78095 21.169 5.40039 20.6996 5.40039H9.05312ZM13.101 12.0005L10.5253 9.4247L11.3738 8.57617L13.9496 11.152L16.5253 8.57628L17.3738 9.4248L14.7981 12.0005L17.3738 14.5762L16.5253 15.4247L13.9496 12.849L11.3738 15.4248L10.5253 14.5763L13.101 12.0005Z" fill="black"/>
</svg>
