<svg width="24" height="24" viewBox="0 0 24 24" fill="none" xmlns="http://www.w3.org/2000/svg">
<path fill-rule="evenodd" clip-rule="evenodd" d="M2.02344 12.0004C2.02344 6.49135 6.4894 2.02539 11.9984 2.02539C17.5075 2.02539 21.9734 6.49135 21.9734 12.0004C21.9734 17.5094 17.5075 21.9754 11.9984 21.9754C6.4894 21.9754 2.02344 17.5094 2.02344 12.0004ZM9.22344 12.0004C9.22344 10.4678 10.4658 9.22539 11.9984 9.22539C13.531 9.22539 14.7734 10.4678 14.7734 12.0004C14.7734 13.533 13.531 14.7754 11.9984 14.7754C10.4658 14.7754 9.22344 13.533 9.22344 12.0004ZM11.9984 8.02539C9.80311 8.02539 8.02344 9.80506 8.02344 12.0004C8.02344 14.1957 9.80311 15.9754 11.9984 15.9754C14.1938 15.9754 15.9734 14.1957 15.9734 12.0004C15.9734 9.80506 14.1938 8.02539 11.9984 8.02539Z" fill="black"/>
</svg>
