<svg width="24" height="24" viewBox="0 0 24 24" fill="none" xmlns="http://www.w3.org/2000/svg">
<path fill-rule="evenodd" clip-rule="evenodd" d="M12.0001 3.52539C13.5741 3.52539 14.8501 4.80138 14.8501 6.37539C14.8501 7.9494 13.5741 9.22539 12.0001 9.22539C10.4261 9.22539 9.1501 7.9494 9.1501 6.37539C9.1501 4.80138 10.4261 3.52539 12.0001 3.52539ZM12.0001 14.7754C13.5741 14.7754 14.8501 16.0514 14.8501 17.6254C14.8501 19.1994 13.5741 20.4754 12.0001 20.4754C10.4261 20.4754 9.1501 19.1994 9.1501 17.6254C9.1501 16.0514 10.4261 14.7754 12.0001 14.7754ZM21 11.4004H3V12.6004H21V11.4004Z" fill="black"/>
</svg>
