<svg width="24" height="24" viewBox="0 0 24 24" fill="none" xmlns="http://www.w3.org/2000/svg">
<path fill-rule="evenodd" clip-rule="evenodd" d="M11.3992 14.5509L8.18056 11.3326L7.3322 12.1813L11.3981 16.2468C11.7301 16.5788 12.2682 16.5788 12.6002 16.2468L16.6659 12.1812L15.8173 11.3327L12.5992 14.5508L12.5989 2L11.3989 2.00002L11.3992 14.5509ZM5.79358 5.79475C4.56638 7.02196 3.73064 8.58552 3.39205 10.2877C3.05347 11.9899 3.22724 13.7542 3.8914 15.3577C4.55556 16.9611 5.68027 18.3316 7.12331 19.2958C8.56635 20.26 10.2629 20.7746 11.9984 20.7746C13.734 20.7746 15.4305 20.26 16.8736 19.2958C18.3166 18.3316 19.4413 16.9611 20.1055 15.3577C20.7696 13.7542 20.9434 11.9899 20.6048 10.2877C20.2662 8.58552 19.4305 7.02196 18.2033 5.79476L19.0518 4.94623C20.4469 6.34126 21.3969 8.11863 21.7818 10.0536C22.1667 11.9886 21.9691 13.9942 21.2141 15.8169C20.4592 17.6396 19.1806 19.1975 17.5403 20.2935C15.8999 21.3896 13.9713 21.9746 11.9984 21.9746C10.0256 21.9746 8.09701 21.3896 6.45663 20.2935C4.81625 19.1975 3.53773 17.6396 2.78274 15.8169C2.02776 13.9942 1.83022 11.9886 2.21511 10.0536C2.6 8.11863 3.55003 6.34125 4.94505 4.94623L5.79358 5.79475Z" fill="black"/>
</svg>
