<svg width="24" height="24" viewBox="0 0 24 24" fill="none" xmlns="http://www.w3.org/2000/svg">
<path fill-rule="evenodd" clip-rule="evenodd" d="M11.4709 19.0735L8.91793 16.5206C8.8203 16.423 8.66201 16.423 8.56438 16.5206L8.06941 17.0156C7.97178 17.1132 7.97178 17.2715 8.06942 17.3691L11.5653 20.865C11.8457 21.1453 12.3002 21.1453 12.5805 20.865L16.0769 17.3686C16.1745 17.271 16.1745 17.1127 16.0769 17.0151L15.5819 16.5201C15.4843 16.4225 15.326 16.4225 15.2284 16.5201L12.6709 19.0775L12.6714 12.7739C12.6714 12.6358 12.5595 12.5239 12.4215 12.5239L11.7215 12.5238C11.5834 12.5238 11.4714 12.6357 11.4714 12.7738L11.4709 19.0735Z" fill="black"/>
<path d="M7.03465 7.92816C7.03465 5.16432 9.2753 2.92383 12.0392 2.92383C14.8031 2.92383 17.0438 5.16432 17.0438 7.92816V9.05895C19.5424 9.06443 21.5663 11.0915 21.5663 13.5914C21.5663 15.6972 20.1307 17.4661 18.1858 17.9759L18.1484 17.9857L17.072 18.1239H17.0109C17.49 17.5542 17.4616 16.7027 16.9254 16.1665L16.4304 15.6715C15.8642 15.1053 14.9461 15.1052 14.3798 15.6715L13.8711 16.1802L13.8714 12.7739C13.8715 11.9731 13.2223 11.3239 12.4215 11.3238L11.7215 11.3237C10.9207 11.3237 10.2715 11.9728 10.2714 12.7736L10.2711 16.1767L9.7664 15.672C9.20013 15.1058 8.28204 15.1058 7.71579 15.672L7.22082 16.167C6.68483 16.703 6.6562 17.5542 7.13491 18.1239H7.00008L5.92887 18.0038L5.89184 17.9948C3.90743 17.5122 2.43359 15.7243 2.43359 13.5906C2.43359 11.0874 4.46296 9.05814 6.96623 9.05814H7.03465V7.92816Z" fill="black"/>
</svg>
