<svg width="24" height="24" viewBox="0 0 24 24" fill="none" xmlns="http://www.w3.org/2000/svg">
<path fill-rule="evenodd" clip-rule="evenodd" d="M14.863 7.7114L15.7115 6.86287L12.6015 3.75287C12.2696 3.42092 11.7314 3.42092 11.3994 3.75287L8.28897 6.86331L9.1375 7.71184L12.0005 4.84888L14.863 7.7114ZM14.863 16.2902L15.7115 17.1387L12.6015 20.2488C12.2696 20.5807 11.7314 20.5807 11.3994 20.2488L8.28897 17.1383L9.1375 16.2898L12.0005 19.1527L14.863 16.2902ZM6.86287 8.28987L7.7114 9.1384L4.84888 12.0009L7.71184 14.8639L6.86331 15.7124L3.75287 12.602C3.42092 12.27 3.42092 11.7318 3.75287 11.3999L6.86287 8.28987ZM16.2902 9.1384L17.1387 8.28987L20.2488 11.3999C20.5807 11.7318 20.5807 12.27 20.2488 12.602L17.1383 15.7124L16.2898 14.8639L19.1527 12.0009L16.2902 9.1384ZM12.0008 10.0008C10.8962 10.0008 10.0008 10.8962 10.0008 12.0008C10.0008 13.1054 10.8962 14.0008 12.0008 14.0008C13.1054 14.0008 14.0008 13.1054 14.0008 12.0008C14.0008 10.8962 13.1054 10.0008 12.0008 10.0008Z" fill="black"/>
</svg>
