<svg width="24" height="24" viewBox="0 0 24 24" fill="none" xmlns="http://www.w3.org/2000/svg">
<path fill-rule="evenodd" clip-rule="evenodd" d="M19.7852 20.1994H4.78516V18.9994H19.7852V20.1994Z" fill="black"/>
<path fill-rule="evenodd" clip-rule="evenodd" d="M15.1429 5.94118L14.3386 5.13693C15.2071 4.29714 16.592 4.30601 17.4495 5.16356C18.3071 6.02115 18.3159 7.40608 17.476 8.27454L16.6708 7.46935L15.598 8.54215L16.4034 9.34756L8.24555 17.5054C8.10115 17.6498 7.9069 17.7334 7.70277 17.7389L5.6377 17.7947C5.18016 17.8071 4.80597 17.4329 4.81834 16.9754L4.87415 14.9103C4.87967 14.7062 4.96322 14.5119 5.10762 14.3675L13.2656 6.2095L14.0701 7.01398L15.1429 5.94118Z" fill="black"/>
</svg>
