<svg width="24" height="24" viewBox="0 0 24 24" fill="none" xmlns="http://www.w3.org/2000/svg">
<path fill-rule="evenodd" clip-rule="evenodd" d="M11.9984 4.60039C7.91153 4.60039 4.59844 7.91348 4.59844 12.0004C4.59844 16.0873 7.91153 19.4004 11.9984 19.4004C16.0853 19.4004 19.3984 16.0873 19.3984 12.0004H20.5984C20.5984 16.75 16.7481 20.6004 11.9984 20.6004C7.24879 20.6004 3.39844 16.75 3.39844 12.0004C3.39844 7.25074 7.24879 3.40039 11.9984 3.40039V4.60039ZM19.3982 5.44993L19.3984 9.60059L20.5984 9.60035L20.5981 4.25043C20.5981 3.78099 20.2176 3.40043 19.7481 3.40044L14.3984 3.40044L14.3984 4.60043L18.5506 4.60044L11.5745 11.5762L12.423 12.4248L19.3982 5.44993Z" fill="black"/>
</svg>
