<svg width="24" height="24" viewBox="0 0 24 24" fill="none" xmlns="http://www.w3.org/2000/svg">
<path d="M4.63051 7.74197C3.05488 9.468 2.07753 11.7496 2.02652 14.2587C2.02518 14.325 2.02447 14.3915 2.02443 14.4581L2.01953 14.4617C2.06241 14.5199 2.10578 14.5777 2.14965 14.6351C4.41226 17.5963 7.98246 19.5085 11.999 19.5085C13.3258 19.5085 14.6039 19.2998 15.8022 18.9137L11.9628 15.0742C10.2937 15.0547 8.94434 13.7053 8.92478 12.0362L4.63051 7.74197Z" fill="black"/>
<path d="M8.30693 5.19586L19.8305 16.7194C20.582 16.1057 21.26 15.4055 21.8492 14.6341C21.8928 14.577 21.9359 14.5196 21.9786 14.4617L21.9744 14.4587C21.9744 14.3915 21.9737 14.3245 21.9723 14.2576C21.8617 8.84424 17.4391 4.49013 11.9994 4.49013C10.695 4.49013 9.44898 4.74052 8.30693 5.19586Z" fill="black"/>
<path d="M3.0896 3.93837L3.93813 3.08984L20.9087 20.0604L20.0602 20.9089L3.0896 3.93837Z" fill="black"/>
</svg>
