<svg width="24" height="24" viewBox="0 0 24 24" fill="none" xmlns="http://www.w3.org/2000/svg">
<path fill-rule="evenodd" clip-rule="evenodd" d="M21.9744 14.4588C21.9744 14.3916 21.9737 14.3246 21.9723 14.2577C21.8617 8.84434 17.4391 4.49023 11.9994 4.49023C6.55939 4.49023 2.13658 8.8449 2.02652 14.2588C2.02518 14.3251 2.02447 14.3916 2.02443 14.4582L2.01953 14.4618C2.06241 14.52 2.10578 14.5778 2.14965 14.6352C4.41226 17.5964 7.98246 19.5086 11.999 19.5086C16.0161 19.5086 19.5867 17.596 21.8492 14.6342C21.8928 14.5771 21.9359 14.5197 21.9786 14.4618L21.9744 14.4588ZM11.9996 15.0746C13.6978 15.0746 15.0746 13.6978 15.0746 11.9996C15.0746 10.3013 13.6978 8.92456 11.9996 8.92456C10.3013 8.92456 8.92456 10.3013 8.92456 11.9996C8.92456 13.6978 10.3013 15.0746 11.9996 15.0746Z" fill="black"/>
</svg>
