<svg width="24" height="24" viewBox="0 0 24 24" fill="none" xmlns="http://www.w3.org/2000/svg">
<path fill-rule="evenodd" clip-rule="evenodd" d="M9.50095 3.64935C9.66036 3.48994 9.87656 3.40039 10.102 3.40039H18.7484C19.2179 3.40039 19.5984 3.78095 19.5984 4.25039V19.7504C19.5984 20.2198 19.2179 20.6004 18.7484 20.6004H5.24844C4.77899 20.6004 4.39844 20.2198 4.39844 19.7504V9.10394C4.39844 8.87851 4.48799 8.66231 4.6474 8.5029L9.50095 3.64935ZM12.5984 13.5511L14.3907 11.7588L15.2392 12.6074L12.5989 15.2477C12.267 15.5796 11.7288 15.5796 11.3968 15.2477L8.75614 12.607L9.60467 11.7585L11.3984 13.5522L11.398 9.00039L12.598 9.00029L12.5984 13.5511Z" fill="black"/>
</svg>
