<svg width="24" height="24" viewBox="0 0 24 24" fill="none" xmlns="http://www.w3.org/2000/svg">
<path fill-rule="evenodd" clip-rule="evenodd" d="M2.55859 3.37464C2.55859 2.92287 2.92482 2.55664 3.37659 2.55664H20.6266C21.0784 2.55664 21.4446 2.92287 21.4446 3.37464V20.6246C21.4446 21.0764 21.0784 21.4426 20.6266 21.4426H3.37659C2.92483 21.4426 2.55859 21.0764 2.55859 20.6246V3.37464ZM3.69459 8.09966V11.3997H6.40161V8.09966H3.69459ZM3.69459 12.5997H6.40161V15.3997H3.69459V12.5997ZM3.69459 16.5997H6.40161V20.3066H3.69459V16.5997ZM3.69459 3.69264H6.40161V6.89966H3.69459V3.69264ZM20.3086 20.3066H17.6016V16.5997H20.3086V20.3066ZM20.3086 15.3997H17.6016V12.5997H20.3086V15.3997ZM20.3086 11.3997H17.6016V8.09966H20.3086V11.3997ZM20.3086 6.89966H17.6016V3.69264H20.3086V6.89966ZM6.40405 12.5997L17.5994 12.5997V11.3997L6.40405 11.3997V12.5997Z" fill="black"/>
</svg>
