<svg width="24" height="24" viewBox="0 0 24 24" fill="none" xmlns="http://www.w3.org/2000/svg">
<path fill-rule="evenodd" clip-rule="evenodd" d="M19.4742 7.4004C18.7674 6.25235 17.7995 5.27261 16.6353 4.54867C14.7433 3.37217 12.4747 2.95938 10.2896 3.39403C8.10446 3.82868 6.16648 5.07822 4.86876 6.88918C3.95286 8.16733 3.40428 9.65759 3.26301 11.2004H2.05859C2.20286 9.4077 2.83055 7.67333 3.89335 6.19021C5.36853 4.13159 7.57153 2.71117 10.0555 2.21709C12.5394 1.723 15.1183 2.19224 17.269 3.52963C18.412 4.24043 19.3886 5.16817 20.1512 6.24871V4.0004H21.3512V7.6879C21.3512 8.19186 20.9427 8.6004 20.4387 8.6004H16.7512V7.4004H19.4742ZM2.05861 12.8004C2.07209 12.9678 2.08981 13.1352 2.11183 13.3024C2.4424 15.8134 3.71569 18.1045 5.67342 19.7112C7.63114 21.3179 10.1267 22.1197 12.6539 21.9541C15.1811 21.7884 17.5506 20.6677 19.2819 18.8193C20.83 17.1664 21.7641 15.0422 21.9444 12.8004H20.74C20.5627 14.737 19.7457 16.5686 18.406 17.9989C16.8831 19.625 14.7986 20.6109 12.5754 20.7566C10.3522 20.9023 8.1569 20.197 6.43469 18.7836C4.71248 17.3702 3.59236 15.3547 3.30156 13.1458C3.28641 13.0307 3.27358 12.9156 3.26303 12.8004H2.05861ZM8.82634 8.64884L8.82634 15.352H10.0263V8.64884H8.82634ZM12.4267 9.8503V14.1503H13.9767V9.8503H12.4267ZM11.2267 9.5003C11.2267 9.03086 11.6073 8.6503 12.0767 8.6503H14.3267C14.7962 8.6503 15.1767 9.03086 15.1767 9.5003V14.5003C15.1767 14.9697 14.7962 15.3503 14.3267 15.3503H12.0767C11.6073 15.3503 11.2267 14.9697 11.2267 14.5003V9.5003Z" fill="black"/>
</svg>
