<svg width="24" height="24" viewBox="0 0 24 24" fill="none" xmlns="http://www.w3.org/2000/svg">
<path fill-rule="evenodd" clip-rule="evenodd" d="M16.6353 4.54867C17.7995 5.27261 18.7674 6.25235 19.4742 7.4004H16.7512V8.6004H20.4387C20.9427 8.6004 21.3512 8.19186 21.3512 7.6879V4.0004H20.1512V6.24871C19.3886 5.16817 18.412 4.24043 17.269 3.52963C15.1183 2.19224 12.5394 1.723 10.0555 2.21709C7.57153 2.71117 5.36853 4.13159 3.89335 6.19021C2.83055 7.67333 2.20286 9.4077 2.05859 11.2004H3.26301C3.40428 9.65759 3.95286 8.16733 4.86876 6.88918C6.16648 5.07822 8.10446 3.82868 10.2896 3.39403C12.4747 2.95938 14.7433 3.37217 16.6353 4.54867ZM2.11183 13.3024C2.08981 13.1352 2.07209 12.9678 2.05861 12.8004H3.26303C3.27358 12.9156 3.28641 13.0307 3.30156 13.1458C3.59236 15.3547 4.71248 17.3702 6.43469 18.7836C8.1569 20.197 10.3522 20.9023 12.5754 20.7566C14.7986 20.6109 16.8831 19.625 18.406 17.9989C19.7457 16.5686 20.5627 14.737 20.74 12.8004H21.9444C21.7641 15.0422 20.83 17.1664 19.2819 18.8193C17.5506 20.6677 15.1811 21.7884 12.6539 21.9541C10.1267 22.1197 7.63114 21.3179 5.67342 19.7112C3.71569 18.1045 2.4424 15.8134 2.11183 13.3024ZM14.7517 9.8503H10.31V11.4003H14.1525C14.5617 11.4003 14.8934 11.732 14.8934 12.1411V14.6095C14.8934 15.0186 14.5617 15.3503 14.1525 15.3503H9.2517V14.1503H13.6934V12.6003H9.85088C9.44172 12.6003 9.11004 12.2686 9.11004 11.8595V9.39115C9.11004 8.98199 9.44172 8.6503 9.85088 8.6503H14.7517V9.8503Z" fill="black"/>
</svg>
