<svg width="24" height="24" viewBox="0 0 24 24" fill="none" xmlns="http://www.w3.org/2000/svg">
<path fill-rule="evenodd" clip-rule="evenodd" d="M9.40082 2.85C9.40082 2.38056 9.78138 2 10.2508 2H13.7508C14.2203 2 14.6008 2.38056 14.6008 2.85L14.6008 4.52089C15.5563 4.853 16.428 5.36273 17.1767 6.01012L18.6259 5.1734C19.0325 4.93868 19.5523 5.07798 19.787 5.48452L21.537 8.51561C21.7718 8.92216 21.6325 9.44202 21.2259 9.67673L19.7776 10.5129C19.8693 10.9951 19.9172 11.4923 19.9172 12.0003C19.9172 12.5083 19.8693 13.0056 19.7776 13.4878L21.2252 14.3236C21.6317 14.5583 21.771 15.0781 21.5363 15.4847L19.7863 18.5158C19.5516 18.9223 19.0317 19.0616 18.6252 18.8269L17.1766 17.9905C16.428 18.6379 15.5563 19.1476 14.6008 19.4796L14.6008 21.1505C14.6008 21.6199 14.2203 22.0005 13.7508 22.0005H10.2508C9.78138 22.0005 9.40082 21.6199 9.40082 21.1505L9.40082 19.4796C8.44562 19.1476 7.57409 18.6381 6.82561 17.991L5.37745 18.8271C4.9709 19.0618 4.45105 18.9225 4.21632 18.5159L2.46633 15.4849L2.77745 14.3237L4.22419 13.4885L9.40082 4.52089M9.40082 4.52089L9.40082 2.85ZM9.40082 4.52089C8.44544 4.85296 7.57378 5.36262 6.8252 6.00992L5.3767 5.17363C4.97015 4.93891 4.4503 5.0782 4.21558 5.48475L2.46558 8.51584C2.23086 8.92239 2.37016 9.44224 2.7767 9.67696L4.22409 10.5126C4.19856 10.6468 4.17641 10.7823 4.15775 10.9188C4.10937 11.2726 4.08442 11.6337 4.08442 12.0003C4.08442 12.3668 4.10937 12.7279 4.15775 13.0818C4.17644 13.2185 4.19861 13.3541 4.22419 13.4885L2.77745 14.3237C2.3709 14.5585 2.2316 15.0783 2.46633 15.4849L2.77745 14.3237L4.22419 13.4885M12.0015 8.33024C9.9746 8.33024 8.33149 9.97335 8.33149 12.0002C8.33149 14.0271 9.9746 15.6702 12.0015 15.6702C14.0284 15.6702 15.6715 14.0271 15.6715 12.0002C15.6715 9.97335 14.0284 8.33024 12.0015 8.33024Z" fill="black"/>
</svg>
