<svg width="24" height="24" viewBox="0 0 24 24" fill="none" xmlns="http://www.w3.org/2000/svg">
<path fill-rule="evenodd" clip-rule="evenodd" d="M9.74087 2.65039C8.16241 2.65039 6.88281 3.92999 6.88281 5.50845C6.88281 6.40618 7.29671 7.20723 7.94409 7.7312H4.90078C4.43134 7.7312 4.05078 8.11176 4.05078 8.5812V12.221C4.05078 12.6904 4.43134 13.071 4.90078 13.071H11.3984L11.3984 7.71924H11.5523C11.7178 7.58349 11.8678 7.42952 11.9992 7.2604C12.1306 7.42952 12.2805 7.58349 12.446 7.71924H12.5984L12.5984 13.071H19.097C19.5664 13.071 19.947 12.6904 19.947 12.221V8.5812C19.947 8.11176 19.5664 7.7312 19.097 7.7312H16.0543C16.7016 7.20723 17.1155 6.40618 17.1155 5.50845C17.1155 3.92999 15.8359 2.65039 14.2575 2.65039C13.3392 2.65039 12.5221 3.08346 11.9992 3.7565C11.4763 3.08346 10.6592 2.65039 9.74087 2.65039ZM4.87988 15.0004C4.87988 14.5309 5.26044 14.1504 5.72988 14.1504H11.3984L11.3984 21.3504H5.72988C5.26044 21.3504 4.87988 20.9698 4.87988 20.5004V15.0004ZM12.5984 21.3504L12.5984 14.1504H18.2702C18.7396 14.1504 19.1202 14.5309 19.1202 15.0004V20.5004C19.1202 20.9698 18.7396 21.3504 18.2702 21.3504H12.5984Z" fill="black"/>
</svg>
