<svg width="24" height="24" viewBox="0 0 24 24" fill="none" xmlns="http://www.w3.org/2000/svg">
<path d="M6.1981 5.2207C4.39336 5.2207 2.93032 6.68374 2.93032 8.48848C2.93032 10.2932 4.39336 11.7563 6.1981 11.7563C6.94566 11.7563 7.63459 11.5052 8.18519 11.0829C8.06372 10.6913 7.99829 10.275 7.99829 9.84346C7.99829 8.74754 8.42022 7.75018 9.1105 7.00495C8.56995 5.94589 7.46871 5.2207 6.1981 5.2207Z" fill="black"/>
<path d="M6.55532 12.6685C7.67959 12.6685 8.69909 13.1148 9.44695 13.8391C8.18278 14.6027 7.2796 15.9037 7.05376 17.4255H3.24827C2.79007 17.4255 2.37284 17.0455 2.40837 16.5339C2.55837 14.3738 4.35743 12.6685 6.55532 12.6685Z" fill="black"/>
<path d="M14.7873 6.58128C15.7428 7.34699 16.3546 8.52377 16.3546 9.84346C16.3546 10.4092 16.2422 10.9487 16.0384 11.4408C16.4635 11.643 16.9391 11.7563 17.4411 11.7563C19.2459 11.7563 20.7089 10.2932 20.7089 8.48848C20.7089 6.68374 19.2459 5.2207 17.4411 5.2207C16.3482 5.2207 15.3806 5.75724 14.7873 6.58128Z" fill="black"/>
<path d="M17.441 12.6685C16.3628 12.6685 15.381 13.0789 14.6427 13.7514C15.9857 14.5006 16.9522 15.8437 17.187 17.4255H20.748C21.2062 17.4255 21.6235 17.0455 21.5879 16.5339C21.4379 14.3738 19.6389 12.6685 17.441 12.6685Z" fill="black"/>
<path d="M12.1754 14.0225C9.97755 14.0225 8.17849 15.7278 8.02848 17.8879C7.99296 18.3995 8.41019 18.7795 8.86839 18.7795H15.4825C15.9407 18.7795 16.3579 18.3995 16.3224 17.8879C16.1724 15.7278 14.3733 14.0225 12.1754 14.0225Z" fill="black"/>
<path d="M12.1748 6.57568C10.37 6.57568 8.90698 8.03872 8.90698 9.84346C8.90698 11.6482 10.37 13.1112 12.1748 13.1112C13.9795 13.1112 15.4425 11.6482 15.4425 9.84346C15.4425 8.03872 13.9795 6.57568 12.1748 6.57568Z" fill="black"/>
</svg>
