<svg width="24" height="24" viewBox="0 0 24 24" fill="none" xmlns="http://www.w3.org/2000/svg">
<path fill-rule="evenodd" clip-rule="evenodd" d="M4.39844 4.25039C4.39844 3.78095 4.77899 3.40039 5.24844 3.40039H18.7484C19.2179 3.40039 19.5984 3.78095 19.5984 4.25039V13.4004H4.39844V4.25039ZM4.39844 14.6004V19.7504C4.39844 20.2198 4.779 20.6004 5.24844 20.6004H18.7484C19.2179 20.6004 19.5984 20.2198 19.5984 19.7504V14.6004H4.39844ZM11.601 16.6004C11.3801 16.6004 11.201 16.7795 11.201 17.0004C11.201 17.2213 11.3801 17.4004 11.601 17.4004C11.8219 17.4004 12.001 17.2213 12.001 17.0004C12.001 16.7795 11.8219 16.6004 11.601 16.6004ZM10.001 17.0004C10.001 16.1167 10.7173 15.4004 11.601 15.4004C12.4846 15.4004 13.201 16.1167 13.201 17.0004C13.201 17.884 12.4846 18.6004 11.601 18.6004C10.7173 18.6004 10.001 17.884 10.001 17.0004ZM15.3992 17.0004C15.3992 16.7795 15.5783 16.6004 15.7992 16.6004C16.0201 16.6004 16.1992 16.7795 16.1992 17.0004C16.1992 17.2213 16.0201 17.4004 15.7992 17.4004C15.5783 17.4004 15.3992 17.2213 15.3992 17.0004ZM15.7992 15.4004C14.9156 15.4004 14.1992 16.1167 14.1992 17.0004C14.1992 17.884 14.9156 18.6004 15.7992 18.6004C16.6829 18.6004 17.3992 17.884 17.3992 17.0004C17.3992 16.1167 16.6829 15.4004 15.7992 15.4004Z" fill="black"/>
</svg>
