<svg width="24" height="24" viewBox="0 0 24 24" fill="none" xmlns="http://www.w3.org/2000/svg">
<path d="M4.94498 5.63255C6.81567 3.76187 9.35288 2.71094 11.9984 2.71094C14.644 2.71094 17.1812 3.76187 19.0519 5.63255C20.9226 7.50322 21.9734 10.0257 21.9734 12.6712V17.9408C21.9734 19.791 20.4736 21.2908 18.6234 21.2908H18.0234V14.5908H18.6234C19.4418 14.5908 20.1916 14.8843 20.7734 15.3717V12.6712C20.7734 10.344 19.849 8.12671 18.2034 6.48108C16.5577 4.83544 14.3257 3.91094 11.9984 3.91094C9.67114 3.91094 7.43916 4.83544 5.79352 6.48107C4.14787 8.12671 3.22345 10.344 3.22345 12.6712V15.3717C3.80526 14.8843 4.5551 14.5908 5.37347 14.5908H5.97348V21.2908H5.37347C3.5233 21.2908 2.02344 19.791 2.02344 17.9408V12.6712C2.02344 10.0257 3.07429 7.50322 4.94498 5.63255Z" fill="black"/>
<path fill-rule="evenodd" clip-rule="evenodd" d="M6.97854 21.2902L6.97854 14.591H8.17854V21.2902H6.97854Z" fill="black"/>
<path fill-rule="evenodd" clip-rule="evenodd" d="M16.0285 21.2902V14.591H17.2285L17.2285 21.2902H16.0285Z" fill="black"/>
</svg>
