<svg width="24" height="24" viewBox="0 0 24 24" fill="none" xmlns="http://www.w3.org/2000/svg">
<path fill-rule="evenodd" clip-rule="evenodd" d="M7.36769 4.54867C6.2035 5.27261 5.23557 6.25235 4.52882 7.4004H7.25148V8.6004H3.50148C3.03204 8.6004 2.65148 8.21984 2.65148 7.7504V4.0004H3.85148V6.24906C4.61413 5.16837 5.59082 4.24051 6.734 3.52963C8.88469 2.19224 11.4636 1.723 13.9475 2.21709C16.4314 2.71117 18.6344 4.13159 20.1096 6.19021C21.1724 7.67333 21.8001 9.4077 21.9444 11.2004H20.74C20.5987 9.65759 20.0501 8.16733 19.1342 6.88918C17.8365 5.07822 15.8985 3.82868 13.7134 3.39403C11.5283 2.95938 9.25964 3.37217 7.36769 4.54867ZM20.7399 12.8004H21.9444C21.9309 12.9678 21.9132 13.1352 21.8911 13.3024C21.5606 15.8134 20.2873 18.1045 18.3296 19.7112C16.3718 21.3179 13.8763 22.1197 11.3491 21.9541C8.82191 21.7884 6.45235 20.6677 4.72109 18.8193C3.17298 17.1664 2.2389 15.0422 2.05859 12.8004H3.26301C3.44025 14.737 4.25722 16.5686 5.59692 17.9989C7.11992 19.625 9.20441 20.6109 11.4276 20.7566C13.6507 20.9023 15.8461 20.197 17.5683 18.7836C19.2905 17.3702 20.4106 15.3547 20.7014 13.1458C20.7166 13.0307 20.7294 12.9156 20.7399 12.8004ZM11.4015 6.0004V11.8968C11.4015 12.1223 11.491 12.3385 11.6504 12.4979L15.5772 16.4247L16.4257 15.5761L12.6015 11.7519V6.0004H11.4015Z" fill="black"/>
</svg>
