<svg width="24" height="24" viewBox="0 0 24 24" fill="none" xmlns="http://www.w3.org/2000/svg">
<path fill-rule="evenodd" clip-rule="evenodd" d="M12.5658 2.42505C12.2433 2.13695 11.7558 2.13697 11.4333 2.42509L3.28372 9.70544C3.1032 9.8667 2.99999 10.0973 3 10.3394L3.00038 20.9402C3.00039 21.4096 3.38095 21.7902 3.85038 21.7902H8.77046C9.2399 21.7902 9.62046 21.4096 9.62046 20.9402V13.8902H14.3977L14.3893 16.188L14.3893 16.1902V18.9902L14.3799 20.9361C14.3777 21.4071 14.7589 21.7902 15.2299 21.7902H20.1504C20.6198 21.7902 21.0004 21.4096 21.0004 20.9402V10.3394C21.0004 10.0973 20.8972 9.86668 20.7166 9.70541L12.5658 2.42505Z" fill="black"/>
</svg>
