<svg width="24" height="24" viewBox="0 0 24 24" fill="none" xmlns="http://www.w3.org/2000/svg">
<path fill-rule="evenodd" clip-rule="evenodd" d="M2.87344 3.40039C2.404 3.40039 2.02344 3.78095 2.02344 4.25039V19.7504C2.02344 20.2198 2.40399 20.6004 2.87344 20.6004H21.1234C21.5929 20.6004 21.9734 20.2198 21.9734 19.7504V4.25039C21.9734 3.78095 21.5929 3.40039 21.1234 3.40039H2.87344ZM10.5831 14.2627C9.51349 13.6997 8.19218 14.0201 7.4991 15.0103L5.51535 17.8446L4.53223 17.1565L6.51598 14.3222C7.55559 12.8369 9.53757 12.3564 11.142 13.2007L18.3032 16.9696L17.7444 18.0315L10.5831 14.2627ZM17.4237 9.60039C17.4237 10.8154 16.4387 11.8004 15.2237 11.8004C14.0087 11.8004 13.0237 10.8154 13.0237 9.60039C13.0237 8.38536 14.0087 7.40039 15.2237 7.40039C16.4387 7.40039 17.4237 8.38536 17.4237 9.60039Z" fill="black"/>
</svg>
