<svg width="24" height="24" viewBox="0 0 24 24" fill="none" xmlns="http://www.w3.org/2000/svg">
<path fill-rule="evenodd" clip-rule="evenodd" d="M2.52344 4.75039C2.52344 4.28095 2.904 3.90039 3.37344 3.90039H20.6234C21.0929 3.90039 21.4734 4.28095 21.4734 4.75039V11.3756H20.2787V5.85059C20.2787 5.43638 19.9429 5.10059 19.5287 5.10059H4.47873C4.06452 5.10059 3.72873 5.43637 3.72873 5.85059V11.3756H2.52344V4.75039ZM2.52344 12.9756V19.2504C2.52344 19.7198 2.904 20.1004 3.37344 20.1004H20.6234C21.0929 20.1004 21.4734 19.7198 21.4734 19.2504V12.9756L20.2787 12.9756L15.9689 12.9756C15.8672 15.0804 14.1285 16.7556 11.9986 16.7556C9.8686 16.7556 8.12993 15.0804 8.02825 12.9756L3.72873 12.9756L2.52344 12.9756Z" fill="black"/>
</svg>
