<svg width="24" height="24" viewBox="0 0 24 24" fill="none" xmlns="http://www.w3.org/2000/svg">
<path fill-rule="evenodd" clip-rule="evenodd" d="M12.3479 3.79362C12.1261 3.69379 11.8721 3.6938 11.6503 3.79362L3.77854 7.33592C3.10026 7.64114 3.11343 8.60875 3.79977 8.89539L11.6715 12.183C11.8812 12.2706 12.1171 12.2706 12.3267 12.183L20.1985 8.89539C20.8848 8.60875 20.898 7.64114 20.2197 7.33592L12.3479 3.79362Z" fill="black"/>
<path fill-rule="evenodd" clip-rule="evenodd" d="M11.9991 14.5437L3.71733 11.3106L3.28096 12.4285L11.6844 15.709C11.8868 15.788 12.1115 15.788 12.3139 15.709L20.7173 12.4285L20.281 11.3106L11.9991 14.5437Z" fill="black"/>
<path fill-rule="evenodd" clip-rule="evenodd" d="M11.9991 18.0618L3.71733 14.8288L3.28096 15.9467L11.6844 19.2272C11.8868 19.3062 12.1115 19.3062 12.3139 19.2272L20.7173 15.9467L20.281 14.8288L11.9991 18.0618Z" fill="black"/>
</svg>
