<svg width="24" height="24" viewBox="0 0 24 24" fill="none" xmlns="http://www.w3.org/2000/svg">
<path fill-rule="evenodd" clip-rule="evenodd" d="M9.59844 20.6004H14.3984V15.282L9.59844 15.282V20.6004ZM9.59844 14.082V9.60039L14.3984 9.60039V14.082H9.59844ZM15.5984 15.282V20.6004H20.7484C21.2179 20.6004 21.5984 20.2198 21.5984 19.7504V15.282H15.5984ZM21.5984 14.082L15.5984 14.082V9.60039L21.5984 9.60039V14.082ZM8.39844 14.082L2.39844 14.082V9.60039L8.39844 9.60039V14.082ZM2.39844 15.282H8.39844V20.6004H3.24844C2.779 20.6004 2.39844 20.2198 2.39844 19.7504V15.282ZM9.59844 8.40039L14.3984 8.40039V3.40039H9.59844V8.40039ZM15.5984 8.40039L21.5984 8.40039V4.25039C21.5984 3.78095 21.2179 3.40039 20.7484 3.40039H15.5984V8.40039ZM8.39844 3.40039V8.40039L2.39844 8.40039V4.25039C2.39844 3.78095 2.779 3.40039 3.24844 3.40039H8.39844Z" fill="black"/>
</svg>
