<svg width="24" height="24" viewBox="0 0 24 24" fill="none" xmlns="http://www.w3.org/2000/svg">
<path fill-rule="evenodd" clip-rule="evenodd" d="M5.382 4.53543C7.1427 2.97371 9.45982 2.02539 11.9984 2.02539C14.4651 2.02539 16.7226 2.92072 18.4638 4.40412L14.1866 8.68129C13.5591 8.2667 12.807 8.02535 11.9985 8.02535C11.1173 8.02535 10.303 8.3121 9.64397 8.79739L5.382 4.53543ZM4.53348 5.38396C2.97176 7.14466 2.02344 9.46178 2.02344 12.0004C2.02344 14.467 2.91876 16.7246 4.40215 18.4658L8.67943 14.1885C8.26485 13.5609 8.0235 12.8088 8.0235 12.0003C8.0235 11.1192 8.31022 10.305 8.79546 9.64594L4.53348 5.38396ZM5.23376 19.3312C7.01164 20.9726 9.38793 21.9754 11.9984 21.9754C14.5371 21.9754 16.8543 21.027 18.615 19.4653L14.353 15.2033C13.694 15.6886 12.8797 15.9753 11.9985 15.9753C11.045 15.9753 10.1699 15.6396 9.48501 15.08L5.23376 19.3312ZM19.4635 18.6167C21.0252 16.856 21.9734 14.539 21.9734 12.0004C21.9734 9.38989 20.9706 7.01361 19.3293 5.23573L15.0781 9.48688C15.6378 10.1718 15.9735 11.0469 15.9735 12.0003C15.9735 12.8815 15.6868 13.6957 15.2015 14.3548L19.4635 18.6167ZM9.2235 12.0003C9.2235 10.4678 10.4659 9.22535 11.9985 9.22535C13.5311 9.22535 14.7735 10.4678 14.7735 12.0003C14.7735 13.5329 13.5311 14.7753 11.9985 14.7753C10.4659 14.7753 9.2235 13.5329 9.2235 12.0003Z" fill="black"/>
</svg>
