<svg width="24" height="24" viewBox="0 0 24 24" fill="none" xmlns="http://www.w3.org/2000/svg">
<path fill-rule="evenodd" clip-rule="evenodd" d="M12.0548 2.95692C12.5124 2.32834 13.5071 2.65208 13.5071 3.42963V9.21502C13.5071 9.5628 13.6387 9.88774 13.8752 10.1241C14.1163 10.3653 14.4433 10.5007 14.7843 10.5007H18.0417C18.6982 10.5007 19.0773 11.2457 18.691 11.7764L11.9456 21.043C11.488 21.6717 10.4932 21.348 10.4932 20.5704L10.4932 14.7851C10.4932 14.4388 10.3607 14.1134 10.1233 13.876C9.8822 13.6349 9.55517 13.4994 9.21419 13.4994H5.95686C5.30031 13.4994 4.92118 12.7544 5.30763 12.2236M5.30763 12.2236L12.0548 2.95692Z" fill="black"/>
</svg>
