<svg width="24" height="24" viewBox="0 0 24 24" fill="none" xmlns="http://www.w3.org/2000/svg">
<path fill-rule="evenodd" clip-rule="evenodd" d="M5.15679 6.30078L5.15679 8.90078H5.75679L5.75679 6.30078H5.15679ZM19.8318 7.00073L8.66184 7.00073V8.20073L19.8318 8.20073V7.00073ZM19.8318 11.4006L8.66184 11.4006V12.6006H19.8318V11.4006ZM8.66184 15.8008H19.8318V17.0008H8.66184V15.8008ZM6.14371 11.3007H4.27192V10.7007H6.19371C6.49746 10.7007 6.74371 10.9469 6.74371 11.2507V11.7507C6.74371 12.0544 6.49746 12.3007 6.19371 12.3007H4.77187V12.7007H6.64198V13.3007H4.72187C4.41812 13.3007 4.17188 13.0544 4.17188 12.7507V12.2507C4.17188 11.9469 4.41812 11.7007 4.72187 11.7007H6.14371V11.3007ZM4.27192 15.7008H6.14371V16.1008H4.27192V16.7008H6.14371V17.1008H4.27189V17.7008H6.19371C6.49746 17.7008 6.74371 17.4546 6.74371 17.1508V15.6508C6.74371 15.3471 6.49746 15.1008 6.19371 15.1008H4.27192V15.7008Z" fill="black"/>
</svg>
