<svg width="24" height="24" viewBox="0 0 24 24" fill="none" xmlns="http://www.w3.org/2000/svg">
<path fill-rule="evenodd" clip-rule="evenodd" d="M8.81564 6.99998L19.9856 6.99998L19.9856 8.19998L8.81564 8.19998V6.99998Z" fill="black"/>
<path fill-rule="evenodd" clip-rule="evenodd" d="M8.81564 11.4L19.9856 11.4L19.9856 12.6H8.81564V11.4Z" fill="black"/>
<path fill-rule="evenodd" clip-rule="evenodd" d="M8.81564 15.8H19.9856L19.9856 17H8.81564V15.8Z" fill="black"/>
<path d="M7.21172 7.6C7.21172 6.71634 6.49537 6 5.61172 6C4.72806 6 4.01172 6.71634 4.01172 7.6C4.01172 8.48366 4.72806 9.2 5.61172 9.2C6.49537 9.2 7.21172 8.48366 7.21172 7.6Z" fill="black"/>
<path d="M7.21172 11.9999C7.21172 11.1162 6.49537 10.3999 5.61172 10.3999C4.72806 10.3999 4.01172 11.1162 4.01172 11.9999C4.01172 12.8836 4.72806 13.5999 5.61172 13.5999C6.49537 13.5999 7.21172 12.8836 7.21172 11.9999Z" fill="black"/>
<path d="M7.21172 16.4C7.21172 15.5164 6.49537 14.8 5.61172 14.8C4.72806 14.8 4.01172 15.5164 4.01172 16.4C4.01172 17.2837 4.72806 18 5.61172 18C6.49537 18 7.21172 17.2837 7.21172 16.4Z" fill="black"/>
</svg>
