<svg width="24" height="24" viewBox="0 0 24 24" fill="none" xmlns="http://www.w3.org/2000/svg">
<path fill-rule="evenodd" clip-rule="evenodd" d="M8.74575 3.34731C9.60841 2.48464 10.7784 2 11.9984 2C13.2184 2 14.3885 2.48464 15.2511 3.34731C16.1138 4.20998 16.5984 5.38 16.5984 6.6V7.60002H15.3984V6.6C15.3984 5.69826 15.0402 4.83346 14.4026 4.19584C13.765 3.55821 12.9002 3.2 11.9984 3.2C11.0967 3.2 10.2319 3.55821 9.59427 4.19584C8.95665 4.83346 8.59844 5.69826 8.59844 6.6V7.60002H7.39844V6.6C7.39844 5.38 7.88308 4.20998 8.74575 3.34731ZM4.24844 9.19995C3.77899 9.19995 3.39844 9.58051 3.39844 10.05V21.15C3.39844 21.6194 3.779 22 4.24844 22H19.7484C20.2179 22 20.5984 21.6194 20.5984 21.15V10.05C20.5984 9.58051 20.2179 9.19995 19.7484 9.19995H4.24844ZM10.4316 15.6C10.4316 14.7321 11.1352 14.0286 12.0031 14.0286C12.8709 14.0286 13.5745 14.7321 13.5745 15.6C13.5745 16.4679 12.8709 17.1714 12.0031 17.1714C11.1352 17.1714 10.4316 16.4679 10.4316 15.6Z" fill="black"/>
</svg>
