<svg width="24" height="24" viewBox="0 0 24 24" fill="none" xmlns="http://www.w3.org/2000/svg">
<path fill-rule="evenodd" clip-rule="evenodd" d="M11.9985 2C10.7785 2 9.60852 2.48464 8.74585 3.34731L9.59438 4.19584C10.232 3.55821 11.0968 3.2 11.9985 3.2C12.9003 3.2 13.7651 3.55821 14.4027 4.19584C15.0403 4.83346 15.3985 5.69826 15.3985 6.6V7.60002H16.5985V6.6C16.5985 5.38 16.1139 4.20998 15.2512 3.34731C14.3886 2.48464 13.2185 2 11.9985 2ZM3.39844 10.05C3.39844 9.58051 3.77899 9.19995 4.24844 9.19995H19.7484C20.2179 9.19995 20.5984 9.58051 20.5984 10.05V21.15C20.5984 21.6194 20.2179 22 19.7484 22H4.24844C3.779 22 3.39844 21.6194 3.39844 21.15V10.05ZM10.4314 15.6C10.4314 14.7321 11.1349 14.0286 12.0028 14.0286C12.8707 14.0286 13.5743 14.7321 13.5743 15.6C13.5743 16.4679 12.8707 17.1714 12.0028 17.1714C11.1349 17.1714 10.4314 16.4679 10.4314 15.6Z" fill="black"/>
</svg>
