<svg width="24" height="24" viewBox="0 0 24 24" fill="none" xmlns="http://www.w3.org/2000/svg">
<path fill-rule="evenodd" clip-rule="evenodd" d="M10.3131 3.394C12.0153 3.05542 13.7796 3.22919 15.3831 3.89335C16.9865 4.55751 18.3569 5.68222 19.3211 7.12526C20.2854 8.56831 20.8 10.2649 20.8 12.0004C20.8 13.7359 20.2854 15.4325 19.3211 16.8755C18.3569 18.3186 16.9865 19.4433 15.383 20.1074C13.7796 20.7716 12.0153 20.9454 10.3131 20.6068C8.61091 20.2682 7.04735 19.4325 5.82015 18.2052L4.97162 19.0538C6.36665 20.4488 8.14402 21.3988 10.079 21.7837C12.0139 22.1686 14.0196 21.9711 15.8423 21.2161C17.665 20.4611 19.2228 19.1826 20.3189 17.5422C21.415 15.9018 22 13.9733 22 12.0004C22 10.0275 21.415 8.09896 20.3189 6.45858C19.2228 4.8182 17.665 3.53968 15.8423 2.7847C14.0196 2.02971 12.0139 1.83217 10.079 2.21706C8.14402 2.60195 6.36665 3.55197 4.97162 4.947L5.82015 5.79553C7.04735 4.56833 8.61091 3.73259 10.3131 3.394ZM12.4306 12.6006L9.5355 15.496L10.3842 16.3443L14.167 12.5612C14.4989 12.2292 14.4989 11.691 14.167 11.3591L10.3841 7.57626L9.53561 8.42477L12.5114 11.4006L2 11.4006V12.6006H12.4306Z" fill="black"/>
</svg>
