<svg width="24" height="24" viewBox="0 0 24 24" fill="none" xmlns="http://www.w3.org/2000/svg">
<path fill-rule="evenodd" clip-rule="evenodd" d="M13.7103 3.394C12.0082 3.05542 10.2438 3.22919 8.64039 3.89335C7.03697 4.55751 5.6665 5.68222 4.70229 7.12526C3.73808 8.56831 3.22344 10.2649 3.22344 12.0004C3.22344 13.7359 3.73808 15.4325 4.70229 16.8755C5.6665 18.3186 7.03697 19.4433 8.64039 20.1074C10.2438 20.7716 12.0082 20.9454 13.7104 20.6068C15.4125 20.2682 16.9761 19.4325 18.2033 18.2052L19.0518 19.0538C17.6568 20.4488 15.8794 21.3988 13.9445 21.7837C12.0095 22.1686 10.0039 21.9711 8.18117 21.2161C6.35848 20.4611 4.80059 19.1826 3.70453 17.5422C2.60846 15.9018 2.02344 13.9733 2.02344 12.0004C2.02344 10.0275 2.60846 8.09896 3.70453 6.45858C4.80059 4.8182 6.35847 3.53968 8.18117 2.7847C10.0039 2.02971 12.0095 1.83217 13.9445 2.21706C15.8794 2.60195 17.6568 3.55197 19.0518 4.947L18.2033 5.79553C16.9761 4.56833 15.4125 3.73259 13.7103 3.394ZM18.0729 16.3443L17.2242 15.496L20.1193 12.6006L10.9985 12.6006L10.9985 11.4006L20.2001 11.4006L17.2243 8.42477L18.0729 7.57626L21.8557 11.3591C22.1876 11.691 22.1876 12.2292 21.8557 12.5612L18.0729 16.3443Z" fill="black"/>
</svg>
