<svg width="24" height="24" viewBox="0 0 24 24" fill="none" xmlns="http://www.w3.org/2000/svg">
<path fill-rule="evenodd" clip-rule="evenodd" d="M9.39527 3.77811C9.13212 3.6441 8.81828 3.65627 8.5663 3.81026L3.8052 6.71982C3.55254 6.87422 3.39844 7.14899 3.39844 7.44511V19.3078C3.39844 19.9685 4.11921 20.3766 4.68576 20.0367L8.39844 17.8091V6.7493H9.59844V17.7202L14.6074 20.2246C14.8673 20.3546 15.1756 20.3428 15.4248 20.1932L20.1858 17.3367C20.4418 17.1831 20.5984 16.9064 20.5984 16.6078V4.69511C20.5984 4.03132 19.8716 3.62368 19.3052 3.96982L15.5984 6.23506V17.2493H14.3984V6.32602L9.39527 3.77811Z" fill="black"/>
</svg>
