<svg width="24" height="24" viewBox="0 0 24 24" fill="none" xmlns="http://www.w3.org/2000/svg">
<path fill-rule="evenodd" clip-rule="evenodd" d="M3.39844 8.10039V6.50039C3.39844 4.78831 4.78636 3.40039 6.49844 3.40039H8.09844V4.60039L6.49844 4.60039C5.4491 4.60039 4.59844 5.45105 4.59844 6.50039L4.59844 8.10039H3.39844ZM20.5986 6.50039V8.10039H19.3986V6.50039C19.3986 5.45105 18.548 4.60039 17.4986 4.60039L15.8986 4.60039V3.40039H17.4986C19.2107 3.40039 20.5986 4.78831 20.5986 6.50039ZM20.5986 17.5002V15.9002H19.3986V17.5002C19.3986 18.5495 18.548 19.4002 17.4986 19.4002H15.8986V20.6002H17.4986C19.2107 20.6002 20.5986 19.2123 20.5986 17.5002ZM3.39844 17.5002V15.9002H4.59844L4.59844 17.5002C4.59844 18.5495 5.4491 19.4002 6.49844 19.4002H8.09844V20.6002H6.49844C4.78636 20.6002 3.39844 19.2123 3.39844 17.5002Z" fill="black"/>
</svg>
