<svg width="24" height="24" viewBox="0 0 24 24" fill="none" xmlns="http://www.w3.org/2000/svg">
<path d="M3.08838 3.93945L3.93691 3.09092L20.9075 20.0615L20.0589 20.91L3.08838 3.93945Z" fill="black"/>
<path d="M6.81387 9.36196V12.2072C6.81387 13.5821 7.36005 14.9007 8.33226 15.8729C9.30447 16.8451 10.6231 17.3913 11.998 17.3913C12.8052 17.3913 13.593 17.203 14.3027 16.8508L6.81387 9.36196Z" fill="black"/>
<path d="M16.7736 19.3217C15.3718 20.2625 13.7117 20.7755 11.9987 20.7755C9.72627 20.7755 7.5469 19.8728 5.94005 18.2659C4.33319 16.6591 3.43047 14.4797 3.43047 12.2073L2.23047 12.2073C2.23047 14.798 3.25962 17.2825 5.09152 19.1144C6.92342 20.9463 9.40801 21.9755 11.9987 21.9755C14.0312 21.9755 15.9984 21.342 17.6364 20.1845L16.7736 19.3217Z" fill="black"/>
<path d="M18.5772 19.4282L17.7276 18.5786C17.84 18.4776 17.95 18.3733 18.0574 18.2659C18.2341 18.0892 18.4023 17.9056 18.5617 17.7157L19.413 18.567C19.2516 18.7552 19.0825 18.9379 18.9059 19.1144C18.7985 19.2218 18.6889 19.3264 18.5772 19.4282Z" fill="black"/>
<path d="M20.1433 17.6002C21.1944 16.0128 21.7669 14.1395 21.7669 12.2073H20.5669C20.5669 13.8193 20.1126 15.3846 19.2749 16.7318L20.1433 17.6002Z" fill="black"/>
<path d="M16.7717 14.2287C17.04 13.5951 17.1821 12.9085 17.1821 12.2072V7.20951C17.1821 5.83459 16.6359 4.51599 15.6637 3.54378C14.6915 2.57157 13.3729 2.02539 11.998 2.02539C10.6231 2.02539 9.30447 2.57157 8.33226 3.54378C7.94756 3.92849 7.62956 4.36743 7.38571 4.84264L16.7717 14.2287Z" fill="black"/>
<path d="M6.81387 7.66491V7.20951C6.81387 6.83006 6.85547 6.4549 6.93614 6.09012L16.1532 15.3071C16.0047 15.5061 15.8413 15.6953 15.6637 15.8729C15.5562 15.9804 15.4444 16.0828 15.3287 16.1797L6.81387 7.66491Z" fill="black"/>
</svg>
