<svg width="24" height="24" viewBox="0 0 24 24" fill="none" xmlns="http://www.w3.org/2000/svg">
<path fill-rule="evenodd" clip-rule="evenodd" d="M11.9985 2.02539C10.6236 2.02539 9.30498 2.57157 8.33277 3.54378C7.36056 4.51599 6.81438 5.83459 6.81438 7.20951V12.2072C6.81438 13.5821 7.36056 14.9007 8.33277 15.8729C9.30498 16.8451 10.6236 17.3913 11.9985 17.3913C13.3734 17.3913 14.692 16.8451 15.6642 15.8729C16.6364 14.9007 17.1826 13.5821 17.1826 12.2072V7.20951C17.1826 5.83459 16.6364 4.51599 15.6642 3.54378C14.692 2.57157 13.3734 2.02539 11.9985 2.02539Z" fill="black"/>
<path fill-rule="evenodd" clip-rule="evenodd" d="M5.09152 19.1144C6.92342 20.9463 9.40801 21.9755 11.9987 21.9755C14.5894 21.9755 17.074 20.9463 18.9059 19.1144C20.7378 17.2825 21.7669 14.798 21.7669 12.2073H20.5669C20.5669 14.4797 19.6642 16.6591 18.0574 18.2659C16.4505 19.8728 14.2711 20.7755 11.9987 20.7755C9.72627 20.7755 7.5469 19.8728 5.94005 18.2659C4.33319 16.6591 3.43047 14.4797 3.43047 12.2073L2.23047 12.2073C2.23047 14.798 3.25962 17.2825 5.09152 19.1144Z" fill="black"/>
</svg>
