<svg width="24" height="24" viewBox="0 0 24 24" fill="none" xmlns="http://www.w3.org/2000/svg">
<path fill-rule="evenodd" clip-rule="evenodd" d="M10.6492 7.54922V5.94922H9.44922V7.54922C9.44922 8.59856 8.59856 9.44922 7.54922 9.44922H5.94922V10.6492H7.54922C9.2613 10.6492 10.6492 9.2613 10.6492 7.54922ZM10.6492 16.4493V18.0493H9.44922V16.4493C9.44922 15.4 8.59856 14.5493 7.54922 14.5493H5.94922V13.3493H7.54922C9.2613 13.3493 10.6492 14.7372 10.6492 16.4493ZM13.3489 18.0493V16.4493C13.3489 14.7372 14.7368 13.3493 16.4489 13.3493H18.0489V14.5493H16.4489C15.3996 14.5493 14.5489 15.4 14.5489 16.4493V18.0493H13.3489ZM13.3489 7.54922V5.94922H14.5489V7.54922C14.5489 8.59856 15.3996 9.44922 16.4489 9.44922H18.0489V10.6492H16.4489C14.7368 10.6492 13.3489 9.2613 13.3489 7.54922Z" fill="black"/>
</svg>
