<svg width="24" height="24" viewBox="0 0 24 24" fill="none" xmlns="http://www.w3.org/2000/svg">
<path fill-rule="evenodd" clip-rule="evenodd" d="M11.1538 4.18912C11.3446 3.89299 11.3191 3.54337 11.1629 3.29011C11.0029 3.03052 10.6825 2.84114 10.3078 2.91429C6.08528 3.73867 2.89844 7.45723 2.89844 11.9214C2.89844 16.99 7.00731 21.0989 12.0759 21.0989C16.5399 21.0989 20.2583 17.9123 21.0829 13.69C21.1561 13.3154 20.9667 12.995 20.7071 12.8349C20.4539 12.6788 20.1042 12.6532 19.8081 12.844C18.8322 13.4726 17.6706 13.8375 16.422 13.8375C12.9637 13.8375 10.1601 11.0339 10.1601 7.57553C10.1601 6.32679 10.525 5.16511 11.1538 4.18912Z" fill="black"/>
</svg>
