<svg width="24" height="24" viewBox="0 0 24 24" fill="none" xmlns="http://www.w3.org/2000/svg">
<path fill-rule="evenodd" clip-rule="evenodd" d="M14.9759 4.1375H9.62095V17.2655C9.62095 19.3635 7.92019 21.0642 5.82219 21.0642C3.7242 21.0642 2.02344 19.3635 2.02344 17.2655C2.02344 15.1675 3.7242 13.4667 5.82219 13.4667C6.82744 13.4667 7.74149 13.8572 8.42095 14.4947V3.7875C8.42095 3.31806 8.80151 2.9375 9.27095 2.9375H14.9759V4.1375ZM21.1235 2.9375H14.976V4.1375H20.7735V14.4947C20.094 13.8572 19.18 13.4667 18.1747 13.4667C16.0767 13.4667 14.376 15.1675 14.376 17.2655C14.376 19.3635 16.0767 21.0642 18.1747 21.0642C20.2727 21.0642 21.9735 19.3635 21.9735 17.2655V3.7875C21.9735 3.31806 21.5929 2.9375 21.1235 2.9375Z" fill="black"/>
</svg>
