<svg width="24" height="24" viewBox="0 0 24 24" fill="none" xmlns="http://www.w3.org/2000/svg">
<path fill-rule="evenodd" clip-rule="evenodd" d="M12.4489 2.68584C12.1733 2.51357 11.8236 2.51357 11.5479 2.68584L9.04182 4.25217L16.9772 9.26605C16.9843 9.27048 16.9913 9.27499 16.9982 9.27957L19.6897 7.59741L20.0049 7.40832L12.4489 2.68584ZM14.8723 10.6082L6.93035 5.57183L4.02925 7.38502L4.33804 7.61662L11.9984 12.4044L14.8723 10.6082ZM3.39844 15.9733V8.41192L3.63843 8.59191C3.65201 8.6021 3.66603 8.61171 3.68043 8.62071L11.3984 13.4445V21.4444L3.79794 16.6941C3.54941 16.5387 3.39844 16.2663 3.39844 15.9733ZM20.1989 16.6941L12.5984 21.4444V13.4445L20.3118 8.62359L20.5984 8.45162V15.9733C20.5984 16.2663 20.4475 16.5387 20.1989 16.6941Z" fill="black"/>
</svg>
