<svg width="24" height="24" viewBox="0 0 24 24" fill="none" xmlns="http://www.w3.org/2000/svg">
<path fill-rule="evenodd" clip-rule="evenodd" d="M6.24844 5.40039C5.779 5.40039 5.39844 5.78095 5.39844 6.25039V17.7504C5.39844 18.2198 5.779 18.6004 6.24844 18.6004H9.74844C10.2179 18.6004 10.5984 18.2198 10.5984 17.7504V6.25039C10.5984 5.78095 10.2179 5.40039 9.74844 5.40039H6.24844ZM14.2484 5.40039C13.779 5.40039 13.3984 5.78095 13.3984 6.25039V17.7504C13.3984 18.2198 13.779 18.6004 14.2484 18.6004H17.7484C18.2179 18.6004 18.5984 18.2198 18.5984 17.7504V6.25039C18.5984 5.78095 18.2179 5.40039 17.7484 5.40039H14.2484Z" fill="black"/>
</svg>
