<svg width="24" height="24" viewBox="0 0 24 24" fill="none" xmlns="http://www.w3.org/2000/svg">
<path fill-rule="evenodd" clip-rule="evenodd" d="M12.9461 10.0831C12.2735 9.41044 11.2581 9.28948 10.4622 9.7202L5.06036 4.31836L16.7795 7.76516C17.0989 7.8591 17.334 8.13084 17.3811 8.46041L17.8958 12.063L11.9559 18.0028L8.3534 17.4881C8.02383 17.441 7.75208 17.2059 7.65815 16.8865L4.21094 5.16599L9.6136 10.5687C9.18266 11.3646 9.30356 12.3802 9.97628 13.0529C10.7964 13.873 12.126 13.873 12.9461 13.0529C13.7662 12.2328 13.7662 10.9032 12.9461 10.0831ZM12.0976 10.9316C11.7461 10.5801 11.1763 10.5801 10.8248 10.9316C10.4733 11.2831 10.4733 11.8529 10.8248 12.2044C11.1763 12.5559 11.7461 12.5559 12.0976 12.2044C12.4491 11.8529 12.4491 11.2831 12.0976 10.9316ZM14.3956 19.5938L13.2287 18.4269L18.32 13.3358L19.4868 14.5026C19.8187 14.8346 19.8187 15.3727 19.4868 15.7047L15.5977 19.5938C15.2657 19.9257 14.7275 19.9257 14.3956 19.5938Z" fill="black"/>
</svg>
