<svg width="24" height="24" viewBox="0 0 24 24" fill="none" xmlns="http://www.w3.org/2000/svg">
<path fill-rule="evenodd" clip-rule="evenodd" d="M7.49844 4.40039C9.21052 4.40039 10.5984 5.78831 10.5984 7.50039C10.5984 9.21247 9.21052 10.6004 7.49844 10.6004C5.78635 10.6004 4.39844 9.21247 4.39844 7.50039C4.39844 5.78831 5.78635 4.40039 7.49844 4.40039ZM18.5741 4.57617L4.57408 18.5762L5.42261 19.4247L19.4226 5.4247L18.5741 4.57617ZM19.5984 16.5004C19.5984 14.7883 18.2105 13.4004 16.4984 13.4004C14.7863 13.4004 13.3984 14.7883 13.3984 16.5004C13.3984 18.2125 14.7863 19.6004 16.4984 19.6004C18.2105 19.6004 19.5984 18.2125 19.5984 16.5004Z" fill="black"/>
</svg>
