<svg width="24" height="24" viewBox="0 0 24 24" fill="none" xmlns="http://www.w3.org/2000/svg">
<path fill-rule="evenodd" clip-rule="evenodd" d="M4.96113 5.41708C4.21567 6.16253 3.79688 7.17359 3.79688 8.22783C3.79688 9.28206 4.21567 10.2931 4.96113 11.0386L12.9161 18.9935C13.6615 19.739 14.6726 20.1578 15.7268 20.1578C16.7811 20.1578 17.7921 19.739 18.5376 18.9935L19.9518 17.5793C20.2837 17.2474 20.2837 16.7092 19.9518 16.3772L17.1234 13.5488C16.7914 13.2169 16.2532 13.2169 15.9213 13.5488L14.2242 15.2459L8.70879 9.73043L10.4058 8.03337C10.7378 7.70143 10.7378 7.16324 10.4058 6.83129L7.57742 4.00287C7.24548 3.67092 6.70729 3.67092 6.37534 4.00287L4.96113 5.41708Z" fill="black"/>
</svg>
