<svg width="24" height="24" viewBox="0 0 24 24" fill="none" xmlns="http://www.w3.org/2000/svg">
<path fill-rule="evenodd" clip-rule="evenodd" d="M9.79845 2.2688C5.3479 3.27061 2.02344 7.24727 2.02344 12.0004C2.02344 17.5094 6.4894 21.9754 11.9984 21.9754C16.7516 21.9754 20.7282 18.6509 21.73 14.2004C21.7278 14.2004 21.7256 14.2004 21.7234 14.2004H11.6484C10.6267 14.2004 9.79844 13.3721 9.79844 12.3504V2.27539C9.79844 2.27319 9.79844 2.27099 9.79845 2.2688Z" fill="black"/>
<path d="M12.2484 12.6006H21.1234C21.5909 12.6006 21.9826 12.2178 21.9699 11.7342C21.8309 6.43667 17.5624 2.16817 12.2649 2.02911C11.7813 2.01642 11.3984 2.40818 11.3984 2.87562V11.7506C11.3984 12.2201 11.779 12.6006 12.2484 12.6006Z" fill="black"/>
</svg>
