<svg width="24" height="24" viewBox="0 0 24 24" fill="none" xmlns="http://www.w3.org/2000/svg">
<mask id="mask0_493_44483" style="mask-type:alpha" maskUnits="userSpaceOnUse" x="2" y="2" width="20" height="20">
<path d="M2 4C2 2.89543 2.89543 2 4 2H20C21.1046 2 22 2.89543 22 4V20C22 21.1046 21.1046 22 20 22H4C2.89543 22 2 21.1046 2 20V4Z" fill="#D9D9D9"/>
</mask>
<g mask="url(#mask0_493_44483)">
<path fill-rule="evenodd" clip-rule="evenodd" d="M24.5609 5.38071C20.584 2.0437 14.6549 2.56243 11.3179 6.53933L10.3986 5.76798C14.1616 1.28339 20.8476 0.698441 25.3322 4.46146L24.5609 5.38071Z" fill="black"/>
<path fill-rule="evenodd" clip-rule="evenodd" d="M-3.4872 7.69264C0.489702 11.0297 6.41881 10.5109 9.75582 6.53403L10.6751 7.30537C6.91206 11.79 0.226047 12.3749 -4.25854 8.6119L-3.4872 7.69264Z" fill="black"/>
<path fill-rule="evenodd" clip-rule="evenodd" d="M-4.95131 2.22853C-0.974409 5.56555 4.95469 5.04682 8.29171 1.06992L9.21097 1.84126C5.44795 6.32585 -1.23806 6.9108 -5.72266 3.14778L-4.95131 2.22853Z" fill="black"/>
<path fill-rule="evenodd" clip-rule="evenodd" d="M27.4891 16.3089C23.5122 12.9719 17.5831 13.4906 14.2461 17.4676L13.3268 16.6962C17.0898 12.2116 23.7759 11.6267 28.2605 15.3897L27.4891 16.3089Z" fill="black"/>
<path fill-rule="evenodd" clip-rule="evenodd" d="M-0.558978 18.6209C3.41792 21.9579 9.34703 21.4392 12.684 17.4622L13.6033 18.2336C9.84028 22.7182 3.15427 23.3031 -1.33032 19.5401L-0.558978 18.6209Z" fill="black"/>
<path fill-rule="evenodd" clip-rule="evenodd" d="M28.9535 21.773C24.9766 18.436 19.0475 18.9548 15.7104 22.9317L14.7912 22.1603C18.5542 17.6757 25.2402 17.0908 29.7248 20.8538L28.9535 21.773Z" fill="black"/>
<path fill-rule="evenodd" clip-rule="evenodd" d="M26.025 10.8448C22.0481 7.50781 16.119 8.02654 12.782 12.0034L11.8627 11.2321C15.6257 6.7475 22.3117 6.16255 26.7963 9.92557L26.025 10.8448Z" fill="black"/>
<path fill-rule="evenodd" clip-rule="evenodd" d="M-2.02309 13.1568C1.95381 16.4938 7.88292 15.975 11.2199 11.9981L12.1392 12.7695C8.37617 17.2541 1.69016 17.839 -2.79443 14.076L-2.02309 13.1568Z" fill="black"/>
</g>
</svg>
