<svg width="24" height="24" viewBox="0 0 24 24" fill="none" xmlns="http://www.w3.org/2000/svg">
<path fill-rule="evenodd" clip-rule="evenodd" d="M11.9984 2.0293C11.3089 2.0293 10.6476 2.30322 10.16 2.79082C9.67237 3.27841 9.39844 3.93973 9.39844 4.6293V8.5293L3.73844 12.7743C3.5244 12.9348 3.39844 13.1868 3.39844 13.4543V15.4824C3.39844 16.0626 3.96683 16.4723 4.51723 16.2888L9.39844 14.6618V18.0293L7.73844 19.2743C7.5244 19.4348 7.39844 19.6868 7.39844 19.9543V21.0091C7.39844 21.5621 7.91812 21.9678 8.45459 21.8337L11.9984 20.9478L15.5423 21.8337C16.0788 21.9678 16.5984 21.5621 16.5984 21.0091V19.9543C16.5984 19.6868 16.4725 19.4348 16.2584 19.2743L14.5984 18.0293V14.6618L19.4796 16.2888C20.03 16.4723 20.5984 16.0626 20.5984 15.4824V13.4543C20.5984 13.1868 20.4725 12.9348 20.2584 12.7743L14.5984 8.5293V4.6293C14.5984 3.93973 14.3245 3.27841 13.8369 2.79082C13.3493 2.30322 12.688 2.0293 11.9984 2.0293Z" fill="black"/>
</svg>
