<svg width="24" height="24" viewBox="0 0 24 24" fill="none" xmlns="http://www.w3.org/2000/svg">
<path fill-rule="evenodd" clip-rule="evenodd" d="M3.24844 7.44873C2.779 7.44873 2.39844 7.82929 2.39844 8.29873V17.7812C2.39844 18.2506 2.779 18.6312 3.24844 18.6312H6.39844V16.2987C6.39844 15.8293 6.779 15.4487 7.24844 15.4487H16.7484C17.2179 15.4487 17.5984 15.8293 17.5984 16.2987V18.6312H20.7484C21.2179 18.6312 21.5984 18.2506 21.5984 17.7812V8.29873C21.5984 7.82929 21.2179 7.44873 20.7484 7.44873H3.24844ZM17.1982 10.6464C17.6401 10.6464 17.9982 10.2883 17.9982 9.84643H19.1982C19.1982 10.951 18.3028 11.8464 17.1982 11.8464C16.0937 11.8464 15.1982 10.951 15.1982 9.84643H16.3982C16.3982 10.2883 16.7564 10.6464 17.1982 10.6464Z" fill="black"/>
<path d="M7.6001 16.8378C7.6001 16.7328 7.69856 16.6477 7.82002 16.6477H16.1771C16.2985 16.6477 16.397 16.7328 16.397 16.8378V20.2598C16.397 20.3648 16.2985 20.45 16.1771 20.45H7.82002C7.69856 20.45 7.6001 20.3648 7.6001 20.2598V16.8378Z" fill="black"/>
<path d="M16.7485 3.54883H7.24853C7.11046 3.54883 6.99853 3.66076 6.99853 3.79883V5.59883C6.99853 5.7369 7.11046 5.84883 7.24853 5.84883H16.7485C16.8866 5.84883 16.9985 5.7369 16.9985 5.59883V3.79883C16.9985 3.66076 16.8866 3.54883 16.7485 3.54883Z" fill="black"/>
</svg>
