<svg width="24" height="24" viewBox="0 0 24 24" fill="none" xmlns="http://www.w3.org/2000/svg">
<path fill-rule="evenodd" clip-rule="evenodd" d="M21.375 12C21.375 17.1777 17.1777 21.375 12 21.375C6.82233 21.375 2.625 17.1777 2.625 12C2.625 6.82233 6.82233 2.625 12 2.625C17.1777 2.625 21.375 6.82233 21.375 12ZM9.8572 6.6657C10.4425 6.3278 11.1064 6.1499 11.7822 6.1499C12.458 6.1499 13.1219 6.3278 13.7072 6.6657C14.2925 7.00361 14.7785 7.48963 15.1164 8.0749C15.4543 8.66018 15.6322 9.32409 15.6322 9.9999C15.6322 10.6757 15.4543 11.3396 15.1164 11.9249C14.7785 12.5102 14.2925 12.9962 13.7072 13.3341C13.1219 13.672 12.458 13.8499 11.7822 13.8499V12.6499C12.2474 12.6499 12.7043 12.5275 13.1072 12.2949C13.51 12.0623 13.8446 11.7278 14.0772 11.3249C14.3097 10.9221 14.4322 10.4651 14.4322 9.9999C14.4322 9.53473 14.3097 9.07775 14.0772 8.6749C13.8446 8.27205 13.51 7.93752 13.1072 7.70494C12.7043 7.47235 12.2474 7.3499 11.7822 7.3499C11.317 7.3499 10.86 7.47235 10.4572 7.70494C10.0543 7.93752 9.71981 8.27205 9.48723 8.6749L8.448 8.0749C8.78591 7.48963 9.27192 7.00361 9.8572 6.6657ZM12.7997 16.45C12.7997 16.0082 12.4415 15.65 11.9997 15.65C11.5579 15.65 11.1997 16.0082 11.1997 16.45C11.1997 16.8918 11.5579 17.25 11.9997 17.25C12.4415 17.25 12.7997 16.8918 12.7997 16.45Z" fill="black"/>
</svg>
