<svg width="24" height="24" viewBox="0 0 24 24" fill="none" xmlns="http://www.w3.org/2000/svg">
<path fill-rule="evenodd" clip-rule="evenodd" d="M18.4277 9.5946C19.0657 10.2327 19.4242 11.098 19.4242 12.0004C19.4242 12.9027 19.0657 13.7681 18.4277 14.4062C17.7896 15.0442 16.9242 15.4027 16.0219 15.4027V14.2027C16.606 14.2027 17.1661 13.9707 17.5791 13.5577C17.9922 13.1446 18.2242 12.5845 18.2242 12.0004C18.2242 11.4163 17.9922 10.8561 17.5791 10.4431C17.1661 10.0301 16.606 9.79808 16.0219 9.79808L16.0219 8.59808C16.9242 8.59808 17.7896 8.95654 18.4277 9.5946Z" fill="black"/>
<path fill-rule="evenodd" clip-rule="evenodd" d="M20.2446 7.77819C21.3644 8.89799 21.9935 10.4168 21.9935 12.0004C21.9935 13.584 21.3644 15.1028 20.2446 16.2226C19.1248 17.3424 17.6061 17.9715 16.0224 17.9715V16.7715C17.2878 16.7715 18.5013 16.2688 19.3961 15.3741C20.2909 14.4793 20.7935 13.2658 20.7935 12.0004C20.7935 10.735 20.2909 9.52147 19.3961 8.62672C18.5013 7.73196 17.2878 7.2293 16.0224 7.2293V6.0293C17.6061 6.0293 19.1248 6.65839 20.2446 7.77819Z" fill="black"/>
<path fill-rule="evenodd" clip-rule="evenodd" d="M5.59319 9.5946C4.95514 10.2327 4.59668 11.098 4.59668 12.0004C4.59668 12.9027 4.95514 13.7681 5.59319 14.4062C6.23125 15.0442 7.09664 15.4027 7.99899 15.4027L7.99899 14.2027C7.4149 14.2027 6.85474 13.9707 6.44172 13.5577C6.02871 13.1446 5.79668 12.5845 5.79668 12.0004C5.79668 11.4163 6.02871 10.8561 6.44172 10.4431C6.85474 10.0301 7.4149 9.79808 7.99899 9.79808V8.59808C7.09664 8.59808 6.23125 8.95654 5.59319 9.5946Z" fill="black"/>
<path fill-rule="evenodd" clip-rule="evenodd" d="M3.77624 7.77819C2.65644 8.89799 2.02734 10.4168 2.02734 12.0004C2.02734 13.584 2.65644 15.1028 3.77624 16.2226C4.89603 17.3424 6.41481 17.9715 7.99844 17.9715L7.99844 16.7715C6.73307 16.7715 5.51952 16.2688 4.62477 15.3741C3.73001 14.4793 3.22734 13.2658 3.22734 12.0004C3.22734 10.735 3.73001 9.52147 4.62477 8.62672C5.51952 7.73196 6.73307 7.2293 7.99844 7.2293L7.99844 6.0293C6.41481 6.0293 4.89603 6.65839 3.77624 7.77819Z" fill="black"/>
<path d="M11.9989 9.40029C10.563 9.40029 9.39889 10.5644 9.39889 12.0003C9.39889 13.4362 10.563 14.6003 11.9989 14.6003C13.4348 14.6003 14.5989 13.4362 14.5989 12.0003C14.5989 10.5644 13.4348 9.40029 11.9989 9.40029Z" fill="black"/>
</svg>
