<svg width="24" height="24" viewBox="0 0 24 24" fill="none" xmlns="http://www.w3.org/2000/svg">
<path fill-rule="evenodd" clip-rule="evenodd" d="M11.1998 2.06445C9.62745 2.19097 8.09397 2.68973 6.73216 3.53656C5.58888 4.24749 4.61211 5.17545 3.84944 6.25626V3.99968H2.64944V7.68718C2.64944 8.19114 3.05798 8.59968 3.56194 8.59968H7.24944V7.39968H4.53169C5.23803 6.25493 6.20425 5.27792 7.36584 4.5556C8.53603 3.82793 9.85031 3.39242 11.1998 3.26887V2.06445ZM11.1998 20.8884C10.8842 20.8607 10.5689 20.8158 10.2553 20.7534C8.07018 20.3188 6.13221 19.0692 4.83449 17.2583C3.53677 15.4473 2.97649 13.2105 3.26729 11.0017L2.07756 10.845C1.74698 13.356 2.38389 15.8986 3.85907 17.9572C5.33426 20.0159 7.53726 21.4363 10.0212 21.9304C10.4124 22.0082 10.8059 22.0621 11.1998 22.0925V20.8884ZM12.7998 22.0872V20.8825C14.1378 20.7549 15.4403 20.3206 16.601 19.5988C17.8147 18.844 18.8151 17.8113 19.5287 16.5996H16.8111V15.3996H20.4986C21.0026 15.3996 21.4111 15.8081 21.4111 16.3121V19.9996H20.2111V17.763C19.4354 18.9016 18.4254 19.8774 17.2347 20.6178C15.8823 21.4588 14.3607 21.9565 12.7998 22.0872ZM12.7998 3.26888V2.06447C13.1827 2.09529 13.5653 2.14836 13.9457 2.22402C16.4296 2.7181 18.6326 4.13852 20.1078 6.19713C21.583 8.25575 22.2199 10.7984 21.8893 13.3093L20.6996 13.1527C20.9904 10.9438 20.4301 8.70707 19.1324 6.89611C17.8346 5.08514 15.8967 3.83561 13.7116 3.40096C13.4088 3.34074 13.1045 3.29679 12.7998 3.26888Z" fill="black"/>
</svg>
