<svg width="24" height="24" viewBox="0 0 24 24" fill="none" xmlns="http://www.w3.org/2000/svg">
<path fill-rule="evenodd" clip-rule="evenodd" d="M5.76653 3.82389C6.32688 3.40363 7.12653 3.80345 7.12653 4.50389V9.2296C7.12653 9.92096 6.34507 10.3231 5.78248 9.92127L2.55517 7.61605C2.08733 7.28188 2.07928 6.58933 2.53922 6.24437L5.76653 3.82389ZM14.0485 6.34106H8.73054V7.54106H14.0485C16.2406 7.54106 18.0177 9.31814 18.0177 11.5103V12.3153H19.2177V11.5103C19.2177 8.6554 16.9033 6.34106 14.0485 6.34106ZM9.47924 17.8218L15.2708 17.8218V16.6218L9.47924 16.6218C7.28711 16.6218 5.51003 14.8447 5.51003 12.6526V11.6835L4.31003 11.6835V12.6526C4.31003 15.5074 6.62437 17.8218 9.47924 17.8218ZM18.2356 20.1761C17.6752 20.5964 16.8756 20.1966 16.8756 19.4961V14.7704C16.8756 14.079 17.657 13.6769 18.2196 14.0787L21.4469 16.384C21.9148 16.7181 21.9228 17.4107 21.4629 17.7556L18.2356 20.1761Z" fill="black"/>
</svg>
