<svg width="24" height="24" viewBox="0 0 24 24" fill="none" xmlns="http://www.w3.org/2000/svg">
<path fill-rule="evenodd" clip-rule="evenodd" d="M4.52882 7.4004C5.23557 6.25235 6.2035 5.27261 7.36769 4.54867C9.25964 3.37217 11.5283 2.95938 13.7134 3.39403C15.8985 3.82868 17.8365 5.07822 19.1342 6.88918C20.0501 8.16733 20.5987 9.65759 20.74 11.2004H21.9444C21.8001 9.4077 21.1724 7.67333 20.1096 6.19021C18.6344 4.13159 16.4314 2.71117 13.9475 2.21709C11.4636 1.723 8.88469 2.19224 6.734 3.52963C5.59082 4.24051 4.61413 5.16837 3.85148 6.24906V4.0004H2.65148V7.6879C2.65148 8.19186 3.06002 8.6004 3.56398 8.6004H7.25148V7.4004H4.52882ZM20.7014 13.1458C20.7166 13.0307 20.7294 12.9156 20.7399 12.8004H21.9444C21.9309 12.9678 21.9132 13.1352 21.8911 13.3024C21.5606 15.8134 20.2873 18.1045 18.3296 19.7112C16.3718 21.3179 13.8763 22.1197 11.3491 21.9541C8.82191 21.7884 6.45235 20.6677 4.72109 18.8193C3.17298 17.1664 2.2389 15.0422 2.05859 12.8004H3.26301C3.44025 14.737 4.25722 16.5686 5.59692 17.9989C7.11992 19.625 9.20441 20.6109 11.4276 20.7566C13.6507 20.9023 15.8461 20.197 17.5683 18.7836C19.2905 17.3702 20.4106 15.3547 20.7014 13.1458ZM8.90148 15.352L8.90148 8.64884H10.1015V15.352H8.90148ZM15.1515 9.8503H12.7267V11.4003H14.3767C14.8462 11.4003 15.2267 11.7809 15.2267 12.2503V14.5003C15.2267 14.9697 14.8462 15.3503 14.3767 15.3503H11.6015V14.1503H14.0267V12.6003H12.3767C11.9073 12.6003 11.5267 12.2197 11.5267 11.7503V9.5003C11.5267 9.03086 11.9073 8.6503 12.3767 8.6503H15.1515V9.8503Z" fill="black"/>
</svg>
