<svg width="24" height="24" viewBox="0 0 24 24" fill="none" xmlns="http://www.w3.org/2000/svg">
<path fill-rule="evenodd" clip-rule="evenodd" d="M4 8.40039C7.07651 8.40039 10.027 9.62253 12.2024 11.798C14.3779 13.9734 15.6 16.9239 15.6 20.0004H14.4C14.4 17.2421 13.3043 14.5969 11.3539 12.6465C9.40353 10.6961 6.75825 9.60039 4 9.60039L4 8.40039Z" fill="black"/>
<path fill-rule="evenodd" clip-rule="evenodd" d="M4 3.40039C8.40259 3.40039 12.6249 5.14931 15.738 8.26242C18.8511 11.3755 20.6 15.5978 20.6 20.0004H19.4C19.4 15.9161 17.7775 11.999 14.8894 9.11095C12.0014 6.22289 8.08433 4.60039 4 4.60039L4 3.40039Z" fill="black"/>
<path fill-rule="evenodd" clip-rule="evenodd" d="M6.85 14.3004C5.27599 14.3004 4 15.5764 4 17.1504C4 18.7245 5.27599 20.0004 6.85 20.0004C8.42401 20.0004 9.7 18.7245 9.7 17.1504C9.7 15.5764 8.42401 14.3004 6.85 14.3004Z" fill="black"/>
</svg>
