<svg width="24" height="24" viewBox="0 0 24 24" fill="none" xmlns="http://www.w3.org/2000/svg">
<path fill-rule="evenodd" clip-rule="evenodd" d="M14.3328 2.875C12.8969 2.875 11.7328 4.03906 11.7328 5.475C11.7328 6.91094 12.8969 8.075 14.3328 8.075C15.7688 8.075 16.9328 6.91094 16.9328 5.475C16.9328 4.03906 15.7688 2.875 14.3328 2.875Z" fill="black"/>
<path fill-rule="evenodd" clip-rule="evenodd" d="M8.62348 12.9653C9.12743 11.0845 10.9228 9.89465 12.7999 10.0941L12.123 12.4634L12.1196 12.4624L10.9804 16.4624C10.4625 18.2665 8.58042 19.3095 6.77608 18.7921L6.44531 19.9456C8.73041 20.6008 11.1077 19.4064 11.9772 17.2491C13.9318 17.4584 15.454 19.1131 15.454 21.1233H16.654C16.654 18.5733 14.7812 16.4606 12.336 16.0859L13.5406 11.8698C14.3273 13.2749 15.8303 14.2247 17.5551 14.2247V13.0247C15.6837 13.0247 14.1657 11.5118 14.1574 9.64233C14.1645 9.37515 13.9912 9.12667 13.7223 9.04985L13.7099 9.04645C10.9892 8.31906 8.19337 9.934 7.46437 12.6547L8.62348 12.9653Z" fill="black"/>
</svg>
