<svg width="24" height="24" viewBox="0 0 24 24" fill="none" xmlns="http://www.w3.org/2000/svg">
<path fill-rule="evenodd" clip-rule="evenodd" d="M4.28415 3.40039C3.79498 3.40039 3.39844 3.79694 3.39844 4.2861V19.7147C3.39844 20.2038 3.79499 20.6004 4.28415 20.6004H7.39844V14.2861C7.39844 13.7969 7.79499 13.4004 8.28415 13.4004H15.7127C16.2019 13.4004 16.5984 13.7969 16.5984 14.2861V20.6004H19.7127C20.2019 20.6004 20.5984 20.2038 20.5984 19.7147V7.54731C20.5984 7.3124 20.5051 7.08712 20.339 6.92101L17.0778 3.65981C16.9117 3.49371 16.6864 3.40039 16.4515 3.40039H4.28415ZM8.59844 14.6004V20.4004H15.3984V14.6004H8.59844ZM8.59844 6.20054C8.59844 7.24988 9.4491 8.10054 10.4984 8.10054C11.5478 8.10054 12.3984 7.24988 12.3984 6.20054H13.5984C13.5984 7.91262 12.2105 9.30054 10.4984 9.30054C8.78635 9.30054 7.39844 7.91262 7.39844 6.20054H8.59844Z" fill="black"/>
</svg>
