<svg width="24" height="24" viewBox="0 0 24 24" fill="none" xmlns="http://www.w3.org/2000/svg">
<path fill-rule="evenodd" clip-rule="evenodd" d="M12.5286 2.1472C12.2182 1.89885 11.7771 1.89885 11.4666 2.1472L8.79999 4.28052L5.40719 4.65749C5.01207 4.7014 4.70016 5.01331 4.65626 5.40843L4.27889 8.80471L2.1472 11.4693C1.89885 11.7798 1.89885 12.2209 2.1472 12.5313L4.27942 15.1966L4.65651 18.5903C4.70041 18.9854 5.01232 19.2974 5.40744 19.3413L8.80048 19.7183L11.4666 21.8512C11.7771 22.0995 12.2182 22.0995 12.5286 21.8512L15.1945 19.7185L18.5895 19.3413C18.9846 19.2974 19.2966 18.9854 19.3405 18.5903L19.7173 15.1987L21.8512 12.5313C22.0995 12.2209 22.0995 11.7798 21.8512 11.4693L19.7178 8.80262L19.3407 5.40843C19.2968 5.01331 18.9849 4.7014 18.5898 4.65749L15.195 4.2803L12.5286 2.1472Z" fill="black"/>
</svg>
