<svg width="24" height="24" viewBox="0 0 24 24" fill="none" xmlns="http://www.w3.org/2000/svg">
<path d="M5.84844 8.00039C5.84844 7.77948 6.02752 7.60039 6.24844 7.60039C6.46935 7.60039 6.64844 7.77948 6.64844 8.00039C6.64844 8.2213 6.46935 8.40039 6.24844 8.40039C6.02752 8.40039 5.84844 8.2213 5.84844 8.00039Z" fill="black"/>
<path fill-rule="evenodd" clip-rule="evenodd" d="M2.52344 5.25039C2.52344 4.78095 2.904 4.40039 3.37344 4.40039H20.6234C21.0929 4.40039 21.4734 4.78095 21.4734 5.25039V10.7504C21.4734 11.2198 21.0929 11.6004 20.6234 11.6004H3.37344C2.904 11.6004 2.52344 11.2198 2.52344 10.7504V5.25039ZM6.24844 6.40039C5.36478 6.40039 4.64844 7.11673 4.64844 8.00039C4.64844 8.88405 5.36478 9.60039 6.24844 9.60039C7.13209 9.60039 7.84844 8.88405 7.84844 8.00039C7.84844 7.11673 7.13209 6.40039 6.24844 6.40039Z" fill="black"/>
<path d="M5.84844 16.0004C5.84844 15.7795 6.02752 15.6004 6.24844 15.6004C6.46935 15.6004 6.64844 15.7795 6.64844 16.0004C6.64844 16.2213 6.46935 16.4004 6.24844 16.4004C6.02752 16.4004 5.84844 16.2213 5.84844 16.0004Z" fill="black"/>
<path fill-rule="evenodd" clip-rule="evenodd" d="M2.52344 13.2504C2.52344 12.7809 2.904 12.4004 3.37344 12.4004H20.6234C21.0929 12.4004 21.4734 12.7809 21.4734 13.2504V18.7504C21.4734 19.2198 21.0929 19.6004 20.6234 19.6004H3.37344C2.904 19.6004 2.52344 19.2198 2.52344 18.7504V13.2504ZM6.24844 14.4004C5.36478 14.4004 4.64844 15.1167 4.64844 16.0004C4.64844 16.884 5.36478 17.6004 6.24844 17.6004C7.13209 17.6004 7.84844 16.884 7.84844 16.0004C7.84844 15.1167 7.13209 14.4004 6.24844 14.4004Z" fill="black"/>
</svg>
