<svg width="24" height="24" viewBox="0 0 24 24" fill="none" xmlns="http://www.w3.org/2000/svg">
<path fill-rule="evenodd" clip-rule="evenodd" d="M8.18044 7.92691L7.33208 7.07821L11.398 3.01264C11.7299 2.68069 12.2681 2.68068 12.6001 3.01262L16.6657 7.07822L15.8172 7.92677L12.5984 4.70803L12.5984 15.2595L11.3984 15.2595V4.70921L8.18044 7.92691ZM3.22344 11.2595C3.22345 12.4064 3.44828 13.5478 3.8914 14.6176C4.55556 16.221 5.68027 17.5915 7.12331 18.5557C8.56635 19.5199 10.2629 20.0345 11.9984 20.0345C13.734 20.0345 15.4305 19.5199 16.8736 18.5557C18.3166 17.5915 19.4413 16.221 20.1055 14.6176C20.5486 13.5478 20.7734 12.4064 20.7734 11.2595L21.9734 11.2595C21.9734 12.5632 21.7179 13.8607 21.2141 15.0768C20.4592 16.8995 19.1806 18.4574 17.5403 19.5534C15.8999 20.6495 13.9713 21.2345 11.9984 21.2345C10.0256 21.2345 8.09701 20.6495 6.45663 19.5534C4.81625 18.4574 3.53773 16.8995 2.78274 15.0768C2.27902 13.8607 2.02345 12.5632 2.02344 11.2595L3.22344 11.2595Z" fill="black"/>
</svg>
