<svg width="24" height="24" viewBox="0 0 24 24" fill="none" xmlns="http://www.w3.org/2000/svg">
<path fill-rule="evenodd" clip-rule="evenodd" d="M16.6438 3.31445C15.0027 3.31445 13.6724 4.6448 13.6724 6.28588C13.6724 6.56739 13.7115 6.83977 13.7847 7.09784L8.62373 10.0775C8.07869 9.4359 7.26596 9.02881 6.35815 9.02881C4.71708 9.02881 3.38672 10.3592 3.38672 12.0002C3.38672 13.6413 4.71708 14.9717 6.35815 14.9717C7.26596 14.9717 8.07868 14.5646 8.62372 13.923L13.7847 16.9026C13.7115 17.1607 13.6724 17.4331 13.6724 17.7146C13.6724 19.3557 15.0027 20.686 16.6438 20.686C18.2849 20.686 19.6152 19.3557 19.6152 17.7146C19.6152 16.0735 18.2849 14.7432 16.6438 14.7432C15.7773 14.7432 14.9975 15.114 14.4543 15.7057L9.24692 12.6992C9.30096 12.475 9.32959 12.241 9.32959 12.0002C9.32959 11.7595 9.30096 11.5254 9.24692 11.3013L14.4543 8.2948C14.9975 8.88645 15.7773 9.25731 16.6438 9.25731C18.2849 9.25731 19.6152 7.92696 19.6152 6.28588C19.6152 4.6448 18.2849 3.31445 16.6438 3.31445Z" fill="black"/>
</svg>
