<svg width="24" height="24" viewBox="0 0 24 24" fill="none" xmlns="http://www.w3.org/2000/svg">
<path d="M3.08984 3.91748L3.93837 3.06895L20.9089 20.0395L20.0604 20.888L3.08984 3.91748Z" fill="black"/>
<path fill-rule="evenodd" clip-rule="evenodd" d="M3.39893 6.48926V13.7785H3.40806C3.617 18.3425 7.38334 21.9785 11.9989 21.9785C13.9375 21.9785 15.7263 21.3371 17.1646 20.2549L3.39893 6.48926ZM19.1003 18.2308C18.8722 18.564 18.6213 18.8803 18.3498 19.1774L3.70976 4.53735C3.79486 4.46749 3.89444 4.41344 4.00468 4.38037L4.9625 4.09303L19.1003 18.2308ZM19.9037 16.7715C20.3013 15.8463 20.5413 14.8374 20.5898 13.7785H20.5989V5.19453C20.5989 4.81916 20.3527 4.48823 19.9932 4.38037L12.2432 2.05538C12.0838 2.00758 11.914 2.00758 11.7547 2.05538L6.70307 3.57086L19.9037 16.7715Z" fill="black"/>
</svg>
