<svg width="24" height="24" viewBox="0 0 24 24" fill="none" xmlns="http://www.w3.org/2000/svg">
<path fill-rule="evenodd" clip-rule="evenodd" d="M8.24883 15.8399C7.59241 15.8399 6.96289 16.1007 6.49873 16.5649C6.17879 16.8848 5.95549 17.2833 5.84761 17.715H7.12376C7.18244 17.605 7.25746 17.5032 7.34726 17.4134C7.58637 17.1743 7.91067 17.0399 8.24883 17.0399C8.58698 17.0399 8.91128 17.1743 9.15039 17.4134C9.24019 17.5032 9.31521 17.605 9.37389 17.715H10.65C10.5422 17.2833 10.3189 16.8848 9.99892 16.5649C9.53477 16.1007 8.90524 15.8399 8.24883 15.8399ZM10.8739 18.915C10.9325 19.025 11.0075 19.1268 11.0973 19.2165C11.3364 19.4556 11.6607 19.5899 11.9988 19.5899C12.337 19.5899 12.6613 19.4556 12.9004 19.2165C12.9901 19.1268 13.0651 19.025 13.1238 18.915H14.4C14.2921 19.3467 14.0688 19.7451 13.7489 20.065C13.2848 20.5292 12.6552 20.7899 11.9988 20.7899C11.3424 20.7899 10.7129 20.5292 10.2487 20.065C9.92885 19.7451 9.70557 19.3467 9.59768 18.915H10.8739ZM6.89997 18.915H5.62376C5.5651 19.025 5.49012 19.1268 5.40038 19.2165C5.16127 19.4556 4.83697 19.5899 4.49882 19.5899C4.16066 19.5899 3.83636 19.4556 3.59725 19.2165C3.50751 19.1268 3.43253 19.025 3.37387 18.915H2.09766C2.20555 19.3467 2.42883 19.7451 2.74872 20.065C3.21288 20.5292 3.8424 20.7899 4.49882 20.7899C5.15523 20.7899 5.78476 20.5292 6.24891 20.065C6.5688 19.7451 6.79208 19.3467 6.89997 18.915ZM14.6238 17.715H13.3476C13.4555 17.2833 13.6788 16.8848 13.9988 16.5649C14.4629 16.1007 15.0924 15.8399 15.7488 15.8399C16.4053 15.8399 17.0348 16.1007 17.4989 16.5649C17.8189 16.8848 18.0422 17.2833 18.1501 17.715H16.8739C16.8152 17.605 16.7402 17.5032 16.6504 17.4134C16.4113 17.1743 16.087 17.0399 15.7488 17.0399C15.4107 17.0399 15.0864 17.1743 14.8473 17.4134C14.7575 17.5032 14.6825 17.605 14.6238 17.715ZM17.0977 18.915C17.2056 19.3467 17.4289 19.7451 17.7488 20.065C18.2129 20.5292 18.8424 20.7899 19.4989 20.7899C20.1553 20.7899 20.7848 20.5292 21.249 20.065C21.5688 19.7451 21.7921 19.3467 21.9 18.915H20.6238C20.5651 19.025 20.4902 19.1268 20.4004 19.2165C20.1613 19.4556 19.837 19.5899 19.4989 19.5899C19.1607 19.5899 18.8364 19.4556 18.5973 19.2165C18.5076 19.1268 18.4326 19.025 18.3739 18.915H17.0977Z" fill="black"/>
<path d="M10.4142 3.79477C10.4783 3.85892 10.5377 3.92698 10.592 3.99839L10.6087 4.02075C10.6605 4.0909 10.708 4.16486 10.75 4.24073C10.8726 4.46246 10.9526 4.70639 10.9844 4.95963C11.0016 5.09662 10.888 5.20898 10.75 5.20898L7.24997 5.20898C7.11189 5.20898 6.99835 5.09662 7.01556 4.95963C7.04655 4.71297 7.12317 4.47516 7.24048 4.25808L7.24997 4.24073C7.28992 4.16851 7.33441 4.09865 7.38326 4.03158L7.3912 4.02074L7.39996 4.00898C7.45641 3.93371 7.51844 3.86209 7.58575 3.79477C7.96082 3.4197 8.46953 3.20898 8.99997 3.20898C9.5304 3.20898 10.0391 3.4197 10.4142 3.79477Z" fill="black"/>
<path d="M6.59986 7.20923V9.60925H5.39986V6.85923C5.39986 6.38979 5.78042 6.00923 6.24986 6.00923H15.8197C16.1855 6.00923 16.5104 6.24334 16.6261 6.59044L17.5691 9.41952L16.4306 9.79899L15.5674 7.20923H6.59986Z" fill="black"/>
<path d="M2.34014 11.5149C2.2427 10.9921 2.64392 10.5092 3.17575 10.5092H20.7915C21.3582 10.5092 21.7662 11.0532 21.6075 11.5972L20.0034 17.0972C19.8976 17.4599 19.5651 17.7092 19.1874 17.7092H19.1793L19.1202 17.4725C18.9688 16.8664 18.6553 16.3069 18.206 15.8576C17.5543 15.206 16.6705 14.8398 15.7488 14.8398C14.8272 14.8398 13.9433 15.206 13.2916 15.8576C12.8424 16.3069 12.5289 16.8664 12.3774 17.4725L12.3183 17.7092H11.6793L11.6202 17.4725C11.4688 16.8664 11.1553 16.3069 10.706 15.8576C10.0543 15.206 9.17045 14.8398 8.24882 14.8398C7.3272 14.8398 6.44332 15.206 5.79163 15.8576C5.34239 16.3069 5.02888 16.8664 4.87744 17.4725L4.8183 17.7092H4.20071C3.79132 17.7092 3.44009 17.4174 3.36509 17.0149L2.34014 11.5149Z" fill="black"/>
<path d="M7.12683 17.7092H5.84905C5.94102 17.3449 6.11525 17.0043 6.36044 16.715C6.40429 16.6632 6.45041 16.6132 6.49873 16.5649C6.96289 16.1007 7.59241 15.8399 8.24883 15.8399C8.90524 15.8399 9.53477 16.1007 9.99892 16.5649C10.0472 16.6132 10.0934 16.6632 10.1372 16.715C10.3824 17.0043 10.5566 17.3449 10.6486 17.7092H9.37081C9.3126 17.6014 9.23863 17.5016 9.15039 17.4134C8.91128 17.1743 8.58698 17.0399 8.24883 17.0399C7.91067 17.0399 7.58637 17.1743 7.34726 17.4134C7.25902 17.5016 7.18505 17.6014 7.12683 17.7092Z" fill="black"/>
<path d="M14.6268 17.7092H13.3491C13.441 17.3449 13.6153 17.0043 13.8604 16.715C13.9043 16.6632 13.9504 16.6132 13.9988 16.5649C14.4629 16.1007 15.0924 15.8399 15.7488 15.8399C16.4053 15.8399 17.0348 16.1007 17.4989 16.5649C17.5473 16.6132 17.5934 16.6632 17.6372 16.715C17.8824 17.0043 18.0566 17.3449 18.1486 17.7092H16.8708C16.8126 17.6014 16.7387 17.5016 16.6504 17.4134C16.4113 17.1743 16.087 17.0399 15.7488 17.0399C15.4107 17.0399 15.0864 17.1743 14.8473 17.4134C14.759 17.5016 14.6851 17.6014 14.6268 17.7092Z" fill="black"/>
</svg>
