<svg width="24" height="24" viewBox="0 0 24 24" fill="none" xmlns="http://www.w3.org/2000/svg">
<path d="M15.6564 20.8185C16.5543 20.8185 17.2822 20.0906 17.2822 19.1927H14.0306C14.0306 20.0906 14.7585 20.8185 15.6564 20.8185Z" fill="black"/>
<path fill-rule="evenodd" clip-rule="evenodd" d="M14.0306 19.1927C14.0306 19.6678 14.2344 20.0954 14.5595 20.3927C14.8486 20.6571 15.2337 20.8185 15.6564 20.8185C16.0791 20.8185 16.4642 20.6571 16.7533 20.3927C17.0784 20.0954 17.2822 19.6678 17.2822 19.1927H14.0306Z" fill="black"/>
<path d="M7.29507 20.8185C8.19298 20.8185 8.92087 20.0906 8.92087 19.1927H5.66926C5.66926 20.0906 6.39716 20.8185 7.29507 20.8185Z" fill="black"/>
<path fill-rule="evenodd" clip-rule="evenodd" d="M5.66926 19.1927C5.66926 19.6678 5.87311 20.0954 6.19813 20.3927C6.48728 20.6571 6.87233 20.8185 7.29507 20.8185C7.7178 20.8185 8.10286 20.6571 8.39201 20.3927C8.71703 20.0954 8.92087 19.6678 8.92087 19.1927H5.66926Z" fill="black"/>
<path d="M5.33811 7.10206C4.86867 7.10206 4.48811 7.48261 4.48811 7.95206V16.7424C4.48811 17.2118 4.86867 17.5924 5.33811 17.5924H18.2478C18.6378 17.5924 18.9778 17.3269 19.0724 16.9485L21.27 8.15821C21.4041 7.62174 20.9983 7.10206 20.4453 7.10206H5.33811Z" fill="black"/>
<path fill-rule="evenodd" clip-rule="evenodd" d="M5.68821 5.50266C5.68821 4.72754 5.38029 3.98417 4.8322 3.43608C4.28411 2.88799 3.54074 2.58008 2.76562 2.58008L2.76563 3.78008C3.22248 3.78008 3.66063 3.96156 3.98367 4.28461C4.30672 4.60766 4.48821 5.0458 4.48821 5.50266L5.68821 5.50266Z" fill="black"/>
</svg>
