<svg width="24" height="24" viewBox="0 0 24 24" fill="none" xmlns="http://www.w3.org/2000/svg">
<path fill-rule="evenodd" clip-rule="evenodd" d="M8.59729 3.43522C9.49999 2.53252 10.7243 2.02539 12.0009 2.02539C13.2775 2.02539 14.5019 2.53252 15.4046 3.43522C16.3073 4.33793 16.8144 5.56225 16.8144 6.83886V6.96039H15.6144V6.83886C15.6144 5.88051 15.2337 4.96141 14.556 4.28375C13.8784 3.6061 12.9593 3.22539 12.0009 3.22539C11.0426 3.22539 10.1235 3.60609 9.44582 4.28375C8.76816 4.96141 8.38746 5.88051 8.38746 6.83886V6.96039H7.18746V6.83886C7.18746 5.56225 7.69459 4.33793 8.59729 3.43522Z" fill="black"/>
<path fill-rule="evenodd" clip-rule="evenodd" d="M4.02734 9.40631C4.02734 8.93687 4.4079 8.55631 4.87734 8.55631H19.1245C19.5939 8.55631 19.9745 8.93687 19.9745 9.40631V21.1254C19.9745 21.5949 19.5939 21.9754 19.1245 21.9754H4.87734C4.4079 21.9754 4.02734 21.5949 4.02734 21.1254V9.40631ZM15.6145 10.7563C15.6145 12.7519 13.9966 14.3697 12.001 14.3697C10.0053 14.3697 8.38751 12.7519 8.38751 10.7563L7.1875 10.7563C7.1875 13.4147 9.34257 15.5697 12.001 15.5697C14.6594 15.5697 16.8145 13.4147 16.8145 10.7563H15.6145Z" fill="black"/>
</svg>
