<svg width="24" height="24" viewBox="0 0 24 24" fill="none" xmlns="http://www.w3.org/2000/svg">
<path fill-rule="evenodd" clip-rule="evenodd" d="M17.9382 9.165C17.3779 9.58527 16.5782 9.18545 16.5782 8.485V3.42767C16.5782 2.7363 17.3597 2.33415 17.9223 2.736L21.376 5.20299C21.8438 5.53716 21.8518 6.2297 21.3919 6.57466L17.9382 9.165ZM8.62141 9.2067C8.27794 8.42696 7.79071 7.70965 7.17659 7.09552C5.87412 5.79302 4.1076 5.06128 2.26562 5.06128V6.26128C3.78933 6.26128 5.25063 6.86658 6.32805 7.94403C7.40547 9.02149 8.01077 10.4828 8.01077 12.0066C8.01077 13.5303 7.40547 14.9917 6.32805 16.0691C5.25062 17.1466 3.78933 17.7519 2.26562 17.7519V18.9519C4.1076 18.9519 5.87412 18.2201 7.17659 16.9176C7.79071 16.3035 8.27794 15.5862 8.62141 14.8065C8.96488 15.5862 9.45212 16.3035 10.0662 16.9176C11.3687 18.2201 13.1352 18.9519 14.9772 18.9519V17.7519C13.4535 17.7519 11.9922 17.1466 10.9148 16.0691C9.83735 14.9917 9.23206 13.5303 9.23206 12.0066C9.23206 10.4828 9.83735 9.02149 10.9148 7.94403C11.9922 6.86658 13.4535 6.26128 14.9772 6.26128L14.9772 5.06128C13.1352 5.06128 11.3687 5.79302 10.0662 7.09552C9.45212 7.70965 8.96488 8.42696 8.62141 9.2067ZM16.5802 20.5712C16.5802 21.2716 17.3798 21.6715 17.9402 21.2512L21.3939 18.6608C21.8538 18.3159 21.8457 17.6233 21.3779 17.2892L17.9242 14.8222C17.3616 14.4203 16.5802 14.8225 16.5802 15.5139V20.5712Z" fill="black"/>
</svg>
