<svg width="24" height="24" viewBox="0 0 24 24" fill="none" xmlns="http://www.w3.org/2000/svg">
<path fill-rule="evenodd" clip-rule="evenodd" d="M5.6 4.42383C3.61178 4.42383 2 6.03559 2 8.0238C2 10.012 3.61178 11.6238 5.6 11.6238C7.58822 11.6238 9.2 10.012 9.2 8.0238C9.2 6.03559 7.58822 4.42383 5.6 4.42383ZM18.3998 12.3755C16.4116 12.3755 14.7998 13.9873 14.7998 15.9755C14.7998 17.9637 16.4116 19.5755 18.3998 19.5755C20.3881 19.5755 21.9999 17.9637 21.9999 15.9755C21.9999 13.9873 20.3881 12.3755 18.3998 12.3755ZM10.7979 7.42401L20.9979 7.38037L21.003 8.58036L10.803 8.624L10.7979 7.42401ZM13.1978 15.3804L2.99781 15.424L3.00294 16.624L13.2029 16.5804L13.1978 15.3804Z" fill="black"/>
</svg>
