<svg width="24" height="24" viewBox="0 0 24 24" fill="none" xmlns="http://www.w3.org/2000/svg">
<path fill-rule="evenodd" clip-rule="evenodd" d="M7.62059 13.0977L7.57695 2.49805L6.37696 2.50299L6.4206 13.1026L7.62059 13.0977ZM20.577 6.09976C20.577 4.11154 18.9652 2.49976 16.977 2.49976C14.9888 2.49976 13.377 4.11154 13.377 6.09976C13.377 8.08798 14.9888 9.69976 16.977 9.69976C18.9652 9.69976 20.577 8.08798 20.577 6.09976ZM10.6258 17.8998C10.6258 15.9116 9.01401 14.2998 7.02578 14.2998C5.03755 14.2998 3.42578 15.9116 3.42578 17.8998C3.42578 19.8881 5.03755 21.4999 7.02578 21.4999C9.01401 21.4999 10.6258 19.8881 10.6258 17.8998ZM17.577 10.8982L17.6206 21.4978L16.4206 21.5027L16.377 10.9031L17.577 10.8982Z" fill="black"/>
</svg>
