<svg width="24" height="24" viewBox="0 0 24 24" fill="none" xmlns="http://www.w3.org/2000/svg">
<path fill-rule="evenodd" clip-rule="evenodd" d="M2.02344 12.0004C2.02344 6.49135 6.4894 2.02539 11.9984 2.02539C17.5075 2.02539 21.9734 6.49135 21.9734 12.0004C21.9734 17.5094 17.5075 21.9754 11.9984 21.9754C6.4894 21.9754 2.02344 17.5094 2.02344 12.0004ZM8.09844 9.00039C8.09844 8.77948 8.27752 8.60039 8.49844 8.60039C8.71935 8.60039 8.89844 8.77948 8.89844 9.00039C8.89844 9.2213 8.71935 9.40039 8.49844 9.40039C8.27752 9.40039 8.09844 9.2213 8.09844 9.00039ZM8.49844 7.40039C7.61478 7.40039 6.89844 8.11673 6.89844 9.00039C6.89844 9.88405 7.61478 10.6004 8.49844 10.6004C9.38209 10.6004 10.0984 9.88405 10.0984 9.00039C10.0984 8.11673 9.38209 7.40039 8.49844 7.40039ZM15.4984 8.60039C15.2775 8.60039 15.0984 8.77948 15.0984 9.00039C15.0984 9.2213 15.2775 9.40039 15.4984 9.40039C15.7194 9.40039 15.8984 9.2213 15.8984 9.00039C15.8984 8.77948 15.7194 8.60039 15.4984 8.60039ZM13.8984 9.00039C13.8984 8.11673 14.6148 7.40039 15.4984 7.40039C16.3821 7.40039 17.0984 8.11673 17.0984 9.00039C17.0984 9.88405 16.3821 10.6004 15.4984 10.6004C14.6148 10.6004 13.8984 9.88405 13.8984 9.00039ZM11.9984 17.4005C9.0161 17.4005 6.59844 14.9828 6.59844 12.0005H5.39844C5.39844 15.6456 8.35336 18.6005 11.9984 18.6005C15.6435 18.6005 18.5984 15.6456 18.5984 12.0005H17.3984C17.3984 14.9828 14.9808 17.4005 11.9984 17.4005Z" fill="black"/>
</svg>
