<svg width="24" height="24" viewBox="0 0 24 24" fill="none" xmlns="http://www.w3.org/2000/svg">
<path fill-rule="evenodd" clip-rule="evenodd" d="M6.24844 3.40039C5.779 3.40039 5.39844 3.78095 5.39844 4.25039V19.7504C5.39844 20.2198 5.77899 20.6004 6.24844 20.6004H17.7484C18.2179 20.6004 18.5984 20.2198 18.5984 19.7504V4.25039C18.5984 3.78095 18.2179 3.40039 17.7484 3.40039H6.24844ZM11.9984 7.10039C11.7775 7.10039 11.5984 7.27948 11.5984 7.50039C11.5984 7.7213 11.7775 7.90039 11.9984 7.90039C12.2194 7.90039 12.3984 7.7213 12.3984 7.50039C12.3984 7.27948 12.2194 7.10039 11.9984 7.10039ZM10.3984 7.50039C10.3984 6.61673 11.1148 5.90039 11.9984 5.90039C12.8821 5.90039 13.5984 6.61673 13.5984 7.50039C13.5984 8.38405 12.8821 9.10039 11.9984 9.10039C11.1148 9.10039 10.3984 8.38405 10.3984 7.50039ZM9.59844 14.5004C9.59844 13.1749 10.673 12.1004 11.9984 12.1004C13.3239 12.1004 14.3984 13.1749 14.3984 14.5004C14.3984 15.8259 13.3239 16.9004 11.9984 16.9004C10.673 16.9004 9.59844 15.8259 9.59844 14.5004ZM11.9984 10.9004C10.0102 10.9004 8.39844 12.5122 8.39844 14.5004C8.39844 16.4886 10.0102 18.1004 11.9984 18.1004C13.9867 18.1004 15.5984 16.4886 15.5984 14.5004C15.5984 12.5122 13.9867 10.9004 11.9984 10.9004Z" fill="black"/>
</svg>
