<svg width="24" height="24" viewBox="0 0 24 24" fill="none" xmlns="http://www.w3.org/2000/svg">
<path d="M16.6249 12C16.6249 14.5543 14.5542 16.625 11.9999 16.625C9.44558 16.625 7.3749 14.5543 7.3749 12C7.3749 9.44566 9.44558 7.37498 11.9999 7.37498C14.5542 7.37498 16.6249 9.44566 16.6249 12Z" fill="black"/>
<path fill-rule="evenodd" clip-rule="evenodd" d="M12.6001 19.5998V21.9998H11.4001V19.5998H12.6001Z" fill="black"/>
<path fill-rule="evenodd" clip-rule="evenodd" d="M12.5999 2V4.4H11.3999V2L12.5999 2Z" fill="black"/>
<path fill-rule="evenodd" clip-rule="evenodd" d="M4.4 12.5999H2L2 11.3999L4.4 11.3999L4.4 12.5999Z" fill="black"/>
<path fill-rule="evenodd" clip-rule="evenodd" d="M21.9998 12.5999H19.5998V11.3999L21.9998 11.3999V12.5999Z" fill="black"/>
<path fill-rule="evenodd" clip-rule="evenodd" d="M7.05009 17.7981L5.35304 19.4951L4.50451 18.6466L6.20156 16.9495L7.05009 17.7981Z" fill="black"/>
<path fill-rule="evenodd" clip-rule="evenodd" d="M19.4949 5.35325L17.7978 7.0503L16.9493 6.20178L18.6464 4.50472L19.4949 5.35325Z" fill="black"/>
<path fill-rule="evenodd" clip-rule="evenodd" d="M16.9497 17.798L18.6467 19.4951L19.4952 18.6466L17.7982 16.9495L16.9497 17.798Z" fill="black"/>
<path fill-rule="evenodd" clip-rule="evenodd" d="M4.50434 5.35322L6.2014 7.05028L7.04993 6.20175L5.35287 4.50469L4.50434 5.35322Z" fill="black"/>
</svg>
