<svg width="24" height="24" viewBox="0 0 24 24" fill="none" xmlns="http://www.w3.org/2000/svg">
<path fill-rule="evenodd" clip-rule="evenodd" d="M4.69239 3.7356C4.23476 3.73991 3.8627 4.10578 3.8507 4.56327L3.67607 11.2208C3.66996 11.4539 3.75987 11.6793 3.92474 11.8441L12.1573 20.0767C12.4892 20.4086 13.0274 20.4086 13.3594 20.0767L20.0769 13.3592C20.4088 13.0272 20.4088 12.489 20.0769 12.1571L11.8426 3.92279C11.6812 3.76142 11.4617 3.67171 11.2335 3.67387L4.69239 3.7356ZM7.58778 8.15338C7.43157 7.99717 7.43157 7.7439 7.58778 7.58769C7.74399 7.43148 7.99725 7.43148 8.15346 7.58769C8.30967 7.7439 8.30967 7.99717 8.15346 8.15338C7.99725 8.30959 7.74399 8.30959 7.58778 8.15338ZM6.73925 6.73916C6.11441 7.364 6.11441 8.37707 6.73925 9.00191C7.36409 9.62675 8.37715 9.62674 9.00199 9.00191C9.62683 8.37707 9.62683 7.364 9.00199 6.73916C8.37715 6.11433 7.36409 6.11433 6.73925 6.73916Z" fill="black"/>
</svg>
