<svg width="24" height="24" viewBox="0 0 24 24" fill="none" xmlns="http://www.w3.org/2000/svg">
<path fill-rule="evenodd" clip-rule="evenodd" d="M11.9984 3.22539C7.15214 3.22539 3.22344 7.15409 3.22344 12.0004C3.22344 16.8467 7.15214 20.7754 11.9984 20.7754C16.8447 20.7754 20.7734 16.8467 20.7734 12.0004C20.7734 7.15409 16.8447 3.22539 11.9984 3.22539ZM2.02344 12.0004C2.02344 6.49135 6.4894 2.02539 11.9984 2.02539C17.5075 2.02539 21.9734 6.49135 21.9734 12.0004C21.9734 17.5094 17.5075 21.9754 11.9984 21.9754C6.4894 21.9754 2.02344 17.5094 2.02344 12.0004Z" fill="black"/>
<path fill-rule="evenodd" clip-rule="evenodd" d="M5.52334 12.0003C5.52334 8.42425 8.4223 5.52529 11.9983 5.52529C15.5744 5.52529 18.4733 8.42425 18.4733 12.0003C18.4733 15.5763 15.5744 18.4753 11.9983 18.4753C8.4223 18.4753 5.52334 15.5763 5.52334 12.0003ZM11.9985 13.7729C12.9774 13.7729 13.771 12.9794 13.771 12.0004C13.771 11.0215 12.9774 10.2279 11.9985 10.2279C11.0196 10.2279 10.226 11.0215 10.226 12.0004C10.226 12.9794 11.0196 13.7729 11.9985 13.7729Z" fill="black"/>
</svg>
