<svg width="24" height="24" viewBox="0 0 24 24" fill="none" xmlns="http://www.w3.org/2000/svg">
<path fill-rule="evenodd" clip-rule="evenodd" d="M11.9985 2.01953C11.2029 2.01953 10.4398 2.3356 9.87721 2.89821C9.31461 3.46082 8.99854 4.22388 8.99854 5.01953V5.22461H6.18308C5.80993 5.22461 5.48041 5.46798 5.37067 5.82464L3.43603 12.1122C3.41111 12.1932 3.39844 12.2775 3.39844 12.3622V18.3246V18.3308V20.3246C3.39844 20.7941 3.779 21.1746 4.24844 21.1746H6.14844C6.61788 21.1746 6.99844 20.7941 6.99844 20.3246V18.9246H11.9984V18.4996H11.9985V18.9246H16.9981V20.3246C16.9981 20.7941 17.3787 21.1746 17.8481 21.1746H19.7481C20.2176 21.1746 20.5981 20.7941 20.5981 20.3246V18.4516H20.5984V12.3622C20.5984 12.2775 20.5858 12.1932 20.5609 12.1122L18.6262 5.82464C18.5165 5.46798 18.1869 5.22461 17.8138 5.22461H14.9985V5.01953C14.9985 4.22388 14.6825 3.46082 14.1199 2.89821C13.5572 2.3356 12.7942 2.01953 11.9985 2.01953ZM6.19849 15.3244C6.19849 14.6064 6.78052 14.0244 7.49849 14.0244C8.21646 14.0244 8.79849 14.6064 8.79849 15.3244C8.79849 16.0424 8.21646 16.6244 7.49849 16.6244C6.78052 16.6244 6.19849 16.0424 6.19849 15.3244ZM15.1985 15.3244C15.1985 14.6064 15.7805 14.0244 16.4985 14.0244C17.2165 14.0244 17.7985 14.6064 17.7985 15.3244C17.7985 16.0424 17.2165 16.6244 16.4985 16.6244C15.7805 16.6244 15.1985 16.0424 15.1985 15.3244ZM5.79834 12.9246H18.1976V11.7246H5.79834V12.9246Z" fill="black"/>
</svg>
