<svg width="24" height="24" viewBox="0 0 24 24" fill="none" xmlns="http://www.w3.org/2000/svg">
<path fill-rule="evenodd" clip-rule="evenodd" d="M11.8365 17.6967C11.5571 18.535 10.7726 19.1004 9.88901 19.1004C8.75525 19.1004 7.83616 18.1813 7.83616 17.0475V14.6004H3.7173C3.2085 14.6004 2.81367 14.1564 2.87312 13.6511L3.8143 5.65108C3.86466 5.223 4.22745 4.90039 4.65848 4.90039H14.5863C15.0557 4.90039 15.4363 5.28095 15.4363 5.75039V12.2504C15.4363 12.7198 15.0557 13.1004 14.5863 13.1004H13.3686L11.8365 17.6967Z" fill="black"/>
<path d="M21.1363 9.00039C21.1363 10.0878 20.7043 11.1306 19.9354 11.8995C19.2358 12.5992 18.3094 13.0198 17.3289 13.0899C16.8154 13.1267 16.4363 12.7075 16.4363 12.2504V5.75039C16.4363 5.2933 16.8154 4.87411 17.3289 4.91084C18.3094 4.98095 19.2358 5.40161 19.9354 6.10125C20.7043 6.87015 21.1363 7.913 21.1363 9.00039Z" fill="black"/>
</svg>
