<svg width="24" height="24" viewBox="0 0 24 24" fill="none" xmlns="http://www.w3.org/2000/svg">
<path fill-rule="evenodd" clip-rule="evenodd" d="M14.1144 4.90039C13.2308 4.90039 12.4463 5.46581 12.1669 6.30407L10.6348 10.9004H9.41714C8.9477 10.9004 8.56714 11.2809 8.56714 11.7504V18.2504C8.56714 18.7198 8.9477 19.1004 9.41714 19.1004H19.3449C19.7759 19.1004 20.1387 18.7778 20.1891 18.3497L21.1303 10.3497C21.1897 9.84439 20.7949 9.40039 20.2861 9.40039H16.1672V6.95324C16.1672 5.81948 15.2481 4.90039 14.1144 4.90039Z" fill="black"/>
<path fill-rule="evenodd" clip-rule="evenodd" d="M2.86719 15.0005C2.86719 13.9131 3.29915 12.8703 4.06805 12.1014C4.76769 11.4017 5.69413 10.9811 6.67458 10.9109C7.18811 10.8742 7.56719 11.2934 7.56719 11.7505L7.56719 18.2505C7.56719 18.7076 7.18811 19.1268 6.67458 19.09C5.69413 19.0199 4.76769 18.5993 4.06805 17.8996C3.29915 17.1307 2.86719 16.0879 2.86719 15.0005Z" fill="black"/>
</svg>
