<svg width="24" height="24" viewBox="0 0 24 24" fill="none" xmlns="http://www.w3.org/2000/svg">
<path fill-rule="evenodd" clip-rule="evenodd" d="M18.7672 6.2118C19.1554 5.8236 19.8505 5.88776 20.116 6.43102C21.2038 8.65768 20.8236 11.4219 18.9718 13.2736C17.2407 15.0048 14.7119 15.4497 12.5709 14.6116L8.3045 18.878L4.92447 15.498L9.19082 11.2316C8.35267 9.09055 8.79761 6.56175 10.5288 4.83055C12.3805 2.97885 15.1447 2.59858 17.3713 3.6864C17.9146 3.95181 17.9787 4.64694 17.5905 5.03514L14.1643 8.46136L15.341 9.63803L18.7672 6.2118ZM3.7931 16.6293L3.77815 16.6443C2.84478 17.5776 2.84478 19.0909 3.77815 20.0243C4.71152 20.9577 6.22481 20.9577 7.15818 20.0243L7.17312 20.0094L3.7931 16.6293Z" fill="black"/>
</svg>
