<svg width="24" height="24" viewBox="0 0 24 24" fill="none" xmlns="http://www.w3.org/2000/svg">
<path fill-rule="evenodd" clip-rule="evenodd" d="M3.94141 5.73078C3.94141 5.00653 4.22911 4.31195 4.74123 3.79983C5.25335 3.28771 5.94794 3.00006 6.67218 3.00006L17.3268 3C18.0511 3 18.7457 3.28771 19.2578 3.79983C19.7699 4.31195 20.0573 5.00653 20.0573 5.73078V17.6838C20.0573 18.1533 19.6768 18.5338 19.2073 18.5338H4.79189C4.32245 18.5338 3.94189 18.1533 3.94189 17.6838L3.94141 5.73078ZM17.5395 19.7573L6.45947 19.7573V20.9573H17.5395V19.7573ZM6.73999 10.2555H11.3991V5.77661H12.5991V10.2555H17.26V11.4555H6.73999V10.2555ZM8.16055 13.3557C7.40647 13.3557 6.79517 13.967 6.79517 14.7211C6.79517 15.4752 7.40647 16.0865 8.16055 16.0865C8.91464 16.0865 9.52594 15.4752 9.52594 14.7211C9.52594 13.967 8.91464 13.3557 8.16055 13.3557ZM15.9418 13.3557C15.1877 13.3557 14.5764 13.967 14.5764 14.7211C14.5764 15.4752 15.1877 16.0865 15.9418 16.0865C16.6959 16.0865 17.3072 15.4752 17.3072 14.7211C17.3072 13.967 16.6959 13.3557 15.9418 13.3557Z" fill="black"/>
</svg>
