<svg width="24" height="24" viewBox="0 0 24 24" fill="none" xmlns="http://www.w3.org/2000/svg">
<path d="M14.5456 3.08371C15.1497 3.68785 15.517 4.48459 15.5875 5.32962C15.6013 5.49473 15.4657 5.6293 15.3 5.6293L8.7 5.6293C8.53431 5.6293 8.3987 5.49473 8.41249 5.32962C8.48304 4.48459 8.85028 3.68785 9.45442 3.08371C10.1295 2.40858 11.0452 2.0293 12 2.0293C12.9548 2.0293 13.8705 2.40858 14.5456 3.08371Z" fill="black"/>
<path fill-rule="evenodd" clip-rule="evenodd" d="M3 8.42928H5.40005L5.4 21.1492C5.4 21.6187 5.78056 21.9993 6.25 21.9993H17.7499C18.2195 21.9993 18.6001 21.6185 18.5999 21.149L18.5963 10.0303L18.599 8.42928H21V7.22928H3V8.42928ZM9.4002 17.4993L9.4 11.4993L10.6 11.4992L10.6002 17.4992L9.4002 17.4993ZM13.4 11.4992L13.3998 17.4992L14.5998 17.4993L14.6 11.4993L13.4 11.4992Z" fill="black"/>
</svg>
