<svg width="24" height="24" viewBox="0 0 24 24" fill="none" xmlns="http://www.w3.org/2000/svg">
<path fill-rule="evenodd" clip-rule="evenodd" d="M7.8199 17.9358C7.45367 18.4004 6.8858 18.6987 6.24825 18.6987C5.59392 18.6987 5.01299 18.3845 4.6481 17.8987C4.64518 17.8948 4.64227 17.8909 4.63938 17.887C4.63834 17.8856 4.63729 17.8842 4.63626 17.8828C4.58586 17.8143 4.53973 17.7425 4.49825 17.6677C4.49279 17.6579 4.48741 17.648 4.48211 17.6381C4.37 17.4277 4.29436 17.1949 4.26366 16.9482C4.24661 16.8112 4.36018 16.6987 4.49825 16.6987H7.99825C8.13632 16.6987 8.24989 16.8112 8.23284 16.9482C8.20069 17.2066 8.11926 17.4497 7.99825 17.6677C7.99825 17.6677 7.99825 17.6677 7.99825 17.6677M7.85713 17.887C7.85423 17.8909 7.85132 17.8948 7.8484 17.8987C7.83904 17.9112 7.82954 17.9235 7.8199 17.9358M7.85713 17.887C7.90659 17.8202 7.95198 17.7501 7.99294 17.6772Z" fill="black"/>
<path fill-rule="evenodd" clip-rule="evenodd" d="M17.8199 17.9358C17.4537 18.4004 16.8858 18.6987 16.2482 18.6987C15.5939 18.6987 15.013 18.3845 14.6481 17.8987C14.6452 17.8948 14.6423 17.8909 14.6394 17.887C14.6383 17.8856 14.6373 17.8842 14.6363 17.8828C14.5859 17.8143 14.5397 17.7425 14.4983 17.6677C14.4983 17.6677 14.4983 17.6677 14.4983 17.6677C14.4928 17.6579 14.4874 17.648 14.4821 17.6381C14.37 17.4277 14.2944 17.1949 14.2637 16.9482C14.2466 16.8112 14.3602 16.6987 14.4983 16.6987H17.9982C18.1363 16.6987 18.2499 16.8112 18.2328 16.9482C18.2007 17.2066 18.1193 17.4497 17.9982 17.6677C17.9965 17.6709 17.9947 17.6741 17.9929 17.6772C17.952 17.7501 17.9066 17.8202 17.8571 17.887C17.8542 17.8909 17.8513 17.8948 17.8484 17.8987C17.839 17.9112 17.8295 17.9235 17.8199 17.9358Z" fill="black"/>
<path fill-rule="evenodd" clip-rule="evenodd" d="M2.99844 4.69922C2.529 4.69922 2.14844 5.07978 2.14844 5.54922V15.0492C2.14844 15.5187 2.529 15.8992 2.99844 15.8992H14.2984C14.7679 15.8992 15.1484 15.5187 15.1484 15.0492V5.54922C15.1484 5.07978 14.7679 4.69922 14.2984 4.69922H2.99844Z" fill="black"/>
<path fill-rule="evenodd" clip-rule="evenodd" d="M15.9482 8.54924C15.9482 8.07979 16.3288 7.69922 16.7982 7.69922H19.5754C19.9297 7.69922 20.2468 7.91901 20.3713 8.25076L21.8486 12.1904V15.0492C21.8486 15.5187 21.4681 15.8992 20.9986 15.8992H16.7984C16.329 15.8992 15.9484 15.5187 15.9484 15.0492L15.9482 8.54924ZM19.3735 9.01465L20.2915 11.4587C20.3293 11.5727 20.2547 11.6943 20.147 11.6943H18.754C18.6687 11.6943 18.5996 11.6163 18.5996 11.52V9.07855C18.5996 8.98224 18.6687 8.90416 18.754 8.90416L19.229 8.90149C19.2933 8.90149 19.3509 8.94658 19.3735 9.01465Z" fill="black"/>
</svg>
