<svg width="24" height="24" viewBox="0 0 24 24" fill="none" xmlns="http://www.w3.org/2000/svg">
<path fill-rule="evenodd" clip-rule="evenodd" d="M17.5446 20.3451C16.8695 21.0202 15.9538 21.3995 14.999 21.3995C14.0442 21.3995 13.1286 21.0202 12.4534 20.3451C11.7783 19.67 11.399 18.7543 11.399 17.7995H12.599C12.599 18.436 12.8519 19.0465 13.302 19.4966C13.7521 19.9466 14.3625 20.1995 14.999 20.1995C15.6355 20.1995 16.246 19.9466 16.6961 19.4966C17.1462 19.0465 17.399 18.436 17.399 17.7995H18.599C18.599 18.7543 18.2197 19.67 17.5446 20.3451Z" fill="black"/>
<path fill-rule="evenodd" clip-rule="evenodd" d="M5.21075 5.41138C7.0111 3.61104 9.4529 2.59961 11.999 2.59961C14.5451 2.59961 16.9869 3.61103 18.7872 5.41138C20.5246 7.14879 21.5273 9.48356 21.5953 11.933C21.6088 12.4196 21.214 12.7996 20.749 12.7996H12.5989V16.1995H11.3989V12.7996H3.24898C2.78396 12.7996 2.38917 12.4196 2.40268 11.933C2.47068 9.48356 3.47335 7.14879 5.21075 5.41138Z" fill="black"/>
</svg>
