<svg width="24" height="24" viewBox="0 0 24 24" fill="none" xmlns="http://www.w3.org/2000/svg">
<path fill-rule="evenodd" clip-rule="evenodd" d="M17.071 9.61047L17.071 3.73047H18.271V9.61047H17.071ZM12.002 17.4827C10.3393 17.4827 8.74475 16.8222 7.56907 15.6465C6.3934 14.4708 5.73291 12.8763 5.73291 11.2136H6.93291C6.93291 12.558 7.46697 13.8473 8.4176 14.798C9.36824 15.7486 10.6576 16.2827 12.002 16.2827C13.3464 16.2827 14.6357 15.7486 15.5863 14.798C16.537 13.8473 17.071 12.558 17.071 11.2136H18.271C18.271 12.8763 17.6105 14.4708 16.4349 15.6465C15.2592 16.8222 13.6646 17.4827 12.002 17.4827ZM4.82812 20.2806H19.176V19.0806H4.82812V20.2806ZM5.73311 3.73047L5.73311 9.61047H6.93311L6.93311 3.73047H5.73311Z" fill="black"/>
</svg>
