<svg width="24" height="24" viewBox="0 0 24 24" fill="none" xmlns="http://www.w3.org/2000/svg">
<path fill-rule="evenodd" clip-rule="evenodd" d="M12.6709 14.2457L15.2284 16.8031C15.326 16.9008 15.4843 16.9008 15.5819 16.8031L16.0769 16.3082C16.1745 16.2105 16.1745 16.0522 16.0769 15.9546L12.5805 12.4583C12.3002 12.178 11.8457 12.178 11.5653 12.4583L8.06942 15.9541C7.97178 16.0517 7.97178 16.21 8.06941 16.3076L8.56438 16.8026C8.66201 16.9003 8.8203 16.9003 8.91793 16.8026L11.4709 14.2497L11.4714 20.5495C11.4714 20.6875 11.5834 20.7995 11.7215 20.7994L12.4215 20.7994C12.5595 20.7994 12.6714 20.6874 12.6714 20.5494L12.6709 14.2457Z" fill="black"/>
<path d="M7.03465 8.20356C7.03465 5.43971 9.2753 3.19922 12.0392 3.19922C14.8031 3.19922 17.0438 5.43971 17.0438 8.20356V9.33434C19.5424 9.33982 21.5663 11.3669 21.5663 13.8668C21.5663 15.9726 20.1307 17.7415 18.1858 18.2513L18.1484 18.2611L17.072 18.3993H13.8712L13.8711 17.143L14.3798 17.6517C14.9461 18.218 15.8642 18.218 16.4304 17.6517L16.9254 17.1567C17.4917 16.5904 17.4916 15.6724 16.9254 15.1061L13.429 11.6098C12.68 10.8609 11.4657 10.8609 10.7168 11.6098L7.22085 15.1056C6.65459 15.6718 6.65457 16.5899 7.22082 17.1562L7.71579 17.6512C8.28204 18.2175 9.20013 18.2175 9.7664 17.6512L10.2711 17.1465L10.2712 18.3993H7.00008L5.92887 18.2792L5.89184 18.2702C3.90743 17.7876 2.43359 15.9997 2.43359 13.866C2.43359 11.3627 4.46296 9.33354 6.96623 9.33354H7.03465V8.20356Z" fill="black"/>
</svg>
