<svg width="24" height="24" viewBox="0 0 24 24" fill="none" xmlns="http://www.w3.org/2000/svg">
<path fill-rule="evenodd" clip-rule="evenodd" d="M9.98355 3.71094C7.64286 3.71094 5.74536 5.60844 5.74536 7.94913C5.74536 10.2898 7.64286 12.1873 9.98355 12.1873C12.3242 12.1873 14.2217 10.2898 14.2217 7.94913C14.2217 5.60844 12.3242 3.71094 9.98355 3.71094ZM9.98354 13.7126C6.77541 13.7126 4.15787 16.2398 4.01264 19.4124C3.98987 19.9097 4.394 20.2899 4.8563 20.2899H15.1108C15.5731 20.2899 15.9772 19.9097 15.9545 19.4124C15.8092 16.2398 13.1917 13.7126 9.98354 13.7126Z" fill="black"/>
<path fill-rule="evenodd" clip-rule="evenodd" d="M19.9851 13.2899H13.9851V12.0899H19.9851V13.2899Z" fill="black"/>
</svg>
