<svg width="24" height="24" viewBox="0 0 24 24" fill="none" xmlns="http://www.w3.org/2000/svg">
<path d="M10.0148 3.71094C7.67411 3.71094 5.77661 5.60844 5.77661 7.94913C5.77661 10.2898 7.67411 12.1873 10.0148 12.1873C12.3555 12.1873 14.253 10.2898 14.253 7.94913C14.253 5.60844 12.3555 3.71094 10.0148 3.71094Z" fill="black"/>
<path d="M10.0148 13.7126C6.80666 13.7126 4.18912 16.2398 4.04389 19.4124C4.02112 19.9097 4.42525 20.2899 4.88755 20.2899H15.142C15.6043 20.2899 16.0085 19.9097 15.9857 19.4124C15.8405 16.2398 13.2229 13.7126 10.0148 13.7126Z" fill="black"/>
<path fill-rule="evenodd" clip-rule="evenodd" d="M15.4742 14.4846L13.6038 12.6142L14.4523 11.7657L16.0752 13.3885L19.1097 10.354L19.9582 11.2026L16.6762 14.4845C16.3443 14.8165 15.8061 14.8165 15.4742 14.4846Z" fill="black"/>
</svg>
