<svg width="24" height="24" viewBox="0 0 24 24" fill="none" xmlns="http://www.w3.org/2000/svg">
<path d="M12.1798 4.59689C12.9918 3.45771 14.3238 2.71484 15.8294 2.71484C18.3029 2.71484 20.3082 4.72007 20.3082 7.19363C20.3082 9.6672 18.3029 11.6724 15.8294 11.6724C15.1337 11.6724 14.4751 11.5138 13.8877 11.2308C14.1212 10.5856 14.2485 9.88948 14.2485 9.16367C14.2485 7.34348 13.448 5.71026 12.1798 4.59689Z" fill="black"/>
<path d="M21.7507 18.8995C21.6198 15.9195 19.1625 13.5437 16.1502 13.5437C14.6277 13.5437 13.2469 14.1506 12.2367 15.1358C13.6529 16.0732 14.726 17.4875 15.227 19.1497H21.5062C21.6442 19.1497 21.7567 19.0375 21.7507 18.8995Z" fill="black"/>
<path fill-rule="evenodd" clip-rule="evenodd" d="M8.17239 4.68481C5.69883 4.68481 3.6936 6.69004 3.6936 9.1636C3.6936 11.6372 5.69883 13.6424 8.17239 13.6424C10.646 13.6424 12.6512 11.6372 12.6512 9.1636C12.6512 6.69004 10.646 4.68481 8.17239 4.68481ZM2.25023 21.0336C2.38108 18.0536 4.83845 15.6777 7.85072 15.6777C10.863 15.6777 13.3204 18.0536 13.4512 21.0336C13.4573 21.1715 13.3448 21.2837 13.2067 21.2837H2.49475C2.35668 21.2837 2.24418 21.1715 2.25023 21.0336Z" fill="black"/>
</svg>
