<svg width="24" height="24" viewBox="0 0 24 24" fill="none" xmlns="http://www.w3.org/2000/svg">
<path fill-rule="evenodd" clip-rule="evenodd" d="M9.9838 3.71094C7.64311 3.71094 5.74561 5.60844 5.74561 7.94913C5.74561 10.2898 7.64311 12.1873 9.9838 12.1873C12.3245 12.1873 14.222 10.2898 14.222 7.94913C14.222 5.60844 12.3245 3.71094 9.9838 3.71094ZM9.98354 13.7126C6.77541 13.7126 4.15787 16.2398 4.01264 19.4124C3.98987 19.9097 4.394 20.2899 4.8563 20.2899H15.1108C15.5731 20.2899 15.9772 19.9097 15.9545 19.4124C15.8092 16.2398 13.1917 13.7126 9.98354 13.7126Z" fill="black"/>
<path fill-rule="evenodd" clip-rule="evenodd" d="M16.3852 13.2898V15.6899H17.5852V13.2898H19.9851V12.0898H17.5852V9.68994H16.3852V12.0898H13.9851V13.2898H16.3852Z" fill="black"/>
</svg>
