<svg width="24" height="24" viewBox="0 0 24 24" fill="none" xmlns="http://www.w3.org/2000/svg">
<path d="M10.214 3.71094C7.87333 3.71094 5.97583 5.60844 5.97583 7.94913C5.97583 10.2898 7.87333 12.1873 10.214 12.1873C12.5547 12.1873 14.4522 10.2898 14.4522 7.94913C14.4522 5.60844 12.5547 3.71094 10.214 3.71094Z" fill="black"/>
<path d="M10.214 13.7126C7.00588 13.7126 4.38834 16.2398 4.24311 19.4124C4.22034 19.9097 4.62447 20.2899 5.08677 20.2899H15.3413C15.8036 20.2899 16.2077 19.9097 16.1849 19.4124C16.0397 16.2398 13.4221 13.7126 10.214 13.7126Z" fill="black"/>
<path d="M17.2157 13.5385L18.9127 15.2355L19.7612 14.3869L18.0642 12.6899L19.7612 10.9929L18.9127 10.1444L17.2157 11.8414L15.5186 10.1443L14.67 10.9928L16.3672 12.6899L14.6701 14.387L15.5186 15.2356L17.2157 13.5385Z" fill="black"/>
</svg>
