<svg width="24" height="24" viewBox="0 0 24 24" fill="none" xmlns="http://www.w3.org/2000/svg">
<path fill-rule="evenodd" clip-rule="evenodd" d="M12 22C17.5228 22 22 17.5228 22 12C22 6.47715 17.5228 2 12 2C6.47715 2 2 6.47715 2 12C2 17.5228 6.47715 22 12 22ZM11.9997 15.0999C10.1219 15.0999 8.59966 16.6221 8.59966 18.4999H7.39966C7.39966 15.9594 9.45915 13.8999 11.9997 13.8999C14.5402 13.8999 16.5997 15.9594 16.5997 18.4999H15.3997C15.3997 16.6221 13.8774 15.0999 11.9997 15.0999ZM9.59966 9.1249C9.59966 7.79942 10.6742 6.7249 11.9997 6.7249C13.3251 6.7249 14.3997 7.79942 14.3997 9.1249C14.3997 10.4504 13.3251 11.5249 11.9997 11.5249C10.6742 11.5249 9.59966 10.4504 9.59966 9.1249ZM11.9997 5.5249C10.0114 5.5249 8.39966 7.13668 8.39966 9.1249C8.39966 11.1131 10.0114 12.7249 11.9997 12.7249C13.9879 12.7249 15.5997 11.1131 15.5997 9.1249C15.5997 7.13668 13.9879 5.5249 11.9997 5.5249Z" fill="black"/>
</svg>
