<svg width="24" height="24" viewBox="0 0 24 24" fill="none" xmlns="http://www.w3.org/2000/svg">
<path d="M3.02051 3.93837L3.86904 3.08984L20.8396 20.0604L19.9911 20.9089L3.02051 3.93837Z" fill="black"/>
<path d="M2.92484 5.53972C2.69475 5.69183 2.54297 5.95284 2.54297 6.24931V17.7493C2.54297 18.2188 2.92353 18.5993 3.39297 18.5993H14.893C15.1894 18.5993 15.4505 18.4475 15.6026 18.2174L2.92484 5.53972Z" fill="black"/>
<path d="M15.743 14.9637V16.6608L4.48148 5.39931H6.17854L15.743 14.9637Z" fill="black"/>
<path d="M17.8065 15.3303L16.7714 14.2951C16.7516 14.2229 16.7413 14.1476 16.7413 14.0712V9.92744C16.7413 9.66884 16.8591 9.42429 17.0612 9.26301L20.0804 6.85416C20.6371 6.40997 21.4605 6.80638 21.4605 7.51859V16.48C21.4605 17.1922 20.6371 17.5886 20.0804 17.1445L17.8065 15.3303Z" fill="black"/>
<path d="M15.743 13.2667L7.87559 5.39931H14.893C15.3624 5.39931 15.743 5.77987 15.743 6.24931V13.2667Z" fill="black"/>
</svg>
