<svg width="24" height="24" viewBox="0 0 24 24" fill="none" xmlns="http://www.w3.org/2000/svg">
<path fill-rule="evenodd" clip-rule="evenodd" d="M2.39844 12.0004C2.39844 9.80506 4.17811 8.02539 6.37344 8.02539C8.56877 8.02539 10.3484 9.80506 10.3484 12.0004C10.3484 13.08 9.91805 14.0591 9.21949 14.7754H14.6944C13.9958 14.0591 13.5654 13.08 13.5654 12.0004C13.5654 9.80506 15.3451 8.02539 17.5404 8.02539C19.7358 8.02539 21.5154 9.80506 21.5154 12.0004C21.5154 14.1957 19.7358 15.9754 17.5404 15.9754C17.5395 15.9754 17.5386 15.9754 17.5376 15.9754L6.37354 15.9754C6.3735 15.9754 6.37347 15.9754 6.37344 15.9754C4.17811 15.9754 2.39844 14.1957 2.39844 12.0004Z" fill="black"/>
</svg>
