<svg width="24" height="24" viewBox="0 0 24 24" fill="none" xmlns="http://www.w3.org/2000/svg">
<path d="M3.19922 11.9995C3.19922 11.0447 3.5785 10.1291 4.25363 9.45393C4.85778 8.84979 5.65452 8.48256 6.49956 8.412C7.02032 8.36852 7.39922 8.79471 7.39922 9.24951L7.39922 14.7495C7.39922 15.2043 7.02032 15.6305 6.49956 15.587C5.65452 15.5165 4.85778 15.1492 4.25363 14.5451C3.5785 13.87 3.19922 12.9543 3.19922 11.9995Z" fill="black"/>
<path d="M15.5993 4.53326C15.5993 3.81261 14.7588 3.41892 14.2052 3.88027L8.70502 8.46361C8.51122 8.62511 8.39917 8.86434 8.39917 9.11661V14.8824C8.39917 15.1347 8.51122 15.3739 8.70502 15.5354L14.2052 20.1188C14.7588 20.5801 15.5993 20.1864 15.5993 19.4658V4.53326Z" fill="black"/>
<path fill-rule="evenodd" clip-rule="evenodd" d="M19.7448 9.45393C20.4199 10.1291 20.7992 11.0447 20.7992 11.9995C20.7992 12.9543 20.4199 13.87 19.7448 14.5451C19.0697 15.2202 18.154 15.5995 17.1992 15.5995V14.3995C17.8357 14.3995 18.4462 14.1467 18.8963 13.6966C19.3464 13.2465 19.5992 12.636 19.5992 11.9995C19.5992 11.363 19.3464 10.7525 18.8963 10.3025C18.4462 9.85237 17.8357 9.59951 17.1992 9.59951V8.39951C18.154 8.39951 19.0697 8.7788 19.7448 9.45393Z" fill="black"/>
</svg>
