<svg width="24" height="24" viewBox="0 0 24 24" fill="none" xmlns="http://www.w3.org/2000/svg">
<path d="M2.02344 11.9995C2.02344 11.0447 2.40272 10.1291 3.07785 9.45393C3.682 8.84979 4.47874 8.48256 5.32378 8.412C5.84454 8.36852 6.22344 8.79471 6.22344 9.24951L6.22344 14.7495C6.22344 15.2043 5.84454 15.6305 5.32378 15.587C4.47874 15.5165 3.682 15.1492 3.07785 14.5451C2.40272 13.87 2.02344 12.9543 2.02344 11.9995Z" fill="black"/>
<path d="M14.4228 4.53326C14.4228 3.81261 13.5823 3.41892 13.0287 3.88027L7.52851 8.46361C7.33471 8.62511 7.22266 8.86434 7.22266 9.11661V14.8824C7.22266 15.1347 7.33471 15.3739 7.52851 15.5354L13.0287 20.1188C13.5823 20.5801 14.4228 20.1864 14.4228 19.4658V4.53326Z" fill="black"/>
<path fill-rule="evenodd" clip-rule="evenodd" d="M18.9605 12.848L21.1026 14.9902L21.9512 14.1417L19.809 11.9995L21.9512 9.85737L21.1026 9.00884L18.9605 11.151L16.8183 9.00884L15.9698 9.85737L18.1119 11.9995L15.9698 14.1417L16.8183 14.9902L18.9605 12.848Z" fill="black"/>
</svg>
