<svg width="24" height="24" viewBox="0 0 24 24" fill="none" xmlns="http://www.w3.org/2000/svg">
<path d="M2.02344 11.9995C2.02344 11.0447 2.40272 10.1291 3.07785 9.45393C3.682 8.84979 4.47874 8.48256 5.32378 8.412C5.84454 8.36852 6.22344 8.79471 6.22344 9.24951L6.22344 14.7495C6.22344 15.2043 5.84454 15.6305 5.32378 15.587C4.47874 15.5165 3.682 15.1492 3.07785 14.5451C2.40272 13.87 2.02344 12.9543 2.02344 11.9995Z" fill="black"/>
<path d="M14.4228 4.53326C14.4228 3.81261 13.5823 3.41892 13.0287 3.88027L7.52851 8.46361C7.33471 8.62511 7.22266 8.86434 7.22266 9.11661V14.8824C7.22266 15.1347 7.33471 15.3739 7.52851 15.5354L13.0287 20.1188C13.5823 20.5801 14.4228 20.1864 14.4228 19.4658V4.53326Z" fill="black"/>
<path fill-rule="evenodd" clip-rule="evenodd" d="M18.4267 9.59372C19.0648 10.2318 19.4232 11.0972 19.4232 11.9995C19.4232 12.9019 19.0648 13.7673 18.4267 14.4053C17.7887 15.0434 16.9233 15.4018 16.0209 15.4018V14.2018C16.605 14.2018 17.1652 13.9698 17.5782 13.5568C17.9912 13.1438 18.2232 12.5836 18.2232 11.9995C18.2232 11.4154 17.9912 10.8553 17.5782 10.4422C17.1652 10.0292 16.605 9.7972 16.0209 9.7972V8.5972C16.9233 8.5972 17.7887 8.95566 18.4267 9.59372Z" fill="black"/>
<path fill-rule="evenodd" clip-rule="evenodd" d="M20.2437 7.77731C21.3635 8.89711 21.9926 10.4159 21.9926 11.9995C21.9926 13.5831 21.3635 15.1019 20.2437 16.2217C19.1239 17.3415 17.6051 17.9706 16.0215 17.9706V16.7706C17.2869 16.7706 18.5004 16.2679 19.3952 15.3732C20.2899 14.4784 20.7926 13.2649 20.7926 11.9995C20.7926 10.7341 20.2899 9.52059 19.3952 8.62584C18.5004 7.73109 17.2869 7.22842 16.0215 7.22842V6.02842C17.6051 6.02842 19.1239 6.65751 20.2437 7.77731Z" fill="black"/>
</svg>
