<svg width="24" height="24" viewBox="0 0 24 24" fill="none" xmlns="http://www.w3.org/2000/svg">
<path d="M5.39844 11.9995C5.39844 11.0447 5.77772 10.1291 6.45285 9.45393C7.057 8.84979 7.85374 8.48256 8.69878 8.412C9.21954 8.36852 9.59844 8.79471 9.59844 9.24951V14.7495C9.59844 15.2043 9.21954 15.6305 8.69878 15.587C7.85374 15.5165 7.057 15.1492 6.45285 14.5451C5.77772 13.87 5.39844 12.9543 5.39844 11.9995Z" fill="black"/>
<path d="M17.7978 4.53326C17.7978 3.81261 16.9573 3.41892 16.4037 3.88027L10.9035 8.46361C10.7097 8.62511 10.5977 8.86434 10.5977 9.11661V14.8824C10.5977 15.1347 10.7097 15.3739 10.9035 15.5354L16.4037 20.1188C16.9573 20.5801 17.7978 20.1864 17.7978 19.4658V4.53326Z" fill="black"/>
</svg>
