<svg width="24" height="24" viewBox="0 0 24 24" fill="none" xmlns="http://www.w3.org/2000/svg">
<path d="M11.7483 2.75C10.3124 2.75 9.14834 3.91406 9.14834 5.35C9.14834 6.78594 10.3124 7.95 11.7483 7.95C13.1843 7.95 14.3483 6.78594 14.3483 5.35C14.3483 3.91406 13.1843 2.75 11.7483 2.75Z" fill="black"/>
<path fill-rule="evenodd" clip-rule="evenodd" d="M12.3483 8.65015V8.55005H11.1483V8.55121C8.65405 8.60446 6.64844 10.6431 6.64844 13.1501H7.84844C7.84844 11.3059 9.31687 9.80454 11.1483 9.75159V16.15C11.1483 18.304 9.40235 20.0501 7.24844 20.0501V21.2501C9.84992 21.2501 11.9965 19.3023 12.3092 16.7855C14.4745 17.061 16.1484 18.9101 16.1484 21.1501H17.3484C17.3484 18.26 15.159 15.8812 12.3483 15.5819V11.9365C13.2839 13.0456 14.6839 13.7501 16.2484 13.7501V12.5501C14.0945 12.5501 12.3483 10.8041 12.3483 8.65015Z" fill="black"/>
</svg>
