<svg width="24" height="24" viewBox="0 0 24 24" fill="none" xmlns="http://www.w3.org/2000/svg">
<path d="M16.0256 16.9519C14.9274 17.8458 13.5262 18.3816 11.9999 18.3816C10.4736 18.3816 9.07248 17.8458 7.97437 16.952C7.97445 16.9897 7.97684 17.0279 7.98165 17.0665L8.47826 21.0395C8.53619 21.5029 8.9301 21.8506 9.39709 21.8506H14.6028C15.0698 21.8506 15.4637 21.5029 15.5216 21.0395L16.0183 17.0665C16.0231 17.0279 16.0255 16.9897 16.0256 16.9519Z" fill="black"/>
<path d="M8.47826 2.96152C8.53619 2.49813 8.9301 2.15039 9.39709 2.15039H14.6028C15.0698 2.15039 15.4637 2.49813 15.5216 2.96151L16.0183 6.93455C16.0231 6.97304 16.0255 7.01121 16.0256 7.04893C14.9274 6.15504 13.5262 5.61914 11.9999 5.61914C10.4736 5.61914 9.07248 6.15499 7.97437 7.04882C7.97446 7.01114 7.97685 6.97301 7.98165 6.93456L8.47826 2.96152Z" fill="black"/>
<path fill-rule="evenodd" clip-rule="evenodd" d="M12 17.1919C14.8671 17.1919 17.1914 14.8676 17.1914 12.0005C17.1914 9.13335 14.8671 6.80908 12 6.80908C9.13287 6.80908 6.80859 9.13335 6.80859 12.0005C6.80859 14.8676 9.13287 17.1919 12 17.1919ZM11.3999 8.53174V11.8808C11.3999 12.1165 11.4936 12.3427 11.6603 12.5094L13.8881 14.7373L14.7367 13.8887L12.5999 11.752V8.53174H11.3999Z" fill="black"/>
</svg>
