<svg width="24" height="24" viewBox="0 0 24 24" fill="none" xmlns="http://www.w3.org/2000/svg">
<path d="M4.50269 5.35243L5.35121 4.50391L19.4933 18.646L18.6448 19.4946L4.50269 5.35243Z" fill="black"/>
<path fill-rule="evenodd" clip-rule="evenodd" d="M5.41815 8.53066C4.78789 8.96302 4.17384 9.47523 3.57422 10.0749L4.42275 10.9234C5.02855 10.3176 5.64724 9.81169 6.283 9.3955L5.41815 8.53066ZM8.51599 11.6285C7.8409 11.9787 7.19488 12.4542 6.57422 13.0749L7.42275 13.9234C8.06046 13.2857 8.71967 12.8317 9.41571 12.5282L8.51599 11.6285ZM11.3555 14.468L13.5321 16.6446C13.451 16.8382 13.3317 17.0196 13.174 17.1772C12.5248 17.8264 11.4722 17.8264 10.8229 17.1772C10.1737 16.5279 10.1737 15.4753 10.8229 14.826C10.9805 14.6684 11.1619 14.5491 11.3555 14.468ZM16.8038 13.6938L14.2876 11.1775C15.4599 11.5441 16.5382 12.1903 17.4228 13.0749L16.8038 13.6938ZM10.9379 7.82785C11.2853 7.7992 11.6387 7.78541 11.9985 7.78541C14.84 7.78541 17.565 8.91417 19.5742 10.9234L20.4228 10.0749C18.1885 7.8406 15.1582 6.58541 11.9985 6.58541C11.2659 6.58541 10.554 6.63837 9.86132 6.75128L10.9379 7.82785Z" fill="black"/>
</svg>
