<svg width="24" height="24" viewBox="0 0 24 24" fill="none" xmlns="http://www.w3.org/2000/svg">
<path fill-rule="evenodd" clip-rule="evenodd" d="M3.57422 10.0754C6.0856 7.56401 8.85 6.58594 11.9985 6.58594C15.1582 6.58594 18.1885 7.84113 20.4228 10.0754L19.5742 10.9239C17.565 8.9147 14.84 7.78594 11.9985 7.78594C9.14581 7.78594 6.69369 8.65297 4.42275 10.9239L3.57422 10.0754Z" fill="black"/>
<path fill-rule="evenodd" clip-rule="evenodd" d="M6.57422 13.0754C8.18891 11.4607 9.97522 10.8286 11.9985 10.8286C14.033 10.8286 15.9842 11.6368 17.4228 13.0754L16.5742 13.9239C15.3607 12.7104 13.7147 12.0286 11.9985 12.0286C10.271 12.0286 8.797 12.5497 7.42275 13.9239L6.57422 13.0754Z" fill="black"/>
<path fill-rule="evenodd" clip-rule="evenodd" d="M10.8229 14.8266C11.4722 14.1773 12.5248 14.1773 13.174 14.8266C13.8233 15.4758 13.8233 16.5285 13.174 17.1777C12.5248 17.827 11.4722 17.827 10.8229 17.1777C10.1737 16.5285 10.1737 15.4758 10.8229 14.8266Z" fill="black"/>
</svg>
